<?xml version="1.0" encoding="utf-8"?>
<!-- Generated by IcoMoon.io -->
<!DOCTYPE svg PUBLIC "-//W3C//DTD SVG 1.1//EN" "http://www.w3.org/Graphics/SVG/1.1/DTD/svg11.dtd">
<svg version="1.1" xmlns="http://www.w3.org/2000/svg" xmlns:xlink="http://www.w3.org/1999/xlink" width="10" height="16" viewBox="0 0 10 16">
<path d="M8.214 15.995v0c0.519-0.002 0.989-0.212 1.331-0.55 0.341-0.329 0.554-0.79 0.554-1.3s-0.212-0.972-0.553-1.3l-4.982-4.845 4.987-4.855c0.342-0.329 0.554-0.79 0.554-1.3s-0.212-0.972-0.553-1.3c-0.346-0.337-0.818-0.545-1.339-0.545s-0.993 0.208-1.339 0.545l-6.323 6.152c-0.342 0.33-0.554 0.792-0.554 1.303s0.212 0.974 0.554 1.303l6.324 6.153c0.342 0.339 0.811 0.548 1.33 0.55h0z"></path>
</svg>
