<?xml version="1.0" encoding="utf-8"?>
<!-- Generated by IcoMoon.io -->
<!DOCTYPE svg PUBLIC "-//W3C//DTD SVG 1.1//EN" "http://www.w3.org/Graphics/SVG/1.1/DTD/svg11.dtd">
<svg version="1.1" xmlns="http://www.w3.org/2000/svg" xmlns:xlink="http://www.w3.org/1999/xlink" width="10" height="16" viewBox="0 0 10 16">
<path d="M1.887 16v0c-0.519-0.002-0.989-0.212-1.331-0.55-0.342-0.329-0.554-0.79-0.554-1.301s0.212-0.972 0.553-1.3l4.989-4.857-4.994-4.851c-0.337-0.328-0.545-0.786-0.545-1.293s0.209-0.964 0.545-1.292c0.347-0.335 0.819-0.54 1.34-0.54s0.993 0.206 1.34 0.541l6.325 6.138c0.342 0.33 0.554 0.792 0.554 1.304s-0.212 0.974-0.554 1.303l-6.326 6.161c-0.342 0.338-0.812 0.548-1.331 0.55h-0z"></path>
</svg>
