<?xml version="1.0" encoding="utf-8"?>
<!-- Generated by IcoMoon.io -->
<!DOCTYPE svg PUBLIC "-//W3C//DTD SVG 1.1//EN" "http://www.w3.org/Graphics/SVG/1.1/DTD/svg11.dtd">
<svg version="1.1" xmlns="http://www.w3.org/2000/svg" xmlns:xlink="http://www.w3.org/1999/xlink" width="16" height="16" viewBox="0 0 16 16">
<path d="M13.463 2.134h-0.819v-0.769c-0.018-0.428-0.368-0.768-0.8-0.768s-0.782 0.341-0.8 0.767v0.769h-6.074v-0.768c-0.018-0.428-0.369-0.768-0.8-0.768s-0.782 0.341-0.8 0.767v0.769h-0.819c-1.399 0-2.536 1-2.536 2.403v8.117c0 1.399 1.137 2.584 2.536 2.584h10.908c1.399 0 2.537-1.185 2.537-2.584v-8.117c0.001-1.399-1.136-2.402-2.535-2.402zM2.555 3.571h0.82v0.584c0.018 0.428 0.369 0.768 0.8 0.768s0.782-0.341 0.8-0.767v-0.586h6.072v0.584c0.018 0.428 0.368 0.769 0.8 0.769s0.782-0.341 0.8-0.767v-0.586h0.819c0.56 0 0.939 0.405 0.939 0.965v1.272h-12.787v-1.272c0-0.56 0.384-0.965 0.938-0.965zM13.463 13.799h-10.908c-0.56 0-0.938-0.586-0.938-1.146v-5.25h12.785v5.25c0 0.561-0.379 1.148-0.938 1.148z"></path>
</svg>
