<?xml version="1.0" encoding="utf-8"?>
<!-- Generated by IcoMoon.io -->
<!DOCTYPE svg PUBLIC "-//W3C//DTD SVG 1.1//EN" "http://www.w3.org/Graphics/SVG/1.1/DTD/svg11.dtd">
<svg version="1.1" xmlns="http://www.w3.org/2000/svg" xmlns:xlink="http://www.w3.org/1999/xlink" width="16" height="16" viewBox="0 0 16 16">
<path d="M12.667 2.667q0.287 0 0.477 0.19t0.19 0.477q0 0.281-0.193 0.474l-4.198 4.193 4.198 4.193q0.193 0.193 0.193 0.474 0 0.287-0.19 0.477t-0.477 0.19q-0.281 0-0.474-0.193l-4.193-4.198-4.193 4.198q-0.193 0.193-0.474 0.193-0.287 0-0.477-0.19t-0.19-0.477q0-0.281 0.193-0.474l4.198-4.193-4.198-4.193q-0.193-0.193-0.193-0.474 0-0.287 0.19-0.477t0.477-0.19q0.281 0 0.474 0.193l4.193 4.198 4.193-4.198q0.193-0.193 0.474-0.193z"></path>
</svg>
