<?xml version="1.0" encoding="utf-8"?>
<!-- Generated by IcoMoon.io -->
<!DOCTYPE svg PUBLIC "-//W3C//DTD SVG 1.1//EN" "http://www.w3.org/Graphics/SVG/1.1/DTD/svg11.dtd">
<svg version="1.1" xmlns="http://www.w3.org/2000/svg" xmlns:xlink="http://www.w3.org/1999/xlink" width="16" height="16" viewBox="0 0 16 16">
<path d="M8.66 10.765c0 0.331-0.269 0.6-0.6 0.6s-0.6-0.269-0.6-0.6c0-0.331 0.269-0.6 0.6-0.6s0.6 0.269 0.6 0.6z"></path>
<path d="M7.95 9.5c-0.001 0-0.002 0-0.003 0-0.287 0-0.523-0.218-0.552-0.498l-0-0.782c0.047-0.281 0.285-0.494 0.574-0.5l0.621-0c0.658-0.037 1.177-0.58 1.177-1.243 0-0.022-0.001-0.043-0.002-0.065-0.037-0.711-0.614-1.279-1.328-1.302-0.022-0.001-0.046-0.002-0.069-0.002-0.653 0-1.199 0.462-1.327 1.078-0.077 0.195-0.257 0.324-0.466 0.324-0.234 0-0.43-0.16-0.485-0.377 0.138-1.137 1.094-2.005 2.253-2.005 0.034 0 0.067 0.001 0.101 0.002 1.229 0.007 2.231 0.987 2.275 2.211 0.001 0.023 0.001 0.046 0.001 0.069 0 1.179-0.949 2.136-2.125 2.15l-0.096 0v0.42c-0.021 0.289-0.258 0.515-0.55 0.52z"></path>
<path d="M13.245 15.195c-0.004 0-0.009 0-0.014 0-0.107 0-0.209-0.024-0.3-0.067-1.931-0.863-2.831-1.263-3.051-1.328h-3.81c-3.304-0.024-5.984-2.665-6.070-5.952-0-0.026-0-0.047-0-0.067 0-1.653 0.669-3.15 1.75-4.236 1.141-1.157 2.723-1.876 4.473-1.885h3.632c1.724 0.002 3.284 0.705 4.41 1.84 1.072 1.057 1.736 2.524 1.736 4.146 0 0.023-0 0.045-0 0.068-0.011 1.993-0.986 3.759-2.483 4.855 0.158 0.632 0.358 1.252 0.483 1.672 0.014 0.053 0.022 0.114 0.022 0.176 0 0.238-0.114 0.449-0.29 0.582-0.122 0.122-0.289 0.196-0.472 0.196-0.005 0-0.010-0-0.015-0zM6.245 2.635c-0.004-0-0.009-0-0.014-0-1.487 0-2.831 0.61-3.795 1.594-0.888 0.893-1.437 2.123-1.437 3.481 0 0.039 0 0.077 0.001 0.115 0.055 2.763 2.298 4.989 5.067 5.019l3.878 0c0.135 0 0.245 0 2.97 1.24-0.135-0.465-0.31-1-0.465-1.57-0.013-0.040-0.020-0.087-0.020-0.135 0-0.166 0.087-0.312 0.218-0.394 1.428-0.916 2.367-2.484 2.392-4.272l0-0.004c0-0 0-0 0-0 0-1.369-0.558-2.607-1.46-3.5-0.95-0.957-2.266-1.55-3.72-1.55h-3.635z"></path>
<path d="M4.385 11.475c-0.080-0.005-0.155-0.021-0.225-0.047-1.333-0.701-2.23-2.081-2.23-3.671 0-0.001 0-0.002 0-0.003 0.002-0.575 0.116-1.123 0.32-1.624 0.001-0.238 0.22-0.449 0.489-0.449 0.276 0 0.5 0.224 0.5 0.5 0 0.121-0.043 0.233-0.115 0.319-0.15 0.36-0.24 0.778-0.244 1.217 0.001 1.23 0.695 2.296 1.712 2.828 0.171 0.086 0.275 0.243 0.275 0.424 0 0.082-0.021 0.159-0.059 0.226-0.069 0.163-0.231 0.278-0.419 0.278-0.002 0-0.003-0-0.005-0z"></path>
</svg>
