<?xml version="1.0" encoding="utf-8"?>
<!-- Generated by IcoMoon.io -->
<!DOCTYPE svg PUBLIC "-//W3C//DTD SVG 1.1//EN" "http://www.w3.org/Graphics/SVG/1.1/DTD/svg11.dtd">
<svg version="1.1" xmlns="http://www.w3.org/2000/svg" xmlns:xlink="http://www.w3.org/1999/xlink" width="16" height="16" viewBox="0 0 16 16">
<path d="M8.003 0c-4.418 0-8 3.582-8 8s3.582 8 8 8c4.418 0 8-3.582 8-8s-3.582-8-8-8zM8.792 13.52c-0.242 0.059-0.52 0.092-0.805 0.092-0.965 0-1.841-0.384-2.483-1.007-0.563-0.531-0.943-1.252-1.037-2.061-0.020-0.157-0.031-0.32-0.031-0.485 0-0.389 0.060-0.764 0.171-1.116 0.002-0.040 0.058-0.090 0.126-0.090 0.011 0 0.022 0.001 0.033 0.004 1.094 0.040 2.056 0.578 2.67 1.392l0.052 0.070 0.024 0.021v-1.523c-0.076-0.021-0.158-0.043-0.238-0.070-0.975-0.298-1.69-1.144-1.79-2.171-0.012-0.095-0.019-0.193-0.019-0.292 0-0.002 0-0.003 0-0.005q0-1.054 0-2.111c-0.001-0.009-0.001-0.020-0.001-0.031 0-0.231 0.187-0.417 0.417-0.417 0.125 0 0.238 0.055 0.314 0.143l0.75 0.774 0.101-0.091 0.673-0.67c0.078-0.099 0.199-0.163 0.334-0.163s0.255 0.063 0.333 0.162l0.729 0.735 0.082-0.076 0.701-0.692c0.076-0.076 0.18-0.123 0.296-0.123 0.23 0 0.417 0.187 0.417 0.417 0 0.004-0 0.007-0 0.011 0 0.725 0 1.45 0 2.178-0.018 1.181-0.829 2.168-1.923 2.454l-0.128 0.031v1.523c0.082-0.101 0.152-0.192 0.225-0.274 0.615-0.715 1.506-1.176 2.506-1.218 0.017-0.002 0.028-0.004 0.039-0.004 0.073 0 0.134 0.054 0.145 0.125 0.114 0.331 0.18 0.712 0.18 1.109 0 1.71-1.223 3.134-2.841 3.446z"></path>
</svg>
