<?xml version="1.0" encoding="utf-8"?>
<!-- Generated by IcoMoon.io -->
<!DOCTYPE svg PUBLIC "-//W3C//DTD SVG 1.1//EN" "http://www.w3.org/Graphics/SVG/1.1/DTD/svg11.dtd">
<svg version="1.1" xmlns="http://www.w3.org/2000/svg" xmlns:xlink="http://www.w3.org/1999/xlink" width="16" height="16" viewBox="0 0 16 16">
<path d="M7.896 0c-0.191 0.012-0.341 0.169-0.341 0.362 0 0.2 0.162 0.363 0.363 0.363s0.362-0.162 0.363-0.362c-0.007-0.202-0.172-0.363-0.375-0.363-0.003 0-0.007 0-0.010 0z"></path>
<path d="M9.286 4.576h-2.565c-0.396 0.003-0.716 0.325-0.716 0.722 0 0.001 0 0.002 0 0.003v5.404c-0 0.002-0 0.004-0 0.006 0 0.396 0.32 0.717 0.716 0.719h2.565c0.394-0.002 0.713-0.322 0.713-0.716 0-0.003-0-0.006-0-0.010v-5.407c0-0.001 0-0.002 0-0.003 0-0.395-0.318-0.716-0.713-0.719z"></path>
<path d="M8.003 0c-4.418 0-8 3.582-8 8s3.582 8 8 8c4.417 0 7.998-3.58 8-7.997 0-0.001 0-0.002 0-0.003 0-4.418-3.582-8-8-8 0 0 0 0 0 0zM11.107 11.686c-0.035 0.553-0.493 0.989-1.052 0.989-0.020 0-0.040-0.001-0.060-0.002l-4 0c-0.017 0.001-0.037 0.002-0.057 0.002-0.559 0-1.017-0.435-1.052-0.986l-0-7.379c0.035-0.552 0.492-0.986 1.049-0.986 0.021 0 0.042 0.001 0.063 0.002l3.988-0c0.018-0.001 0.039-0.002 0.060-0.002 0.557 0 1.014 0.434 1.049 0.983l0 7.382z"></path>
<path d="M8.35 12.015c0 0.193-0.157 0.35-0.35 0.35s-0.35-0.157-0.35-0.35c0-0.193 0.157-0.35 0.35-0.35s0.35 0.157 0.35 0.35z"></path>
</svg>
