<?xml version="1.0" encoding="utf-8"?>
<!-- Generated by IcoMoon.io -->
<!DOCTYPE svg PUBLIC "-//W3C//DTD SVG 1.1//EN" "http://www.w3.org/Graphics/SVG/1.1/DTD/svg11.dtd">
<svg version="1.1" xmlns="http://www.w3.org/2000/svg" xmlns:xlink="http://www.w3.org/1999/xlink" width="31" height="16" viewBox="0 0 31 16">
<path d="M15.393 1.205c-0.596 0.001-1.078 0.484-1.078 1.080s0.484 1.080 1.080 1.080c0.573 0 1.042-0.447 1.078-1.011 0.002-0.026 0.003-0.052 0.003-0.079 0-0.591-0.479-1.070-1.070-1.070-0.004 0-0.009 0-0.013 0zM15.393 3.267c-0.537-0.007-0.969-0.444-0.969-0.982 0-0.542 0.44-0.982 0.982-0.982 0.005 0 0.009 0 0.014 0 0.536 0.008 0.967 0.445 0.967 0.982 0 0.542-0.44 0.982-0.982 0.982-0.005 0-0.010-0-0.015-0z"></path>
<path d="M7.345 5.209c0.023-0.077 0.043-0.154 0.065-0.232-0.007-0.002-0.015-0.003-0.023-0.004-0.351-0-0.702-0-1.051-0-0.002-0-0.004-0-0.006-0-0.024 0-0.044 0.018-0.048 0.042-0.044 0.148-0.089 0.296-0.134 0.444-0.113 0.376-0.226 0.751-0.34 1.126-0.046 0.152-0.048 0.151-0.206 0.151h-0.935l0.526-1.756c-0.004-0.003-0.010-0.005-0.015-0.008-0.35-0-0.701-0-1.051-0-0.018 0.003-0.033 0.015-0.041 0.031-0.028 0.091-0.051 0.184-0.078 0.275q-0.216 0.713-0.434 1.427-0.145 0.48-0.289 0.955-0.195 0.649-0.388 1.298c-0.060 0.191-0.116 0.382-0.175 0.577h1.102l0.614-2.035h1.094l-0.61 2.036h1.128c0-0.012 0.002-0.023 0.004-0.034 0.112-0.37 0.225-0.742 0.338-1.113 0.087-0.29 0.172-0.581 0.259-0.871q0.209-0.694 0.42-1.387 0.138-0.461 0.277-0.922z"></path>
<path d="M9.6 6.994c-0.019-0.206-0.108-0.368-0.292-0.464-0.203-0.111-0.444-0.176-0.7-0.176-0.015 0-0.030 0-0.045 0.001-0.27 0.007-0.517 0.109-0.708 0.275-0.22 0.194-0.396 0.435-0.511 0.709 0.254 0.013 0.505 0.013 0.755 0.013 0.017-0.002 0.031-0.011 0.041-0.024 0.023-0.037 0.039-0.078 0.060-0.115 0.083-0.13 0.18-0.244 0.343-0.274 0.016-0.004 0.034-0.006 0.052-0.006 0.138 0 0.25 0.112 0.25 0.25 0 0.011-0.001 0.021-0.002 0.031-0.017 0.103-0.051 0.196-0.1 0.279-0.049 0.092-0.149 0.157-0.264 0.157-0.004 0-0.008-0-0.012-0-0.013-0.001-0.028-0.001-0.044-0.001-0.081 0-0.161 0.009-0.237 0.027-0.205 0.041-0.386 0.092-0.561 0.154-0.224 0.087-0.446 0.237-0.585 0.476-0.126 0.204-0.2 0.451-0.2 0.715 0 0.006 0 0.012 0 0.018-0 0.003-0 0.008-0 0.013 0 0.123 0.030 0.239 0.082 0.342 0.077 0.141 0.187 0.256 0.365 0.266 0.049 0.004 0.107 0.006 0.164 0.006s0.115-0.002 0.172-0.006c0.16-0.013 0.313-0.066 0.445-0.15 0.075-0.047 0.151-0.104 0.236-0.162 0.004 0.097 0.008 0.186 0.013 0.275h0.773c-0.008-0.058-0.012-0.124-0.012-0.192 0-0.010 0-0.021 0-0.031 0.014-0.155 0.032-0.312 0.060-0.466 0.032-0.18 0.067-0.36 0.115-0.534s0.113-0.334 0.169-0.501c0.095-0.295 0.205-0.586 0.178-0.905zM8.493 8.415c-0.018 0.159-0.055 0.305-0.111 0.442-0.056 0.143-0.22 0.272-0.378 0.268-0.004 0-0.008 0-0.012 0-0.118 0-0.22-0.068-0.269-0.166-0.075-0.159-0.078-0.322 0.035-0.458 0.073-0.079 0.159-0.144 0.257-0.191 0.132-0.062 0.281-0.097 0.438-0.097 0.014 0 0.028 0 0.043 0.001-0.001 0.020-0.001 0.044-0.001 0.068 0 0.047-0.002 0.093-0.005 0.14z"></path>
<path d="M12.204 6.461c-0.084-0.047-0.183-0.077-0.288-0.082-0.047-0.007-0.099-0.011-0.153-0.011-0.163 0-0.318 0.038-0.455 0.106l0.031-0.127h-0.849l-0.937 3.3c0.271 0 0.532 0 0.793 0 0.022-0.003 0.040-0.016 0.050-0.035 0.137-0.46 0.274-0.919 0.406-1.38 0.1-0.346 0.19-0.696 0.293-1.041 0.035-0.12 0.085-0.24 0.24-0.254s0.283 0.048 0.277 0.229c-0.003 0.112-0.019 0.22-0.047 0.322-0.061 0.233-0.135 0.474-0.206 0.716-0.107 0.36-0.215 0.72-0.322 1.080l-0.109 0.363h0.61c0.055 0 0.124 0.018 0.16-0.008s0.043-0.098 0.060-0.151c0.093-0.305 0.186-0.61 0.277-0.916q0.167-0.564 0.331-1.129c0.060-0.208 0.104-0.42 0.049-0.636-0.035-0.136-0.091-0.268-0.211-0.346z"></path>
<path d="M17.495 6.466c-0.001-0-0.002-0-0.003-0-0.025 0-0.045 0.020-0.045 0.045 0 0.001 0 0.002 0 0.003-0.026 0.11-0.051 0.22-0.079 0.329-0.103 0.399-0.203 0.799-0.311 1.196-0.050 0.223-0.12 0.42-0.212 0.604-0.083 0.148-0.206 0.276-0.398 0.309-0.014 0.004-0.030 0.006-0.046 0.006-0.099 0-0.18-0.081-0.18-0.18 0-0.004 0-0.009 0-0.013 0.008-0.064 0.022-0.123 0.042-0.178q0.122-0.444 0.247-0.894c0.097-0.343 0.195-0.686 0.292-1.029 0.017-0.060 0.034-0.12 0.051-0.184h-0.947c-0.019 0.072-0.036 0.143-0.055 0.214q-0.143 0.534-0.287 1.067c-0.072 0.27-0.145 0.54-0.214 0.81-0.054 0.208-0.11 0.42-0.101 0.635 0 0.001-0 0.002-0 0.003 0 0.14 0.071 0.263 0.179 0.336 0.189 0.126 0.405 0.147 0.62 0.148 0.125-0.005 0.242-0.026 0.354-0.063 0.089-0.033 0.172-0.070 0.251-0.113l-0.031 0.082c-0.065 0.24-0.128 0.48-0.197 0.716-0.039 0.154-0.086 0.287-0.143 0.413-0.069 0.157-0.238 0.275-0.435 0.275-0.008 0-0.016-0-0.024-0.001-0.688 0-1.379 0-2.065 0-0.12 0-0.235 0-0.352 0-0.003-0.001-0.007-0.001-0.010-0.001-0.025 0-0.045 0.020-0.046 0.045-0.021 0.097-0.052 0.191-0.078 0.287-0.034 0.127-0.067 0.253-0.102 0.385h0.044q1.62 0 3.244 0c0.057-0.004 0.11-0.016 0.159-0.036 0.165-0.061 0.302-0.174 0.394-0.318 0.071-0.099 0.129-0.208 0.172-0.325 0.071-0.207 0.119-0.413 0.175-0.615q0.11-0.395 0.22-0.79 0.134-0.48 0.266-0.96c0.081-0.29 0.163-0.58 0.244-0.87q0.152-0.542 0.296-1.076c0.023-0.085 0.047-0.169 0.072-0.259-0.326 0-0.643 0.001-0.961-0.001z"></path>
<path d="M13.62 9.575c0.030-0.018 0.060-0.038 0.096-0.060v0.116c0.006 0.003 0.013 0.005 0.020 0.006 0.248 0 0.495 0 0.742 0 0.001 0 0.002 0 0.003 0 0.025 0 0.046-0.020 0.047-0.046 0.027-0.097 0.056-0.194 0.083-0.291q0.116-0.412 0.232-0.824l0.294-1.037 0.232-0.824q0.145-0.517 0.292-1.036c0.060-0.205 0.114-0.411 0.172-0.619h-0.892l-0.401 1.747c-0.081-0.163-0.227-0.283-0.403-0.327-0.064-0.016-0.124-0.026-0.184-0.038-0.042-0.009-0.090-0.015-0.139-0.015-0.109 0-0.211 0.026-0.302 0.072-0.198 0.102-0.35 0.278-0.418 0.492-0.091 0.274-0.159 0.55-0.235 0.823-0.083 0.3-0.161 0.596-0.247 0.893-0.060 0.17-0.095 0.366-0.095 0.57 0 0.015 0 0.029 0.001 0.044 0.006 0.144 0.087 0.271 0.204 0.342 0.095 0.057 0.206 0.095 0.324 0.108 0.049 0.009 0.101 0.014 0.155 0.014 0.155 0 0.3-0.041 0.425-0.114zM13.432 8.645c0.106-0.377 0.211-0.755 0.319-1.132 0.047-0.18 0.095-0.327 0.151-0.47 0.020-0.059 0.103-0.121 0.199-0.121 0.028 0 0.055 0.005 0.080 0.015 0.072 0.026 0.125 0.093 0.13 0.174 0.010 0.126-0.035 0.241-0.065 0.357-0.131 0.497-0.263 0.995-0.4 1.491-0.037 0.136-0.11 0.212-0.23 0.215-0.132 0.004-0.254-0.073-0.254-0.268 0.026-0.088 0.049-0.175 0.073-0.262z"></path>
<path d="M22.894 4.973c-0.374 0-0.749 0-1.124 0-0.022 0.004-0.041 0.018-0.052 0.036-0.139 0.23-0.276 0.461-0.414 0.69q-0.287 0.48-0.575 0.955l-1.797 2.993c0.324 0 0.639 0 0.954 0 0.021-0.005 0.038-0.018 0.049-0.035q0.331-0.514 0.66-1.029c0.017-0.032 0.050-0.053 0.088-0.053 0.003 0 0.006 0 0.009 0 0.399-0 0.798-0 1.196-0h0.069v1.126h0.891c0.006-0.068 0.016-0.132 0.017-0.196 0.005-0.334 0.009-0.667 0.013-1q0.006-0.515 0.012-1.030c0.004-0.334 0.008-0.667 0.012-1q0.007-0.691 0.012-1.38c0-0.023 0-0.047 0-0.068-0.006-0.003-0.013-0.006-0.020-0.008zM21.953 7.835h-0.921l0.92-1.68v1.68z"></path>
<path d="M25.298 6.48c-0.020 0.067-0.034 0.135-0.052 0.209-0.088-0.12-0.18-0.223-0.32-0.263-0.073-0.021-0.157-0.034-0.244-0.034-0.068 0-0.133 0.007-0.197 0.022-0.206 0.039-0.383 0.166-0.488 0.341-0.080 0.127-0.155 0.271-0.22 0.421-0.121 0.293-0.219 0.615-0.285 0.948-0.046 0.23-0.081 0.427-0.119 0.624-0.022 0.099-0.035 0.213-0.035 0.329 0 0.078 0.006 0.154 0.016 0.229 0.018 0.128 0.095 0.243 0.202 0.314 0.097 0.059 0.21 0.102 0.33 0.12 0.053 0.011 0.107 0.018 0.163 0.018 0.133 0 0.258-0.035 0.366-0.097 0.006-0.004 0.017-0.008 0.029-0.008 0.003 0 0.006 0 0.009 0.001 0.010 0.012 0.016 0.027 0.016 0.044 0 0.001-0 0.002-0 0.003-0.007 0.043-0.014 0.081-0.024 0.117-0.046 0.198-0.097 0.403-0.23 0.574-0.041 0.060-0.108 0.098-0.185 0.098-0.015 0-0.029-0.001-0.043-0.004-0.076-0.015-0.133-0.082-0.135-0.162-0.003-0.045-0.004-0.097-0.004-0.15s0.001-0.105 0.004-0.157l-0.72 0.007c-0.038 0-0.042 0.021-0.042 0.051 0 0.085 0 0.17 0 0.255-0.005 0.18 0.085 0.307 0.221 0.409 0.2 0.149 0.437 0.189 0.676 0.203 0.040 0.003 0.086 0.005 0.133 0.005 0.118 0 0.234-0.011 0.347-0.031 0.32-0.058 0.576-0.224 0.669-0.577 0.086-0.326 0.175-0.65 0.262-0.976 0.076-0.283 0.15-0.566 0.226-0.85q0.13-0.485 0.26-0.97 0.12-0.445 0.24-0.889c0.020-0.074 0.037-0.148 0.060-0.227-0.284 0-0.559 0-0.834 0-0.025 0.007-0.045 0.027-0.050 0.052zM24.973 7.649q-0.146 0.628-0.3 1.255c-0.024 0.101-0.076 0.187-0.187 0.21-0.019 0.006-0.041 0.010-0.063 0.010-0.067 0-0.126-0.030-0.166-0.078-0.030-0.051-0.056-0.11-0.073-0.172 0.032-0.138 0.062-0.257 0.092-0.376 0.099-0.389 0.194-0.78 0.3-1.168 0.041-0.151 0.114-0.24 0.257-0.24 0.003-0 0.006-0 0.009-0 0.106 0 0.193 0.086 0.193 0.193 0 0.002-0 0.004-0 0.006-0.014 0.135-0.036 0.257-0.066 0.375z"></path>
<path d="M28.479 6.517c-0.155-0.12-0.345-0.138-0.532-0.145-0.002-0-0.005-0-0.008-0-0.113 0-0.225 0.008-0.334 0.024-0.301 0.028-0.569 0.2-0.729 0.448-0.212 0.313-0.314 0.664-0.386 1.024-0.050 0.249-0.080 0.503-0.111 0.755-0.013 0.080-0.020 0.173-0.020 0.268 0 0.141 0.016 0.277 0.046 0.409 0.041 0.161 0.123 0.31 0.302 0.374 0.085 0.030 0.186 0.056 0.29 0.073 0.092 0.019 0.187 0.028 0.285 0.028 0.074 0 0.147-0.006 0.218-0.017 0.21-0.039 0.399-0.141 0.545-0.286 0.11-0.108 0.203-0.233 0.277-0.37 0.093-0.169 0.165-0.354 0.211-0.55l-0.727-0.015c-0.067 0.196-0.143 0.381-0.315 0.507-0.044 0.033-0.1 0.052-0.16 0.052-0.084 0-0.159-0.038-0.208-0.098-0.052-0.060-0.040-0.127-0.031-0.198 0.027-0.242 0.080-0.463 0.155-0.672-0-0.014 0.030-0.040 0.066-0.040 0.004 0 0.007 0 0.011 0.001 0.412-0 0.826-0 1.239-0 0.004 0.001 0.008 0.001 0.012 0.001 0.030 0 0.054-0.024 0.054-0.054 0-0.001-0-0.001-0-0.002 0.017-0.132 0.040-0.263 0.060-0.395 0.029-0.146 0.046-0.313 0.046-0.485 0-0.080-0.004-0.158-0.011-0.236-0.022-0.16-0.112-0.306-0.242-0.401zM27.891 7.388c-0.010 0.065-0.025 0.123-0.045 0.179-0.006 0.011-0.021 0.025-0.041 0.029-0.134 0-0.267 0-0.409 0 0.050-0.18 0.092-0.36 0.149-0.529 0.043-0.131 0.213-0.169 0.335-0.089 0.023 0.018 0.038 0.044 0.040 0.075-0.005 0.114-0.015 0.225-0.029 0.336z"></path>
<path d="M19.653 7.26c0.046-0.145 0.088-0.292 0.133-0.443-0.3 0-0.59 0-0.881 0-0.001-0-0.002-0-0.004-0-0.028 0-0.050 0.022-0.051 0.049-0.037 0.123-0.075 0.246-0.112 0.369-0.016 0.052-0.028 0.105-0.044 0.164h0.767c0.146 0.002 0.148 0.002 0.191-0.139z"></path>
<path d="M15.090 2.383c0.103 0 0.202 0 0.3 0 0.017 0.003 0.031 0.014 0.039 0.027 0.106 0.163 0.21 0.328 0.315 0.492 0.009 0.017 0.024 0.030 0.041 0.036 0.066 0.004 0.131 0 0.205 0l-0.36-0.565c0.188-0.052 0.221-0.104 0.259-0.2 0.020-0.055 0.032-0.119 0.032-0.185 0-0.005-0-0.009-0-0.014 0.001-0.006 0.001-0.014 0.001-0.022 0-0.176-0.142-0.319-0.318-0.32-0.229-0.015-0.461-0.004-0.696-0.004v1.308h0.18v-0.554zM15.090 1.788c0.155 0 0.308-0.005 0.461 0.003 0.053 0.009 0.099 0.034 0.135 0.069 0.076 0.064 0.073 0.153 0.044 0.236-0.021 0.069-0.084 0.119-0.158 0.12-0.159 0.005-0.317 0-0.48 0v-0.428z"></path>
<path d="M0.44 8.294c0.027 0.195 0.065 0.368 0.116 0.536 0.072 0.266 0.184 0.52 0.328 0.752 0.122 0.2 0.258 0.384 0.41 0.554 0.15 0.171 0.317 0.327 0.498 0.465 0.141 0.108 0.292 0.21 0.448 0.302 0.165 0.095 0.338 0.179 0.517 0.252 0.206 0.082 0.39 0.131 0.57 0.191q0.355 0.12 0.708 0.245c0.283 0.1 0.563 0.202 0.846 0.3 0.443 0.155 0.887 0.309 1.33 0.465 0.283 0.099 0.563 0.202 0.846 0.3 0.43 0.151 0.86 0.3 1.291 0.452 0.295 0.104 0.59 0.21 0.886 0.314 0.432 0.152 0.865 0.3 1.296 0.454 0.28 0.099 0.56 0.2 0.84 0.3 0.441 0.155 0.883 0.308 1.324 0.464 0.353 0.124 0.706 0.251 1.059 0.375 0.443 0.155 0.887 0.309 1.33 0.464 0.12 0.042 0.24 0.088 0.36 0.133h0.070c0.003-0.005 0.007-0.009 0.011-0.012l0.622-0.22 1.313-0.457 1.065-0.376 1.111-0.389 1.064-0.376 1.080-0.378 2.17-0.764c0.355-0.125 0.71-0.251 1.065-0.376 0.443-0.155 0.887-0.309 1.33-0.464 0.211-0.074 0.42-0.152 0.633-0.226 0.224-0.079 0.446-0.168 0.675-0.23 0.426-0.113 0.8-0.274 1.142-0.48 0.361-0.218 0.685-0.497 0.954-0.823 0.202-0.241 0.371-0.508 0.503-0.797 0.125-0.279 0.212-0.578 0.254-0.89 0.020-0.14 0.030-0.282 0.030-0.427 0-0.109-0.006-0.217-0.017-0.323-0.022-0.132-0.038-0.278-0.070-0.422-0.072-0.308-0.18-0.579-0.321-0.829-0.148-0.274-0.333-0.524-0.549-0.743-0.145-0.144-0.3-0.28-0.462-0.406-0.316-0.244-0.668-0.438-1.048-0.573-0.244-0.087-0.467-0.152-0.686-0.228-0.438-0.152-0.875-0.307-1.313-0.461l-7.8-2.745c-0.355-0.125-0.71-0.251-1.065-0.376-0.444-0.158-0.885-0.309-1.331-0.464-0.12-0.042-0.24-0.088-0.36-0.133h-0.070c-0.003 0.005-0.007 0.009-0.011 0.012l-2.405 0.847c-0.278 0.098-0.556 0.198-0.835 0.296-0.43 0.151-0.86 0.3-1.291 0.452-0.365 0.128-0.728 0.259-1.093 0.387-0.432 0.152-0.865 0.3-1.296 0.454-0.28 0.098-0.56 0.2-0.84 0.3-0.441 0.155-0.883 0.308-1.324 0.464-0.353 0.122-0.708 0.248-1.060 0.373-0.368 0.131-0.74 0.262-1.111 0.389q-0.526 0.18-1.053 0.353c-0.354 0.115-0.659 0.255-0.945 0.424-0.376 0.223-0.714 0.514-0.993 0.854-0.182 0.221-0.337 0.465-0.458 0.727-0.197 0.423-0.307 0.895-0.307 1.392 0 0.123 0.007 0.244 0.020 0.364zM15.413 15.211c-0.283-0.097-0.565-0.2-0.847-0.3-0.43-0.151-0.86-0.3-1.29-0.452-0.284-0.1-0.568-0.202-0.852-0.3-0.441-0.155-0.883-0.308-1.324-0.464-0.278-0.098-0.557-0.198-0.835-0.296l-2.401-0.845q-0.66-0.232-1.32-0.463c-0.353-0.124-0.706-0.251-1.060-0.375-0.441-0.155-0.883-0.308-1.324-0.464-0.224-0.079-0.447-0.163-0.672-0.24-0.176-0.060-0.355-0.111-0.531-0.172-0.235-0.086-0.438-0.187-0.627-0.308-0.261-0.159-0.498-0.35-0.706-0.569-0.178-0.188-0.334-0.398-0.464-0.624-0.138-0.239-0.242-0.497-0.305-0.771-0.026-0.115-0.047-0.238-0.062-0.362-0.012-0.106-0.012-0.197-0.015-0.287-0-0.013-0-0.029-0-0.045 0-0.256 0.038-0.502 0.109-0.735 0.105-0.367 0.279-0.702 0.508-0.991 0.1-0.13 0.206-0.251 0.319-0.365 0.209-0.204 0.443-0.383 0.698-0.531 0.301-0.17 0.63-0.307 0.976-0.404 0.292-0.082 0.543-0.188 0.8-0.279 0.419-0.144 0.831-0.285 1.243-0.432 0.283-0.099 0.563-0.202 0.846-0.3 0.443-0.156 0.887-0.309 1.33-0.464 0.284-0.1 0.568-0.202 0.852-0.3l1.285-0.451c0.284-0.1 0.568-0.202 0.852-0.3 0.441-0.155 0.883-0.308 1.324-0.464 0.283-0.1 0.563-0.202 0.846-0.3 0.443-0.156 0.887-0.31 1.33-0.465 0.283-0.099 0.564-0.2 0.846-0.3 0.157-0.056 0.313-0.115 0.47-0.167 0.019-0.006 0.041-0.010 0.063-0.010s0.044 0.004 0.065 0.010c0.355 0.12 0.709 0.249 1.065 0.374l3.455 1.215c0.284 0.1 0.568 0.202 0.852 0.3 0.441 0.155 0.883 0.308 1.324 0.464 0.283 0.1 0.563 0.202 0.846 0.3 0.443 0.156 0.887 0.309 1.33 0.465 0.283 0.099 0.563 0.202 0.846 0.3 0.43 0.151 0.861 0.3 1.291 0.452 0.283 0.1 0.563 0.202 0.846 0.3 0.228 0.080 0.46 0.148 0.686 0.234 0.298 0.116 0.556 0.265 0.787 0.445 0.148 0.112 0.285 0.232 0.414 0.359 0.213 0.214 0.394 0.459 0.538 0.728 0.112 0.207 0.2 0.428 0.26 0.66 0.030 0.131 0.054 0.271 0.069 0.414 0.013 0.105 0.014 0.194 0.020 0.282-0.002 0.418-0.095 0.814-0.259 1.171-0.12 0.259-0.272 0.498-0.452 0.712-0.217 0.261-0.472 0.488-0.756 0.674-0.24 0.161-0.501 0.293-0.777 0.391-0.232 0.078-0.444 0.138-0.652 0.209-0.435 0.149-0.868 0.304-1.302 0.456l-2.17 0.766c-0.284 0.1-0.568 0.202-0.852 0.3-0.441 0.155-0.883 0.308-1.324 0.464-0.283 0.1-0.563 0.202-0.846 0.3-0.443 0.156-0.887 0.309-1.33 0.465-0.283 0.099-0.563 0.202-0.846 0.3-0.43 0.151-0.861 0.3-1.291 0.452-0.283 0.1-0.564 0.201-0.846 0.3-0.306 0.109-0.612 0.219-0.92 0.324-0.023 0.009-0.049 0.014-0.076 0.014-0.020 0-0.039-0.003-0.057-0.008z"></path>
</svg>
