<?xml version="1.0" encoding="utf-8"?>
<!-- Generated by IcoMoon.io -->
<!DOCTYPE svg PUBLIC "-//W3C//DTD SVG 1.1//EN" "http://www.w3.org/Graphics/SVG/1.1/DTD/svg11.dtd">
<svg version="1.1" xmlns="http://www.w3.org/2000/svg" xmlns:xlink="http://www.w3.org/1999/xlink" width="18" height="16" viewBox="0 0 18 16">
<path d="M6.129 9.648h2.344v1.85h-2.344v-1.85z"></path>
<path d="M9.554 12.775h2.344v1.85h-2.344v-1.85z"></path>
<path d="M6.191 12.775h2.344v1.85h-2.344v-1.85z"></path>
<path d="M0 9.082c0 0.004-0 0.008-0 0.012 0 2.551 1.054 4.855 2.751 6.501l0.002-6.644h-1.31l8.342-4.875 2.22 1.673v-2.347h2.947v4.584l1.31 0.982h-1.31v7.033c1.97-1.677 3.212-4.158 3.212-6.93 0-5.016-4.066-9.082-9.082-9.082s-9.082 4.066-9.082 9.082c0 0.004 0 0.008 0 0.013z"></path>
<path d="M9.491 9.648h2.344v1.85h-2.344v-1.85z"></path>
</svg>
