<?xml version="1.0" encoding="utf-8"?>
<!-- Generated by IcoMoon.io -->
<!DOCTYPE svg PUBLIC "-//W3C//DTD SVG 1.1//EN" "http://www.w3.org/Graphics/SVG/1.1/DTD/svg11.dtd">
<svg version="1.1" xmlns="http://www.w3.org/2000/svg" xmlns:xlink="http://www.w3.org/1999/xlink" width="11" height="16" viewBox="0 0 11 16">
<path fill="#fff" d="M11.13 5.855c-0.162 0.925-0.523 1.776-0.968 2.596-0.788 1.451-1.749 2.785-2.775 4.072-0.552 0.692-1.137 1.359-1.706 2.038-0.034 0.040-0.061 0.084-0.112 0.155-0.514-0.611-1.012-1.184-1.489-1.773-1.155-1.425-2.246-2.893-3.12-4.511-0.425-0.787-0.798-1.596-0.928-2.494-0.008-0.031-0.018-0.058-0.031-0.084l0.001-0.758c0.014-0.040 0.027-0.090 0.037-0.141 0.327-2.32 1.6-3.87 3.783-4.665 0.406-0.148 0.849-0.195 1.274-0.289h0.939c0.039 0.014 0.089 0.027 0.14 0.038 2.332 0.337 3.897 1.613 4.681 3.824 0.139 0.394 0.185 0.821 0.274 1.233v0.76zM5.557 13.721c0.068-0.076 0.121-0.128 0.167-0.185 0.738-0.925 1.498-1.833 2.209-2.779 0.837-1.113 1.588-2.283 2.145-3.569 0.348-0.805 0.492-1.632 0.328-2.503-0.385-2.030-1.933-3.579-3.962-3.959-1.954-0.366-3.967 0.517-5.038 2.23-0.608 0.972-0.881 2.032-0.681 3.177 0.118 0.68 0.417 1.3 0.738 1.905 0.815 1.54 1.848 2.931 2.934 4.286 0.372 0.471 0.765 0.927 1.159 1.401z"></path>
<path fill="#fff" d="M4.917 16c-0.402-0.059-0.814-0.089-1.207-0.186-0.531-0.135-0.98-0.288-1.413-0.471-0.14-0.060-0.327-0.222-0.481-0.387-0.243-0.262-0.245-0.587 0-0.845 0.171-0.178 0.37-0.328 0.591-0.441 0.296-0.148 0.608-0.232 0.906-0.342 0.127-0.045 0.221-0.016 0.313 0.089 0.112 0.127 0.244 0.236 0.405 0.388-0.256 0.054-0.458 0.085-0.653 0.139-0.243 0.067-0.492 0.126-0.715 0.236-0.146 0.072-0.25 0.23-0.373 0.349 0.121 0.12 0.223 0.297 0.367 0.35 0.396 0.143 0.805 0.272 1.219 0.337 1.38 0.215 2.759 0.197 4.119-0.156 0.255-0.069 0.478-0.167 0.682-0.292 0.229-0.138 0.234-0.356-0.017-0.476-0.345-0.165-0.719-0.268-1.084-0.386-0.134-0.045-0.274-0.054-0.469-0.089 0.185-0.183 0.337-0.338 0.496-0.486 0.022-0.013 0.049-0.021 0.078-0.021 0.016 0 0.031 0.002 0.046 0.007 0.5 0.121 0.989 0.279 1.399 0.605 0.492 0.39 0.484 0.861-0.018 1.24-0.569 0.43-1.244 0.586-1.928 0.707-0.32 0.057-0.645 0.089-0.968 0.134h-1.295z"></path>
<path fill="#fff" d="M7.519 5.542c0 0.002 0 0.005 0 0.008 0 1.080-0.876 1.956-1.956 1.956s-1.956-0.876-1.956-1.956c0-1.076 0.869-1.949 1.944-1.955 0.006-0 0.012-0 0.018-0 1.076 0 1.948 0.872 1.949 1.947zM5.543 6.855c0.004 0 0.009 0 0.014 0 0.721 0 1.306-0.585 1.306-1.306s-0.585-1.306-1.306-1.306c-0.716 0-1.297 0.576-1.306 1.289-0 0.004-0 0.007-0 0.011 0 0.717 0.576 1.3 1.29 1.311z"></path>
<path opacity="0.4" fill="#fff" d="M10.91 4.961c-0.045 0.458-0.078 0.917-0.139 1.373-0.032 0.269-0.095 0.515-0.186 0.746-0.172 0.42-0.411 0.836-0.584 1.276-0.395 1.009-1.085 1.825-1.728 2.668-0.77 1.009-1.594 1.977-2.395 2.963l-0.058-0.030v-6.749c0.14-0.028 0.28-0.045 0.414-0.085 0.78-0.223 1.255-0.923 1.191-1.746-0.059-0.746-0.676-1.361-1.463-1.448-0.106-0.012-0.163-0.035-0.163-0.155 0.003-1.109 0.002-2.219 0.004-3.328 0.006-0.040 0.015-0.076 0.028-0.111 0.446 0.093 0.897 0.155 1.331 0.272 0.289 0.078 0.557 0.232 0.834 0.354 0.679 0.297 1.217 0.766 1.736 1.291 0.457 0.462 0.776 0.949 0.883 1.593 0.060 0.363 0.194 0.713 0.295 1.069v0.045z"></path>
<path opacity="0.4" fill="#fff" d="M1.882 16v-2.264h1.922v2.263h-1.922z"></path>
</svg>
