<?xml version="1.0" encoding="utf-8"?>
<!-- Generated by IcoMoon.io -->
<!DOCTYPE svg PUBLIC "-//W3C//DTD SVG 1.1//EN" "http://www.w3.org/Graphics/SVG/1.1/DTD/svg11.dtd">
<svg version="1.1" xmlns="http://www.w3.org/2000/svg" xmlns:xlink="http://www.w3.org/1999/xlink" width="23" height="16" viewBox="0 0 23 16">
<path d="M0.13 8v-0.33c0.022-0.954 0.398-1.815 1.002-2.462 0.377-0.39 0.829-0.71 1.331-0.937 0.697-0.271 1.327-0.621 1.947-0.931l4.59-2.25c0.48-0.24 1-0.49 1.46-0.71 0.309-0.146 0.672-0.231 1.054-0.231 0.43 0 0.835 0.108 1.189 0.298l3.067 1.553 1.82 0.9 3.090 1.52c0.457 0.223 0.849 0.497 1.192 0.822 0.452 0.429 0.77 0.999 0.885 1.64 0.067 0.314 0.103 0.654 0.103 1.003 0 0.605-0.11 1.184-0.311 1.719-0.3 0.751-0.843 1.387-1.532 1.807-0.207 0.129-0.417 0.219-0.617 0.329l-3.32 1.67-2.9 1.45-1.43 0.7c-0.361 0.179-0.786 0.284-1.235 0.284s-0.874-0.105-1.252-0.291c-0.523-0.233-1.043-0.513-1.573-0.773l-3.88-1.88-2.62-1.26c-0.78-0.378-1.381-1.025-1.692-1.817-0.22-0.528-0.347-1.114-0.358-1.729-0-0.005-0-0.007-0-0.009 0-0.030-0.004-0.060-0.011-0.088s0.001 0.003 0.001 0.003zM6.33 13h2.34c0.006 0.002 0.013 0.003 0.020 0.003 0.044 0 0.080-0.036 0.080-0.080 0-0.001-0-0.002-0-0.003 0.080-0.38 0.16-0.77 0.24-1.15l0.52-2.53 0.11-0.5h3.24l-0.88 4.26h2.34c0.003 0.001 0.007 0.001 0.011 0.001 0.035 0 0.065-0.026 0.069-0.060 0-0.090 0-0.18 0.050-0.27l0.63-3.1 0.67-3.22 0.62-3 0.070-0.35h-2.4l-0.77 3.71h-3.23l0.76-3.71h-2.4z"></path>
</svg>
