<?xml version="1.0" encoding="utf-8"?>
<!-- Generated by IcoMoon.io -->
<!DOCTYPE svg PUBLIC "-//W3C//DTD SVG 1.1//EN" "http://www.w3.org/Graphics/SVG/1.1/DTD/svg11.dtd">
<svg version="1.1" xmlns="http://www.w3.org/2000/svg" xmlns:xlink="http://www.w3.org/1999/xlink" width="25" height="16" viewBox="0 0 25 16">
<path opacity="0.4" fill="#fff" d="M24.579 6.223v0c-0.040-0.38-0.148-0.727-0.31-1.041-0.213-0.421-0.509-0.79-0.867-1.085-0.351-0.288-0.757-0.515-1.198-0.663l-9.697-3.414h-0.056c-0.035-0.005-0.076-0.007-0.118-0.007s-0.082 0.003-0.123 0.008c-0.093 0.007-0.183 0.029-0.268 0.063l-9.167 3.24-0.22 0.051-0.461 0.164c-0.506 0.217-0.935 0.526-1.283 0.909-0.219 0.25-0.403 0.534-0.542 0.842-0.138 0.293-0.231 0.608-0.269 0.94l-0.001 0.121c-0.001 0.011-0.001 0.023-0.001 0.036s0 0.025 0.001 0.038l-0 0.398c-0.001 0.011-0.001 0.023-0.001 0.036s0 0.025 0.001 0.038l-0 0.050c-0.001 0.015-0.002 0.032-0.002 0.049s0.001 0.034 0.002 0.051c0.054 0.451 0.195 0.862 0.407 1.227 0.2 0.336 0.456 0.634 0.755 0.882 0.329 0.281 0.708 0.503 1.122 0.652l1.92 0.643 7.278 2.607c-0.194 0.036-0.366 0.107-0.517 0.208-0.119-0.103-0.266-0.18-0.427-0.222-0.1-0.025-0.206-0.038-0.315-0.038-0.286 0-0.551 0.090-0.768 0.243-0.114-0.105-0.26-0.177-0.421-0.207-0.102-0.028-0.213-0.044-0.328-0.044s-0.226 0.016-0.331 0.045l-0.058-0.002c-0.058-0.336-0.348-0.589-0.697-0.589h-0.236c-0.033-0.006-0.071-0.009-0.11-0.009s-0.077 0.003-0.114 0.009l-0.052-0.001c-0.091 0.039-0.169 0.091-0.236 0.154-0.048-0.023-0.106-0.044-0.166-0.060-0.181-0.078-0.384-0.122-0.597-0.122-0.092 0-0.182 0.008-0.27 0.024-0.589 0.083-1.063 0.532-1.183 1.111-0.019 0.086-0.029 0.174-0.029 0.265s0.010 0.179 0.029 0.264c-0.128 0.113-0.206 0.282-0.206 0.47 0 0.001 0 0.002 0 0.003v0.205c0.023 0.589 0.454 1.070 1.017 1.172 0.118 0.027 0.246 0.042 0.376 0.042h0.159c0.213-0.021 0.407-0.081 0.582-0.173 0.104 0.079 0.241 0.125 0.389 0.132l0.36 0c0.080-0.003 0.155-0.019 0.225-0.048 0.071 0.033 0.158 0.053 0.25 0.058l0.289 0c0.089-0.001 0.173-0.018 0.251-0.048 0.078 0.037 0.174 0.059 0.275 0.063l0.237 0c0.014 0.001 0.031 0.002 0.047 0.002 0.155 0 0.299-0.051 0.415-0.136 0.089 0.058 0.196 0.103 0.309 0.128 0.11 0.027 0.228 0.042 0.349 0.042 0.004 0 0.008-0 0.012-0 0.278-0.004 0.535-0.093 0.746-0.243 0.126 0.101 0.281 0.174 0.449 0.211 0.104 0.025 0.215 0.039 0.328 0.039 0.631 0 1.165-0.417 1.341-0.99 0.004-0.029 0.005-0.051 0.005-0.074s-0.001-0.045-0.003-0.067c0.017-0.034 0.031-0.076 0.040-0.121 0.034-0.142 0.053-0.3 0.053-0.463 0-0.075-0.004-0.149-0.012-0.221-0.029-0.32-0.192-0.606-0.432-0.798l0.966-0.345c-0.132 0.109-0.227 0.259-0.265 0.43s-0.001 0.036-0.001 0.056l-0.031 0.154c-0.015 0.054-0.024 0.117-0.024 0.181 0 0.188 0.073 0.359 0.193 0.485 0.038 0.038 0.079 0.071 0.125 0.1l-0.105 0.719c-0.009 0.043-0.015 0.093-0.015 0.144 0 0.182 0.068 0.349 0.179 0.476 0.129 0.137 0.309 0.226 0.509 0.24l0.34 0c0 0 0.001 0 0.001 0 0.176 0 0.336-0.068 0.455-0.18 0.158 0.126 0.354 0.211 0.568 0.235l0.174 0c0.306-0.002 0.587-0.105 0.812-0.279 0.139 0.119 0.312 0.203 0.502 0.242l0.074 0.001c0.035 0.004 0.076 0.007 0.118 0.007s0.082-0.002 0.123-0.007c0.056 0.009 0.126 0.014 0.197 0.014s0.142-0.005 0.21-0.014c0.2-0.067 0.378-0.176 0.525-0.317l0.040 0.062c0.131 0.156 0.325 0.256 0.542 0.261l0.329 0c0.334-0.008 0.607-0.258 0.65-0.58l0.338-2.052c0.011-0.048 0.017-0.102 0.017-0.158 0-0.173-0.061-0.333-0.162-0.458-0.12-0.155-0.302-0.259-0.509-0.275l-0.187-0c-0.015-0.001-0.032-0.002-0.050-0.002-0.268 0-0.502 0.141-0.635 0.352l-0.053 0.003c-0.114-0.14-0.261-0.251-0.428-0.32l-0.084-0.003c-0.124-0.044-0.267-0.070-0.415-0.070-0.103 0-0.204 0.012-0.3 0.036-0.188 0.046-0.359 0.131-0.506 0.246-0.157-0.142-0.358-0.238-0.58-0.268-0.062-0.009-0.127-0.014-0.193-0.014-0.28 0-0.538 0.090-0.749 0.242-0.091-0.094-0.211-0.159-0.345-0.186l6.505-2.321 0.722-0.241c0.418-0.137 0.781-0.323 1.108-0.556 0.494-0.353 0.89-0.838 1.137-1.404 0.146-0.322 0.235-0.671 0.254-1.039 0.007-0.086 0.010-0.179 0.010-0.272 0-0.132-0.007-0.263-0.022-0.391zM3.344 8.271v0zM1.956 7.042c-0.036 0.113-0.067 0.225-0.097 0.333l-0.036 0.113-0.072-0.108c-0.1-0.169-0.168-0.369-0.189-0.583-0.007-0.058-0.011-0.119-0.011-0.181 0-0.186 0.036-0.364 0.101-0.526 0.063-0.171 0.152-0.327 0.261-0.465 0.156-0.201 0.348-0.372 0.567-0.503l0.040-0.005zM3.652 8.41c0.076 0.069 0.169 0.12 0.272 0.147 0.030 0.006 0.059 0.009 0.089 0.009s0.059-0.003 0.087-0.008l0.868 0c0.138-0 0.265-0.042 0.371-0.114 0.116 0.096 0.26 0.165 0.417 0.195 0.098 0.020 0.204 0.031 0.312 0.031 0.167 0 0.327-0.026 0.478-0.074 0.045 0.021 0.11 0.033 0.178 0.034l0.59 0c0.022 0.003 0.048 0.004 0.074 0.004s0.052-0.002 0.077-0.004c0.061 0.024 0.134 0.039 0.211 0.041l0.58 0c0.033 0.006 0.071 0.009 0.11 0.009s0.077-0.003 0.114-0.010l0.037 0.001c0.067 0.025 0.144 0.040 0.225 0.041h0.538c0.036 0.008 0.077 0.013 0.119 0.013 0.153 0 0.292-0.062 0.393-0.162l-0 0c0.085 0.052 0.184 0.098 0.288 0.131-0.034 0.069-0.067 0.146-0.087 0.228l-0.124 0.461c-0.014 0.051-0.022 0.109-0.022 0.169 0 0.366 0.296 0.664 0.662 0.666h2.51c0.152-0.003 0.296-0.033 0.428-0.085 0.365-0.163 0.649-0.474 0.772-0.858 0.049-0.148 0.085-0.281 0.121-0.415l0.123-0.415c0.029 0.030 0.061 0.057 0.095 0.080 0.112 0.082 0.249 0.13 0.398 0.13 0.003 0 0.006-0 0.009-0h0.717c0.257-0.002 0.481-0.137 0.608-0.34l0.34-0.515v0.195c0 0.368 0.298 0.666 0.666 0.666h0.215v0.041c0.077 0.364 0.325 0.657 0.653 0.796l-5.924 2.097h-0.056l-1.408-0.512-7.268-2.561c0.055-0.031 0.102-0.067 0.144-0.108zM11.708 3.677h-0.036c-0.189 0.069-0.34 0.203-0.428 0.375-0.018 0.041-0.033 0.084-0.042 0.128l-0.113 0.563c-0.022-0.001-0.047-0.002-0.073-0.002-0.131 0-0.257 0.018-0.378 0.050-0.152 0.054-0.291 0.136-0.412 0.24-0.095-0.078-0.21-0.136-0.335-0.169-0.139-0.054-0.293-0.089-0.453-0.099l-0.173-0c-0.025-0.003-0.053-0.005-0.082-0.005s-0.057 0.002-0.085 0.005l-0.688-0c-0.208 0.006-0.392 0.106-0.511 0.26-0.114-0.071-0.246-0.128-0.387-0.161-0.168-0.060-0.352-0.094-0.544-0.094-0.135 0-0.267 0.017-0.393 0.049l0.088-0.269c0.018-0.058 0.029-0.124 0.029-0.193 0-0.244-0.132-0.458-0.328-0.574l1.815-0.678 2.535-0.886c-0 0.013-0.001 0.028-0.001 0.043 0 0.648 0.409 1.201 0.984 1.413zM13.695 2.141l4.343 1.536h-0.881c-0.263 0.004-0.491 0.145-0.618 0.355l-0.688 1.125c-0.076-0.032-0.165-0.051-0.257-0.051-0.005 0-0.010 0-0.015 0l-0.46-0c-0.092-0.119-0.221-0.206-0.369-0.245-0.033-0.006-0.066-0.009-0.099-0.009s-0.066 0.003-0.098 0.008l-0.826-0-0.123 0.031c-0.078-0.036-0.169-0.059-0.265-0.061l-0.226-0 0.041-0.154 0.046-0.169c0.013-0.049 0.020-0.106 0.020-0.164 0-0.309-0.211-0.57-0.497-0.644l-0.046-0.001c0.586-0.211 1.002-0.753 1.024-1.396 0-0.064 0-0.105 0-0.146zM21.147 4.907l-0.149 0.082c-0.113-0.099-0.262-0.16-0.424-0.164l-0.564-0c-0.028-0.004-0.060-0.006-0.092-0.006s-0.064 0.002-0.096 0.006c-0.064-0.024-0.143-0.041-0.224-0.046-0.051-0.006-0.107-0.010-0.163-0.010-0.269 0-0.52 0.078-0.731 0.213l0.006-0.003v-0.63c-0.005-0.21-0.108-0.394-0.265-0.511l1.985 0.7 0.901 0.323zM20.41 8.656l0.046-0.21c0.070 0.059 0.149 0.11 0.234 0.151l-0.301 0.11zM12.164 2.325c-0.005-0.011-0.008-0.025-0.008-0.038s0.003-0.027 0.008-0.039c-0-0-0-0.002-0-0.003 0-0.042 0.025-0.078 0.061-0.094l0.001-0c0 0 0 0 0 0 0.054 0 0.097 0.044 0.097 0.097-0.005 0.053-0.049 0.094-0.102 0.094-0.021 0-0.041-0.006-0.057-0.017z"></path>
<path fill="#fff" d="M6.443 13.127c-0.096-0.039-0.207-0.061-0.324-0.061-0.067 0-0.132 0.007-0.194 0.021-0.313 0.044-0.565 0.284-0.628 0.593-0.012 0.043-0.019 0.086-0.019 0.131 0 0.197 0.123 0.364 0.296 0.431l0.229 0.057c0.154 0.040 0.278 0.080 0.4 0.126 0.050 0.017 0.104 0.088 0.104 0.171 0 0.040-0.012 0.077-0.033 0.107-0.037 0.067-0.096 0.119-0.166 0.147-0.067 0.028-0.142 0.044-0.22 0.044-0.042 0-0.084-0.005-0.124-0.013-0.106-0.014-0.195-0.085-0.236-0.182-0.013-0.042-0.026-0.091-0.035-0.143-0.006-0.024-0.017-0.036-0.032-0.044l-0.354-0v0.169c-0 0.001-0 0.003-0 0.004 0 0.297 0.222 0.543 0.509 0.579 0.054 0.009 0.112 0.014 0.172 0.014s0.118-0.005 0.175-0.015c0.32-0.013 0.595-0.219 0.709-0.506 0.050-0.082 0.078-0.175 0.078-0.274 0-0.252-0.182-0.461-0.421-0.504l-0.326-0.093c-0.096-0.008-0.185-0.026-0.27-0.054-0.036-0.018-0.067-0.063-0.067-0.114 0-0.017 0.003-0.033 0.009-0.048l-0 0.001c0.026-0.083 0.091-0.146 0.172-0.169 0.051-0.016 0.107-0.026 0.166-0.026s0.115 0.009 0.168 0.026c0.109 0.018 0.195 0.113 0.201 0.229l0 0.062h0.389c0.006-0.032 0.009-0.069 0.009-0.106 0-0.242-0.143-0.452-0.349-0.548l-0.004-0.002z"></path>
<path fill="#fff" d="M17.782 13.106c-0.058-0.019-0.125-0.030-0.195-0.030s-0.136 0.011-0.199 0.031c-0.297 0.047-0.525 0.305-0.525 0.616 0 0.156 0.057 0.298 0.151 0.408l-0.037-0.001c-0.197 0.119-0.336 0.317-0.373 0.549-0.007 0.035-0.011 0.070-0.011 0.107 0 0.239 0.164 0.44 0.386 0.496l0.004 0.001c0.056 0.013 0.121 0.021 0.187 0.021s0.131-0.008 0.193-0.022c0.3-0.085 0.52-0.362 0.52-0.69 0-0.049-0.005-0.097-0.014-0.143-0.029-0.13-0.104-0.244-0.208-0.322l-0.001-0.001c0.171-0.103 0.296-0.267 0.347-0.461 0.013-0.044 0.020-0.089 0.020-0.135 0-0.189-0.114-0.352-0.277-0.423l-0.003-0.001zM17.521 14.755c-0.050 0.113-0.162 0.191-0.291 0.191-0.022 0-0.044-0.002-0.064-0.007-0.090-0.019-0.158-0.099-0.158-0.195 0-0.009 0.001-0.017 0.002-0.025 0.006-0.107 0.058-0.202 0.137-0.265l0.124-0.093c0.019-0.018 0.045-0.030 0.074-0.030s0.055 0.011 0.074 0.030l-0-0c0.092 0.052 0.153 0.149 0.153 0.26 0 0.047-0.011 0.092-0.031 0.131l0.001-0.002zM17.629 13.567c-0.018 0.142-0.112 0.259-0.238 0.311-0.007 0.004-0.012 0.005-0.018 0.005s-0.011-0.002-0.016-0.004c-0.083-0.044-0.139-0.127-0.143-0.225-0.001-0.007-0.001-0.015-0.001-0.022 0-0.124 0.094-0.227 0.215-0.239l0.078-0c0.077 0.003 0.138 0.066 0.138 0.143 0 0.002-0 0.004-0 0.005v-0z"></path>
<path fill="#fff" d="M16.036 13.055c-0.028-0.005-0.060-0.007-0.093-0.007-0.143 0-0.275 0.049-0.379 0.131-0.229 0.17-0.377 0.441-0.377 0.746 0 0.031 0.002 0.062 0.004 0.092 0.005 0.275 0.233 0.498 0.512 0.498 0.096 0 0.187-0.027 0.264-0.073l0.039 0.001c-0.039 0.149-0.102 0.279-0.187 0.392-0.029 0.032-0.064 0.063-0.103 0.088-0.025 0.016-0.054 0.024-0.085 0.024-0.052 0-0.098-0.025-0.127-0.064-0.015-0.025-0.026-0.055-0.031-0.086-0.002-0.021-0.002-0.043-0.002-0.065s0.001-0.045 0.002-0.067c-0.006-0.015-0.019-0.030-0.036-0.038l-0.369-0c-0.002 0.031-0.003 0.068-0.003 0.105s0.001 0.074 0.003 0.11c0.012 0.214 0.175 0.391 0.386 0.425 0.032 0.005 0.065 0.007 0.1 0.007 0.158 0 0.303-0.055 0.417-0.146 0.124-0.102 0.223-0.233 0.288-0.382 0.109-0.219 0.186-0.466 0.221-0.727 0.021-0.098 0.032-0.196 0.032-0.297s-0.011-0.199-0.032-0.293c-0.044-0.184-0.194-0.332-0.384-0.375l-0.060-0.001zM16.118 13.813v0.051c0.001 0.009 0.002 0.019 0.002 0.030 0 0.055-0.022 0.104-0.059 0.139-0.077 0.074-0.182 0.12-0.297 0.123-0.090-0-0.166-0.063-0.185-0.147-0.009-0.039-0.014-0.082-0.014-0.126 0-0.15 0.058-0.286 0.153-0.387 0.034-0.062 0.1-0.104 0.175-0.104 0.102 0 0.186 0.076 0.198 0.175 0.016 0.068 0.029 0.149 0.036 0.231l0 0.005z"></path>
<path fill="#fff" d="M11.831 13.659c-0.033-0.005-0.071-0.008-0.109-0.008-0.222 0-0.421 0.103-0.55 0.263-0.163 0.194-0.261 0.444-0.261 0.718 0 0.063 0.005 0.126 0.015 0.186 0.020 0.22 0.185 0.402 0.4 0.449 0.054 0.013 0.113 0.020 0.174 0.020 0.322 0 0.596-0.205 0.699-0.491 0.002-0.041 0.002-0.056-0.034-0.056h-0.277c-0.004-0.001-0.009-0.002-0.015-0.002-0.028 0-0.052 0.017-0.062 0.042-0.048 0.092-0.142 0.153-0.25 0.153-0.031 0-0.062-0.005-0.090-0.015-0.099-0.048-0.168-0.15-0.168-0.268 0-0.021 0.002-0.041 0.006-0.061l0.901 0.002c0 0 0 0 0 0 0.023 0 0.044-0.012 0.056-0.030 0.012-0.069 0.019-0.148 0.019-0.228s-0.007-0.159-0.020-0.236c-0.027-0.222-0.205-0.403-0.431-0.437zM11.375 14.254c0.045-0.125 0.153-0.218 0.285-0.24 0.012-0.002 0.023-0.003 0.034-0.003 0.122 0 0.22 0.099 0.22 0.22 0 0.008-0 0.016-0.001 0.024l-0.512-0.001z"></path>
<path fill="#fff" d="M8.866 13.675c-0.045-0.013-0.097-0.021-0.151-0.021-0.101 0-0.195 0.027-0.277 0.073l-0.028 0.029c0-0.061 0-0.061-0.067-0.061h-0.287c-0.003-0.001-0.007-0.001-0.011-0.001-0.022 0-0.041 0.016-0.045 0.037l-0 0c-0.077 0.512-0.154 0.983-0.236 1.475 0 0.036 0 0.056 0.046 0.056h0.271c0.003 0.001 0.007 0.001 0.011 0.001 0.022 0 0.041-0.016 0.045-0.037l0-0c0.046-0.297 0.092-0.599 0.143-0.896-0.005-0.022-0.008-0.046-0.008-0.072s0.003-0.050 0.008-0.074c0.068-0.088 0.168-0.152 0.284-0.172 0.012-0.003 0.022-0.005 0.033-0.005 0.048 0 0.089 0.032 0.103 0.075l0 0.001c0.003 0.006 0.004 0.013 0.004 0.020s-0.002 0.014-0.004 0.021c0.002 0.017 0.002 0.036 0.002 0.056s-0.001 0.039-0.002 0.059c-0.051 0.315-0.097 0.633-0.153 0.95 0 0.041 0 0.061 0.051 0.061h0.323c0.003 0.001 0.007 0.001 0.011 0.001 0.022 0 0.041-0.016 0.045-0.037l0-0c0.041-0.282 0.092-0.558 0.128-0.835 0.006-0.058 0.009-0.126 0.009-0.195s-0.003-0.136-0.010-0.203c0.001 0.001 0.002-0.008 0.002-0.017 0-0.145-0.103-0.265-0.24-0.292l-0.002-0z"></path>
<path fill="#fff" d="M10.351 13.665c-0.046-0.011-0.099-0.018-0.153-0.018-0.192 0-0.366 0.082-0.487 0.212-0.196 0.199-0.317 0.472-0.317 0.773 0 0.104 0.014 0.205 0.042 0.301 0.037 0.169 0.174 0.306 0.348 0.345 0.056 0.015 0.116 0.023 0.178 0.023 0.329 0 0.606-0.225 0.684-0.529l0.001-0.005c0-0.036 0-0.041-0.036-0.041h-0.256c-0.004-0.001-0.009-0.001-0.014-0.001-0.039 0-0.073 0.026-0.083 0.062-0.034 0.092-0.12 0.156-0.222 0.156-0.010 0-0.021-0.001-0.031-0.002-0.106-0.008-0.191-0.096-0.193-0.204-0.006-0.038-0.010-0.081-0.010-0.125 0-0.172 0.053-0.331 0.145-0.462 0.036-0.051 0.086-0.093 0.145-0.119 0.030-0.020 0.063-0.031 0.1-0.031 0.096 0 0.174 0.078 0.174 0.174 0 0.001-0 0.003-0 0.004 0.007 0.016 0.020 0.028 0.035 0.035l0.303 0c0.017-0.006 0.030-0.019 0.036-0.035 0.002-0.016 0.003-0.033 0.003-0.051 0-0.227-0.16-0.416-0.374-0.461l-0.003-0.001z"></path>
<path fill="#fff" d="M14.674 13.101h-0.19c-0.004-0.001-0.008-0.001-0.012-0.001-0.026 0-0.048 0.018-0.054 0.042-0.049 0.138-0.161 0.242-0.299 0.281-0.030 0.004-0.061 0.005-0.093 0.005s-0.063-0.002-0.094-0.005c-0.022 0.001-0.044 0.018-0.052 0.041l-0 0-0.036 0.241c0 0.051 0 0.061 0.051 0.056l0.369-0.036c0.001 0.013 0.001 0.027 0.001 0.042 0 0.082-0.016 0.161-0.044 0.233l-0.178 1.158c-0.005 0.006-0.008 0.014-0.008 0.023s0.003 0.017 0.008 0.023l0.343-0c0.001-0.005 0.002-0.010 0.002-0.015s-0.001-0.011-0.002-0.016l0.205-1.28c0.041-0.261 0.082-0.512 0.123-0.784 0-0.041 0-0.051-0.056-0.051v0 0.036z"></path>
<path fill="#fff" d="M19.36 13.101h-0.195c-0.004-0.001-0.008-0.001-0.012-0.001-0.032 0-0.058 0.022-0.065 0.052-0.056 0.153-0.189 0.266-0.351 0.292l-0.136 0c-0.002-0-0.004-0-0.006-0-0.022 0-0.040 0.015-0.045 0.036l-0 0-0.036 0.251c0 0.051 0 0.061 0.051 0.061h0.364v0.041l-0.113 0.676c-0.036 0.241-0.077 0.476-0.118 0.722 0 0 0 0.051 0.031 0.051h0.328l0.241-1.496 0.092-0.569c0-0.082 0-0.087-0.056-0.087v0z"></path>
<path fill="#fff" d="M7.534 13.685h-0.256c-0.004-0.001-0.008-0.002-0.012-0.002-0.021 0-0.038 0.013-0.044 0.032l-0 0c-0.046 0.287-0.087 0.569-0.138 0.845s-0.067 0.415-0.097 0.625c0 0 0 0.061 0.031 0.061h0.312c0.001-0.010 0.002-0.022 0.002-0.033s-0.001-0.023-0.002-0.035l0.113-0.69c0.046-0.256 0.082-0.512 0.123-0.763 0-0.036 0-0.051-0.046-0.051v0z"></path>
<path fill="#fff" d="M7.636 13.101h-0.292c-0.016 0.005-0.028 0.016-0.036 0.030-0.010 0.128-0.030 0.245-0.060 0.358-0.002-0.009-0.005-0.002-0.005 0.006s0.003 0.015 0.008 0.021l0.287-0c0.006 0.005 0.014 0.008 0.023 0.008s0.017-0.003 0.023-0.008l-0 0c0.008-0.124 0.026-0.24 0.054-0.351-0.003-0.007-0.019-0.023-0.039-0.023 0 0 0 0 0 0v0z"></path>
<path fill="#fff" d="M23.918 6.295c-0.039-0.291-0.127-0.553-0.257-0.79-0.172-0.34-0.409-0.637-0.696-0.876-0.294-0.246-0.635-0.439-1.007-0.566l-0.975-0.339-3.175-1.127-1.024-0.353-4.476-1.583h-0.051l-0.179 0.067-2.172 0.768-6.919 2.433c-0.21 0.077-0.43 0.128-0.635 0.225-0.403 0.181-0.744 0.431-1.022 0.74-0.192 0.202-0.353 0.432-0.477 0.683-0.105 0.22-0.175 0.457-0.206 0.707l-0.001 0.549c0.001 0.018 0.002 0.040 0.002 0.061s-0.001 0.043-0.002 0.064c0.044 0.363 0.16 0.694 0.334 0.987 0.163 0.273 0.371 0.515 0.614 0.717 0.269 0.22 0.579 0.394 0.916 0.51l0.917 0.298c0.338 0.118 0.666 0.236 1.024 0.348l1.183 0.415 1.132 0.405 1.183 0.415 1.024 0.353 3.288 1.152c0.014 0.004 0.030 0.007 0.046 0.007s0.032-0.002 0.047-0.007c0.107-0.020 0.203-0.052 0.293-0.095l1.996-0.699 1.239-0.44 0.789-0.271 4.44-1.567 0.819-0.271c0.344-0.116 0.642-0.27 0.912-0.463 0.382-0.282 0.69-0.664 0.884-1.107 0.116-0.255 0.186-0.531 0.201-0.821 0.008-0.082 0.012-0.172 0.012-0.262s-0.004-0.179-0.012-0.267l0.001 0.011zM23.472 7.513c-0.139 0.315-0.331 0.582-0.567 0.803-0.333 0.313-0.742 0.547-1.195 0.673-0.225 0.066-0.43 0.143-0.635 0.21l-0.819 0.292-7.923 2.796c-0.013 0.003-0.028 0.005-0.044 0.005s-0.030-0.002-0.045-0.005c-0.552-0.194-1.105-0.384-1.653-0.584l-7.565-2.689c-0.138-0.056-0.251-0.082-0.41-0.123-0.289-0.115-0.538-0.265-0.757-0.449-0.269-0.2-0.496-0.449-0.67-0.733-0.151-0.253-0.249-0.538-0.282-0.842-0.013-0.092-0.019-0.188-0.019-0.285 0-0.269 0.052-0.527 0.146-0.762 0.090-0.237 0.214-0.454 0.368-0.647 0.209-0.238 0.459-0.442 0.74-0.597 0.229-0.131 0.477-0.236 0.739-0.309l0.602-0.21c0.271-0.092 0.548-0.22 0.83-0.292l2.52-0.886 1.393-0.512 0.947-0.328 2.018-0.712 1.024-0.369c0.014-0.006 0.031-0.009 0.049-0.009s0.034 0.003 0.050 0.009l0.962 0.317 1.398 0.512 6.878 2.417c0.154 0.056 0.323 0.097 0.481 0.164 0.326 0.126 0.606 0.299 0.848 0.515 0.217 0.196 0.399 0.432 0.534 0.696 0.131 0.221 0.218 0.465 0.251 0.727l0.001 0.306c-0.013 0.32-0.087 0.619-0.211 0.891l0.006-0.015z"></path>
<path fill="#fff" d="M5.956 4.348h-0.62c-0.023-0.007-0.049-0.012-0.077-0.012s-0.054 0.004-0.079 0.012c-0.027 0.040-0.047 0.089-0.054 0.141l-0.359 1.185c-0.003 0.026-0.024 0.046-0.051 0.046-0.002 0-0.004-0-0.006-0l-0.804 0 0.405-1.373h-0.809c-0.002-0-0.004-0-0.006-0-0.022 0-0.040 0.015-0.045 0.036l-0 0c-0.072 0.241-0.164 0.476-0.22 0.697l-0.282 0.922c-0.092 0.312-0.184 0.635-0.282 0.953s-0.179 0.599-0.277 0.907h0.825c0.004 0.001 0.008 0.001 0.012 0.001 0.026 0 0.048-0.015 0.059-0.037 0.036-0.108 0.062-0.221 0.097-0.323l0.2-0.748c0.051-0.164 0.092-0.318 0.143-0.471h0.845l-0.471 1.598h0.871l1.060-3.534h-0.077z"></path>
<path fill="#fff" d="M13.849 5.501c-0.002-0-0.004-0-0.006-0-0.022 0-0.040 0.015-0.045 0.036l-0 0c-0.051 0.21-0.097 0.43-0.164 0.64-0.082 0.297-0.164 0.599-0.256 0.891-0.043 0.154-0.152 0.276-0.294 0.337-0.030 0.021-0.064 0.032-0.101 0.032s-0.070-0.012-0.098-0.031c-0.016-0.022-0.025-0.051-0.025-0.082s0.010-0.059 0.026-0.082c0.041-0.163 0.082-0.322 0.128-0.486 0.082-0.292 0.169-0.584 0.251-0.886 0.031-0.113 0.061-0.23 0.097-0.353h-0.681c-0.005-0.001-0.011-0.002-0.018-0.002-0.036 0-0.066 0.025-0.074 0.058l-0 0.001-0.19 0.784-0.22 0.768c-0.048 0.144-0.076 0.309-0.077 0.481-0 0.001-0 0.002-0 0.003 0 0.111 0.059 0.208 0.147 0.262 0.127 0.072 0.278 0.114 0.439 0.114 0.012 0 0.024-0 0.035-0.001 0.169-0.004 0.328-0.053 0.463-0.135-0.012 0.063-0.030 0.119-0.057 0.169-0.060 0.223-0.111 0.428-0.183 0.663-0.049 0.188-0.217 0.324-0.417 0.324-0.010 0-0.020-0-0.030-0.001l-1.745 0c-0.113 0-0.113 0-0.143 0.108s-0.082 0.297-0.123 0.451h2.499c0.061-0.001 0.119-0.012 0.173-0.032 0.211-0.094 0.372-0.279 0.431-0.506 0.078-0.231 0.124-0.446 0.186-0.666l0.43-1.536 0.297-1.070c0.006-0.092 0.025-0.177 0.053-0.258l-0.709 0.007z"></path>
<path fill="#fff" d="M18.033 4.348h-0.871c-0.007-0.003-0.015-0.004-0.023-0.004s-0.016 0.002-0.023 0.005c-0.107 0.179-0.215 0.353-0.322 0.512l-0.922 1.536-0.804 1.352c-0.036 0.061-0.067 0.123-0.113 0.195h0.722c0.005 0.001 0.011 0.002 0.016 0.002 0.015 0 0.029-0.005 0.040-0.012l0.512-0.789c0.017-0.031 0.049-0.051 0.086-0.051 0 0 0.001 0 0.001 0h0.973v0.84h0.691c0.001-0.022 0.002-0.048 0.002-0.074s-0.001-0.052-0.002-0.078l0-3.433h0.036zM17.291 6.571h-0.717l0.717-1.301v1.301z"></path>
<path fill="#fff" d="M19.928 5.48c-0.017 0.006-0.030 0.019-0.036 0.035 0 0.006 0 0.013 0 0.019 0 0.055-0.015 0.107-0.042 0.151l-0.030-0.047c-0.071-0.107-0.188-0.178-0.322-0.184-0.027-0.004-0.057-0.006-0.087-0.006-0.129 0-0.249 0.036-0.352 0.099-0.147 0.113-0.261 0.268-0.323 0.447-0.111 0.265-0.203 0.569-0.264 0.884-0.066 0.245-0.103 0.493-0.107 0.749-0 0.009-0.001 0.016-0.001 0.023 0 0.137 0.074 0.257 0.183 0.322 0.094 0.055 0.206 0.087 0.324 0.087s0.23-0.032 0.326-0.087l0.038 0.002c0.003 0.013 0.005 0.028 0.005 0.044s-0.002 0.030-0.005 0.045c-0.027 0.171-0.090 0.325-0.181 0.458-0.028 0.044-0.081 0.075-0.14 0.075-0.009 0-0.018-0.001-0.027-0.002-0.061-0.012-0.108-0.064-0.112-0.128l-0-0.215h-0.599c-0.004 0.042-0.007 0.091-0.007 0.141s0.003 0.099 0.007 0.147c0.041 0.154 0.163 0.278 0.319 0.321 0.141 0.051 0.301 0.081 0.467 0.081 0.068 0 0.134-0.005 0.2-0.014 0.292-0.015 0.538-0.226 0.606-0.507 0.134-0.517 0.272-1.029 0.411-1.541s0.251-0.932 0.369-1.398h-0.62zM19.631 6.443l-0.225 0.947c-0.014 0.089-0.084 0.158-0.173 0.169-0.006 0.001-0.011 0.001-0.017 0.001-0.105 0-0.189-0.085-0.189-0.189 0-0.017 0.002-0.033 0.006-0.048 0.015-0.096 0.038-0.182 0.069-0.264l0.222-0.882c0.012-0.080 0.063-0.146 0.132-0.179 0.022-0.011 0.046-0.017 0.072-0.017 0.059 0 0.11 0.031 0.139 0.077 0.003 0.013 0.005 0.027 0.005 0.042s-0.002 0.029-0.005 0.042c-0.014 0.117-0.033 0.221-0.060 0.323l0.004-0.017z"></path>
<path fill="#fff" d="M10.863 7.877h0.031v0.087h0.589c0.025-0.008 0.044-0.027 0.051-0.051 0.067-0.236 0.128-0.472 0.2-0.702l0.43-1.536c0.082-0.297 0.169-0.599 0.256-0.891q0.051-0.215 0.087-0.435h-0.62c-0.016 0.005-0.028 0.016-0.036 0.030-0.051 0.205-0.092 0.405-0.144 0.61l-0.164 0.717c-0.067-0.129-0.184-0.223-0.324-0.26-0.060-0.017-0.126-0.026-0.193-0.026s-0.133 0.009-0.195 0.027c-0.198 0.065-0.354 0.227-0.409 0.43-0.124 0.404-0.226 0.803-0.339 1.208-0.058 0.17-0.092 0.365-0.092 0.568 0 0 0 0 0 0 0.001 0.113 0.059 0.213 0.147 0.271 0.107 0.068 0.237 0.108 0.375 0.108s0.268-0.040 0.377-0.109l-0.003 0.002zM10.709 7.129c0.097-0.353 0.2-0.712 0.302-1.070 0.016-0.074 0.061-0.135 0.122-0.173 0.024-0.015 0.052-0.023 0.082-0.023 0.056 0 0.105 0.029 0.134 0.073 0.004 0.014 0.006 0.030 0.006 0.047s-0.002 0.032-0.006 0.047c-0.013 0.11-0.034 0.211-0.064 0.308-0.053 0.219-0.12 0.444-0.176 0.664s-0.077 0.271-0.138 0.42c-0.012 0.097-0.094 0.171-0.193 0.171-0.010 0-0.019-0.001-0.028-0.002l0.001 0c-0.092 0-0.128-0.082-0.128-0.236 0.013-0.083 0.033-0.157 0.059-0.228l-0.003 0.008z"></path>
<path fill="#fff" d="M9.675 5.465c-0.080-0.028-0.172-0.045-0.268-0.045-0.13 0-0.252 0.030-0.361 0.083l0.005-0.094h-0.64l-0.727 2.561h0.615c0.019-0.004 0.034-0.018 0.041-0.035 0.010-0.062 0.028-0.117 0.053-0.168 0.075-0.247 0.147-0.509 0.224-0.749s0.179-0.64 0.266-0.963c0.022-0.108 0.113-0.189 0.225-0.195 0.104 0.005 0.186 0.090 0.186 0.194 0 0.024-0.004 0.047-0.012 0.068-0.035 0.186-0.074 0.341-0.121 0.493-0.073 0.249-0.16 0.536-0.247 0.812-0.056 0.179-0.108 0.359-0.164 0.543h0.579c0.017-0.006 0.030-0.019 0.036-0.035l0.072-0.231 0.43-1.449c0.034-0.091 0.053-0.195 0.053-0.305 0-0.063-0.006-0.124-0.019-0.182-0.013-0.134-0.103-0.25-0.227-0.301l-0.002-0.001z"></path>
<path fill="#fff" d="M7.723 5.885c-0.009-0.103-0.050-0.195-0.113-0.267-0.089-0.084-0.202-0.143-0.328-0.168-0.111-0.046-0.235-0.073-0.365-0.073s-0.254 0.027-0.367 0.075c-0.268 0.153-0.479 0.392-0.595 0.68l0.575 0.009c0.019-0.004 0.035-0.015 0.046-0.030 0.050-0.106 0.125-0.193 0.218-0.255 0.036-0.026 0.078-0.041 0.123-0.041 0.093 0 0.171 0.061 0.196 0.146 0.005 0.022 0.007 0.046 0.007 0.070 0 0.072-0.022 0.138-0.059 0.194-0.028 0.086-0.099 0.151-0.187 0.173-0.174 0.015-0.33 0.039-0.482 0.071-0.326 0.052-0.61 0.288-0.736 0.604-0.042 0.108-0.065 0.226-0.065 0.348 0 0.080 0.010 0.159 0.029 0.233 0.019 0.149 0.134 0.272 0.283 0.305 0.055 0.011 0.116 0.018 0.179 0.018 0.169 0 0.328-0.046 0.463-0.127 0.066-0.042 0.126-0.086 0.183-0.133l-0.003 0.218h0.584c-0.003-0.054-0.005-0.116-0.005-0.179s0.002-0.126 0.005-0.188c0.048-0.373 0.138-0.719 0.266-1.045 0.068-0.149 0.114-0.357 0.114-0.575 0-0.021-0-0.043-0.001-0.064l0 0.003zM6.699 7.421c-0.055 0.061-0.134 0.1-0.222 0.1-0.030 0-0.060-0.005-0.087-0.013-0.079-0.046-0.134-0.131-0.136-0.23-0.001-0.010-0.001-0.020-0.001-0.031 0-0.118 0.061-0.221 0.154-0.281 0.12-0.076 0.264-0.12 0.418-0.12 0.017 0 0.034 0.001 0.051 0.002-0.002 0.013-0.001 0.029-0.001 0.044 0 0.21-0.063 0.406-0.172 0.569l0.002-0.004z"></path>
<path fill="#fff" d="M22.131 5.444c-0.054-0.003-0.118-0.005-0.182-0.005s-0.128 0.002-0.191 0.005c-0.111 0.001-0.223 0.029-0.324 0.078-0.206 0.107-0.367 0.286-0.449 0.504-0.098 0.235-0.172 0.501-0.21 0.778-0.033 0.167-0.051 0.34-0.051 0.517 0 0.091 0.005 0.18 0.014 0.269-0.001-0.010-0.001-0.008-0.001-0.007 0 0.222 0.164 0.405 0.377 0.436 0.077 0.015 0.165 0.026 0.254 0.031 0.033 0.004 0.066 0.006 0.1 0.006 0.238 0 0.451-0.105 0.595-0.271 0.109-0.115 0.196-0.252 0.254-0.402l0.095-0.28h-0.512c-0.002-0-0.004-0-0.006-0-0.030 0-0.056 0.022-0.061 0.051-0.033 0.123-0.095 0.229-0.179 0.313-0.040 0.052-0.102 0.085-0.171 0.085-0.049 0-0.095-0.017-0.131-0.045l-0.040-0.041c-0.010-0.023-0.016-0.049-0.016-0.077s0.006-0.054 0.017-0.078c0.030-0.152 0.066-0.316 0.107-0.47 0.005-0.035 0.035-0.062 0.071-0.062 0.004 0 0.008 0 0.011 0.001l0.937-0c0.003 0.001 0.007 0.001 0.011 0.001 0.022 0 0.041-0.013 0.051-0.031l0-0c0.050-0.236 0.079-0.508 0.082-0.787 0-0.003 0-0.004 0-0.006 0-0.261-0.196-0.477-0.448-0.508l-0.003-0zM21.875 6.341c-0.004 0.017-0.018 0.029-0.036 0.031l-0.333 0c0.036-0.143 0.077-0.282 0.118-0.41 0.028-0.056 0.085-0.094 0.151-0.094 0.027 0 0.052 0.006 0.075 0.017l0.035-0c0.018 0.017 0.029 0.040 0.031 0.066-0 0.134-0.021 0.262-0.059 0.383l0.002-0.009z"></path>
<path fill="#fff" d="M12.2 3.093c0.005 0 0.010 0 0.015 0 0.464 0 0.84-0.376 0.84-0.84s-0.376-0.84-0.84-0.84c-0.458 0-0.831 0.367-0.84 0.824-0 0.005-0 0.011-0 0.016 0 0.459 0.367 0.831 0.824 0.84l0.001 0zM12.2 1.496c0.424 0 0.768 0.344 0.768 0.768s-0.344 0.768-0.768 0.768c-0.003 0-0.007 0-0.010 0-0.408 0-0.739-0.326-0.748-0.732l-0-0.001c-0-0.008-0-0.017-0-0.026 0-0.415 0.33-0.754 0.742-0.768l0.001-0z"></path>
<path fill="#fff" d="M15.513 6.105c0.031-0.108 0.067-0.21 0.097-0.328h-0.65c-0.021 0.007-0.036 0.024-0.041 0.046-0.020 0.052-0.039 0.117-0.054 0.184-0.013 0.093-0.035 0.167-0.066 0.236l0.581-0.005c0.092-0.015 0.092-0.015 0.133-0.133z"></path>
<path fill="#fff" d="M11.995 2.335h0.225c0.017 0.005 0.032 0.016 0.041 0.030 0.063 0.086 0.124 0.183 0.178 0.284 0.032 0.083 0.098 0.132 0.175 0.132 0.016 0 0.032-0.002 0.048-0.006l-0.001 0-0.246-0.435 0.092-0.041c0.081-0.057 0.133-0.151 0.133-0.256 0-0.035-0.006-0.068-0.016-0.1-0.038-0.092-0.13-0.158-0.237-0.158-0.008 0-0.017 0-0.025 0.001l-0.511-0v1.024h0.143v-0.476zM11.995 1.869h0.394c0.069 0.018 0.119 0.080 0.119 0.154 0 0.005-0 0.011-0.001 0.016 0 0.003 0 0.006 0 0.010 0 0.074-0.056 0.135-0.128 0.143l-0.385 0v-0.323z"></path>
</svg>
