<?xml version="1.0" encoding="utf-8"?>
<!-- Generated by IcoMoon.io -->
<!DOCTYPE svg PUBLIC "-//W3C//DTD SVG 1.1//EN" "http://www.w3.org/Graphics/SVG/1.1/DTD/svg11.dtd">
<svg version="1.1" xmlns="http://www.w3.org/2000/svg" xmlns:xlink="http://www.w3.org/1999/xlink" width="20" height="16" viewBox="0 0 20 16">
<path d="M9.841 15.991c-2.436 0-4.873-0.022-7.308 0.009-1.296 0.016-2.529-0.983-2.53-2.535q-0.004-4.229 0-8.458c0-0.723 0.295-1.31 0.941-1.671 0.611-0.341 1.232-0.338 1.825 0.055 0.187 0.129 0.35 0.267 0.499 0.419 1.868 1.862 3.74 3.719 5.59 5.598 0.602 0.613 1.415 0.589 1.926 0.062 0.323-0.333 0.684-0.629 1.027-0.943q2.198-2.012 4.395-4.024c0.638-0.585 1.288-1.159 1.897-1.772 0.191-0.192 0.313-0.487 0.383-0.756 0.073-0.284-0.061-0.702-0.504-0.719-0.154-0.006-0.307-0.042-0.46-0.042q-6.556-0.004-13.111 0c-0.414 0-0.657-0.177-0.689-0.502-0.041-0.383 0.197-0.67 0.587-0.704 0.055-0.005 0.109 0 0.164 0 4.261 0 8.522-0.005 12.782 0.009 0.449 0.003 0.88 0.077 1.283 0.212 0.972 0.32 1.167 0.98 1.137 1.791-0.027 0.728-0.367 1.3-0.913 1.784-0.989 0.876-1.952 1.782-2.925 2.676-1.43 1.314-2.847 2.638-4.291 3.937-1.072 0.966-2.484 0.903-3.521-0.13q-2.847-2.841-5.694-5.687c-0.11-0.109-0.252-0.227-0.398-0.262-0.362-0.088-0.657 0.158-0.719 0.559-0.005 0.049-0.008 0.106-0.008 0.163 0 0.029 0.001 0.058 0.002 0.087-0 2.742 0.009 5.488-0.006 8.235-0.005 0.857 0.606 1.424 1.397 1.418q7.282-0.034 14.561 0c0.684 0 1.343-0.502 1.341-1.36q-0.009-3.614 0-7.227c0-0.466 0.308-0.72 0.742-0.624 0.276 0.062 0.46 0.315 0.464 0.657 0.005 0.429 0 0.857 0 1.287 0 1.971 0.004 3.942 0 5.913 0 0.657-0.187 1.252-0.642 1.747-0.493 0.538-1.101 0.807-1.834 0.807q-3.697-0.011-7.392-0.008z"></path>
<path d="M13.744 10.697c0.016-0.242 0.159-0.448 0.363-0.552 0.080-0.048 0.173-0.075 0.271-0.075 0.132 0 0.252 0.049 0.344 0.129 0.144 0.12 0.274 0.241 0.398 0.369 0.461 0.458 0.92 0.914 1.374 1.375 0.274 0.28 0.293 0.653 0.055 0.9-0.251 0.262-0.596 0.266-0.892-0.022q-0.853-0.83-1.68-1.685c-0.109-0.117-0.157-0.291-0.233-0.438z"></path>
<path d="M5.977 10.692c-0.092 0.164-0.15 0.343-0.267 0.464-0.538 0.558-1.087 1.104-1.643 1.646-0.307 0.3-0.657 0.304-0.912 0.034-0.235-0.249-0.215-0.619 0.063-0.9 0.538-0.545 1.078-1.087 1.625-1.623 0.319-0.313 0.675-0.324 0.925-0.029 0.091 0.103 0.129 0.246 0.209 0.408z"></path>
<path d="M1.841 1.211c-0.347 0-0.589-0.251-0.585-0.602 0.004-0.331 0.271-0.599 0.602-0.602 0.308 0.006 0.603 0.312 0.603 0.621 0.001 0.316-0.283 0.584-0.619 0.584z"></path>
</svg>
