<?xml version="1.0" encoding="utf-8"?>
<!-- Generated by IcoMoon.io -->
<!DOCTYPE svg PUBLIC "-//W3C//DTD SVG 1.1//EN" "http://www.w3.org/Graphics/SVG/1.1/DTD/svg11.dtd">
<svg version="1.1" xmlns="http://www.w3.org/2000/svg" xmlns:xlink="http://www.w3.org/1999/xlink" width="22" height="16" viewBox="0 0 22 16">
<path fill="#fff" d="M0 12.012q0-6.006 0-12.014h18.771v4.011c1.109 0 2.186 0 3.262 0 0.112 0 0.224-0.014 0.337-0.022v12.014h-18.774v-4.012c-1.109 0-2.186 0-3.262 0-0.109 0.001-0.221 0.015-0.333 0.023zM0.778 1.604v0.292q0 4.498 0 8.998c0 0.317 0 0.317 0.316 0.317h16.882v-9.603h-0.402l-0.035 0.367-0.361 0.029-0.033 0.366-0.361 0.028-0.033 0.369c-0.118 0.011-0.249-0.013-0.317 0.042-0.060 0.049-0.039 0.189-0.076 0.28-0.029 0.049-0.076 0.084-0.132 0.097-0.044 0.006-0.094 0.009-0.144 0.009-0.035 0-0.071-0.002-0.105-0.005l-0.041 0.389-0.365 0.025-0.029 0.367-0.366 0.029-0.028 0.365-0.365 0.033-0.028 0.364-0.374 0.042-0.037 0.373-0.373 0.033-0.031 0.364-0.365 0.028-0.027 0.358h-8.33l-0.030-0.36-0.363-0.029-0.031-0.364-0.381-0.028c0.080-0.34-0.097-0.452-0.4-0.411l-0.031-0.37-0.367-0.034-0.028-0.363-0.366-0.030-0.028-0.364-0.367-0.031-0.040-0.395c-0.376 0.114-0.409-0.119-0.392-0.377l-0.382-0.040-0.026-0.363-0.369-0.035-0.023-0.363-0.369-0.026-0.030-0.372h-0.421zM18.762 11.998h-14.388c0 0.127 0 0.215 0 0.303q0 1.301 0 2.601c0 0.316 0 0.316 0.318 0.316h16.581c0.317 0 0.318 0 0.318-0.317q0-4.898 0-9.797c0-0.097 0-0.19 0-0.303h-2.829v7.198zM15.199 2.834l0.389-0.030c-0.053-0.31 0.084-0.454 0.394-0.399l0.037-0.384 0.359-0.029 0.033-0.372 0.365-0.022 0.025-0.368 0.361-0.028c0.063-0.407 0.055-0.421-0.251-0.421q-7.527 0.002-15.049 0.002c-0.085 0-0.17 0.010-0.25 0.014v0.409l0.361 0.026 0.028 0.369 0.364 0.021 0.032 0.372 0.353 0.028c0.012 0.029 0.019 0.062 0.022 0.096-0.022 0.205 0.028 0.329 0.272 0.305 0.040-0.004 0.108 0.089 0.132 0.15 0.027 0.070 0.019 0.152 0.026 0.231l0.375 0.032 0.027 0.365 0.366 0.026 0.025 0.366 0.389 0.029c-0.085 0.333 0.066 0.447 0.395 0.389-0.068 0.336 0.056 0.479 0.378 0.406l0.049 0.384 0.369 0.034 0.022 0.36h7.581l0.022-0.361 0.372-0.033c0.009-0.065 0.016-0.12 0.023-0.175s0.018-0.123 0.026-0.179c0.324-0.049 0.324-0.049 0.417-0.419l0.34-0.034 0.042-0.375 0.362-0.025 0.024-0.366 0.367-0.026z"></path>
<path fill="#fff" d="M2.429 8.776v-0.34h4.739v0.34h-4.739z"></path>
<path fill="#fff" d="M2.445 9.565c-0.066-0.34-0.054-0.355 0.257-0.355h4.461v0.355h-4.718z"></path>
<path opacity="0.45" fill="#fff" d="M3.985 11.639c0.113-0.006 0.225-0.019 0.34-0.019q6.853 0 13.706 0h0.35v-7.227h3.599v11.235h-17.996q0-1.996 0-3.989z"></path>
</svg>
