<?xml version="1.0" encoding="utf-8"?>
<!-- Generated by IcoMoon.io -->
<!DOCTYPE svg PUBLIC "-//W3C//DTD SVG 1.1//EN" "http://www.w3.org/Graphics/SVG/1.1/DTD/svg11.dtd">
<svg version="1.1" xmlns="http://www.w3.org/2000/svg" xmlns:xlink="http://www.w3.org/1999/xlink" width="10" height="16" viewBox="0 0 10 16">
<path fill="#fff" d="M9.991 1.432v0.841h-0.277v0.311h0.277v0.841h-0.291v0.214q0 6.088 0 12.177c0 0.062 0.007 0.125 0.011 0.187h-9.711v-16.001h9.711v1.432h0.28zM9.147 8.016q0-3.626 0-7.252c0-0.205 0-0.205-0.201-0.205h-8.171c-0.218 0-0.218 0-0.218 0.218q0 7.221 0 14.442c0 0.221 0 0.221 0.215 0.221h8.155c0.218 0 0.218 0 0.218-0.218q0-3.603 0-7.205z"></path>
<path fill="#fff" d="M9.711 16c-0.004-0.062-0.011-0.125-0.011-0.187q0-6.088 0-12.177v-0.214h0.291v12.577h-0.28z"></path>
<path fill="#fff" d="M9.991 1.432h-0.28v-1.432h0.28v1.432z"></path>
<path fill="#fff" d="M9.991 2.584h-0.277v-0.311h0.277v0.311z"></path>
<path fill="#fff" d="M8.544 12.558h-7.383v-11.114h7.383v11.114zM8.272 12.289v-10.573h-6.839v10.573h6.839z"></path>
<path fill="#fff" d="M5.695 13.995c0 0 0 0.001 0 0.001 0 0.466-0.378 0.843-0.843 0.843s-0.843-0.377-0.843-0.842c0-0 0-0.001 0-0.001 0-0.466 0.378-0.843 0.843-0.843s0.843 0.377 0.843 0.842zM5.13 14.283v-0.57h-0.56v0.57h0.56z"></path>
<path fill="#fff" d="M4.017 1.126v-0.247h1.664v0.247h-1.664z"></path>
<path opacity="0.4" fill="#fff" d="M9.493 15.689c-0.035-0.085-0.077-0.168-0.104-0.256q-2.36-7.493-4.717-14.986c-0.014-0.044-0.023-0.090-0.035-0.135h4.856v15.377z"></path>
</svg>
