<?xml version="1.0" encoding="utf-8"?>
<!-- Generated by IcoMoon.io -->
<!DOCTYPE svg PUBLIC "-//W3C//DTD SVG 1.1//EN" "http://www.w3.org/Graphics/SVG/1.1/DTD/svg11.dtd">
<svg version="1.1" xmlns="http://www.w3.org/2000/svg" xmlns:xlink="http://www.w3.org/1999/xlink" width="16" height="16" viewBox="0 0 16 16">
<path d="M0 5.799l5.503-5.63c0.212-0.211 0.593-0.211 0.846 0 0.212 0.212 0.212 0.593 0 0.847l-3.64 3.64h12.275c0.338 0 0.592 0.254 0.592 0.593s-0.254 0.593-0.592 0.593h-12.275l-2.709-0.043z"></path>
<path d="M2.285 12.444c0.635 0 1.185 0.508 1.185 1.185 0 0.635-0.508 1.143-1.185 1.143h-0.55v1.227h-0.593v-3.556h1.143zM1.736 13.079v1.101h0.55c0.296 0 0.55-0.254 0.55-0.55s-0.254-0.55-0.55-0.55h-0.55z"></path>
<path d="M4.995 14.773v1.227h-0.635v-3.556h1.312c0.635 0 1.185 0.508 1.185 1.185 0 0.466-0.254 0.847-0.635 1.058 0.254 0.381 0.55 0.973 0.762 1.355h-0.72l-0.677-1.227h-0.593zM4.995 14.18h0.72c0.296 0 0.55-0.211 0.55-0.55s-0.254-0.592-0.55-0.592h-0.72v1.143z"></path>
<path d="M8.127 12.444h2.243v0.635h-1.651v0.847h1.524v0.635h-1.524v0.847h1.651v0.635h-2.244v-3.598z"></path>
<path d="M13.714 12.444h0.678l-1.27 3.556h-0.508l-1.27-3.556h0.635l0.847 2.455 0.889-2.455z"></path>
</svg>
