<?xml version="1.0" encoding="utf-8"?>
<!-- Generated by IcoMoon.io -->
<!DOCTYPE svg PUBLIC "-//W3C//DTD SVG 1.1//EN" "http://www.w3.org/Graphics/SVG/1.1/DTD/svg11.dtd">
<svg version="1.1" xmlns="http://www.w3.org/2000/svg" xmlns:xlink="http://www.w3.org/1999/xlink" width="16" height="16" viewBox="0 0 16 16">
<path d="M12.867 5.799h-12.275c-0.339 0-0.593-0.254-0.593-0.593s0.254-0.593 0.593-0.593h12.275l-3.64-3.64c-0.211-0.212-0.211-0.593 0-0.847 0.211-0.211 0.592-0.211 0.847 0l5.502 5.63-2.709 0.043z"></path>
<path d="M1.736 13.714v2.286h-0.593v-3.556h0.55l1.439 2.286v-2.285h0.635v3.555h-0.593l-1.439-2.285z"></path>
<path d="M5.037 12.444h2.244v0.635h-1.651v0.847h1.566v0.635h-1.524v0.847h1.651v0.635h-2.244v-3.598z"></path>
<path d="M9.566 14.222l-1.058-1.778h0.762l0.678 1.143 0.678-1.143h0.762l-1.058 1.778 1.058 1.778h-0.804l-0.635-1.143-0.678 1.143h-0.762l1.058-1.778z"></path>
<path d="M12.148 12.444h2.455v0.55h-0.931v3.005h-0.635v-3.005h-0.931v-0.55z"></path>
</svg>
