<?xml version="1.0" encoding="utf-8"?>
<!-- Generated by IcoMoon.io -->
<!DOCTYPE svg PUBLIC "-//W3C//DTD SVG 1.1//EN" "http://www.w3.org/Graphics/SVG/1.1/DTD/svg11.dtd">
<svg version="1.1" xmlns="http://www.w3.org/2000/svg" xmlns:xlink="http://www.w3.org/1999/xlink" width="16" height="16" viewBox="0 0 16 16">
<path d="M3.938 12.063c0.12 0.12 0.288 0.198 0.474 0.2 0.002 0 0.003 0 0.005 0 0.184 0 0.351-0.076 0.47-0.2l3.125-3.125 3.125 3.125c0.12 0.12 0.288 0.198 0.475 0.2 0.369-0.001 0.667-0.3 0.667-0.668 0-0.182-0.073-0.348-0.192-0.469l-3.125-3.125 3.125-3.125c0.12-0.12 0.194-0.285 0.194-0.469 0-0.366-0.297-0.663-0.663-0.663-0.183 0-0.349 0.074-0.469 0.194l-3.125 3.125-3.125-3.125c-0.12-0.12-0.285-0.194-0.469-0.194-0.366 0-0.663 0.297-0.663 0.663 0 0.183 0.074 0.349 0.194 0.469l3.125 3.125-3.125 3.125c-0.135 0.117-0.219 0.289-0.219 0.48 0 0.18 0.075 0.341 0.193 0.457z"></path>
</svg>
