<?xml version="1.0" encoding="utf-8"?>
<!-- Generated by IcoMoon.io -->
<!DOCTYPE svg PUBLIC "-//W3C//DTD SVG 1.1//EN" "http://www.w3.org/Graphics/SVG/1.1/DTD/svg11.dtd">
<svg version="1.1" xmlns="http://www.w3.org/2000/svg" xmlns:xlink="http://www.w3.org/1999/xlink" width="16" height="16" viewBox="0 0 16 16">
<path d="M15.672 14.181l-4.071-4.071c0.745-1.045 1.185-2.323 1.185-3.701 0-3.525-2.869-6.393-6.393-6.393s-6.393 2.869-6.393 6.393 2.869 6.393 6.393 6.393c1.379 0 2.656-0.44 3.701-1.185l4.071 4.071c0.208 0.208 0.48 0.312 0.753 0.312 0.272 0 0.545-0.104 0.753-0.312 0.416-0.416 0.416-1.091 0-1.507zM6.393 10.672c-2.353 0-4.263-1.909-4.263-4.263s1.909-4.263 4.263-4.263 4.263 1.909 4.263 4.263-1.909 4.263-4.263 4.263z"></path>
</svg>
