<svg id="圖層_1" data-name="圖層 1" xmlns="http://www.w3.org/2000/svg" viewBox="0 0 620.9 249.72"><defs><style>.cls-1{fill:#61c3cc;}</style></defs><title>ask_president</title><path class="cls-1" d="M133,0c3,0.64,6,1.12,8.84,2,25.63,7.43,41.91,24,48.59,49.92a8.77,8.77,0,0,1,.17,2.17V235.31c0,4.43-2.93,7.33-6,10a17.31,17.31,0,0,1-8.83,4,3.39,3.39,0,0,0-.81.36H76.38a11.42,11.42,0,0,0-1-1.41Q38.6,211.46,1.78,174.65A5.3,5.3,0,0,1,0,170.52Q0.11,96.28,0,22c0-1.22,0-2.43.06-3.65A18.44,18.44,0,0,1,10.42,2.34,45.54,45.54,0,0,1,16.88,0H133V0ZM153,230.19l0.36-.92-29.92-29.58c0.66-.77,1.26-1.45,1.84-2.14,4.37-5.24,7.49-11.13,8.43-17.91a134.39,134.39,0,0,0,.34-30.21c-1.87-21.56-23-37.44-44.34-33.7a38.65,38.65,0,0,0-31.29,29.89,30.24,30.24,0,0,0-.79,6.31c0,8.63-.66,17.35.3,25.88,2.54,22.68,24.09,37.53,46.34,32.5a2.52,2.52,0,0,1,2.7.79c6.06,6.15,12.2,12.22,18.27,18.36a3.76,3.76,0,0,0,3,1.21c6.26-.18,12.52-0.31,18.79-0.43C149.06,230.19,151,230.19,153,230.19Zm19.67-76.25c0.14-1,.23-1.31.23-1.64V66.89a45.43,45.43,0,0,0-6.82-24.44c-8.48-13.63-20.73-21.53-36.79-22.82-7.19-.58-14.46-0.22-21.7-0.38-1.62,0-2.08.48-2.06,2.07,0.07,7.24,0,14.48,0,21.72v60.59c0,1.73.42,2.31,2.22,2.27,5-.12,10,0,15,0h2.32V86.56h26c2.43,0,2.44,0,2.44,2.51v43.07a5,5,0,0,0,1.61,4c3.51,3.36,6.91,6.85,10.32,10.32,2.3,2.36,4.58,4.73,7.22,7.53v0ZM38,172.58l0.5-.24v-2q-0.17-26.09-.36-52.18a3.64,3.64,0,0,1,1.47-3.24Q59.92,98.56,80.13,82.09c3.88-3.15,4.39-6.89,1.38-10.61Q62.17,47.6,42.77,23.78c-3.23-3.95-7.69-5.29-12.64-4.35-6.52,1.24-11,7.24-11,14.41V151.15a5.1,5.1,0,0,0,1.73,4.13c2.76,2.57,5.37,5.29,8,8Z" transform="translate(-0.04 0)"/><path class="cls-1" d="M506.29,201.06V136.27c0-1.81.57-2.21,2.28-2.2q31.2,0.08,62.4,0c1.77,0,2.33.48,2.23,2.25-0.14,2.53,0,5.07,0,7.72-0.72,0-1.25.1-1.78,0.1H551.17c-1.5,0-2.07.43-2,2a55.27,55.27,0,0,1,0,6c-0.07,1.46.34,2,1.92,2,5.23-.09,10.46,0,15.69,0,1.48,0,2.1.3,2,1.88a37.38,37.38,0,0,0,0,5.11c0.1,1.46-.47,1.88-1.88,1.86-5.17-.07-10.34,0-15.51-0.07-1.76,0-2.37.5-2.24,2.27a51.69,51.69,0,0,1,0,5.84c0,1.34.44,1.8,1.8,1.78,5.17-.06,10.34,0,15.51,0h2.24c0,2.74.06,5.33-.07,7.92a2.08,2.08,0,0,1-1.59.88c-5.23.06-10.46,0.12-15.69,0-1.83,0-2.34.55-2.21,2.27a38.26,38.26,0,0,1,0,5.47c-0.11,1.58.36,2.11,2,2.09,7.36-.08,14.72,0,22.08-0.07,1.61,0,2.06.42,2,2q-0.09,21.35,0,42.7c0,1.62-.45,2.07-2,2-5-.1-10-0.08-15,0-1.36,0-2-.22-1.88-1.78a50.23,50.23,0,0,0,0-6.38c-0.09-1.51.5-1.9,1.9-1.8s2.92,0,4.38,0a1.23,1.23,0,0,0,1.53-1.46V202.57c0-1.64-1-1.47-2.08-1.47H506.29v0Zm21.61-19.52h-8.39c-1.08,0-1.54.33-1.5,1.47,0.07,2.37,0,4.75.1,7.11a1.79,1.79,0,0,0,1.2,1.26c5.71,0.09,11.43,0,17.14.07a1.16,1.16,0,0,0,1.38-1.4c0-2.31-.06-4.62,0-6.93,0-1.22-.41-1.59-1.58-1.56-2.76,0-5.55,0-8.35,0h0Zm0.25-37.41c-2.67,0-5.34.06-8,0-1.5,0-2.24.32-2.12,2a58.72,58.72,0,0,1,0,6.19c0,1.24.36,1.76,1.64,1.76h16.57c1.33,0,1.66-.56,1.62-1.76-0.06-2.18-.09-4.37,0-6.55,0.06-1.33-.48-1.67-1.7-1.64-2.67.06-5.35,0-8,0h0Zm-0.06,18.71h-8.56a1.24,1.24,0,0,0-1.51,1.49q0.07,3.46,0,6.92c0,1.13.5,1.45,1.55,1.44h16.76a1.24,1.24,0,0,0,1.51-1.48c0-2.25-.07-4.49,0-6.74,0-1.34-.56-1.66-1.75-1.64C533.43,162.87,530.76,162.84,528.09,162.84Z" transform="translate(-0.04 0)"/><path class="cls-1" d="M288.19,6.71L298.7,11l-1.1,3.26c1,0.07,1.83.2,2.69,0.2,7.66,0,15.32,0,23-.06,1.68,0,2.17.47,2.17,2.15q-0.08,23.9,0,47.8,0,5,.18,10c0,1.2-.4,1.58-1.57,1.58H267.52c-1.31,0-1.63-.47-1.62-1.7V16.08c0-1.33.5-1.64,1.71-1.64h16a2,2,0,0,0,2.23-1.59C286.54,10.9,287.35,8.94,288.19,6.71Zm12.28,40.93c-1.49,0-3,.06-4.47,0a1.79,1.79,0,0,0-2.15,1.62c-0.71,3-1.56,5.88-2.4,8.79a3.08,3.08,0,0,1-3.38,2.43c-2.61-.07-5.23,0-7.85,0-1.07,0-1.62-.31-1.51-1.45V57.57c0-4.15,0-4.1,4.15-4.29a3.08,3.08,0,0,0,2.28-1,28.38,28.38,0,0,0,1.59-4.68c-4.82.62-6.17-2.45-7.33-5.74-1-2.93-2-5.86-3.07-8.78a7.2,7.2,0,0,0-.59-1.06,10.4,10.4,0,0,0-.39,3.37V65.14c0,1.07,0,1.86,1.5,1.86h36a2.45,2.45,0,0,0,2.76-2.7q0.09-7.66,0-15.33a1.83,1.83,0,0,0-1.23-1.24c-1.12-.19-2.32.06-3.45-0.09-1.87-.25-2.69.43-3.07,2.31a64.9,64.9,0,0,1-2.31,8.44c-0.38,1.1-1.35,2.66-2.23,2.78a56.68,56.68,0,0,1-8,.13V54.46c3.85-.59,5-2.1,5.15-6.82h0Zm10.07-7.69c1.37,0,2.33-.06,3.29,0,1.34,0.1,1.79-.41,1.76-1.78-0.09-4.19-.11-8.39,0-12.58,0-1.79-.56-2.24-2.28-2.23-11.18.07-22.36,0-33.55,0-5.28,0-4.33-1-4.46,4.71a1.27,1.27,0,0,0,1.53,1.5h5.65A1.55,1.55,0,0,1,284.37,31a60.16,60.16,0,0,0,1.57,6.18,14.54,14.54,0,0,0,1.6,2.76l0.6-.18c0.21-.67.46-1.33,0.62-2,0.53-2.31,1-4.63,1.55-6.93a1.65,1.65,0,0,1,.87-1.12c2.52-.09,5-0.05,7.79-0.05L296.36,40c1.77,0,3.22-.05,4.66,0a1.57,1.57,0,0,0,1.84-1.52q0.69-3.39,1.56-6.74a1.9,1.9,0,0,1,1-1.28c2.51-.11,5-0.06,7.75-0.06Z" transform="translate(-0.04 0)"/><path class="cls-1" d="M401.38,134.5h47.47V238.25H432.1c-1.37,0-2-.26-1.91-1.79a65.25,65.25,0,0,0,0-6.56c-0.06-1.32.45-1.73,1.69-1.65,1,0.07,2.07-.07,3.1,0,1.29,0.12,1.69-.35,1.68-1.63-0.06-4.44,0-8.88,0-13.32V181.74c0-1.73-.48-2.28-2.26-2.26-10.4.08-20.79,0-31.19,0-1,0-1.81.09-1.81-1.45,0-13.86-.06-27.72-0.11-41.59C401.29,135.9,401.35,135.25,401.38,134.5Zm23.71,8.76h-10.2c-1.15,0-1.63.28-1.57,1.54a61.54,61.54,0,0,1,0,6.56c-0.08,1.41.42,1.78,1.75,1.77q10-.06,20,0c1.08,0,1.54-.27,1.5-1.42q-0.09-3.46,0-6.92c0-1.18-.31-1.59-1.55-1.56-3.24.09-6.59,0-9.93,0h0ZM425,160.8h-10.2c-1.1,0-1.52.33-1.47,1.47a61.51,61.51,0,0,1,0,6.37c-0.09,1.53.39,2,1.92,2,6.62-.06,13.24,0,19.86,0,1.13,0,1.52-.38,1.5-1.46v-6.92c0-1.27-.5-1.51-1.64-1.49-3.28.08-6.62,0-10,0h0Z" transform="translate(-0.04 0)"/><path class="cls-1" d="M217.89,39.74l22-33.55L250,11.81l-17.12,26L239,42.44l13.66-20.82,9.91,5.61L237.66,65.39h11.4l-3.3-9.14,8.69-3,8.6,23.85-8.35,3.28a8.78,8.78,0,0,1-.81-1.82c-0.34-1.82-1.44-2.29-3.14-2.12-1.26.13-2.56-.07-3.82,0.07a1.88,1.88,0,0,0-1.39.95c-0.12,2.7-.06,5.41-0.06,8.56l7.12-3.92,10.57,18.4c-2.17,1.25-4.29,2.5-6.43,3.71s-2.2,1.22-3.52-1q-3.26-5.38-6.54-10.75c-0.23-.37-0.53-0.69-1.09-1.4-0.06.88-.12,1.27-0.12,1.66v16.06c0,1.36-.38,1.83-1.75,1.79-2.73-.08-5.46,0-8.4,0V88.87l-0.51-.18-9.7,16.7-8.74-4.86,10.4-18.44,8.42,4.59c0-3.37,0-6.37-.07-9.38a2,2,0,0,0-1.48-.78c-5.11,0-10.22.13-15.32,0.21-0.47,0-.94-0.05-1.74-0.1,0.89-1.4,1.65-2.61,2.43-3.8,4.37-6.66,8.72-13.33,13.16-19.94,0.75-1.12.7-1.64-.4-2.45-4.26-3.13-8.44-6.37-12.65-9.58C218.75,40.51,218.41,40.19,217.89,39.74Z" transform="translate(-0.04 0)"/><path class="cls-1" d="M355,238.19H342.71V134.5c0.54,0,1-.09,1.48-0.09h44c1.65,0,2,.5,2,2.07q-0.09,20.71,0,41.41c0,1.43-.45,1.74-1.76,1.74q-15.6,0-31.2,0c-1.81,0-2.18.55-2.18,2.25,0.06,18.12,0,36.24,0,54.36C355.07,236.79,355,237.44,355,238.19Zm11.26-84.92c3.28,0,6.57,0,9.85,0,1.38,0,1.79-.46,1.73-1.81-0.1-2.18-.06-4.38,0-6.57a1.24,1.24,0,0,0-1.45-1.54H356.12a1.14,1.14,0,0,0-1.35,1.42c0.06,2.25.09,4.5,0,6.75-0.06,1.4.5,1.77,1.81,1.74,3.22-.07,6.44,0,9.67,0h0Zm0.1,7.55h-10.2a1.12,1.12,0,0,0-1.39,1.35q0.08,3.46,0,6.92c0,1.16.37,1.58,1.59,1.57q9.92-.08,19.85,0c1.17,0,1.63-.37,1.6-1.57-0.07-2.18-.09-4.37,0-6.55,0.07-1.42-.53-1.74-1.82-1.71-3.19,0-6.37,0-9.62,0h0Z" transform="translate(-0.04 0)"/><path class="cls-1" d="M234.17,193.25h11.35l-3.34-9.06,8.69-3c1,2.57,1.88,5,2.78,7.54,1.73,4.8,3.41,9.62,5.2,14.4,0.49,1.3.33,2-1.06,2.43-2.23.75-4.41,1.66-6.53,2.47a1.58,1.58,0,0,1-.28-0.23c-0.61-1.15-1-3.07-1.86-3.28a23.5,23.5,0,0,0-6.34-.16,1.26,1.26,0,0,0-.77.94c-0.06,2.66,0,5.32,0,8.39l7.07-3.89,10.46,18.39L251,233.06l-8.86-14.46c-0.09.94-.17,1.38-0.17,1.82v15.87c0,1.38-.35,2-1.83,1.9-2.18-.11-4.38-0.1-6.57,0-1.43.06-1.88-.45-1.86-1.88,0.07-6.14,0-12.28,0-18.43a1.86,1.86,0,0,0-.54-1.35l-9.54,16.53L213,228.19l10.39-18.37,8.22,4.57v-10H213.17l16.4-25c-1.9-1.47-3.71-2.87-5.53-4.26-2.8-2.14-5.6-4.28-8.43-6.38-0.83-.61-1.06-1.1-0.42-2.07Q225.63,150.85,236,135c0.1-.15.22-0.28,0.41-0.52l10,5.53-8.21,12.44c-2.68,4.06-5.35,8.12-8.08,12.15-0.59.87-.7,1.43,0.25,2.09,1.63,1.15,3.2,2.38,5.08,3.8l13.66-20.67,9.85,5.59Z" transform="translate(-0.04 0)"/><path class="cls-1" d="M406.71,23.91H398c-2.31,0-4.63.06-6.93-.06a1.82,1.82,0,0,1-1.35-1.11c-0.12-3-.06-5.94-0.06-9.11,0.72,0,1.3-.1,1.87-0.1,6.26,0,12.53-.06,18.79,0,1.71,0,2.44-.39,2.28-2.22s0-3.62,0-5.77c1.24,0.35,2.26.63,3.27,0.93,2.51,0.75,5,1.56,7.52,2.24a1.92,1.92,0,0,1,1.75,2.07q0,0.09,0,.19c-0.13,2.52,0,2.52,2.42,2.52h17.33c1.33,0,1.83.34,1.77,1.74-0.11,2.79,0,5.58,0,8.54-0.86,0-1.57.12-2.28,0.12-7.72,0-15.45,0-23.17.05A3,3,0,0,0,418.93,25c-5.13,8-10.16,16.15-15.21,24.25a2.27,2.27,0,0,0-.1.57,8.59,8.59,0,0,0,1.3.2h26.64c2.17,0,2.37-.21,2.38-2.42,0-3.22.06-6.45,0-9.67,0-1.28.44-1.7,1.7-1.67,3,0.07,5.92,0,9.07,0V58c0,1.56-.52,2-2,2-2.92-.08-5.84,0-8.76-0.08-1.2,0-1.59.36-1.59,1.56v35c0,2.34.56,2.84,3,2.87,3.16,0,6.33.06,9.49,0,1.21,0,1.77.26,1.71,1.61-0.1,2.25-.07,4.5,0,6.75,0,1.07-.31,1.54-1.44,1.53q-11.23-.08-22.45-0.08c-1.38,0-1.37-.81-1.37-1.79-0.06-15.14-.16-30.28-0.16-45.42,0-1.62-.4-2.09-2-2.08-11,.07-22,0.06-33,0.07a11,11,0,0,1-1.29-.07Z" transform="translate(-0.04 0)"/><path class="cls-1" d="M370.33,85.45l7-3.88,10.27,18.1-8.37,4.82-8.44-13.8-0.39.13c0,0.45-.11.89-0.11,1.34v15.51c0,1.37-.32,2-1.85,1.88a60.75,60.75,0,0,0-6.38,0c-1.32.06-1.82-.37-1.8-1.75,0.07-6.2.06-12.41,0.07-18.61a5.08,5.08,0,0,0,0-.87l-0.46-.23-9.48,16.38-8.53-4.78L352,81.55l8.27,4.64c0-3.35,0-6.3-.07-9.25a1.92,1.92,0,0,0-1.46-.78c-5,0-10.09.09-15.14,0.15H341.9l16.22-24.77-14.89-11.4,21.55-33,9.91,5.52L365.6,26.53c-2.28,3.45-4.51,6.93-6.85,10.33-0.69,1-.6,1.56.35,2.23,1.58,1.11,3.11,2.3,4.89,3.63L377.41,22.3l9.66,5.53-24.4,37.36H373.8l-3.2-9,8.5-3,8.4,23.39-7.9,3.15a1.87,1.87,0,0,1-.44-0.33c-0.57-1.11-1-3-1.73-3.18a25.74,25.74,0,0,0-6.34-.12,1.14,1.14,0,0,0-.72.84C370.31,79.68,370.33,82.33,370.33,85.45Z" transform="translate(-0.04 0)"/><path class="cls-1" d="M496.93,153.43V216h-32c0-.69-0.1-1.33-0.1-2v-58.9c0-1-.1-1.88,1.42-1.87h29.91A4.68,4.68,0,0,1,496.93,153.43Zm-21.64,31h0v18.79c0,1.28.28,1.89,1.72,1.84,2.79-.1,5.59-0.09,8.39,0,1.29,0,1.69-.45,1.69-1.7V165.79c0-1.51-.56-1.86-1.92-1.82-2.67.07-5.35,0.08-8,0-1.45,0-1.88.45-1.86,1.89,0,6.2,0,12.4,0,18.6v0Z" transform="translate(-0.04 0)"/><path class="cls-1" d="M292.28,238.11H271.66c-1.47,0-2-.41-2-2q0.08-20,0-40c0-1.49.41-2,2-2q20.71,0.09,41.42,0c1.49,0,2,.4,2,1.94q-0.08,19.89,0,39.77c0,1.64-.41,2.2-2.12,2.18-6.87-.09-13.74,0-20.62,0h0ZM303,216.62h0v-9.85c0-1.23-.35-1.72-1.66-1.7q-9,.09-18.06,0c-1.28,0-1.66.39-1.65,1.67,0.06,6.51.08,13,0,19.52,0,1.57.55,2,2,1.93q8.75-.09,17.51,0c1.49,0,1.88-.52,1.85-1.92-0.05-3.2,0-6.43,0-9.65h0Z" transform="translate(-0.04 0)"/><path class="cls-1" d="M370.71,226.06V189.29c0.64,0,1.28-.11,1.91-0.11h46.13c1.75,0,2.1.58,2.09,2.19q-0.09,16.5,0,33c0,1.37-.26,1.91-1.78,1.9-15.56,0-31.12,0-46.68,0C371.85,226.19,371.32,226.11,370.71,226.06Zm24.72-9.93h12c1.13,0,1.63-.28,1.62-1.53q-0.09-7.2,0-14.4c0-1.29-.45-1.67-1.69-1.67q-11.85.06-23.7,0c-1.37,0-1.77.47-1.76,1.8q0,7-.09,14c0,1.36.39,1.81,1.75,1.78,4,0,7.92,0,11.87,0h0Z" transform="translate(-0.04 0)"/><path class="cls-1" d="M329.29,169.65l-8.15,7.62c-3.38-3.41-6.91-7-10.46-10.56-5.62-5.64-11.28-11.24-16.85-16.93-1-1-1.56-1-2.59,0Q278,163.06,264.6,176.25c-0.38.38-.79,0.72-1,0.92L256.08,170l36.45-36.5Z" transform="translate(-0.04 0)"/><path class="cls-1" d="M588.07,182.5c-0.06-.77-0.15-1.36-0.15-2V168c0-1.17.22-1.75,1.6-1.74h29.92a1.23,1.23,0,0,1,1.46,1.5q0,17.69,0,35.39a1.23,1.23,0,0,1-1.52,1.46c-2.67,0-5.35,0-8,0-1.2,0-1.61.4-1.59,1.58,0,3.1,0,6.19,0,9.55h-9.87a1.42,1.42,0,0,1-.84-1.07c0-6.51,0-13,0-19.52a1.83,1.83,0,0,1,1.36-1.09c2.61-.11,5.23-0.09,7.84,0,1.23,0,1.73-.34,1.71-1.65q-0.11-6.75,0-13.5c0-1.33-.48-1.69-1.7-1.67-2.67,0-5.35.07-8,0a1.24,1.24,0,0,0-1.53,1.45c-0.13,4-.17,4-4.21,4h-6.49Z" transform="translate(-0.04 0)"/><path class="cls-1" d="M269.84,172.76h45v10.68h-45V172.76Z" transform="translate(-0.04 0)"/><path class="cls-1" d="M408.51,108.19H397.44c0.44-4,.83-7.85,1.28-11.7q1.38-11.85,2.81-23.69c0.25-2.11.45-4.23,0.79-6.32a1.75,1.75,0,0,1,.93-1.25c3.25-.09,6.5-0.06,9.83-0.06Z" transform="translate(-0.04 0)"/><path class="cls-1" d="M311.33,109.28H308.4c-8.51,0-17-.08-25.54-0.07-1.24,0-1.71-.32-1.7-1.63q0.14-12.49.13-25c0-1.27.52-1.54,1.63-1.51,1.94,0.06,3.9.09,5.84,0,1.43-.08,1.73.52,1.72,1.81-0.07,5.23,0,10.46-.09,15.69,0,1.7.64,2.25,2.26,2.23,5.59,0,11.19,0,16.78,0,1.48,0,2,.38,1.93,2C311.22,104.75,311.33,106.82,311.33,109.28Z" transform="translate(-0.04 0)"/><path class="cls-1" d="M463.78,113.25H452.69V96.51h15c1,0,1.62.11,1.61,1.35-0.06,5.53.17,11.08-.14,16.59A16.71,16.71,0,0,1,452.55,130a28.52,28.52,0,0,1,0-3.17,1.3,1.3,0,0,1,.94-0.79C459.71,125.47,464.07,119.1,463.78,113.25Z" transform="translate(-0.04 0)"/><path class="cls-1" d="M516.66,209.19l-12,31.15-10.17-3.88,12-31.17Z" transform="translate(-0.04 0)"/><path class="cls-1" d="M523.28,235.3c-3.07-.75-6.14-1.45-9.17-2.29a1.65,1.65,0,0,1-.78-1.41c2-8.26,4.09-16.49,6.12-24.75a1.07,1.07,0,0,1,1.55-.93c2.71,0.69,5.43,1.32,8.11,2.09a1.64,1.64,0,0,1,.87,1.34c-2.09,8.54-4.26,17.07-6.42,25.6A2.16,2.16,0,0,1,523.28,235.3Z" transform="translate(-0.04 0)"/><path class="cls-1" d="M312.43,81.11h8.33a1.64,1.64,0,0,1,1.2,1c1.68,8.58,3.3,17.18,4.92,25.77a2.43,2.43,0,0,1-.19.51h-8.33a1.37,1.37,0,0,1-.9-0.92q-2.67-12.93-5.25-25.89A2.06,2.06,0,0,1,312.43,81.11Z" transform="translate(-0.04 0)"/><path class="cls-1" d="M277.25,82.07c-1.27,9.2-2.46,18-3.72,26.73a1.89,1.89,0,0,1-1.06,1.37c-2.4.13-4.81,0.06-7.45,0.06,0.39-3.62.74-7,1.12-10.34,0.61-5.42,1.28-10.84,1.86-16.27,0.12-1.12.48-1.6,1.67-1.57C272.07,82.12,274.48,82.07,277.25,82.07Z" transform="translate(-0.04 0)"/><path class="cls-1" d="M531.18,227.95c0.69-5.67,1.34-11.09,2-16.52,0.18-1.45.28-2.91,0.58-4.33a1.77,1.77,0,0,1,1.12-1.19c3.2,0.28,6.38.7,9.78,1.11-0.27,2.38-.5,4.59-0.77,6.79-0.56,4.65-1.16,9.29-1.72,13.94-0.1.85-.18,1.56-1.36,1.4C537.7,228.73,534.6,228.36,531.18,227.95Z" transform="translate(-0.04 0)"/><path class="cls-1" d="M559.34,214.64v6.75c0,1.22-.31,1.77-1.63,1.73-2.61-.08-5.23,0-7.84,0-1.13,0-1.44-.42-1.43-1.51q0.08-6.93,0-13.87c0-1.24.46-1.56,1.6-1.53,2.55,0.06,5.11.09,7.66,0,1.34,0,1.66.5,1.63,1.7C559.3,210.14,559.34,212.39,559.34,214.64Z" transform="translate(-0.04 0)"/><path class="cls-1" d="M295.51,80.19c2.53,0,4.83-.06,7.11.06a1.78,1.78,0,0,1,1,1.34,38.42,38.42,0,0,1,0,4.74c-0.06,1.22.33,1.72,1.64,1.74,4.34,0.12,4.34.12,4.34,4.58,0,2.55,0,2.55-2.55,2.55-3.34,0-6.69,0-10-.06a1.89,1.89,0,0,1-1.44-1C295.47,89.61,295.51,85.06,295.51,80.19Z" transform="translate(-0.04 0)"/><path class="cls-1" d="M604.38,237.64a5.37,5.37,0,0,1-.64-10.72h0.4a5.37,5.37,0,0,1,.64,10.72h-0.4Z" transform="translate(-0.04 0)"/><path class="cls-1" d="M115.13,163.43c0,4,.48,8.09-0.09,12A19.24,19.24,0,0,1,94.9,192a18.86,18.86,0,0,1-17.84-18.11,196.75,196.75,0,0,1,.17-22.78c0.6-9.08,9.11-16.54,18.25-16.71,9.74-.17,18.34,6.65,19.47,16,0.52,4.31.09,8.73,0.09,13.1h0.09Z" transform="translate(-0.04 0)"/><path class="cls-1" d="M125.14,38.61c15.79-.56,29.15,14.35,28.1,28.3h-28.1V38.61h0Z" transform="translate(-0.04 0)"/><path class="cls-1" d="M38.55,91.14V49.38l0.34-.26L59.25,74.48Z" transform="translate(-0.04 0)"/></svg>