<!-- Generator: Adobe Illustrator 18.0.0, SVG Export Plug-In  -->
<svg version="1.1"
	 xmlns="http://www.w3.org/2000/svg" xmlns:xlink="http://www.w3.org/1999/xlink" xmlns:a="http://ns.adobe.com/AdobeSVGViewerExtensions/3.0/"
	 x="0px" y="0px" width="234.6px" height="89.5px" viewBox="0 0 234.6 89.5" enable-background="new 0 0 234.6 89.5"
	 xml:space="preserve">
<defs>
</defs>
<g>
	<polygon fill="#62C3CC" points="105.3,16.2 90,16.2 90,36.9 95,36.9 95,20.6 105.3,20.6 105.3,41.3 110.3,41.3 110.3,20.6 
		121,20.6 121,33.2 118.9,33.2 118.9,36.9 125.7,36.9 125.7,16.2 110.3,16.2 110.3,11.4 128.5,11.4 128.5,7.1 110.3,7.1 110.3,3.5 
		105.3,3.5 105.3,7.1 87.1,7.1 87.1,11.4 105.3,11.4 	"/>
	<path fill="#62C3CC" d="M180.3,41.3v-6h-6v6h4c0,2.5-1.8,4.5-4,4.5v1.5C177.6,47.3,180.3,44.6,180.3,41.3z"/>
	<path fill="#62C3CC" d="M144.8,19.2h24v-3.3h-24v-2.5h24v-3.3h-24V7.2h25.4V3.5H140v18.8h-6.6v3.9h5.6v13.6c0,1.1,1,1.8,2,1.5
		l13.4-3.9l-1-3.5l-9.7,2.8V26.1h5.7l15.2,15.2h6.7l-6.8-6.8l5.2-1.5l-1-3.5l-7.2,2.1l-5.4-5.4h16.1v-3.9h-27.5V19.2z"/>
	<path fill="#62C3CC" d="M150.7,48.9h-17.2v37.8h4.6V65.4h12.7V48.9z M146.3,62.1H138v-3.5h8.3V62.1z M146.3,55.8H138v-3.5h8.3V55.8
		z"/>
	<path fill="#62C3CC" d="M154.9,65.4h12.8V83h-2.3v3.7h6.9V48.9h-17.4V65.4z M159.3,52.2h8.4v3.5h-8.4V52.2z M159.3,58.6h8.4v3.5
		h-8.4V58.6z"/>
	<path fill="#62C3CC" d="M143.7,82.3h18.3V68.8h-18.3V82.3z M147.9,72.3h9.8v6.3h-9.8V72.3z"/>
	<path fill="#62C3CC" d="M189.7,55.8h-11.8v22.9h11.8V55.8z M186,74.6h-4.2V59.8h4.2V74.6z"/>
	<path fill="#62C3CC" d="M208.6,69.6v-3.5h7.1v-3.3h-7.1v-3.5h7.1V56h-7.1v-3.5h8.7v-3.7h-24.3v24.4H214V83h-2.8v3.7h6.9v-0.2V69.6
		H208.6z M204.4,69.6h-7.1v-3.5h7.1V69.6z M204.4,62.8h-7.1v-3.5h7.1V62.8z M204.4,56h-7.1v-3.5h7.1V56z"/>
	<rect x="107.1" y="62.8" fill="#62C3CC" width="16.5" height="4"/>
	
		<rect x="186.7" y="79.1" transform="matrix(0.3584 -0.9336 0.9336 0.3584 47.9441 232.0072)" fill="#62C3CC" width="12.2" height="4"/>
	
		<rect x="196.6" y="75" transform="matrix(-0.9703 -0.2419 0.2419 -0.9703 371.9434 205.9357)" fill="#62C3CC" width="4" height="10.2"/>
	
		<rect x="202.4" y="75" transform="matrix(-0.9925 -0.1219 0.1219 -0.9925 397.7741 182.5825)" fill="#62C3CC" width="4" height="8.2"/>
	<rect x="208.3" y="75" fill="#62C3CC" width="4" height="6.2"/>
	<polygon fill="#62C3CC" points="115.4,48.4 102,61.8 104.8,64.7 115.4,54.1 125.9,64.7 128.7,61.8 	"/>
	<polygon fill="#62C3CC" points="97.1,77.7 97.1,74.4 99.8,74.4 100.3,75.8 103.4,74.6 100.3,65.9 97.1,67 98.3,70.3 94.2,70.4 
		103.3,56.6 99.6,54.5 94.7,62 92.5,60.4 98.7,51 95,48.9 87,61.1 92.5,65.3 86.5,74.5 93.3,74.4 93.3,78 90.4,76.3 86.5,83 
		89.7,84.8 93.3,78.6 93.3,86.7 97.1,86.7 97.1,79.5 100.3,84.8 103.5,83 99.6,76.3 	"/>
	<ellipse fill="#62C3CC" cx="228.6" cy="84.5" rx="2" ry="2"/>
	<polygon fill="#62C3CC" points="222.6,60.5 222.6,66.5 226.6,66.5 226.6,64.5 230.6,64.5 230.6,70.5 226.6,70.5 226.6,70.5 
		226.6,78.5 230.6,78.5 230.6,74.5 234.6,74.5 234.6,60.5 	"/>
	<path fill="#62C3CC" d="M107.1,86.7h16.5v-16h-16.5V86.7z M111.5,74.7h7.7V83h-7.7V74.7z"/>
</g>
<g>
	<path fill="#62C3CC" d="M44.8,13.8v10.3h10.3h0l0,0C55.1,18.4,50.5,13.8,44.8,13.8z"/>
	<polygon fill="#62C3CC" points="13.8,32.7 21.3,26.7 13.8,17.4 	"/>
	<path fill="#62C3CC" d="M47.3,0h-2.4h-38h0C3.1,0,0,3.1,0,6.9V62l27.6,27.6H62h0c3.8,0,6.9-3.1,6.9-6.9V24v-2.4
		C67.7,10.2,58.7,1.2,47.3,0z M13.8,62l-6.9-6.9V12c0-2.8,2.3-5.2,5-5.1c1.3,0,2.5,0.6,3.3,1.4c0.2,0.2,10.5,12.9,14.3,17.6
		c0.8,1,0.6,2.4-0.3,3.2L13.8,41.6V62z M45.4,82.7L38,75.3c-1.1,0.3-2.3,0.5-3.6,0.5c-0.2,0-0.4,0-0.7,0
		c-7.3-0.3-13.1-6.4-13.1-13.7v-6.9c0-7.6,6.2-13.8,13.8-13.8s13.8,6.2,13.8,13.8V62c0,3.8-1.5,7.2-4,9.7l10.9,10.9H45.4z M62,24.1
		V31v24.1l-6.9-6.9V31H44.8v6.9h-6.9v-31l6.9,0v0C54.3,6.9,62,14.6,62,24.1L62,24.1L62,24.1z"/>
	<path fill="#62C3CC" d="M39.3,66.9L39.3,66.9L39.3,66.9c1.3-1.3,2.1-3,2.1-4.9v-6.9c0-3.8-3.1-6.9-6.9-6.9s-6.9,3.1-6.9,6.9V62
		c0,3.8,3.1,6.9,6.9,6.9C36.3,68.9,38,68.1,39.3,66.9z"/>
</g>
</svg>
