<svg id="圖層_1" data-name="圖層 1" xmlns="http://www.w3.org/2000/svg" viewBox="0 0 185.48 49.77"><defs><style>.cls-1{fill:#8bc53f;}</style></defs><title>citizens_university</title><path class="cls-1" d="M401,303.45c0.38,0.13.56,0.29,0.53,0.48a1.84,1.84,0,0,1-.82.74c-1.8,3.42-4,7.16-6.63,11.19,3.82-.23,7.51-0.58,11-1.1a42.28,42.28,0,0,0-2.65-4.78l2.33-1.77a50.08,50.08,0,0,1,5.48,10.32l-2.93,1.9c-0.36-1.16-.77-2.23-1.17-3.19l-17.63,2.16a1.79,1.79,0,0,1-1.07.77,0.43,0.43,0,0,1-.5-0.52l-0.53-3.52c1.59,0,3.12-.06,4.63-0.13,1.25-1.9,2.3-3.65,3.17-5.26a86.65,86.65,0,0,0,4.24-8.48Zm-3.17-7.07a0.52,0.52,0,0,1,.41.48,1.42,1.42,0,0,1-.95.77,25.91,25.91,0,0,1-8.75,10.71l-2-2a22.54,22.54,0,0,0,5.27-4.87,24.54,24.54,0,0,0,3.1-5.58Zm10.66-3.81a15,15,0,0,0,1.37,8.39,23.29,23.29,0,0,0,4.61,5.48l-3,2a22.18,22.18,0,0,1-5.07-6.84,13.49,13.49,0,0,1-1.13-6.42h-7.3l0.43-2.65h10.14Z" transform="translate(-328.34 -272.65)"/><path class="cls-1" d="M434.26,306.07h8.58l-0.43,2.64h-8.3a12.09,12.09,0,0,0,.11,2,9.3,9.3,0,0,0,1.89,4.74,2.88,2.88,0,0,0,2,1.45,1.27,1.27,0,0,0,.77-0.45,18.14,18.14,0,0,0,2.13-3.58l1.86,1.9a20.6,20.6,0,0,1-2.36,3.84,3.91,3.91,0,0,1-2.7,1.58,3.78,3.78,0,0,1-2.44-1,10.19,10.19,0,0,1-2.63-3.35,13.84,13.84,0,0,1-1.3-6,10.73,10.73,0,0,1,0-1.19h-8.64l-1.12,7c2.37-.68,4.78-1.45,7.18-2.29L428.47,316l-12.06,3.77a1.82,1.82,0,0,1-.89,1,0.47,0.47,0,0,1-.34-0.52l-0.57-2.74c1.36-.32,2.73-0.64,4.1-1l3.87-24h20.88L442,301.68h-7.14C434.57,303.36,434.37,304.81,434.26,306.07Zm-11,0h8.4c0.12-1.29.29-2.77,0.55-4.39H424Zm1.13-7h15.14l0.63-3.9H425Z" transform="translate(-328.34 -272.65)"/><path class="cls-1" d="M466.63,307.32l1.23,0.9a0.42,0.42,0,0,1,.21.38,1.28,1.28,0,0,1-.73.74l-5.15,3.52h10.9l-0.41,2.52H461L460.73,317a4,4,0,0,1-1.57,2.74c-0.71.61-2.35,0.94-4.85,0.94l-0.62-2.77h2.75a1.62,1.62,0,0,0,1.75-1.39l0.19-1.16h-12l0.41-2.52h12l0.24-1.52,1.67,0.23,2.33-2h-9.8l0.37-2.29h11.82l0.62-.23A1,1,0,0,1,466.63,307.32Zm-9.13-13.65c-1.06.32-2.24,0.61-3.5,0.9L453.77,296h4l-0.34,2.13h-4l-0.27,1.64h4l-0.35,2.16h-4l-0.26,1.61h17.77l0.26-1.61h-3.94l0.35-2.16h3.94l0.26-1.64h-3.94L467.6,296h3.94l0.27-1.64h-4.06l0.38-2.39h6.69l-1.87,11.58h2l-1,6.32h-2.63l0.63-3.9H450.24l-0.63,3.9H447l1-6.32h1.92l1.89-11.71,1.14,0.68c0.72-.13,1.42-0.26,2.12-0.45a12.09,12.09,0,0,0,2.45-1l1.36,1.81a0.73,0.73,0,0,1,.18.58,0.26,0.26,0,0,1-.29.26l-0.64-.19A3.17,3.17,0,0,0,457.5,293.68Zm8.57,4.81a0.27,0.27,0,0,1,.23.29,0.65,0.65,0,0,1-.54.48c-0.66.52-1.29,1-1.84,1.36,0.51,0.45,1,.93,1.51,1.42l-1.66,1.39c-0.58-.58-1.1-1.13-1.63-1.64-0.88.51-1.94,1.06-3.17,1.64L457.93,302a24.68,24.68,0,0,0,2.84-1.52c-0.76-.58-1.53-1.13-2.24-1.61l1.52-1.26c0.83,0.55,1.65,1.13,2.44,1.74q1-.77,2.11-1.74Zm0.88-6.19a0.33,0.33,0,0,1,.23.29,0.66,0.66,0,0,1-.54.52c-0.66.51-1.29,1-1.87,1.39,0.59,0.52,1.18,1,1.77,1.52l-1.66,1.39c-0.69-.64-1.33-1.23-1.95-1.74-0.91.52-1.91,1.07-3,1.61l-1.09-1.39a23.57,23.57,0,0,0,2.64-1.42q-1.07-.73-2.07-1.35l1.48-1.26c0.78,0.45,1.58,1,2.36,1.49a19.45,19.45,0,0,0,2.25-1.87Z" transform="translate(-328.34 -272.65)"/><path class="cls-1" d="M487.87,292.58a0.86,0.86,0,0,1,.42-0.35l2,1.87-4.35,7.84a8.39,8.39,0,0,1,1.68,5.9,8.73,8.73,0,0,1-2.06,4.61,4.87,4.87,0,0,1-3.63,1.68l-0.62-2.77A4.47,4.47,0,0,0,484,310a4.83,4.83,0,0,0,1-2.42c0.22-1.36-.38-3.16-1.75-5.42l3.57-7h-3.51l-4.13,25.68h-2.63l4.54-28.23h6.78Zm17.62,13.61-0.41,2.52H500l-1.26,7.84c-0.12.77,0.12,1.13,0.77,1.13h0.95a1.38,1.38,0,0,0,1-.42,8.26,8.26,0,0,0,1-2.48l2.51,0.74a8.69,8.69,0,0,1-1.82,3.74,3.44,3.44,0,0,1-2.38.93h-2.26c-2,0-2.87-.77-2.63-2.26l1.48-9.23H495a16.81,16.81,0,0,1-2.76,7.1c-1.15,1.61-3.33,3.06-6.57,4.39l-1.46-2.13a13.22,13.22,0,0,0,5.63-3.29c1.09-1.1,1.94-3.13,2.53-6.07H488l0.4-2.52h17.07Zm-5.11-14.52c0.48,0.06.73,0.19,0.7,0.42a1.86,1.86,0,0,1-.7.74l-0.33,2h7L505.92,302h-2.62l0.75-4.65H492.47L491.72,302h-2.63l1.15-7.16h6.93l0.55-3.42Zm1.8,9.1-0.41,2.52h-8.95l0.41-2.52h8.95Z" transform="translate(-328.34 -272.65)"/><path class="cls-1" d="M399.13,278.72a2.06,2.06,0,0,0-.51-1.51,2,2,0,0,0-1.48-.52,2.47,2.47,0,0,0-1.38.38,3.23,3.23,0,0,0-1,1,4.88,4.88,0,0,0-.59,1.41,6.4,6.4,0,0,0-.2,1.58,3.15,3.15,0,0,0,.63,2.08,2.21,2.21,0,0,0,1.8.76,1.92,1.92,0,0,0,1-.25,2.36,2.36,0,0,0,.68-0.6,2.93,2.93,0,0,0,.41-0.72,5.92,5.92,0,0,0,.2-0.61h1.55a5.41,5.41,0,0,1-.56,1.57,4,4,0,0,1-.89,1.1,3.45,3.45,0,0,1-1.14.65,4.07,4.07,0,0,1-1.31.21,4.19,4.19,0,0,1-1.69-.32,3.45,3.45,0,0,1-1.23-.87,3.81,3.81,0,0,1-.76-1.31,5,5,0,0,1-.26-1.63,7.27,7.27,0,0,1,.41-2.58,5.3,5.3,0,0,1,1.09-1.8,4.38,4.38,0,0,1,1.52-1.05,4.54,4.54,0,0,1,1.72-.34,4.42,4.42,0,0,1,1.44.22,3.18,3.18,0,0,1,1.12.65,2.8,2.8,0,0,1,.71,1.06,3.64,3.64,0,0,1,.22,1.44h-1.55Z" transform="translate(-328.34 -272.65)"/><path class="cls-1" d="M403.07,278.17h1.41L403.16,285h-1.41Zm0.51-2.61H405L404.71,277h-1.4Z" transform="translate(-328.34 -272.65)"/><path class="cls-1" d="M407.76,276.12h1.38l-0.4,2.05H410l-0.22,1.13h-1.28l-0.66,3.36c0,0.15-.06.29-0.09,0.42a1.82,1.82,0,0,0,0,.32,0.65,0.65,0,0,0,.09.36,0.48,0.48,0,0,0,.42.14h0.35a2.05,2.05,0,0,0,.4-0.06l-0.24,1.11a5.61,5.61,0,0,1-.58.11,4.81,4.81,0,0,1-.58,0A1.62,1.62,0,0,1,407,285a1,1,0,0,1-.39-0.29,1,1,0,0,1-.2-0.41,2,2,0,0,1-.06-0.47,3.34,3.34,0,0,1,0-.44,2.86,2.86,0,0,1,.06-0.33l0.73-3.75H406l0.22-1.13h1.12Z" transform="translate(-328.34 -272.65)"/><path class="cls-1" d="M411.91,278.17h1.41L412,285h-1.41Zm0.51-2.61h1.4L413.54,277h-1.4Z" transform="translate(-328.34 -272.65)"/><path class="cls-1" d="M415.33,278.17h5.14l-0.23,1.1L416,283.84h3.63L419.41,285h-5.54l0.24-1.11,4.21-4.55h-3.23Z" transform="translate(-328.34 -272.65)"/><path class="cls-1" d="M427.21,282.91a3,3,0,0,1-1.13,1.76,3.36,3.36,0,0,1-2,.55A3,3,0,0,1,423,285a2.44,2.44,0,0,1-.89-0.6,2.78,2.78,0,0,1-.58-0.94,3.49,3.49,0,0,1-.21-1.25,5.21,5.21,0,0,1,.23-1.55,4.39,4.39,0,0,1,.69-1.35,3.5,3.5,0,0,1,1.11-1,3.1,3.1,0,0,1,1.52-.36,2.78,2.78,0,0,1,1.39.3,2.35,2.35,0,0,1,.83.77,2.85,2.85,0,0,1,.4,1,5.71,5.71,0,0,1,.11,1.06,4,4,0,0,1,0,.46c0,0.14,0,.27,0,0.39h-4.77l0,0.12s0,0.07,0,.11v0.21a1.78,1.78,0,0,0,.35,1.15,1.42,1.42,0,0,0,1.17.44,1.7,1.7,0,0,0,1-.28,1.41,1.41,0,0,0,.56-0.84h1.41Zm-1-1.91a0.64,0.64,0,0,0,0-.11v-0.31a1.43,1.43,0,0,0-.36-1,1.28,1.28,0,0,0-1-.39,1.64,1.64,0,0,0-1.26.51,3,3,0,0,0-.68,1.31h3.28Z" transform="translate(-328.34 -272.65)"/><path class="cls-1" d="M430.23,278.17h1.33l-0.2,1,0,0a2.74,2.74,0,0,1,1-.89,2.53,2.53,0,0,1,1.25-.32,1.85,1.85,0,0,1,1.42.49,1.88,1.88,0,0,1,.45,1.33c0,0.12,0,.27,0,0.42a2.73,2.73,0,0,1,0,.42L434.54,285h-1.41l0.82-4.23,0.07-.33a1.64,1.64,0,0,0,0-.3c0-.05,0-0.14,0-0.25a0.79,0.79,0,0,0-.09-0.33,0.74,0.74,0,0,0-.29-0.29,1.19,1.19,0,0,0-.59-0.12,1.46,1.46,0,0,0-.75.19,2.52,2.52,0,0,0-.59.47,2.45,2.45,0,0,0-.43.66,3.76,3.76,0,0,0-.27.82L430.32,285H428.9Z" transform="translate(-328.34 -272.65)"/><path class="cls-1" d="M441.44,280.18a0.87,0.87,0,0,0-.37-0.76,1.62,1.62,0,0,0-.92-0.24,2,2,0,0,0-.4,0,1,1,0,0,0-.35.14,0.74,0.74,0,0,0-.25.26,0.85,0.85,0,0,0-.09.42,0.48,0.48,0,0,0,.17.38,1.62,1.62,0,0,0,.44.26,6,6,0,0,0,.61.21q0.33,0.1.67,0.23c0.19,0.08.38,0.17,0.56,0.26a2,2,0,0,1,.48.36,1.66,1.66,0,0,1,.33.5,1.82,1.82,0,0,1,.12.7,2,2,0,0,1-.25,1,2.21,2.21,0,0,1-.64.7,2.72,2.72,0,0,1-.91.4,4.33,4.33,0,0,1-1,.13,4.52,4.52,0,0,1-1-.11,2.18,2.18,0,0,1-.84-0.38,1.87,1.87,0,0,1-.57-0.73,2.9,2.9,0,0,1-.22-1.16h1.34a1,1,0,0,0,.38.92,1.82,1.82,0,0,0,1,.27,2.34,2.34,0,0,0,.46,0,1.58,1.58,0,0,0,.43-0.15,0.91,0.91,0,0,0,.33-0.3A0.84,0.84,0,0,0,441,283a0.58,0.58,0,0,0-.18-0.44,1.64,1.64,0,0,0-.46-0.3,5.5,5.5,0,0,0-.63-0.23c-0.24-.07-0.47-0.15-0.69-0.24a3.42,3.42,0,0,1-.54-0.25,2.06,2.06,0,0,1-.45-0.35,1.47,1.47,0,0,1-.31-0.48,1.77,1.77,0,0,1-.11-0.66,1.88,1.88,0,0,1,.23-1,1.94,1.94,0,0,1,.6-0.65,2.64,2.64,0,0,1,.84-0.37,3.89,3.89,0,0,1,1-.12,4.59,4.59,0,0,1,1,.1,2.07,2.07,0,0,1,.8.35,1.69,1.69,0,0,1,.53.67,2.47,2.47,0,0,1,.18,1.06h-1.34Z" transform="translate(-328.34 -272.65)"/><path class="cls-1" d="M450.53,275.56h1.55l-1.14,5.79c0,0.13,0,.25-0.06.38s0,0.26,0,.39a1.86,1.86,0,0,0,.13.8,1.29,1.29,0,0,0,.4.52,1.62,1.62,0,0,0,.61.29,3.3,3.3,0,0,0,1.58,0,1.69,1.69,0,0,0,.68-0.38,2.46,2.46,0,0,0,.54-0.74,4.85,4.85,0,0,0,.38-1.2l1.16-5.83h1.55l-1.17,5.94a10.7,10.7,0,0,1-.32,1.25,3.72,3.72,0,0,1-.66,1.22,3.45,3.45,0,0,1-1.21.92,4.5,4.5,0,0,1-2,.37,4.39,4.39,0,0,1-1.25-.18,3.06,3.06,0,0,1-1-.54,2.59,2.59,0,0,1-.71-0.91,2.92,2.92,0,0,1-.27-1.29,4.69,4.69,0,0,1,0-.64c0-.21.06-0.42,0.11-0.63Z" transform="translate(-328.34 -272.65)"/><path class="cls-1" d="M459.85,278.17h1.33l-0.2,1,0,0a2.75,2.75,0,0,1,1-.89,2.53,2.53,0,0,1,1.25-.32,1.85,1.85,0,0,1,1.42.49,1.88,1.88,0,0,1,.45,1.33c0,0.12,0,.27,0,0.42a3,3,0,0,1,0,.42L464.16,285h-1.41l0.82-4.23,0.07-.33a1.67,1.67,0,0,0,0-.3c0-.05,0-0.14,0-0.25a0.78,0.78,0,0,0-.09-0.33,0.74,0.74,0,0,0-.29-0.29,1.19,1.19,0,0,0-.59-0.12,1.46,1.46,0,0,0-.75.19,2.54,2.54,0,0,0-.59.47,2.44,2.44,0,0,0-.43.66,3.71,3.71,0,0,0-.27.82L459.94,285h-1.41Z" transform="translate(-328.34 -272.65)"/><path class="cls-1" d="M467.88,278.17h1.41L468,285h-1.41Zm0.51-2.61h1.4L469.52,277h-1.4Z" transform="translate(-328.34 -272.65)"/><path class="cls-1" d="M471,278.17h1.46l0.53,5h0l2.48-5H477L473.44,285h-1.57Z" transform="translate(-328.34 -272.65)"/><path class="cls-1" d="M483.47,282.91a3,3,0,0,1-1.13,1.76,3.36,3.36,0,0,1-2,.55,3,3,0,0,1-1.12-.21,2.46,2.46,0,0,1-.89-0.6,2.81,2.81,0,0,1-.58-0.94,3.48,3.48,0,0,1-.21-1.25,5.15,5.15,0,0,1,.24-1.55,4.37,4.37,0,0,1,.69-1.35,3.5,3.5,0,0,1,1.11-1,3.1,3.1,0,0,1,1.52-.36,2.77,2.77,0,0,1,1.39.3,2.35,2.35,0,0,1,.83.77,2.86,2.86,0,0,1,.4,1,5.79,5.79,0,0,1,.11,1.06,4,4,0,0,1,0,.46c0,0.14,0,.27,0,0.39H479s0,0.08,0,.12,0,0.07,0,.11v0.21a1.78,1.78,0,0,0,.35,1.15,1.42,1.42,0,0,0,1.17.44,1.7,1.7,0,0,0,1-.28,1.41,1.41,0,0,0,.56-0.84h1.41Zm-1-1.91a0.64,0.64,0,0,0,0-.11v-0.31a1.43,1.43,0,0,0-.36-1,1.28,1.28,0,0,0-1-.39,1.64,1.64,0,0,0-1.26.51,3,3,0,0,0-.68,1.31h3.28Z" transform="translate(-328.34 -272.65)"/><path class="cls-1" d="M486.49,278.17h1.34l-0.26,1.34,0,0A3.87,3.87,0,0,1,488,279a3.19,3.19,0,0,1,.48-0.5,2.44,2.44,0,0,1,.56-0.36,1.51,1.51,0,0,1,.64-0.14H490l0.34,0-0.3,1.45-0.25,0h-0.25a2.07,2.07,0,0,0-.95.2,2,2,0,0,0-.68.57,3,3,0,0,0-.45.82,6.14,6.14,0,0,0-.27,1l-0.59,3h-1.41Z" transform="translate(-328.34 -272.65)"/><path class="cls-1" d="M495.35,280.18a0.87,0.87,0,0,0-.37-0.76,1.61,1.61,0,0,0-.92-0.24,2,2,0,0,0-.4,0,1,1,0,0,0-.35.14,0.73,0.73,0,0,0-.25.26,0.85,0.85,0,0,0-.09.42,0.48,0.48,0,0,0,.17.38,1.62,1.62,0,0,0,.44.26,6.06,6.06,0,0,0,.61.21q0.34,0.1.67,0.23c0.19,0.08.38,0.17,0.56,0.26a2,2,0,0,1,.48.36,1.67,1.67,0,0,1,.33.5,1.8,1.8,0,0,1,.12.7,2,2,0,0,1-.25,1,2.2,2.2,0,0,1-.64.7,2.72,2.72,0,0,1-.91.4,4.33,4.33,0,0,1-1,.13,4.52,4.52,0,0,1-1-.11,2.2,2.2,0,0,1-.84-0.38A1.87,1.87,0,0,1,491,284a2.92,2.92,0,0,1-.22-1.16h1.34a1,1,0,0,0,.38.92,1.83,1.83,0,0,0,1,.27,2.35,2.35,0,0,0,.46,0,1.57,1.57,0,0,0,.43-0.15,0.92,0.92,0,0,0,.33-0.3,0.85,0.85,0,0,0,.13-0.48,0.58,0.58,0,0,0-.18-0.44,1.67,1.67,0,0,0-.46-0.3,5.67,5.67,0,0,0-.63-0.23c-0.24-.07-0.46-0.15-0.69-0.24a3.42,3.42,0,0,1-.54-0.25,2,2,0,0,1-.45-0.35,1.45,1.45,0,0,1-.31-0.48,1.78,1.78,0,0,1-.11-0.66,1.88,1.88,0,0,1,.23-1,2,2,0,0,1,.6-0.65,2.64,2.64,0,0,1,.84-0.37,3.9,3.9,0,0,1,1-.12,4.62,4.62,0,0,1,1,.1,2.06,2.06,0,0,1,.8.35,1.68,1.68,0,0,1,.53.67,2.48,2.48,0,0,1,.18,1.06h-1.34Z" transform="translate(-328.34 -272.65)"/><path class="cls-1" d="M499.31,278.17h1.41L499.4,285H498Zm0.51-2.61h1.4L500.95,277h-1.4Z" transform="translate(-328.34 -272.65)"/><path class="cls-1" d="M504,276.12h1.38l-0.4,2.05h1.28L506,279.3h-1.28l-0.66,3.36-0.09.42a1.87,1.87,0,0,0,0,.32,0.65,0.65,0,0,0,.09.36,0.48,0.48,0,0,0,.42.14h0.35a2,2,0,0,0,.4-0.06L505,284.95a5.57,5.57,0,0,1-.58.11,4.78,4.78,0,0,1-.58,0,1.62,1.62,0,0,1-.63-0.11,1,1,0,0,1-.39-0.29,1,1,0,0,1-.2-0.41,2,2,0,0,1-.06-0.47,3.19,3.19,0,0,1,0-.44,2.81,2.81,0,0,1,.06-0.33l0.73-3.75h-1.11l0.22-1.13h1.12Z" transform="translate(-328.34 -272.65)"/><path class="cls-1" d="M507.7,278.17h1.49l0.67,5h0l2.42-5h1.51l-3.67,7.07-0.48.94a4.2,4.2,0,0,1-.54.8,2.29,2.29,0,0,1-.71.56,2.21,2.21,0,0,1-1,.21,4.08,4.08,0,0,1-.85-0.11l0.26-1.26,0.27,0.07a1.24,1.24,0,0,0,.82-0.09,0.88,0.88,0,0,0,.37-0.46l0.56-1.1Z" transform="translate(-328.34 -272.65)"/><polygon class="cls-1" points="56.79 14.82 39.56 5.82 16.97 17.47 12.07 14.77 34.42 3.14 28.41 0 0 14.82 28.41 29.62 56.79 14.82"/><polygon class="cls-1" points="30 39.7 26.83 39.7 26.85 32.25 10.71 23.75 10.66 40.61 28.41 49.77 46.12 40.53 46.12 23.74 30 32.18 30 39.7"/></svg>