<svg id="圖層_1" data-name="圖層 1" xmlns="http://www.w3.org/2000/svg" viewBox="0 0 174.46 46.54"><defs><style>.cls-1{fill:#b7282e;}</style></defs><title>congress_musou</title><path class="cls-1" d="M417.92,292.4l-4.5,28h-2.5l0.16-1H390.56l-0.16,1h-2.5l4.5-28h25.52Zm-6.44,24.42,3.53-21.9H394.5L391,316.82h20.52Zm-9.81-4.13c-1.65.39-4.2,0.87-7.66,1.48a1,1,0,0,1-.66.52c-0.18,0-.25-0.13-0.21-0.42L393,311.66a84.74,84.74,0,0,0,9-1.26Zm1.26-10.1-1.12,6.94h-7.75l1.12-6.94h7.76Zm1.75-4c0.14-1,.3-2.06.48-3.16l2.21,0.52c0.3,0.06.43,0.19,0.4,0.39a1.38,1.38,0,0,1-.49.74c-0.08.52-.17,1-0.21,1.52h3.57a12.83,12.83,0,0,0-1.72-2l1.8-1.51a13.39,13.39,0,0,1,2,2.26l-1.61,1.26h2.23L413,300.82h-6.2a34.71,34.71,0,0,0-.17,6.39,7.77,7.77,0,0,0,.16,1.07,0.15,0.15,0,0,1,0-.07,24,24,0,0,0,2.92-5.61l2.09,0.68a0.4,0.4,0,0,1,.34.32,1.14,1.14,0,0,1-.56.65,24.84,24.84,0,0,1-3.89,6.52c-0.08.1-.15,0.16-0.19,0.22a3.62,3.62,0,0,0,.34.71,1.14,1.14,0,0,0,.86.74c0.24,0,.79-0.9,1.64-2.77L412,311.4c-1.64,3-2.88,4.42-3.7,4.42-0.67,0-1.43-.58-2.25-1.74a7.75,7.75,0,0,1-.59-1.1,30.2,30.2,0,0,1-4.2,3l-1.66-1.65a25,25,0,0,0,3.72-2.42,17,17,0,0,0,1.35-1.16,21,21,0,0,1-.56-3.35,39.32,39.32,0,0,1,.29-6.55h-9.77l0.36-2.26h9.68Zm-4.35,6.16H397.1l-0.43,2.65h3.24Z" transform="translate(-334.17 -275.07)"/><path class="cls-1" d="M438.06,291.78a0.48,0.48,0,0,1,.38.48,0.69,0.69,0,0,1-.62.42,21.18,21.18,0,0,0,5.32,2.61,33.78,33.78,0,0,0,6,1.61l-2.34,2.77a38.21,38.21,0,0,1-6.67-2.58,22.37,22.37,0,0,1-4.59-3.13c-1.62.94-3.16,1.77-4.65,2.55a71.93,71.93,0,0,1-8.44,3.29l-1.81-2a54.4,54.4,0,0,0,8.35-2.94,53.14,53.14,0,0,0,7.09-4Zm7.49,9-1.38,8.58h-2.62l0.12-.74H424.72l-0.12.74H422l1.38-8.58h22.2Zm-3.9,9.45L440,320.37h-2.75l0.14-.9H425.61l-0.17,1H422.7l1.65-10.22h17.31Zm-13.75-3.9a20.57,20.57,0,0,0-.6-2.52l2.22-.51a22.71,22.71,0,0,1,.7,3h1.92l0.52-3.26h-7.05l-0.52,3.26h2.81Zm9.85,11.1,0.24-1.52H426.17l-0.24,1.52h11.82Zm0.54-3.39,0.29-1.77H426.76l-0.29,1.77h11.82Zm2.09-16.77-0.32,2h-11l0.32-2h11Zm-4,9.07,2-3,1.63,0.9a0.44,0.44,0,0,1,.3.39,0.87,0.87,0,0,1-.56.61l-0.92,1.13H442l0.52-3.26h-7.51l-0.52,3.26h1.89Z" transform="translate(-334.17 -275.07)"/><path class="cls-1" d="M455.12,314.07a36.42,36.42,0,0,1-3.66,6.42l-2.67-1a30.6,30.6,0,0,0,3.81-6Zm6.07-21.58a0.49,0.49,0,0,1,.33.39,1.14,1.14,0,0,1-.83.77c-0.27.32-.5,0.61-0.72,0.87h18.1l-0.43,2.64h-2.5l-0.81,5H478l-0.43,2.65h-3.69l-0.82,5.06h3.57l-0.45,2.77H450l0.45-2.77h4.15l0.82-5.06h-4.76l0.43-2.65h4.76l0.64-4c-0.82.74-1.74,1.52-2.76,2.36l-1.57-2a28.76,28.76,0,0,0,6.87-7.19Zm-1.34,17.42,0.82-5.06H458l-0.82,5.06h2.63Zm0.66,9.94-2.82.64a54.7,54.7,0,0,0,.12-6.06l2.36-.61A41.08,41.08,0,0,1,460.51,319.85Zm1.39-22.68h-2.63l-0.81,5h2.63Zm3.2,12.74,0.82-5.06H463.3l-0.82,5.06h2.63Zm2.05-12.74h-2.63l-0.81,5h2.63Zm0.19,22.55-3,.77a39,39,0,0,0-.21-6.06l2.48-.61A29.36,29.36,0,0,1,467.34,319.72Zm3.14-9.81,0.82-5.06h-2.75l-0.81,5.06h2.75Zm2.05-12.74h-2.75l-0.81,5h2.75ZM475.1,319l-2.77,1.65a20.33,20.33,0,0,1-1.73-5.55l2.56-1.13A14.25,14.25,0,0,0,475.1,319Z" transform="translate(-334.17 -275.07)"/><path class="cls-1" d="M503.17,310.78l0.52-.39a0.46,0.46,0,0,1,.36.23l0.7,1.13a1.45,1.45,0,0,1,0,.68,1.37,1.37,0,0,1-.92.61,46.08,46.08,0,0,1-6.75,4.19,66.76,66.76,0,0,0,8.42,1l-2.35,2.65a52.58,52.58,0,0,1-8.84-1.81c-0.35-.13-0.7-0.22-1-0.32a61.9,61.9,0,0,1-13,2.13l-1.15-2.52a43.71,43.71,0,0,0,7.87-.55c1.13-.16,2.16-0.32,3.14-0.52a11.28,11.28,0,0,1-1.1-.74A10.65,10.65,0,0,1,486,313h-3.48l0.36-2.26h20.27Zm-14.52-18.65c0.36,0.07.55,0.19,0.52,0.39a1.21,1.21,0,0,1-.92.61c-0.26.45-.54,0.87-0.78,1.26h2.47l1.47-2.52,2,0.58c0.23,0.06.37,0.16,0.35,0.29a0.83,0.83,0,0,1-.42.51l-0.82,1.13h2.9l-0.36,2.26h-3.24l-0.37,2.29h1.92l-0.22-.13a30,30,0,0,0,5.7-7.32l2.43,0.65c0.36,0.07.55,0.19,0.52,0.39a1.21,1.21,0,0,1-.92.61c-0.32.48-.61,0.94-0.93,1.39h2.63l1.34-2.65,2,0.58c0.23,0.06.37,0.16,0.35,0.29a0.83,0.83,0,0,1-.42.51l-0.75,1.26h3.51l-0.36,2.26h-3.94l-0.31,1.9h3.48l-0.34,2.13h-3.48l-0.33,2h3.48L506.49,305H503l-0.35,2.16H507l-0.36,2.26H494.79l1.69-10.52c-0.37.42-.77,0.81-1.14,1.19l-1.2-.68-0.27,1.68h-2.75l-0.33,2h2.75l-0.34,2.13h-2.75l-0.31,1.9h3.36l-0.36,2.26H482.39l1.7-10.55c-0.49.58-1,1.1-1.45,1.61l-2.18-1.26a31.08,31.08,0,0,0,5.76-7.71Zm-0.58,13.1h-2.63l-0.31,1.9h2.63Zm0.67-4.16h-2.62l-0.33,2h2.63Zm0.71-4.42h-2.63l-0.37,2.29h2.63Zm1.94,18.65a19.32,19.32,0,0,0,2.37,1,11.94,11.94,0,0,0,1.11-.45A32.39,32.39,0,0,0,500,313h-11.3A9.31,9.31,0,0,0,491.39,315.3ZM500.63,305h-2.72l-0.35,2.16h2.72Zm0.67-4.16h-2.72l-0.33,2H501Zm0.65-4h-2.72l-0.31,1.9h2.72Z" transform="translate(-334.17 -275.07)"/><path class="cls-1" d="M400.93,278.51a2.05,2.05,0,0,0-.51-1.51,2,2,0,0,0-1.48-.52,2.46,2.46,0,0,0-1.38.38,3.22,3.22,0,0,0-1,1,4.91,4.91,0,0,0-.59,1.41,6.41,6.41,0,0,0-.2,1.58,3.15,3.15,0,0,0,.63,2.08,2.21,2.21,0,0,0,1.8.76,1.92,1.92,0,0,0,1-.25,2.33,2.33,0,0,0,.68-0.6,3,3,0,0,0,.41-0.72,6.26,6.26,0,0,0,.2-0.61h1.55a5.43,5.43,0,0,1-.56,1.56,4,4,0,0,1-.89,1.1,3.46,3.46,0,0,1-1.14.65,4.07,4.07,0,0,1-1.31.21,4.19,4.19,0,0,1-1.69-.32,3.45,3.45,0,0,1-1.23-.87,3.83,3.83,0,0,1-.75-1.31,5,5,0,0,1-.26-1.63,7.26,7.26,0,0,1,.42-2.58,5.32,5.32,0,0,1,1.09-1.8,4.35,4.35,0,0,1,1.52-1.05,4.51,4.51,0,0,1,1.72-.35,4.4,4.4,0,0,1,1.44.23,3.16,3.16,0,0,1,1.12.65,2.77,2.77,0,0,1,.71,1.06,3.64,3.64,0,0,1,.22,1.44h-1.55Z" transform="translate(-334.17 -275.07)"/><path class="cls-1" d="M406.58,285a2.71,2.71,0,0,1-2.07-.78,3.12,3.12,0,0,1-.73-2.22,5,5,0,0,1,.26-1.61,4.29,4.29,0,0,1,.74-1.35,3.58,3.58,0,0,1,1.15-.93,3.25,3.25,0,0,1,1.51-.34,2.76,2.76,0,0,1,2.07.75,3,3,0,0,1,.73,2.19,5.55,5.55,0,0,1-.25,1.68,4,4,0,0,1-.73,1.36A3.37,3.37,0,0,1,406.58,285Zm0.77-6a1.56,1.56,0,0,0-.95.29,2.53,2.53,0,0,0-.68.74,3.38,3.38,0,0,0-.4,1,4.53,4.53,0,0,0-.13,1.06,2.15,2.15,0,0,0,.35,1.26,1.27,1.27,0,0,0,1.12.5,1.59,1.59,0,0,0,.95-0.29,2.45,2.45,0,0,0,.68-0.73,3.37,3.37,0,0,0,.4-1,4.61,4.61,0,0,0,.13-1.07,2.14,2.14,0,0,0-.35-1.26A1.27,1.27,0,0,0,407.35,279Z" transform="translate(-334.17 -275.07)"/><path class="cls-1" d="M413,278h1.33l-0.2,1,0,0a2.75,2.75,0,0,1,1-.89,2.53,2.53,0,0,1,1.25-.32,1.85,1.85,0,0,1,1.42.49,1.88,1.88,0,0,1,.45,1.33c0,0.12,0,.26,0,0.42a3,3,0,0,1,0,.42l-0.86,4.38h-1.41l0.82-4.23,0.07-.33a1.56,1.56,0,0,0,0-.3c0-.05,0-0.13,0-0.25a0.77,0.77,0,0,0-.09-0.33,0.72,0.72,0,0,0-.29-0.29,1.19,1.19,0,0,0-.59-0.12,1.45,1.45,0,0,0-.75.19,2.63,2.63,0,0,0-.59.47,2.47,2.47,0,0,0-.43.66,3.8,3.8,0,0,0-.27.82l-0.72,3.71h-1.41Z" transform="translate(-334.17 -275.07)"/><path class="cls-1" d="M425.49,284.64a6.93,6.93,0,0,1-.4,1.34,2.61,2.61,0,0,1-.62.9,2.31,2.31,0,0,1-.92.5,4.65,4.65,0,0,1-1.3.16,4.38,4.38,0,0,1-1-.12,2.62,2.62,0,0,1-.87-0.38,1.92,1.92,0,0,1-.61-0.68,2.19,2.19,0,0,1-.24-1h1.41a0.92,0.92,0,0,0,.44.82,2,2,0,0,0,1,.24,1.84,1.84,0,0,0,.78-0.14,1.42,1.42,0,0,0,.51-0.4,1.8,1.8,0,0,0,.32-0.6,7.75,7.75,0,0,0,.2-0.78l0.14-.67,0,0a2.06,2.06,0,0,1-1.81,1,2.3,2.3,0,0,1-1.85-.75A3.06,3.06,0,0,1,420,282a5.56,5.56,0,0,1,.22-1.53,4.5,4.5,0,0,1,.63-1.36,3.31,3.31,0,0,1,1-1,2.71,2.71,0,0,1,1.42-.37,2.31,2.31,0,0,1,1.21.31,1.88,1.88,0,0,1,.77,1h0L425.5,278h1.34Zm-4.08-2.71a2.83,2.83,0,0,0,.07.66,1.57,1.57,0,0,0,.24.54,1.13,1.13,0,0,0,.41.37,1.31,1.31,0,0,0,.61.13,1.67,1.67,0,0,0,1-.28,2.27,2.27,0,0,0,.66-0.72,3.26,3.26,0,0,0,.38-1,5,5,0,0,0,.12-1.06,1.8,1.8,0,0,0-.36-1.19,1.31,1.31,0,0,0-1.07-.43,1.48,1.48,0,0,0-.9.29,2.36,2.36,0,0,0-.64.72,3.51,3.51,0,0,0-.38,1A4.32,4.32,0,0,0,421.41,281.93Z" transform="translate(-334.17 -275.07)"/><path class="cls-1" d="M429.25,278h1.34l-0.26,1.34,0,0a3.85,3.85,0,0,1,.37-0.56,3.26,3.26,0,0,1,.48-0.5,2.46,2.46,0,0,1,.56-0.36,1.51,1.51,0,0,1,.64-0.14h0.34l0.34,0-0.3,1.45-0.25,0h-0.25a2.05,2.05,0,0,0-.95.21,2,2,0,0,0-.68.56,3.07,3.07,0,0,0-.45.82,6,6,0,0,0-.27,1l-0.6,3h-1.41Z" transform="translate(-334.17 -275.07)"/><path class="cls-1" d="M439.66,282.7a3,3,0,0,1-1.13,1.76,3.35,3.35,0,0,1-2,.55,3,3,0,0,1-1.12-.21,2.46,2.46,0,0,1-.89-0.6,2.78,2.78,0,0,1-.58-0.94,3.49,3.49,0,0,1-.21-1.25,5.2,5.2,0,0,1,.23-1.55,4.37,4.37,0,0,1,.69-1.35,3.49,3.49,0,0,1,1.11-1,3.11,3.11,0,0,1,1.52-.36,2.76,2.76,0,0,1,1.39.31,2.35,2.35,0,0,1,.83.77,2.87,2.87,0,0,1,.4,1,5.79,5.79,0,0,1,.11,1.06,4.13,4.13,0,0,1,0,.46q0,0.21,0,.38h-4.77s0,0.08,0,.12a1,1,0,0,0,0,.11v0.21a1.78,1.78,0,0,0,.35,1.15,1.42,1.42,0,0,0,1.17.44,1.7,1.7,0,0,0,1-.28,1.41,1.41,0,0,0,.56-0.83h1.41Zm-1-1.91a0.59,0.59,0,0,0,0-.11v-0.31a1.43,1.43,0,0,0-.36-1,1.28,1.28,0,0,0-1-.39,1.63,1.63,0,0,0-1.26.51,3,3,0,0,0-.68,1.31h3.28Z" transform="translate(-334.17 -275.07)"/><path class="cls-1" d="M445.89,280a0.87,0.87,0,0,0-.37-0.76,1.62,1.62,0,0,0-.92-0.24,2,2,0,0,0-.4,0,1,1,0,0,0-.35.14,0.74,0.74,0,0,0-.25.27,0.85,0.85,0,0,0-.09.42,0.49,0.49,0,0,0,.17.38,1.6,1.6,0,0,0,.44.26,6,6,0,0,0,.61.21q0.33,0.1.67,0.23c0.19,0.08.38,0.17,0.56,0.27a2,2,0,0,1,.48.36,1.64,1.64,0,0,1,.33.5,1.79,1.79,0,0,1,.12.7,2,2,0,0,1-.25,1,2.21,2.21,0,0,1-.64.7,2.68,2.68,0,0,1-.91.4,4.33,4.33,0,0,1-1,.13,4.57,4.57,0,0,1-1-.11,2.17,2.17,0,0,1-.84-0.39,1.87,1.87,0,0,1-.57-0.73,2.91,2.91,0,0,1-.22-1.16h1.34a1,1,0,0,0,.38.92,1.81,1.81,0,0,0,1,.27,2.35,2.35,0,0,0,.46,0,1.46,1.46,0,0,0,.43-0.15,0.91,0.91,0,0,0,.33-0.3,0.84,0.84,0,0,0,.13-0.48,0.58,0.58,0,0,0-.18-0.44,1.59,1.59,0,0,0-.46-0.3,5.39,5.39,0,0,0-.63-0.23q-0.35-.11-0.69-0.24a3.77,3.77,0,0,1-.54-0.25,2,2,0,0,1-.45-0.35,1.51,1.51,0,0,1-.31-0.48,1.79,1.79,0,0,1-.11-0.66,1.88,1.88,0,0,1,.23-1,1.93,1.93,0,0,1,.6-0.65,2.66,2.66,0,0,1,.84-0.37,3.94,3.94,0,0,1,1-.12,4.55,4.55,0,0,1,1,.1,2.05,2.05,0,0,1,.8.35,1.67,1.67,0,0,1,.53.68,2.44,2.44,0,0,1,.18,1.06h-1.34Z" transform="translate(-334.17 -275.07)"/><path class="cls-1" d="M453.06,280a0.87,0.87,0,0,0-.37-0.76,1.61,1.61,0,0,0-.92-0.24,2,2,0,0,0-.4,0,1,1,0,0,0-.35.14,0.72,0.72,0,0,0-.25.27,0.84,0.84,0,0,0-.09.42,0.48,0.48,0,0,0,.17.38,1.59,1.59,0,0,0,.44.26,6,6,0,0,0,.61.21q0.33,0.1.67,0.23c0.19,0.08.38,0.17,0.56,0.27a1.94,1.94,0,0,1,.48.36,1.66,1.66,0,0,1,.33.5,1.79,1.79,0,0,1,.12.7,2,2,0,0,1-.25,1,2.21,2.21,0,0,1-.64.7,2.67,2.67,0,0,1-.91.4,4.33,4.33,0,0,1-1,.13,4.58,4.58,0,0,1-1-.11,2.18,2.18,0,0,1-.84-0.39,1.87,1.87,0,0,1-.57-0.73,2.89,2.89,0,0,1-.22-1.16h1.34a1,1,0,0,0,.38.92,1.81,1.81,0,0,0,1,.27,2.34,2.34,0,0,0,.46,0,1.45,1.45,0,0,0,.43-0.15,0.89,0.89,0,0,0,.33-0.3,0.83,0.83,0,0,0,.13-0.48,0.58,0.58,0,0,0-.18-0.44,1.6,1.6,0,0,0-.46-0.3,5.42,5.42,0,0,0-.63-0.23c-0.24-.07-0.46-0.15-0.69-0.24a3.75,3.75,0,0,1-.54-0.25,2,2,0,0,1-.45-0.35,1.48,1.48,0,0,1-.31-0.48,1.79,1.79,0,0,1-.11-0.66,1.87,1.87,0,0,1,.23-1,1.93,1.93,0,0,1,.6-0.65,2.66,2.66,0,0,1,.84-0.37,4,4,0,0,1,1-.12,4.55,4.55,0,0,1,1,.1,2.05,2.05,0,0,1,.8.35,1.67,1.67,0,0,1,.53.68,2.45,2.45,0,0,1,.18,1.06h-1.34Z" transform="translate(-334.17 -275.07)"/><path class="cls-1" d="M462.18,275.36h2.13l1,7.21h0l3.84-7.21h2.19l-1.82,9.47H468l1.54-7.59h0l-4,7.59h-1.21l-1.11-7.59h0l-1.35,7.59h-1.49Z" transform="translate(-334.17 -275.07)"/><path class="cls-1" d="M477.63,284.82H476.3l0.2-1,0,0a2.74,2.74,0,0,1-1,.89,2.54,2.54,0,0,1-1.25.32,1.84,1.84,0,0,1-1.42-.49,1.88,1.88,0,0,1-.45-1.33c0-.12,0-0.26,0-0.42a3,3,0,0,1,0-.42l0.86-4.38h1.41l-0.82,4.23-0.07.33a1.65,1.65,0,0,0,0,.31c0,0.05,0,.13,0,0.25a0.76,0.76,0,0,0,.09.33,0.74,0.74,0,0,0,.28.29,1.18,1.18,0,0,0,.6.12,1.49,1.49,0,0,0,.75-0.19,2.2,2.2,0,0,0,.6-0.5,2.94,2.94,0,0,0,.43-0.68,3.3,3.3,0,0,0,.25-0.76l0.72-3.71H479Z" transform="translate(-334.17 -275.07)"/><path class="cls-1" d="M484.61,280a0.87,0.87,0,0,0-.37-0.76,1.61,1.61,0,0,0-.92-0.24,2,2,0,0,0-.4,0,1,1,0,0,0-.35.14,0.72,0.72,0,0,0-.25.27,0.84,0.84,0,0,0-.09.42,0.48,0.48,0,0,0,.17.38,1.61,1.61,0,0,0,.44.26,6.17,6.17,0,0,0,.61.21q0.33,0.1.67,0.23c0.19,0.08.38,0.17,0.56,0.27a1.94,1.94,0,0,1,.48.36,1.66,1.66,0,0,1,.33.5,1.8,1.8,0,0,1,.12.7,2,2,0,0,1-.25,1,2.22,2.22,0,0,1-.64.7,2.68,2.68,0,0,1-.91.4,4.33,4.33,0,0,1-1,.13,4.57,4.57,0,0,1-1-.11,2.17,2.17,0,0,1-.84-0.39,1.86,1.86,0,0,1-.57-0.73,2.9,2.9,0,0,1-.22-1.16h1.34a1,1,0,0,0,.38.92,1.81,1.81,0,0,0,1,.27,2.35,2.35,0,0,0,.46,0,1.45,1.45,0,0,0,.43-0.15,0.9,0.9,0,0,0,.33-0.3,0.83,0.83,0,0,0,.13-0.48,0.58,0.58,0,0,0-.18-0.44,1.59,1.59,0,0,0-.46-0.3,5.32,5.32,0,0,0-.63-0.23q-0.35-.11-0.69-0.24a3.72,3.72,0,0,1-.54-0.25,2,2,0,0,1-.45-0.35,1.5,1.5,0,0,1-.31-0.48,1.78,1.78,0,0,1-.11-0.66,1.87,1.87,0,0,1,.23-1,1.92,1.92,0,0,1,.6-0.65,2.66,2.66,0,0,1,.84-0.37,3.94,3.94,0,0,1,1-.12,4.54,4.54,0,0,1,1,.1,2,2,0,0,1,.8.35,1.68,1.68,0,0,1,.53.68,2.45,2.45,0,0,1,.18,1.06h-1.34Z" transform="translate(-334.17 -275.07)"/><path class="cls-1" d="M490.3,285a2.71,2.71,0,0,1-2.07-.78,3.12,3.12,0,0,1-.73-2.22,5,5,0,0,1,.26-1.61,4.29,4.29,0,0,1,.74-1.35,3.58,3.58,0,0,1,1.15-.93,3.25,3.25,0,0,1,1.5-.34,2.76,2.76,0,0,1,2.07.75,3,3,0,0,1,.73,2.19,5.53,5.53,0,0,1-.25,1.68,4,4,0,0,1-.72,1.36A3.37,3.37,0,0,1,490.3,285Zm0.77-6a1.56,1.56,0,0,0-.95.29,2.54,2.54,0,0,0-.68.74,3.37,3.37,0,0,0-.4,1,4.55,4.55,0,0,0-.13,1.06,2.14,2.14,0,0,0,.35,1.26,1.27,1.27,0,0,0,1.12.5,1.59,1.59,0,0,0,.95-0.29,2.44,2.44,0,0,0,.68-0.73,3.37,3.37,0,0,0,.4-1,4.64,4.64,0,0,0,.13-1.07,2.14,2.14,0,0,0-.35-1.26A1.27,1.27,0,0,0,491.06,279Z" transform="translate(-334.17 -275.07)"/><path class="cls-1" d="M501,284.82h-1.33l0.2-1,0,0a2.75,2.75,0,0,1-1,.89,2.54,2.54,0,0,1-1.25.32,1.84,1.84,0,0,1-1.42-.49,1.88,1.88,0,0,1-.45-1.33c0-.12,0-0.26,0-0.42a3.11,3.11,0,0,1,0-.42l0.86-4.38h1.41l-0.82,4.23-0.07.33a1.65,1.65,0,0,0,0,.31c0,0.05,0,.13,0,0.25a0.76,0.76,0,0,0,.09.33,0.74,0.74,0,0,0,.28.29,1.18,1.18,0,0,0,.6.12,1.49,1.49,0,0,0,.75-0.19,2.2,2.2,0,0,0,.6-0.5,2.94,2.94,0,0,0,.43-0.68,3.3,3.3,0,0,0,.25-0.76l0.72-3.71h1.41Z" transform="translate(-334.17 -275.07)"/><polygon class="cls-1" points="20.25 22.4 20.25 6.38 2.01 0 0 46.54 20.25 43.45 20.25 24.87 9.54 24.87 9.72 18.15 13.36 18.73 13.36 21.71 20.25 22.4"/><polygon class="cls-1" points="43.69 0 25.45 6.38 25.45 22.41 32.38 21.71 32.38 18.73 36.02 18.15 36.2 24.87 25.45 24.87 25.45 43.45 45.7 46.54 43.69 0"/></svg>