<?xml version="1.0" encoding="utf-8"?>
<!-- Generator: Adobe Illustrator 17.0.0, SVG Export Plug-In . SVG Version: 6.00 Build 0)  -->
<!DOCTYPE svg PUBLIC "-//W3C//DTD SVG 1.1//EN" "http://www.w3.org/Graphics/SVG/1.1/DTD/svg11.dtd">
<svg version="1.1" id="Layer_1" xmlns="http://www.w3.org/2000/svg" xmlns:xlink="http://www.w3.org/1999/xlink" x="0px" y="0px"
	 width="1122px" height="458px" viewBox="0 0 1122 458" enable-background="new 0 0 1122 458" xml:space="preserve">
<g>
	<path fill="#FFFFFF" d="M49,55v224c0,80.292,85.434,150.241,145.5,161.768C252.209,429.241,340,359.292,340,279V55H49z"/>
	<path fill="#808080" d="M179,55H49v224c0,23.561,7.363,46.228,19.277,66.794L179,235.07V55z"/>
	<path fill="#808080" d="M86.976,372.289c25.842,30.772,60.869,54.125,92.024,64.394V280.264L86.976,372.289z"/>
	<path fill="#808080" d="M210,55v381.513C266.676,417.112,340,352.38,340,279V55H210z"/>
</g>
<g>
	<polygon points="670,180.407 670,155.238 759,102.637 759,127.806 	"/>
	<polygon points="855,171.616 855,144.867 793,108.765 793,135.513 	"/>
	<polygon points="872.333,172 855,172 855,145 887,145 	"/>
	<polygon points="793,250.707 793,227.645 731,191.543 731,214.605 	"/>
	<rect x="691" y="176" width="161" height="21"/>
	<rect x="708" y="89" width="127" height="21"/>
	<rect x="793" y="228" width="41" height="23"/>
	<polygon points="723.762,71 738.353,47 822.342,47 807.751,71 	"/>
	<rect x="759" y="77" width="26" height="79"/>
	<rect x="731" y="158" width="25" height="56"/>
	<polygon points="752,250.707 752,227.645 813,191.543 813,214.605 	"/>
	<rect x="710" y="228" width="42" height="23"/>
	<rect x="787" y="158" width="26" height="56"/>
</g>
<g>
	<polygon points="590,344 560,344 560,235 575,220 590,235 	"/>
	<rect x="564" y="338" width="22" height="61"/>
	<rect x="502" y="288" width="31" height="67"/>
	<rect x="618" y="288" width="31" height="67"/>
	<rect x="500" y="364" width="31" height="69"/>
	<rect x="620" y="364" width="31" height="69"/>
	<rect x="540" y="334" width="70" height="20"/>
	<rect x="503" y="395" width="145" height="24"/>
</g>
<g>
	<rect x="546" y="102" width="124" height="25"/>
	<rect x="546" y="180" width="124" height="25"/>
	<polygon points="628.257,95 597.397,95 576,57 606.86,57 	"/>
	<polygon points="613.722,180 586.265,180 560,135 587.457,135 	"/>
	<polygon points="595.957,180 624.788,180 654.582,127 625.751,127 	"/>
</g>
<g>
	<rect x="763" y="308" width="29" height="82"/>
	<rect x="691" y="307" width="25" height="86"/>
	<rect x="726" y="368" width="103" height="23"/>
	<rect x="726" y="325" width="103" height="23"/>
	<polygon points="726.827,301 741.417,276 834.452,276 819.863,301 	"/>
	<polygon points="646.546,355 675.94,355 722,276 692.606,276 	"/>
</g>
<g>
	<rect x="901" y="272" width="27" height="142"/>
	<rect x="966" y="316" width="133" height="27"/>
	<polygon points="1025,298 1025,271 1122,271 1107.333,298 	"/>
	<polygon points="998.742,415 1017.795,384 1059,384 1059,415 	"/>
	<polygon points="927.599,414 900.544,414 878.787,376 905.843,376 	"/>
	<rect x="957" y="174" width="106" height="27"/>
	<polygon points="957.974,166 993.367,166 1029.303,104 993.91,104 	"/>
	<polygon points="1053.894,298 1023.431,298 971.667,209 1002.129,209 	"/>
	<polygon points="982.644,277 1018.98,277 1062.942,200 1026.606,200 	"/>
	<polygon points="813.33,414 842.328,414 921.9,276 892.902,276 	"/>
	<polygon points="931.842,455 963.68,455 1055.005,297 1023.167,297 	"/>
	<rect x="871" y="180" width="77" height="27"/>
	<polygon points="899.276,244 928.194,244 948.305,207 919.387,207 	"/>
	<polygon points="922.305,244 899.333,244 887.848,223 910.82,223 	"/>
	<polygon points="1020.621,415 1058.144,415 1099.464,343 1061.94,343 	"/>
	<rect x="834" y="251" width="149" height="26"/>
	<polygon points="932.912,316 960.449,316 982.331,277 954.794,277 	"/>
</g>
<rect x="635" y="221" fill="#00FFB0" width="48" height="46"/>
<polygon fill="#00FFB0" points="663,267 663,301 683,267 "/>
<rect x="900" y="91" fill="#FF0055" width="48" height="46"/>
<polygon fill="#FF0055" points="900,137 900,171 920,137 "/>
<g>
	<path fill="#CCCCCC" d="M301.144,404.054c26.791,4.321,55.857-3.531,76.743-24.417c20.886-20.886,28.739-49.952,24.417-76.743
		L301.144,404.054z"/>
	<polygon fill="#00FFFF" points="371.705,342.094 342.073,371.77 0,29.608 0,0 29.566,0 	"/>
	<polygon fill="#29ABE2" points="356.922,356.898 342.106,371.748 0,29.608 0,-0.09 	"/>
	
		<rect x="386.05" y="353.593" transform="matrix(0.7071 -0.7071 0.7071 0.7071 -166.1506 401.0623)" fill="#C1272D" width="30" height="95"/>
	<g>
		<g>
			<circle fill="#CCCCCC" cx="361.098" cy="361.848" r="26"/>
		</g>
		<g>
			<path fill="#ED1C24" d="M361.098,339.348c6.01,0,11.66,2.34,15.91,6.59c8.773,8.773,8.773,23.047,0,31.82
				c-4.25,4.25-9.9,6.59-15.91,6.59s-11.66-2.34-15.91-6.59c-8.773-8.773-8.773-23.047,0-31.82
				C349.438,341.689,355.088,339.348,361.098,339.348 M361.098,331.348c-7.806,0-15.611,2.978-21.567,8.933
				c-11.911,11.911-11.911,31.223,0,43.134c5.956,5.956,13.761,8.933,21.567,8.933s15.611-2.978,21.567-8.933
				c11.911-11.911,11.911-31.223,0-43.134C376.709,334.326,368.904,331.348,361.098,331.348L361.098,331.348z"/>
		</g>
		<g>
			<defs>
				<circle id="SVGID_1_" cx="361.098" cy="361.848" r="30.5"/>
			</defs>
			<clipPath id="SVGID_2_">
				<use xlink:href="#SVGID_1_"  overflow="visible"/>
			</clipPath>
			
				<rect x="356.745" y="328.702" transform="matrix(0.7071 -0.7071 0.7071 0.7071 -150.4556 361.1714)" clip-path="url(#SVGID_2_)" fill="#ED1C24" width="8" height="67"/>
			<rect x="353" y="358" clip-path="url(#SVGID_2_)" fill="#ED1C24" width="8" height="39"/>
		</g>
	</g>
	<path fill="#CCCCCC" d="M449.486,450.237c8.396-8.396,8.396-22.009,0-30.406l-30.406,30.406
		C427.477,458.633,441.09,458.633,449.486,450.237z"/>
</g>
</svg>
