<?xml version="1.0" standalone="no"?>
<!DOCTYPE svg PUBLIC "-//W3C//DTD SVG 1.1//EN" "http://www.w3.org/Graphics/SVG/1.1/DTD/svg11.dtd" >
<svg>
<metadata>
Created by FontForge 20090622 at Sun Aug 21 04:40:49 2016
 By deploy user
Copyright &#194;&#169; 1990, 2001 Adobe Systems Incorporated.  All Rights Reserved.
</metadata>
<defs>
<font id="CenturyStd-Bold" horiz-adv-x="333" >
  <font-face 
    font-family="ITC Century Std Book"
    font-weight="700"
    font-stretch="normal"
    units-per-em="1000"
    panose-1="0 0 8 0 0 0 0 0 0 0"
    ascent="688"
    descent="-312"
    x-height="470"
    cap-height="688"
    bbox="-167 -220 1134 936"
    underline-thickness="50"
    underline-position="-50"
    unicode-range="U+0020-U+FB02"
  />
<missing-glyph horiz-adv-x="500" 
d="M0 0v700h500v-700h-500zM250 395l170 255h-340zM280 350l170 -255v510zM80 50h340l-170 255zM50 605v-510l170 255z" />
    <glyph glyph-name="fi" unicode="fi" horiz-adv-x="685" 
d="M592 470v-364q0 -37 13 -51.5t58 -14.5v-40h-281v40q38 0 51 15t13 51v257q0 40 -13.5 50.5t-64.5 10.5h-116v-318q0 -37 16 -51.5t70 -14.5v-40h-310v40q48 0 63 14.5t15 51.5v318h-92v46h92v24q0 52 20.5 89.5t58 58t80.5 29.5t96 9q50 0 94.5 -10.5t75.5 -34.5t31 -58
q0 -26 -20 -42.5t-54 -16.5q-28 0 -50 15.5t-22 38.5q0 22 25 51q-29 17 -79 17t-80 -20.5t-30 -57.5v-92h340z" />
    <glyph glyph-name="fl" unicode="fl" horiz-adv-x="685" 
d="M592 680v-574q0 -37 13 -51.5t58 -14.5v-40h-281v40q38 0 51 15t13 51v318h-194v-318q0 -37 16 -51.5t70 -14.5v-40h-310v40q48 0 63 14.5t15 51.5v318h-92v46h92v24q0 186 265 186h221zM253 470h193v58q-27 16 -27 45q0 28 26 47q-32 20 -82 20t-80 -20.5t-30 -57.5v-92
z" />
    <glyph glyph-name=".notdef" horiz-adv-x="500" 
d="M0 0v700h500v-700h-500zM250 395l170 255h-340zM280 350l170 -255v510zM80 50h340l-170 255zM50 605v-510l170 255z" />
    <glyph glyph-name=".null" horiz-adv-x="0" 
 />
    <glyph glyph-name="nonmarkingreturn" 
 />
    <glyph glyph-name="space" unicode=" " horiz-adv-x="287" 
 />
    <glyph glyph-name="exclam" unicode="!" 
d="M196 220h-60l-45 289q-8 54 -8 83q0 108 83 108t83 -108q0 -29 -8 -83zM83 75q0 35 24.5 59t58.5 24t58.5 -24t24.5 -59t-24.5 -59t-58.5 -24t-58.5 24t-24.5 59z" />
    <glyph glyph-name="quotedbl" unicode="&#x22;" 
d="M124 642q0 -12 -19 -219q-3 -39 -31 -39t-31 39q-19 207 -19 219q0 58 50 58t50 -58zM309 642q0 -12 -19 -219q-3 -39 -31 -39t-31 39q-19 207 -19 219q0 58 50 58t50 -58z" />
    <glyph glyph-name="numbersign" unicode="#" horiz-adv-x="574" 
d="M501 285v-88h-90l-28 -197h-92l26 197h-94l-28 -197h-92l27 197h-86v88h98l17 118h-86v88h98l27 197h93l-27 -197h95l27 197h92l-26 -197h78v-88h-90l-17 -118h78zM347 403h-95l-16 -118h94z" />
    <glyph glyph-name="dollar" unicode="$" horiz-adv-x="574" 
d="M256 54v232q-85 34 -130.5 76.5t-45.5 116.5q0 81 55.5 131.5t120.5 61.5v88h50v-84q70 -3 121 -36t51 -95q0 -32 -20.5 -53.5t-49.5 -21.5q-31 0 -49.5 19.5t-18.5 48.5q0 27 17.5 45.5t41.5 18.5h3q-27 28 -96 34v-196q89 -38 141.5 -87t52.5 -129q0 -81 -56.5 -135
t-137.5 -71v-88h-50v84h-17q-81 0 -136 48t-55 110q0 33 19.5 58.5t55.5 25.5q30 0 50.5 -18.5t20.5 -47.5q0 -66 -84 -70q15 -33 59 -50.5t87 -15.5zM256 458v170q-25 -5 -45.5 -28.5t-20.5 -54.5q0 -55 66 -87zM306 266v-204q30 7 50 36.5t20 68.5q0 37 -17.5 59t-52.5 40
z" />
    <glyph glyph-name="percent" unicode="%" horiz-adv-x="889" 
d="M140 499q0 -175 61 -175t61 175t-61 175t-61 -175zM672 700l-489 -712h-56l485 712h60zM536 189q0 -175 61 -175t61 175t-61 175t-61 -175zM38 499q0 85 47.5 143t115.5 58t115.5 -58t47.5 -143t-47.5 -143t-115.5 -58t-115.5 58t-47.5 143zM434 189q0 85 47.5 143
t115.5 58t115.5 -58t47.5 -143t-47.5 -143t-115.5 -58t-115.5 58t-47.5 143z" />
    <glyph glyph-name="ampersand" unicode="&#x26;" horiz-adv-x="833" 
d="M496 386h278v-46q-34 0 -54 -4t-33.5 -18.5t-19.5 -28.5t-18 -48q-14 -40 -46 -92q51 -53 99 -53q18 0 28 8.5t13 19.5t5 30h40q0 -79 -40 -122.5t-117 -43.5q-44 0 -74.5 12.5t-67.5 38.5q-87 -51 -184 -51q-46 0 -89.5 9.5t-83 30.5t-63.5 59.5t-24 89.5q0 71 47 113.5
t125 72.5q-51 82 -51 146q0 83 67.5 137t152.5 54q68 0 121.5 -35.5t53.5 -100.5q0 -33 -15 -61t-43.5 -49.5t-53.5 -35t-59 -28.5l42 -53l45 -57.5t43 -50t50 -50.5q28 44 28 90q0 19 -6 32.5t-14 20.5t-23.5 11t-27 5t-31.5 2v46zM363 46q49 0 87 24q-111 100 -200 241
q-29 -23 -40 -50t-11 -66q0 -67 47.5 -108t116.5 -41zM463 563q0 40 -22.5 65.5t-61.5 25.5q-33 0 -51 -22.5t-18 -55.5q0 -60 54 -149q37 12 68 51.5t31 84.5z" />
    <glyph glyph-name="quotesingle" unicode="'" horiz-adv-x="222" 
d="M161 642q0 -12 -19 -219q-3 -39 -31 -39t-31 39q-19 207 -19 219q0 58 50 58t50 -58z" />
    <glyph glyph-name="parenleft" unicode="(" horiz-adv-x="500" 
d="M415 714v-46q-97 -13 -165 -119.5t-68 -282.5t68 -282.5t165 -119.5v-46q-46 3 -94.5 20.5t-97.5 54t-87 87t-62 125t-24 161.5t24 161.5t62 125t87 87t97.5 54t94.5 20.5z" />
    <glyph glyph-name="parenright" unicode=")" horiz-adv-x="500" 
d="M85 -182v46q97 13 165 119.5t68 282.5t-68 282.5t-165 119.5v46q46 -3 94.5 -20.5t97.5 -54t87 -87t62 -125t24 -161.5t-24 -161.5t-62 -125t-87 -87t-97.5 -54t-94.5 -20.5z" />
    <glyph glyph-name="asterisk" unicode="*" horiz-adv-x="519" 
d="M231 479v6q-12 17 -42 22.5t-57 5.5t-47.5 15t-19.5 49q1 15 16 28.5t33 13.5q19 0 33 -13t23 -30.5t28 -39t44 -34.5l7 5q0 50 -20.5 85.5t-20.5 57.5q0 25 16 37.5t35 12.5t35 -12.5t16 -37.5q0 -22 -20.5 -57.5t-20.5 -85.5l7 -5q25 13 44 34.5t28 39t23 30.5t33 13
q18 0 33 -13.5t16 -28.5q1 -34 -19.5 -49t-47.5 -15t-57 -5.5t-42 -22.5v-6q12 -17 42 -22.5t57 -5.5t47.5 -15t19.5 -49q-1 -16 -16 -29.5t-33 -13.5q-19 0 -33 13t-23 31t-28 39.5t-44 34.5l-7 -5q0 -50 20.5 -85.5t20.5 -57.5q0 -25 -16 -37.5t-35 -12.5t-35 12.5
t-16 37.5q0 22 20.5 57.5t20.5 85.5l-7 5q-25 -13 -44 -34.5t-28 -39.5t-23 -31t-33 -13q-18 0 -33 13.5t-16 29.5q-1 34 19.5 49t47.5 15t57 5.5t42 22.5z" />
    <glyph glyph-name="plus" unicode="+" horiz-adv-x="600" 
d="M351 286h184v-102h-184v-184h-102v184h-184v102h184v184h102v-184z" />
    <glyph glyph-name="comma" unicode="," horiz-adv-x="287" 
d="M112 -196l-38 30q2 3 12 14t13 15t11.5 14.5t12 15.5l10.5 15t10.5 16.5l8.5 16.5t7.5 18t5 17.5t3.5 19.5q-2 0 -5 -1t-5 -2q-2 0 -5 -0.5t-4 -0.5q-35 0 -59 24t-24 59t24 59t59 24q42 0 64.5 -32.5t22.5 -77.5q0 -111 -124 -244z" />
    <glyph glyph-name="hyphen" unicode="-" 
d="M38 186v98h256v-98h-256z" />
    <glyph glyph-name="period" unicode="." horiz-adv-x="287" 
d="M60 75q0 35 24 59t59 24t59 -24t24 -59t-24 -59t-59 -24t-59 24t-24 59z" />
    <glyph glyph-name="slash" unicode="/" horiz-adv-x="278" 
d="M58 -12h-110l272 712h110z" />
    <glyph glyph-name="zero" unicode="0" horiz-adv-x="574" 
d="M540 344q0 -157 -68.5 -256.5t-184.5 -99.5t-184.5 99.5t-68.5 256.5t68.5 256.5t184.5 99.5t184.5 -99.5t68.5 -256.5zM380 344q0 153 -21.5 234.5t-72.5 81.5q-92 0 -92 -316q0 -154 20.5 -235t71.5 -81t72.5 81.5t21.5 234.5z" />
    <glyph glyph-name="one" unicode="1" horiz-adv-x="574" 
d="M498 0h-415v40q86 3 108.5 20t22.5 68v412q0 34 -19 43t-91 9v46q80 1 118.5 12.5t83.5 43.5h62v-566q0 -51 22.5 -68t107.5 -20v-40z" />
    <glyph glyph-name="two" unicode="2" horiz-adv-x="574" 
d="M470 264h37l-15 -264h-456q0 65 13 86q44 71 92 132t80.5 95t61 67.5t42 66.5t13.5 74q0 55 -30.5 91t-84.5 36q-42 0 -77.5 -25t-51.5 -63l2 -2q16 10 41 10q28 0 47.5 -20.5t19.5 -48.5q0 -36 -21.5 -58.5t-54.5 -22.5q-38 0 -61 27t-23 67q0 87 70 137.5t161 50.5
q95 0 159 -51.5t64 -139.5q0 -53 -23 -92.5t-64 -68.5t-86 -55t-100.5 -66.5t-96.5 -88.5h184q84 0 116.5 28t41.5 98z" />
    <glyph glyph-name="three" unicode="3" horiz-adv-x="574" 
d="M332 361q83 -5 132.5 -45.5t49.5 -120.5q0 -86 -77.5 -146.5t-195.5 -60.5q-97 0 -157 45t-60 118q0 40 26.5 69.5t61.5 29.5q36 0 58 -21.5t22 -53.5q0 -36 -20 -54.5t-52 -18.5q-24 0 -40 11q6 -40 44 -59.5t85 -19.5q70 0 103.5 42t33.5 114q0 62 -27.5 104.5
t-67.5 42.5q-13 0 -34 -3.5t-29 -3.5q-36 0 -36 26q0 9 10 16.5t29 7.5q8 0 22 -1.5t20 -1.5q45 0 76 39.5t31 98.5t-31.5 96t-83.5 37q-78 0 -119 -66q32 8 36 8q29 0 48.5 -19.5t19.5 -47.5q0 -35 -21 -56t-60 -21q-34 0 -56.5 23.5t-22.5 63.5q0 78 66.5 122.5
t149.5 44.5q98 0 166 -51t68 -126q0 -70 -47.5 -111t-120.5 -49v-2z" />
    <glyph glyph-name="four" unicode="4" horiz-adv-x="574" 
d="M530 0h-359v40q70 3 89.5 20t19.5 68v48h-254l4 62l325 462h79v-466h114v-58h-114v-48q0 -51 17.5 -68t78.5 -20v-40zM84 234h196v274h-2z" />
    <glyph glyph-name="five" unicode="5" horiz-adv-x="574" 
d="M71 349l31 339q113 -24 200 -24q104 0 168 24v-20q0 -72 -60.5 -111t-153.5 -39q-78 0 -123 16l-11 -139q59 47 144 47q102 0 171 -64.5t69 -157.5q0 -99 -75 -165.5t-206 -66.5q-74 0 -131 42.5t-57 109.5q0 42 23 70t62 28q37 0 56 -20t19 -52t-21.5 -51t-53.5 -19
q-12 0 -22 4l-2 -2q14 -29 46 -49.5t65 -20.5q63 0 96 54t33 153q0 72 -29 113.5t-77 41.5q-50 0 -83.5 -24t-39.5 -63q-5 -30 -24 -30q-22 0 -22 27q0 11 8 49z" />
    <glyph glyph-name="six" unicode="6" horiz-adv-x="574" 
d="M343 568q0 70 73 70v2q-30 20 -64 20q-78 0 -110.5 -67.5t-32.5 -206.5h2q19 25 53 39.5t69 14.5q88 0 144 -60.5t56 -147.5q0 -106 -62.5 -175t-173.5 -69q-125 0 -190.5 91.5t-65.5 238.5q0 100 38 187t106.5 141t151.5 54q71 0 115.5 -33.5t44.5 -85.5
q0 -35 -22.5 -58t-58.5 -23q-28 0 -50.5 20.5t-22.5 47.5zM365 210q0 104 -13.5 144t-50.5 40q-92 0 -92 -171q0 -109 16.5 -152t62.5 -43q45 0 61 42.5t16 139.5z" />
    <glyph glyph-name="seven" unicode="7" horiz-adv-x="574" 
d="M72 688l462 -6v-72l-28 -42t-28 -43l-24.5 -40t-24.5 -43.5t-20.5 -43t-19.5 -49.5t-14 -51.5t-12 -59.5t-6 -64t-3 -74q0 -58 -18 -85t-62 -27q-46 0 -63 29.5t-17 81.5q0 87 68.5 200.5t181.5 250.5h-177q-78 0 -120 -32.5t-49 -103.5h-38z" />
    <glyph glyph-name="eight" unicode="8" horiz-adv-x="574" 
d="M270 -12q-96 0 -164 47t-68 122q0 58 39.5 100t99.5 63q-61 28 -89 69.5t-28 106.5q0 89 69.5 146.5t159.5 57.5q84 0 150.5 -43t66.5 -123q0 -54 -34.5 -91t-88.5 -52q76 -35 114.5 -78t38.5 -117q0 -94 -75 -151t-191 -57zM307 247l-65 34q-22 11 -27 11
q-19 0 -44 -35.5t-25 -84.5q0 -67 35.5 -105.5t95.5 -38.5q43 0 78 30t35 78q0 39 -19 63.5t-64 47.5zM404 535q0 56 -30 90.5t-86 34.5q-40 0 -69 -27t-29 -67q0 -50 36.5 -82t116.5 -70q29 18 45 51.5t16 69.5z" />
    <glyph glyph-name="nine" unicode="9" horiz-adv-x="574" 
d="M44 456q0 105 65 174.5t170 69.5q120 0 185.5 -96.5t65.5 -233.5q0 -77 -18 -143.5t-55 -121t-99 -86t-143 -31.5q-72 0 -117 33t-45 86q0 35 22.5 58t58.5 23q28 0 50.5 -20.5t22.5 -47.5q0 -70 -73 -70v-2q30 -20 75 -20q153 0 153 181v93h-2q-19 -25 -50.5 -39.5
t-65.5 -14.5q-87 0 -143.5 60.5t-56.5 147.5zM212 487q0 -108 16 -150.5t47 -42.5q39 0 63 40.5t24 107.5q0 124 -17.5 171t-61.5 47q-41 0 -56 -41.5t-15 -131.5z" />
    <glyph glyph-name="colon" unicode=":" horiz-adv-x="287" 
d="M60 75q0 35 24 59t59 24t59 -24t24 -59t-24 -59t-59 -24t-59 24t-24 59zM60 373q0 35 24 59t59 24t59 -24t24 -59t-24 -59t-59 -24t-59 24t-24 59z" />
    <glyph glyph-name="semicolon" unicode=";" horiz-adv-x="287" 
d="M112 -196l-38 30q2 3 12 14t13 15t11.5 14.5t12 15.5l10.5 15t10.5 16.5l8.5 16.5t7.5 18t5 17.5t3.5 19.5q-2 0 -5 -1t-5 -2q-2 0 -5 -0.5t-4 -0.5q-35 0 -59 24t-24 59t24 59t59 24q42 0 64.5 -32.5t22.5 -77.5q0 -111 -124 -244zM66 377q0 35 24 59t59 24t59 -24
t24 -59t-24 -59t-59 -24t-59 24t-24 59z" />
    <glyph glyph-name="less" unicode="&#x3c;" horiz-adv-x="600" 
d="M535 105v-112l-470 200v84l470 198v-112l-325 -128z" />
    <glyph glyph-name="equal" unicode="=" horiz-adv-x="600" 
d="M535 76h-470v102h470v-102zM535 292h-470v102h470v-102z" />
    <glyph glyph-name="greater" unicode="&#x3e;" horiz-adv-x="600" 
d="M65 -7v112l325 130l-325 128v112l470 -198v-84z" />
    <glyph glyph-name="question" unicode="?" horiz-adv-x="500" 
d="M256 198h-52v62q0 36 14.5 66t31.5 48t31.5 51t14.5 75q0 69 -24 105.5t-70 36.5q-31 0 -62.5 -16.5t-39.5 -35.5q6 1 16 1q35 0 55.5 -17.5t20.5 -51.5q0 -29 -23 -49t-53 -20q-32 0 -55 24t-23 59q0 66 58.5 109t137.5 43q97 0 156.5 -42t59.5 -109q0 -42 -20 -75
t-48.5 -55l-57 -43t-48.5 -52t-20 -70v-44zM142 75q0 35 24 59t59 24t59 -24t24 -59t-24 -59t-59 -24t-59 24t-24 59z" />
    <glyph glyph-name="at" unicode="@" horiz-adv-x="800" 
d="M463 470q-37 0 -74.5 -54t-37.5 -129q0 -71 41 -71q42 0 76 59t34 128q0 35 -8.5 51t-30.5 16zM526 485l10 31h79l-57 -238q-5 -20 -5 -36q0 -18 8 -30t21 -12q32 0 64 65.5t32 129.5q0 89 -72.5 157t-186.5 68q-42 0 -83.5 -15.5t-80.5 -49t-63 -95t-24 -143.5
q0 -106 80.5 -177.5t180.5 -71.5q115 0 204 48l10 -63q-114 -65 -213 -65q-96 0 -173.5 33.5t-122.5 85.5t-68.5 109.5t-23.5 111.5q0 164 110 268t267 104q144 0 241.5 -87t97.5 -217q0 -88 -53 -165t-138 -77q-40 0 -65.5 20t-28.5 51h-2q-15 -32 -48.5 -51.5t-69.5 -19.5
q-38 0 -69 29.5t-31 93.5q0 50 21 106.5t70 102.5t113 46q47 0 69 -47z" />
    <glyph glyph-name="A" unicode="A" horiz-adv-x="741" 
d="M272 0h-281v40q54 10 80.5 36t53.5 91l222 533h53l256 -593q16 -36 36 -50t59 -17v-40h-361v40h40q36 0 48 8t12 25q0 14 -11 40l-49 115h-220l-32 -79q-12 -31 -12 -63q0 -46 57 -46h49v-40zM408 280l-91 211l-85 -211h176z" />
    <glyph glyph-name="B" unicode="B" horiz-adv-x="704" 
d="M268 574v-190h33q150 0 150 124q0 64 -31 99t-85 35q-67 0 -67 -68zM108 106v476q0 37 -20.5 51.5t-73.5 14.5v40h358q115 0 183 -45t68 -126q0 -68 -44.5 -105t-115.5 -44v-2q86 -11 141.5 -52t55.5 -120q0 -77 -61 -135.5t-193 -58.5h-392v40q53 0 73.5 14.5t20.5 51.5
zM268 338v-218q0 -74 72 -74q73 0 110.5 34.5t37.5 97.5q0 160 -149 160h-71z" />
    <glyph glyph-name="C" unicode="C" horiz-adv-x="741" 
d="M668 682v-244h-40q-41 113 -91 164.5t-133 51.5q-178 0 -178 -310t204 -310q99 0 154.5 60.5t61.5 174.5h44q0 -133 -73 -207t-209 -74q-170 0 -268 102.5t-98 253.5q0 144 104.5 250t246.5 106q88 0 196 -59l39 41h40z" />
    <glyph glyph-name="D" unicode="D" horiz-adv-x="759" 
d="M18 688h312q183 0 287 -94.5t104 -249.5q0 -148 -100 -246t-263 -98h-340v40q56 0 77 14.5t21 51.5v476q0 37 -21 51.5t-77 14.5v40zM276 572v-456q0 -37 20.5 -53.5t69.5 -16.5q82 0 127.5 74t45.5 224t-45.5 224t-127.5 74q-49 0 -69.5 -16.5t-20.5 -53.5z" />
    <glyph glyph-name="E" unicode="E" horiz-adv-x="722" 
d="M637 688l6 -246h-43q-26 98 -85.5 149t-147.5 51q-47 0 -65 -13.5t-18 -50.5v-194q73 0 104.5 23t51.5 93h40v-278h-40q-20 70 -51.5 93t-104.5 23v-228q0 -37 18 -50.5t65 -13.5q98 0 161 57.5t88 158.5h43l-6 -262h-635v40q56 0 77 14.5t21 51.5v476q0 37 -21 51.5
t-77 14.5v40h619z" />
    <glyph glyph-name="F" unicode="F" horiz-adv-x="667" 
d="M386 0h-376v40q56 0 77 14.5t21 51.5v476q0 37 -21 51.5t-77 14.5v40h619l6 -246h-43q-26 98 -85.5 149t-147.5 51q-47 0 -65 -13.5t-18 -50.5v-194q73 0 104.5 23t51.5 93h40v-278h-40q-20 70 -51.5 93t-104.5 23v-232q0 -38 23 -52t87 -14v-40z" />
    <glyph glyph-name="G" unicode="G" horiz-adv-x="778" 
d="M368 286v46h384v-46q-67 -1 -83.5 -14.5t-16.5 -60.5v-211h-38l-45 46q-92 -58 -197 -58q-128 0 -229 101t-101 237q0 156 104 265t247 109q43 0 81.5 -13t63 -26.5t31.5 -13.5q6 0 12 4.5t14 15t9 11.5h40v-238h-40q-14 46 -28 78t-37.5 66t-58 52t-78.5 18
q-176 0 -176 -310q0 -150 43.5 -230t110.5 -80q64 0 88 36t24 106q0 67 -26 88.5t-98 21.5z" />
    <glyph glyph-name="H" unicode="H" horiz-adv-x="778" 
d="M277 384h224v198q0 37 -19.5 51.5t-68.5 14.5v40h351v-40q-53 0 -74 -14.5t-21 -51.5v-476q0 -37 21 -51.5t74 -14.5v-40h-351v40q49 0 68.5 14.5t19.5 51.5v232h-224v-232q0 -37 19.5 -51.5t68.5 -14.5v-40h-351v40q53 0 74 14.5t21 51.5v476q0 37 -21 51.5t-74 14.5v40
h351v-40q-49 0 -68.5 -14.5t-19.5 -51.5v-198z" />
    <glyph glyph-name="I" unicode="I" horiz-adv-x="426" 
d="M395 0h-364v40q56 0 77 14.5t21 51.5v476q0 37 -21 51.5t-77 14.5v40h364v-40q-56 0 -77 -14.5t-21 -51.5v-476q0 -37 21 -51.5t77 -14.5v-40z" />
    <glyph glyph-name="J" unicode="J" horiz-adv-x="574" 
d="M472 582v-366q0 -120 -58 -174t-194 -54q-91 0 -148.5 45t-57.5 112q0 48 25.5 78.5t71.5 30.5q37 0 64 -22t27 -63q0 -33 -20.5 -56t-54.5 -23q-28 0 -47 12q9 -32 43 -50t67 -18q53 0 83.5 26.5t30.5 75.5v446q0 38 -22 52t-82 14v40h366v-40q-53 0 -73.5 -14.5
t-20.5 -51.5z" />
    <glyph glyph-name="K" unicode="K" horiz-adv-x="759" 
d="M22 648v40h348v-40q-44 0 -63 -14.5t-19 -51.5v-214l209 205q21 21 21 45q0 30 -49 30h-35v40h298v-40q-58 -8 -80.5 -17t-52.5 -37l-156 -147l221 -365q25 -42 96 -42v-40h-342v40q56 6 56 23q0 10 -21.5 48l-128.5 221l-36 -33v-193q0 -36 17.5 -51t54.5 -15v-40h-338
v40q56 0 77 14.5t21 51.5v476q0 37 -21 51.5t-77 14.5z" />
    <glyph glyph-name="L" unicode="L" horiz-adv-x="630" 
d="M595 0h-577v40q56 0 77 14.5t21 51.5v476q0 37 -21 51.5t-77 14.5v40h364v-40q-56 0 -77 -14.5t-21 -51.5v-474q0 -36 15 -49t53 -13q72 0 128.5 64t77.5 154h43z" />
    <glyph glyph-name="M" unicode="M" horiz-adv-x="907" 
d="M275 0h-259v40q98 2 98 94v454q0 36 -21.5 47.5t-70.5 12.5v40h291l141 -466h2l142 466h293v-40q-55 0 -76 -14.5t-21 -51.5v-476q0 -37 21 -51.5t76 -14.5v-40h-347v40q50 0 70 14.5t20 51.5v508h-2l-191 -614h-86l-183 614h-2v-480q0 -92 105 -94v-40z" />
    <glyph glyph-name="N" unicode="N" horiz-adv-x="759" 
d="M14 648v40h244l336 -468h2v352q0 37 -22 52.5t-83 23.5v40h253v-40q-52 -8 -72 -23.5t-20 -52.5v-572h-94l-382 530h-4v-424q0 -38 24 -52t93 -14v-40h-271v40q56 0 77 14.5t21 51.5v476q0 38 -22 52t-80 14z" />
    <glyph glyph-name="O" unicode="O" horiz-adv-x="778" 
d="M38 344q0 144 104.5 250t246.5 106t246.5 -106t104.5 -250t-104.5 -250t-246.5 -106t-246.5 106t-104.5 250zM226 344q0 -310 163 -310t163 310t-163 310t-163 -310z" />
    <glyph glyph-name="P" unicode="P" horiz-adv-x="648" 
d="M374 0h-364v40q56 0 77 14.5t21 51.5v476q0 37 -21 51.5t-77 14.5v40h362q108 0 175.5 -48t68.5 -135q1 -90 -64.5 -140.5t-170.5 -50.5h-113v-200q0 -41 23 -57t83 -17v-40zM268 568v-208h37q139 0 139 139q0 61 -29 102t-81 41q-29 0 -47.5 -19t-18.5 -55z" />
    <glyph glyph-name="Q" unicode="Q" horiz-adv-x="778" 
d="M694 44h46q0 -88 -45.5 -143t-124.5 -55q-144 0 -150 144q-11 -2 -31 -2q-142 0 -246.5 106t-104.5 250t104.5 250t246.5 106t246.5 -106t104.5 -250q0 -100 -54 -186t-142 -131q18 -35 35.5 -51t44.5 -16q66 0 70 84zM389 654q-163 0 -163 -310q0 -180 53 -254h2v10
q0 54 27.5 86t79.5 32q86 0 132 -88q32 77 32 214q0 310 -163 310zM382 168q-23 0 -37 -18t-14 -46q0 -29 18 -49.5t47 -20.5q14 0 28 5q8 40 8 65q0 64 -50 64z" />
    <glyph glyph-name="R" unicode="R" horiz-adv-x="704" 
d="M648 152h40q0 -164 -146 -164q-75 0 -109.5 41t-39.5 131q-3 44 -5 64t-8.5 43t-19 32.5t-33 17.5t-53.5 13v-210q0 -45 18.5 -62.5t77.5 -17.5v-40h-354v40q56 0 77 14.5t21 51.5v476q0 37 -21 51.5t-77 14.5v40h350q126 0 191 -48t65 -136q0 -47 -21.5 -80.5t-58.5 -51
t-76.5 -25.5t-85.5 -9v-2q44 -6 75 -19.5t49.5 -36.5t28.5 -43t20 -51q24 -74 33.5 -91t27.5 -17q27 0 34 74zM274 582v-216q93 4 134.5 30.5t41.5 106.5q0 63 -30 101t-81 38q-65 0 -65 -60z" />
    <glyph glyph-name="S" unicode="S" horiz-adv-x="630" 
d="M49 0v264h44q24 -96 79 -163t142 -67q56 0 92 28.5t36 87.5q0 34 -28.5 58.5t-71.5 38.5t-93.5 33.5t-93.5 40t-71.5 60t-28.5 93.5q0 104 67 165t166 61q48 0 84.5 -13t57.5 -26.5t30 -13.5q7 0 13.5 4.5t9 8.5l9 15t7.5 13h42v-238h-40q-24 90 -74 147t-124 57
q-50 0 -83 -26.5t-33 -74.5q0 -42 40.5 -69t98.5 -44t115.5 -38.5t98 -68t40.5 -118.5q0 -104 -76.5 -165.5t-169.5 -61.5q-54 0 -97 13t-68.5 26t-36.5 13q-18 0 -43 -40h-40z" />
    <glyph glyph-name="T" unicode="T" horiz-adv-x="685" 
d="M20 688h644l4 -244h-46q-46 198 -196 198v-536q0 -38 23 -52t87 -14v-40h-390v40q65 0 88.5 14t23.5 52v536q-150 0 -196 -198h-46z" />
    <glyph glyph-name="U" unicode="U" horiz-adv-x="722" 
d="M6 688h353v-40q-58 0 -80 -14t-22 -52v-412q0 -64 44 -100t99 -36q169 0 169 174v364q0 37 -22 52.5t-85 23.5v40h253v-40q-52 -8 -72 -23.5t-20 -52.5v-356q0 -228 -263 -228q-45 0 -87.5 10t-82 31t-63.5 61.5t-24 95.5v396q0 37 -21 51.5t-76 14.5v40z" />
    <glyph glyph-name="V" unicode="V" horiz-adv-x="630" 
d="M-12 648v40h340v-40q-53 0 -71.5 -9t-18.5 -31q0 -20 130 -415h2q103 275 122 329.5t19 72.5q0 30 -19.5 41.5t-61.5 11.5v40h225v-40q-36 -5 -56.5 -18.5t-33.5 -47.5l-214 -582h-83l-187 580q-14 42 -33 55t-60 13z" />
    <glyph glyph-name="W" unicode="W" horiz-adv-x="926" 
d="M342 688h327v-40q-87 0 -87 -39q0 -10 20 -81l85 -300h2l109 324q8 26 8 45q0 51 -92 51v40h242v-40q-39 0 -60 -18t-33 -54l-200 -576h-77l-120 424h-2l-145 -424h-79l-154 556q-15 55 -33.5 71t-54.5 21v40h310v-40q-41 0 -55.5 -8.5t-14.5 -30.5q0 -13 9 -46l96 -335
h2l97 285l-16 54q-13 45 -32.5 63t-51.5 18v40z" />
    <glyph glyph-name="X" unicode="X" horiz-adv-x="722" 
d="M708 0h-352v40q49 0 65 5.5t16 18.5q0 16 -21 51l-91 150l-100 -145q-18 -27 -18 -45q0 -35 89 -35v-40h-283v40q92 10 140 77l144 196l-156 257q-48 78 -111 78v40h343v-40q-48 0 -61 -5t-13 -23q0 -14 16 -41l75 -131l88 126q19 28 19 46q0 28 -71 28v40h266v-40
q-57 -4 -86.5 -21.5t-65.5 -65.5l-119 -159l183 -303q17 -28 40 -41.5t64 -17.5v-40z" />
    <glyph glyph-name="Y" unicode="Y" horiz-adv-x="630" 
d="M0 648v40h332v-40q-78 0 -78 -31q0 -14 21 -53l104 -199l92 185q19 38 19 56q0 19 -23 30.5t-63 11.5v40h252v-40q-53 -7 -73.5 -21.5t-37.5 -47.5l-144 -293v-180q0 -38 23.5 -52t88.5 -14v-40h-385v40q66 0 89.5 14t23.5 52v184l-126 248q-22 43 -33.5 61.5t-32.5 33.5
t-49 15z" />
    <glyph glyph-name="Z" unicode="Z" horiz-adv-x="611" 
d="M563 264l-6 -264h-532v52l358 590h-68q-93 0 -156.5 -47.5t-67.5 -144.5h-43l6 238h503v-70l-347 -572q148 0 218.5 48t91.5 170h43z" />
    <glyph glyph-name="bracketleft" unicode="[" horiz-adv-x="370" 
d="M296 -156h-216v844h216v-40q-58 -3 -78 -16t-20 -59v-614q0 -46 20 -59t78 -16v-40z" />
    <glyph glyph-name="backslash" unicode="\" horiz-adv-x="278" 
d="M330 -12h-110l-272 712h110z" />
    <glyph glyph-name="bracketright" unicode="]" horiz-adv-x="370" 
d="M74 688h216v-844h-216v40q58 3 78 16t20 59v614q0 46 -20 59t-78 16v40z" />
    <glyph glyph-name="asciicircum" unicode="^" horiz-adv-x="600" 
d="M205 348h-114l163 340h93l162 -340h-114l-95 214z" />
    <glyph glyph-name="underscore" unicode="_" horiz-adv-x="500" 
d="M500 -125h-500v50h500v-50z" />
    <glyph glyph-name="grave" unicode="`" 
d="M246 538h-58l-149 93q-19 12 -25 21t-6 29q0 16 14 28.5t30 12.5q24 0 37 -9t39 -39z" />
    <glyph glyph-name="a" unicode="a" horiz-adv-x="556" 
d="M452 343v-229q0 -32 7 -46t24 -14q28 0 37 72h34v-19q0 -52 -33 -85.5t-93 -33.5q-71 0 -105 65q-52 -65 -144 -65q-66 0 -111 28t-45 89q0 23 9.5 44t21.5 36t35.5 29.5t40 23.5t48 19.5l45.5 15t46 13t37 9.5v58q0 44 -22.5 63.5t-67.5 19.5q-38 0 -67 -16v-2
q24 -3 39.5 -20.5t15.5 -44.5q0 -28 -20 -48.5t-51 -20.5q-33 0 -54 21t-21 56q0 49 54.5 85t154.5 36q91 0 138 -33t47 -106zM306 138v112q-50 -12 -89.5 -48.5t-39.5 -84.5q0 -32 15 -53.5t46 -21.5q32 0 50 25.5t18 70.5z" />
    <glyph glyph-name="b" unicode="b" horiz-adv-x="593" 
d="M12 678l216 4v-260q63 60 121 60q84 0 148 -66.5t64 -175.5q0 -92 -72.5 -172t-180.5 -80q-43 0 -92 25t-60 25t-21 -13t-13 -25h-50q10 36 10 54v520q0 37 -13.5 51.5t-56.5 14.5v38zM401 245q0 191 -76 191q-43 0 -70 -49t-27 -161q0 -198 86 -198q47 0 67 54t20 163z
" />
    <glyph glyph-name="c" unicode="c" horiz-adv-x="500" 
d="M441 122l27 -23q-70 -111 -187 -111q-105 0 -177 70.5t-72 176.5q0 114 77 180.5t183 66.5q74 0 124 -32t50 -86q0 -34 -23 -58t-58 -24q-33 0 -53 19t-20 49q0 60 66 72q-22 20 -66 20q-51 0 -85.5 -47.5t-34.5 -157.5q0 -94 31 -148.5t92 -54.5q59 0 126 88z" />
    <glyph glyph-name="d" unicode="d" horiz-adv-x="593" 
d="M190 248q0 -214 78 -214q47 0 68.5 54.5t21.5 136.5q0 211 -84 211t-84 -188zM504 682v-582q0 -37 13.5 -51.5t54.5 -14.5v-36l-207 -4v50h-2q-22 -22 -32.5 -30t-33.5 -17t-53 -9q-88 0 -151 70t-63 179q0 105 66 175t152 70q64 0 110 -46v138q0 37 -15 51.5t-63 14.5
v38z" />
    <glyph glyph-name="e" unicode="e" horiz-adv-x="556" 
d="M512 233h-318q0 -199 130 -199q85 0 153 100l32 -20q-33 -61 -82 -93.5t-131 -32.5q-119 0 -190.5 77t-71.5 170t71.5 170t190.5 77q94 0 155 -66.5t61 -182.5zM194 279h158q0 91 -17.5 129t-54.5 38q-74 0 -86 -167z" />
    <glyph glyph-name="f" unicode="f" horiz-adv-x="389" 
d="M377 470v-46h-125v-318q0 -38 19 -52t85 -14v-40h-342v40q58 0 75 14.5t17 51.5v318h-92v46h92v28q0 94 57 138t151 44q72 0 114 -25t42 -67q0 -30 -19.5 -48t-54.5 -18q-28 0 -50 17t-22 46q0 14 9 29.5t23 20.5v2q-18 3 -20 3q-44 0 -64 -22t-20 -76v-72h125z" />
    <glyph glyph-name="g" unicode="g" horiz-adv-x="537" 
d="M258 482q42 0 98 -18q20 80 94 80q34 0 57 -17t23 -49q0 -22 -15.5 -37t-42.5 -15q-48 0 -48 44q0 17 5 28h-2q-30 -9 -30 -54q18 -14 28.5 -23.5t25.5 -37.5t15 -61q0 -74 -61.5 -114t-150.5 -40q-24 0 -44.5 4t-31.5 4q-36 0 -36 -18q0 -16 27.5 -23t68 -7.5t88.5 -6
t88.5 -16t68 -40.5t27.5 -77q0 -71 -73 -116.5t-179 -45.5q-107 0 -174.5 34.5t-67.5 90.5q0 37 42 60t86 23v2q-9 4 -26.5 9.5t-27 9.5t-21 12t-16.5 22t-5 33q0 41 84 78q-86 42 -86 119q0 78 65 120.5t147 42.5zM378 -66q0 39 -36 55.5t-109 16.5q-55 0 -79 -14.5
t-24 -45.5q0 -38 36 -59t97 -21q46 0 80.5 17.5t34.5 50.5zM256 442q-72 0 -72 -119t72 -119t72 119t-72 119z" />
    <glyph glyph-name="h" unicode="h" horiz-adv-x="593" 
d="M361 0v364q0 34 -10.5 49t-33.5 15q-32 0 -57.5 -43.5t-25.5 -108.5v-170q0 -37 13.5 -51.5t54.5 -14.5v-40h-294v40q50 0 65 14.5t15 51.5v483q0 31 -15.5 41t-58.5 10v38l220 4v-264q63 64 125 64q70 0 109 -37t39 -107v-232q0 -37 13.5 -51.5t54.5 -14.5v-40h-214z
" />
    <glyph glyph-name="i" unicode="i" 
d="M319 0h-305v40q51 0 66.5 14.5t15.5 51.5v258q0 37 -15 51.5t-65 14.5v36l226 4v-364q0 -37 14.5 -51.5t62.5 -14.5v-40zM78 618q0 34 24 58t58 24t58 -24t24 -58t-24 -58t-58 -24t-58 24t-24 58z" />
    <glyph glyph-name="j" unicode="j" horiz-adv-x="352" 
d="M38 466l224 4v-506q0 -66 -49.5 -108t-142.5 -42q-66 0 -104 27.5t-38 75.5q0 36 22 59.5t54 23.5q29 0 45.5 -18.5t16.5 -41.5q0 -26 -17 -42t-43 -16q-7 0 -19 2q12 -30 58 -30q33 0 52 19.5t19 55.5v435q0 37 -15 51.5t-63 14.5v36zM98 618q0 34 24 58t58 24t58 -24
t24 -58t-24 -58t-58 -24t-58 24t-24 58z" />
    <glyph glyph-name="k" unicode="k" horiz-adv-x="611" 
d="M609 0h-205l-125 234l-27 -21v-107q0 -37 14.5 -51.5t62.5 -14.5v-40h-305v40q51 0 66.5 14.5t15.5 51.5v468q0 37 -15 51.5t-63 14.5v38l224 4v-402q87 66 116 91.5t29 38.5q0 10 -13.5 13.5t-54.5 6.5v40h254v-40q-34 -2 -70 -19t-58.5 -34.5t-62.5 -52.5l129 -247
q12 -23 30 -30t58 -7v-40z" />
    <glyph glyph-name="l" unicode="l" 
d="M319 40v-40h-305v40q51 0 66.5 14.5t15.5 51.5v468q0 37 -15 51.5t-63 14.5v38l224 4v-576q0 -37 14.5 -51.5t62.5 -14.5z" />
    <glyph glyph-name="m" unicode="m" horiz-adv-x="852" 
d="M308 0h-290v40q48 0 63 14.5t15 51.5v258q0 37 -15 51.5t-63 14.5v36l208 4v-64h2q19 33 56.5 54.5t76.5 21.5q93 0 129 -80q46 80 136 80q61 0 100.5 -35t39.5 -101v-240q0 -37 13.5 -51.5t54.5 -14.5v-40h-206v334q0 56 -9 75t-36 19q-29 0 -56 -37t-27 -91v-194
q0 -37 13.5 -51.5t54.5 -14.5v-40h-206v334q0 56 -9 75t-36 19q-29 0 -56 -37t-27 -91v-194q0 -37 14 -51.5t60 -14.5v-40z" />
    <glyph glyph-name="n" unicode="n" horiz-adv-x="611" 
d="M318 0h-300v40q46 0 60 14.5t14 51.5v258q0 37 -14 51.5t-58 14.5v36l210 4v-73q37 43 71 64t85 21q64 0 101.5 -37t37.5 -109v-230q0 -37 13.5 -51.5t54.5 -14.5v-40h-214v370q0 58 -45 58q-39 0 -67.5 -52t-28.5 -106v-164q0 -37 15 -51.5t65 -14.5v-40z" />
    <glyph glyph-name="o" unicode="o" horiz-adv-x="593" 
d="M390 235q0 100 -24 155.5t-70 55.5t-70 -55.5t-24 -155.5t24 -155.5t70 -55.5t70 55.5t24 155.5zM558 235q0 -93 -71.5 -170t-190.5 -77t-190.5 77t-71.5 170t71.5 170t190.5 77t190.5 -77t71.5 -170z" />
    <glyph glyph-name="p" unicode="p" horiz-adv-x="593" 
d="M14 430v36l215 4v-57h2q41 69 121 69q84 0 146.5 -67.5t62.5 -179.5q0 -90 -64 -168.5t-156 -78.5q-55 0 -105 50v-106q0 -37 17 -51.5t74 -14.5v-40h-323v40q54 0 70 14.5t16 51.5v432q0 37 -14.5 51.5t-61.5 14.5zM236 233q0 -199 82 -199q83 0 83 205q0 197 -77 197
q-35 0 -61.5 -52t-26.5 -151z" />
    <glyph glyph-name="q" unicode="q" horiz-adv-x="593" 
d="M468 470h48q-12 -26 -12 -58v-480q0 -37 15 -51.5t64 -14.5v-40h-321v40q61 0 78.5 14.5t17.5 51.5v108q-32 -30 -57.5 -41t-60.5 -11q-83 0 -145.5 67.5t-62.5 164.5q0 115 70.5 188.5t154.5 73.5q36 0 67 -15.5t53.5 -31t37.5 -15.5q17 0 31.5 16.5t21.5 33.5zM192 245
q0 -211 81 -211q85 0 85 159v99q0 64 -20.5 104t-58.5 40t-62.5 -50.5t-24.5 -140.5z" />
    <glyph glyph-name="r" unicode="r" horiz-adv-x="463" 
d="M327 0h-311v40q48 0 62.5 14.5t14.5 51.5v258q0 37 -14.5 51.5t-62.5 14.5v36l211 4v-107h2q52 119 135 119q40 0 66.5 -25t26.5 -61q0 -35 -20 -56.5t-52 -21.5q-34 0 -51 20t-17 51q0 13 4 35q-88 -61 -88 -292q0 -56 16.5 -74t77.5 -18v-40z" />
    <glyph glyph-name="s" unicode="s" horiz-adv-x="481" 
d="M34 -6v178h37q14 -58 59 -101t104 -43q39 0 68.5 18t29.5 45q0 28 -22 44.5t-55.5 22t-72.5 15t-72.5 22t-55.5 44.5t-22 82q0 67 56 114t137 47q41 0 82.5 -18t43.5 -18q4 0 7 1t5 2t3.5 4t2.5 4.5t2.5 6t2.5 6.5h40v-154h-40q-25 61 -57 93.5t-89 32.5q-36 0 -58 -19
t-22 -48q0 -27 31 -41.5t75 -22t88 -20t75 -47t31 -91.5q0 -75 -61 -120t-140 -45q-53 0 -101 17l-49 17q-8 0 -14.5 -8.5t-8.5 -19.5h-40z" />
    <glyph glyph-name="t" unicode="t" horiz-adv-x="426" 
d="M244 626v-156h157v-46h-159v-302q0 -45 13.5 -63.5t44.5 -18.5q68 0 69 120h44q-1 -94 -36 -133t-127 -39q-74 0 -114 34.5t-40 100.5v301h-82v38q142 33 186 164h44z" />
    <glyph glyph-name="u" unicode="u" horiz-adv-x="611" 
d="M236 470v-350q0 -78 53 -78q45 0 66.5 36.5t21.5 83.5v202q0 37 -15.5 51.5t-66.5 14.5v36l228 4v-364q0 -37 15 -51.5t65 -14.5v-36l-217 -4v54q-37 -37 -67 -51.5t-79 -14.5q-78 0 -114 36.5t-36 113.5v226q0 37 -14 51.5t-58 14.5v36z" />
    <glyph glyph-name="v" unicode="v" horiz-adv-x="537" 
d="M-6 470h290v-40q-64 0 -64 -30q0 -4 1 -8t4 -12.5t7 -18.5l12.5 -30.5l18 -43.5l25.5 -63l34 -84h2q100 237 100 259q0 15 -13.5 23t-53.5 8v40h194v-40q-36 0 -51.5 -13t-30.5 -48l-156 -369h-83l-162 380q-11 26 -24.5 36t-49.5 14v40z" />
    <glyph glyph-name="w" unicode="w" horiz-adv-x="778" 
d="M782 470v-40q-23 0 -39 -6.5t-27.5 -23.5t-17 -29.5t-15.5 -40.5l-119 -330h-76l-100 312h-2l-116 -312h-78l-124 382q-9 29 -24.5 38.5t-47.5 9.5v40h266v-40q-27 0 -37.5 -5.5t-10.5 -19.5q0 -15 66 -235h2q75 198 77 208q1 4 1 9q0 43 -64 43v40h260v-40
q-50 0 -50 -24q0 -13 68 -236h2l33.5 93l23.5 63.5l13.5 37t8 24.5t1.5 14q0 17 -15 22.5t-47 5.5v40h188z" />
    <glyph glyph-name="x" unicode="x" horiz-adv-x="611" 
d="M255 0h-240v40q24 3 38.5 6t35.5 12.5t40.5 26.5t46.5 47t62 75l-148 192q-24 31 -62 31v40h278v-40q-38 0 -38 -17q0 -11 10.5 -27.5t56.5 -76.5q71 78 71 97q0 24 -54 24v40h222v-40q-50 -1 -94.5 -34t-116.5 -122l142 -191q33 -43 90 -43v-40h-289v40q40 0 40 15
q0 2 -0.5 4t-1.5 5t-3 6l-5.5 8l-7 10t-10 13.5l-13 17l-17 22.5l-20.5 28q-51 -59 -62.5 -75t-11.5 -27q0 -27 61 -27v-40z" />
    <glyph glyph-name="y" unicode="y" horiz-adv-x="537" 
d="M346 470h196v-40q-31 0 -49 -12t-31 -44l-170 -412q-58 -142 -161 -142q-50 0 -80.5 29.5t-30.5 64.5q0 32 21.5 56t54.5 24q31 0 50.5 -18.5t19.5 -45.5q0 -23 -12 -40t-30 -22v-2h19q56 0 102 110l-169 414q-10 25 -23.5 32.5t-44.5 7.5v40h286v-40q-64 0 -64 -30
q0 -12 63 -163l31 -75h2q88 226 90 238q0 33 -70 30v40z" />
    <glyph glyph-name="z" unicode="z" horiz-adv-x="500" 
d="M50 470h404v-44l-252 -380q87 0 140 32t77 108h34v-186h-419v60l248 364h-50q-113 0 -148 -112h-34v158z" />
    <glyph glyph-name="braceleft" unicode="{" horiz-adv-x="370" 
d="M98 -37v185q0 52 -15.5 78t-60.5 40q45 14 60.5 40t15.5 78v185q0 89 41 117t145 28v-40q-68 0 -68 -94v-180q0 -60 -17 -90t-69 -43v-2q52 -13 69 -43t17 -90v-180q0 -94 68 -94v-40q-104 0 -145 28t-41 117z" />
    <glyph glyph-name="bar" unicode="|" horiz-adv-x="222" 
d="M60 0v680h102v-680h-102z" />
    <glyph glyph-name="braceright" unicode="}" horiz-adv-x="370" 
d="M272 569v-185q0 -52 15.5 -78t60.5 -40q-45 -14 -60.5 -40t-15.5 -78v-185q0 -89 -41 -117t-145 -28v40q68 0 68 94v180q0 60 17 90t69 43v2q-52 13 -69 43t-17 90v180q0 94 -68 94v40q104 0 145 -28t41 -117z" />
    <glyph glyph-name="asciitilde" unicode="~" horiz-adv-x="600" 
d="M481 330l34 -100q-20 -28 -31.5 -42.5t-35 -29t-50.5 -14.5q-35 0 -96.5 34t-104.5 34q-49 0 -78 -72l-34 100q43 86 116 86q37 0 107 -34t91 -34q13 0 24.5 5.5t22.5 18t17.5 21.5t17.5 27z" />
    <glyph glyph-name="uni00A0" unicode="&#xa0;" horiz-adv-x="287" 
 />
    <glyph glyph-name="exclamdown" unicode="&#xa1;" 
d="M137 294h60l45 -289q8 -54 8 -83q0 -108 -83 -108t-83 108q0 29 8 83zM250 439q0 -35 -24 -59t-59 -24t-59 24t-24 59t24 59t59 24t59 -24t24 -59z" />
    <glyph glyph-name="cent" unicode="&#xa2;" horiz-adv-x="574" 
d="M278 191v339q-64 -37 -64 -165q0 -137 64 -174zM278 582v106h36v-106q55 -1 102.5 -29.5t47.5 -79.5q0 -31 -19 -52t-51 -21q-28 0 -47 18.5t-19 46.5q0 24 16.5 41.5t40.5 17.5q1 0 4 -0.5t5 -0.5q-18 23 -63 23q-7 0 -17 -2v-364q10 -2 15 -2q38 0 63.5 20.5t49.5 59.5
l28 -27q-54 -97 -156 -99v-132h-36v132q-72 4 -139.5 69t-66.5 165q1 83 62.5 143t143.5 73z" />
    <glyph glyph-name="sterling" unicode="&#xa3;" horiz-adv-x="574" 
d="M257 286h-156v46h103v2q-53 43 -81 85t-28 97q0 71 61 127.5t152 56.5q37 0 74.5 -10t68 -36.5t30.5 -65.5q0 -29 -19 -49.5t-53 -20.5q-36 0 -55 18t-19 43q0 42 48 58q-20 17 -57 17q-39 0 -67 -23t-28 -63q0 -31 23 -63.5t53 -56.5l68.5 -57t59.5 -59h140v-46h-115
q14 -31 14 -62q0 -48 -24 -92t-62 -67q29 -19 69 -19q62 0 110 67l31 -32q-36 -47 -67.5 -67t-82.5 -20q-58 0 -110 33q-70 -39 -168 -39q-71 0 -115 25.5t-44 67.5q0 48 34 72.5t85 24.5q53 0 93.5 -16t91.5 -51q13 24 13 56t-18.5 59t-52.5 60zM163 104q-52 0 -52 -29
q0 -18 19.5 -29.5t45.5 -11.5q55 0 102 26q-23 17 -57 30.5t-58 13.5z" />
    <glyph glyph-name="currency" unicode="&#xa4;" horiz-adv-x="574" 
d="M483 605l64 -64l-55 -56q43 -51 43 -141t-43 -141l55 -56l-64 -64l-58 57q-21 -19 -58.5 -31t-76.5 -12q-92 0 -145 45l-56 -59l-62 64l59 57q-47 46 -47 140t47 140l-59 57l62 64l56 -59q53 45 145 45q39 0 76.5 -12t58.5 -31zM147 344q0 -60 40.5 -101.5t101.5 -41.5
q59 0 98.5 41.5t39.5 101.5t-39.5 101.5t-98.5 41.5q-61 0 -101.5 -41.5t-40.5 -101.5z" />
    <glyph glyph-name="yen" unicode="&#xa5;" horiz-adv-x="574" 
d="M526 400v-46h-133l-33 -68v-6h166v-46h-166v-106q0 -51 20 -68t92 -20v-40h-379v40q73 3 93 20t20 68v106h-160v46h160v10l-32 64h-128v46h105l-71 138q-22 43 -33.5 61.5t-32.5 33.5t-49 15v40h320v-40q-78 0 -78 -31q0 -11 16 -44t111 -218q76 150 95 193t19 58
q0 20 -22.5 31t-62.5 11v40h246v-40q-49 -7 -68.5 -21.5t-36.5 -47.5l-88 -179h110z" />
    <glyph glyph-name="brokenbar" unicode="&#xa6;" horiz-adv-x="222" 
d="M60 0v256h102v-256h-102zM60 424v256h102v-256h-102z" />
    <glyph glyph-name="section" unicode="&#xa7;" horiz-adv-x="500" 
d="M183 430q-78 74 -78 140q0 60 42 95t103 35q53 0 97 -25.5t44 -72.5q0 -27 -15 -43.5t-40 -16.5q-27 0 -42 15t-15 34q0 22 14 36t14 23q0 7 -12.5 12.5t-30.5 5.5q-34 0 -54.5 -17t-20.5 -52q0 -23 18.5 -47.5t46.5 -45.5l60 -47t60 -52t46.5 -61.5t18.5 -73.5
q0 -55 -32 -91t-84 -37l12 -12.5l12.5 -13t10.5 -12t10 -13t8.5 -12t8 -13.5t5.5 -13.5t5.5 -15t2.5 -15.5t1 -18q0 -60 -46 -94t-113 -34q-56 0 -98.5 29t-42.5 69q0 25 15.5 43.5t39.5 18.5q21 0 39 -14t18 -38q0 -14 -14 -30.5t-14 -22.5q0 -19 60 -19q30 0 51 17t21 49
q0 26 -26 54t-63.5 55.5l-75 57.5t-63.5 69.5t-26 81.5q0 58 32.5 94.5t89.5 37.5zM182 398q-22 0 -36.5 -17t-14.5 -39q0 -26 13 -46t50 -53q72 -67 120 -67q25 0 40 15.5t15 40.5q0 27 -14.5 49.5t-58.5 60.5q-40 34 -64 45t-50 11z" />
    <glyph glyph-name="dieresis" unicode="&#xa8;" 
d="M207 611q0 27 18 46t46 19q29 0 47.5 -19t18.5 -46t-18.5 -46t-47.5 -19q-28 0 -46 19t-18 46zM-3 611q0 27 18 46t46 19q29 0 47.5 -19t18.5 -46t-18.5 -46t-47.5 -19q-28 0 -46 19t-18 46z" />
    <glyph glyph-name="copyright" unicode="&#xa9;" horiz-adv-x="800" 
d="M52 344q0 152 98.5 254t249.5 102t249.5 -102t98.5 -254q0 -153 -98.5 -254.5t-249.5 -101.5t-249.5 101.5t-98.5 254.5zM662 344q0 124 -74 209t-188 85q-115 0 -188.5 -85t-73.5 -209t73.5 -209t188.5 -85q113 0 187.5 85t74.5 209zM547 269h22l-16 -82
q-2 -10 -49 -23.5t-85 -13.5q-103 0 -161 53.5t-58 152.5q0 35 11.5 67.5t36 63t71 49t109.5 18.5q38 0 81 -10.5t43 -23.5v-78h-22q-29 86 -100 86q-104 0 -104 -167q0 -184 102 -185q76 0 119 93z" />
    <glyph glyph-name="ordfeminine" unicode="&#xaa;" horiz-adv-x="334" 
d="M188 588v41q0 43 -58 43q-22 0 -43 -9v-2q15 -2 26 -12t11 -25q0 -18 -15 -30.5t-37 -12.5q-18 0 -31 13t-13 32q0 28 35.5 51t100.5 23q120 0 120 -78v-143q0 -35 20 -35q18 0 24 43h22v-12q0 -31 -22.5 -51t-59.5 -20q-46 0 -68 39q-28 -39 -94 -39q-42 0 -71 16.5
t-29 51.5q0 19 10 35t23 26.5t36 20t38.5 14t41 11t33.5 9.5zM188 491v71q-33 -7 -59.5 -29.5t-26.5 -51.5q0 -19 11 -32t32 -13q19 0 31 16.5t12 38.5z" />
    <glyph glyph-name="guillemotleft" unicode="&#xab;" horiz-adv-x="500" 
d="M269 408q0 -16 -35.5 -66t-86.5 -107q51 -57 86.5 -107t35.5 -66q0 -15 -12 -15q-5 0 -33 29t-80 77t-106 82q54 34 106 82t80 77t33 29q12 0 12 -15zM450 408q0 -16 -35.5 -66t-86.5 -107q51 -57 86.5 -107t35.5 -66q0 -15 -12 -15q-5 0 -33 29t-80 77t-106 82
q54 34 106 82t80 77t33 29q12 0 12 -15z" />
    <glyph glyph-name="logicalnot" unicode="&#xac;" horiz-adv-x="600" 
d="M433 71v221h-368v102h470v-323h-102z" />
    <glyph glyph-name="uni00AD" unicode="&#xad;" 
d="M38 186v98h256v-98h-256z" />
    <glyph glyph-name="registered" unicode="&#xae;" horiz-adv-x="800" 
d="M412 162h-180v20q31 1 37.5 8.5t6.5 30.5v262q0 24 -7 31.5t-37 7.5v22h205q49 0 80 -26t31 -76q0 -33 -20.5 -61.5t-56.5 -39.5l117 -165v-14h-95q-13 0 -28.5 25.5t-37.5 72t-35 68.5h-22v-107q0 -24 6 -31t36 -8v-20zM370 518v-164h24q52 0 52 84q0 80 -48 80h-28z
M52 344q0 152 98.5 254t249.5 102t249.5 -102t98.5 -254q0 -153 -98.5 -254.5t-249.5 -101.5t-249.5 101.5t-98.5 254.5zM662 344q0 124 -74 209t-188 85q-115 0 -188.5 -85t-73.5 -209t73.5 -209t188.5 -85q113 0 187.5 85t74.5 209z" />
    <glyph glyph-name="macron" unicode="&#xaf;" 
d="M332 574h-332v74h332v-74z" />
    <glyph glyph-name="degree" unicode="&#xb0;" horiz-adv-x="400" 
d="M199 474q32 0 55 25t23 58t-23 58t-55 25q-31 0 -53.5 -25t-22.5 -58t22.5 -58t53.5 -25zM200 414q-60 0 -101.5 41.5t-41.5 101.5t41.5 101.5t101.5 41.5t101.5 -41.5t41.5 -101.5t-41.5 -101.5t-101.5 -41.5z" />
    <glyph glyph-name="plusminus" unicode="&#xb1;" horiz-adv-x="600" 
d="M249 353v117h102v-117h184v-102h-184v-117h-102v117h-184v102h184zM65 0v102h470v-102h-470z" />
    <glyph glyph-name="twosuperior" unicode="&#xb2;" horiz-adv-x="344" 
d="M293 438h32l-10 -158h-297q0 44 13 65q35 56 83.5 102t72.5 75.5t24 70.5q0 30 -19 50.5t-52 20.5q-27 0 -47 -13.5t-26 -32.5q1 0 7.5 1.5t9.5 1.5q19 0 31.5 -12.5t12.5 -29.5q0 -22 -14 -35t-36 -13q-25 0 -39.5 16.5t-14.5 39.5q0 52 45.5 82.5t104.5 30.5
q61 0 103 -31t42 -84q0 -37 -22 -65.5t-51.5 -45t-74.5 -46t-77 -62.5h108q46 0 65 18.5t26 53.5z" />
    <glyph glyph-name="threesuperior" unicode="&#xb3;" horiz-adv-x="344" 
d="M213 498v-2q54 -2 86 -26.5t32 -72.5q0 -52 -50.5 -88.5t-126.5 -36.5q-64 0 -102.5 27.5t-38.5 71.5q0 24 17 42t40 18t37 -13t14 -33q0 -44 -46 -44q-4 0 -10.5 2t-9.5 2q4 -19 26 -29t52 -10q42 0 63 24.5t21 63.5q0 35 -18 59.5t-39 24.5q-8 0 -22 -2t-19 -2
q-27 0 -27 21q0 17 29 17q5 0 16.5 -1t17.5 -1q25 0 42 22t17 57q0 32 -20 52.5t-51 20.5q-47 0 -69 -30q10 2 15 2q19 0 32 -11.5t13 -28.5q0 -21 -13.5 -33.5t-39.5 -12.5q-22 0 -36.5 14t-14.5 38q0 47 43 73.5t97 26.5q63 0 107.5 -30.5t44.5 -75.5q0 -42 -31 -66.5
t-78 -29.5z" />
    <glyph glyph-name="acute" unicode="&#xb4;" 
d="M145 538h-58l138 159q22 25 56 25q16 0 30 -12.5t14 -28.5q0 -31 -31 -50z" />
    <glyph glyph-name="mu" unicode="&#xb5;" horiz-adv-x="611" 
d="M18 466l218 4v-350q0 -78 53 -78q45 0 66.5 36.5t21.5 83.5v202q0 37 -15.5 51.5t-66.5 14.5v36l228 4v-364q0 -37 15 -51.5t65 -14.5v-36l-217 -4v54q-37 -37 -67 -51.5t-79 -14.5h-4v-162h-218v40q41 2 56.5 12t15.5 44v442q0 37 -14 51.5t-58 14.5v36z" />
    <glyph glyph-name="paragraph" unicode="&#xb6;" horiz-adv-x="620" 
d="M396 -122v780h-60v-780h-112v400q-66 0 -113 54.5t-47 150.5q0 99 51.5 152t136.5 53h331v-26q-75 0 -75 -54v-730h-112z" />
    <glyph glyph-name="periodcentered" unicode="&#xb7;" horiz-adv-x="287" 
d="M60 235q0 35 24 59t59 24t59 -24t24 -59t-24 -59t-59 -24t-59 24t-24 59z" />
    <glyph glyph-name="cedilla" unicode="&#xb8;" 
d="M46 -202l16 37q37 -13 65 -13q26 0 39 12.5t13 28.5q0 17 -13 27t-31 10q-15 0 -29 -6l-11 9l43 97h41l-28 -65q21 7 35 7q42 0 64.5 -20.5t22.5 -53.5q0 -40 -35.5 -64t-96.5 -24q-46 0 -95 18z" />
    <glyph glyph-name="onesuperior" unicode="&#xb9;" horiz-adv-x="344" 
d="M307 280h-270v34q53 1 67 11.5t14 41.5v226q0 24 -11 29t-56 7v34q52 1 77 7.5t54 25.5h44v-327q0 -35 16 -45t65 -10v-34z" />
    <glyph glyph-name="ordmasculine" unicode="&#xba;" horiz-adv-x="356" 
d="M118 552q0 -118 61 -118q59 0 59 118t-59 118q-61 0 -61 -118zM348 552q0 -56 -46 -102t-124 -46q-77 0 -123.5 46t-46.5 102t46.5 102t123.5 46q78 0 124 -46t46 -102z" />
    <glyph glyph-name="guillemotright" unicode="&#xbb;" horiz-adv-x="500" 
d="M231 62q0 16 35.5 66t86.5 107q-51 57 -86.5 107t-35.5 66q0 15 12 15q5 0 33 -29t80 -77t106 -82q-54 -34 -106 -82t-80 -77t-33 -29q-12 0 -12 15zM50 62q0 16 35.5 66t86.5 107q-51 57 -86.5 107t-35.5 66q0 15 12 15q5 0 33 -29t80 -77t106 -82q-54 -34 -106 -82
t-80 -77t-33 -29q-12 0 -12 15z" />
    <glyph glyph-name="onequarter" unicode="&#xbc;" horiz-adv-x="861" 
d="M799 0h-233v34q43 3 57 11.5t14 32.5v28h-165l2 37l211 277h52v-274h74v-40h-74v-34q0 -22 12.5 -30t49.5 -8v-34zM521 146h116v145h-2zM648 700h74l-427 -712h-74zM334 280h-270v34q53 1 67 11.5t14 41.5v226q0 24 -11 29t-56 7v34q52 1 77 7.5t54 25.5h44v-327
q0 -35 16 -45t65 -10v-34z" />
    <glyph glyph-name="onehalf" unicode="&#xbd;" horiz-adv-x="861" 
d="M618 700h74l-427 -712h-74zM334 280h-270v34q53 1 67 11.5t14 41.5v226q0 24 -11 29t-56 7v34q52 1 77 7.5t54 25.5h44v-327q0 -35 16 -45t65 -10v-34zM784 158h32l-10 -158h-297q0 44 13 65q35 56 83.5 102t72.5 75.5t24 70.5q0 30 -19 50.5t-52 20.5q-27 0 -47 -13.5
t-26 -32.5q1 0 7.5 1.5t9.5 1.5q19 0 31.5 -12.5t12.5 -29.5q0 -22 -14 -35t-36 -13q-25 0 -39.5 16.5t-14.5 39.5q0 52 45.5 82.5t104.5 30.5q61 0 103 -31t42 -84q0 -37 -22 -65.5t-51.5 -45t-74.5 -46t-77 -62.5h108q46 0 65 18.5t26 53.5z" />
    <glyph glyph-name="threequarters" unicode="&#xbe;" horiz-adv-x="861" 
d="M799 0h-233v34q43 3 57 11.5t14 32.5v28h-165l2 37l211 277h52v-274h74v-40h-74v-34q0 -22 12.5 -30t49.5 -8v-34zM521 146h116v145h-2zM648 700h74l-427 -712h-74zM250 498v-2q54 -2 86 -26.5t32 -72.5q0 -52 -50.5 -88.5t-126.5 -36.5q-64 0 -102.5 27.5t-38.5 71.5
q0 24 17 42t40 18t37 -13t14 -33q0 -44 -46 -44q-4 0 -10.5 2t-9.5 2q4 -19 26 -29t52 -10q42 0 63 24.5t21 63.5q0 35 -18 59.5t-39 24.5q-9 0 -22 -2t-19 -2q-27 0 -27 21q0 17 29 17q5 0 16.5 -1t17.5 -1q25 0 42 22t17 57q0 32 -20 52.5t-51 20.5q-47 0 -69 -30
q10 2 15 2q19 0 32 -11.5t13 -28.5q0 -21 -13.5 -33.5t-39.5 -12.5q-22 0 -36.5 14t-14.5 38q0 47 43 73.5t97 26.5q63 0 107.5 -30.5t44.5 -75.5q0 -42 -31 -66.5t-78 -29.5z" />
    <glyph glyph-name="questiondown" unicode="&#xbf;" horiz-adv-x="500" 
d="M244 316h52v-62q0 -36 -14.5 -66t-31.5 -48t-31.5 -51t-14.5 -75q0 -69 24 -105.5t70 -36.5q31 0 62.5 16.5t39.5 35.5q-6 -1 -16 -1q-35 0 -55.5 17.5t-20.5 51.5q0 29 23 49t53 20q32 0 55 -24t23 -59q0 -66 -58.5 -109t-137.5 -43q-97 0 -156.5 42t-59.5 109
q0 42 20 75t48.5 55l57 43t48.5 52t20 70v44zM358 439q0 -35 -24 -59t-59 -24t-59 24t-24 59t24 59t59 24t59 -24t24 -59z" />
    <glyph glyph-name="Agrave" unicode="&#xc0;" horiz-adv-x="741" 
d="M272 0h-281v40q54 10 80.5 36t53.5 91l222 533h53l256 -593q16 -36 36 -50t59 -17v-40h-361v40h40q36 0 48 8t12 25q0 14 -11 40l-49 115h-220l-32 -79q-12 -31 -12 -63q0 -46 57 -46h49v-40zM408 280l-91 211l-85 -211h176zM438 731h-58l-149 93q-19 12 -25 21t-6 29
q0 16 14 28.5t30 12.5q24 0 37 -9t39 -39z" />
    <glyph glyph-name="Aacute" unicode="&#xc1;" horiz-adv-x="741" 
d="M272 0h-281v40q54 10 80.5 36t53.5 91l222 533h53l256 -593q16 -36 36 -50t59 -17v-40h-361v40h40q36 0 48 8t12 25q0 14 -11 40l-49 115h-220l-32 -79q-12 -31 -12 -63q0 -46 57 -46h49v-40zM408 280l-91 211l-85 -211h176zM337 731h-58l138 159q23 25 56 25
q16 0 30 -12.5t14 -28.5q0 -31 -31 -50z" />
    <glyph glyph-name="Acircumflex" unicode="&#xc2;" horiz-adv-x="741" 
d="M272 0h-281v40q54 10 80.5 36t53.5 91l222 533h53l256 -593q16 -36 36 -50t59 -17v-40h-361v40h40q36 0 48 8t12 25q0 14 -11 40l-49 115h-220l-32 -79q-12 -31 -12 -63q0 -46 57 -46h49v-40zM408 280l-91 211l-85 -211h176zM313 907h92l122 -176h-58l-110 99l-110 -99
h-58z" />
    <glyph glyph-name="Atilde" unicode="&#xc3;" horiz-adv-x="741" 
d="M272 0h-281v40q54 10 80.5 36t53.5 91l222 533h53l256 -593q16 -36 36 -50t59 -17v-40h-361v40h40q36 0 48 8t12 25q0 14 -11 40l-49 115h-220l-32 -79q-12 -31 -12 -63q0 -46 57 -46h49v-40zM408 280l-91 211l-85 -211h176zM498 877h44q-30 -126 -118 -126q-40 0 -90 24
q-52 24 -69 24t-31 -15t-18 -32h-40q6 51 38.5 88t79.5 37q30 0 84 -25q56 -25 66 -25q8 0 14 1t11 4.5l8 5.5t6.5 8.5t5 8.5t5 11t4.5 11z" />
    <glyph glyph-name="Adieresis" unicode="&#xc4;" horiz-adv-x="741" 
d="M272 0h-281v40q54 10 80.5 36t53.5 91l222 533h53l256 -593q16 -36 36 -50t59 -17v-40h-361v40h40q36 0 48 8t12 25q0 14 -11 40l-49 115h-220l-32 -79q-12 -31 -12 -63q0 -46 57 -46h49v-40zM408 280l-91 211l-85 -211h176zM399 804q0 27 18 46t46 19q29 0 47.5 -19
t18.5 -46t-18.5 -46t-47.5 -19q-28 0 -46 19t-18 46zM189 804q0 27 18 46t46 19q29 0 47.5 -19t18.5 -46t-18.5 -46t-47.5 -19q-28 0 -46 19t-18 46z" />
    <glyph glyph-name="Aring" unicode="&#xc5;" horiz-adv-x="741" 
d="M272 0h-281v40q54 10 80.5 36t53.5 91l222 533h53l256 -593q16 -36 36 -50t59 -17v-40h-361v40h40q36 0 48 8t12 25q0 14 -11 40l-49 115h-220l-32 -79q-12 -31 -12 -63q0 -46 57 -46h49v-40zM408 280l-91 211l-85 -211h176zM382 730q-44 0 -73.5 30t-29.5 73t30 73
t73 30t73 -30t30 -73t-30 -73t-73 -30zM382 892q-25 0 -42 -17.5t-17 -41.5q0 -25 17 -42t42 -17t42 17t17 42q0 24 -17 41.5t-42 17.5z" />
    <glyph glyph-name="AE" unicode="&#xc6;" horiz-adv-x="944" 
d="M872 262l-6 -262h-550v40q53 0 73.5 14.5t20.5 51.5v174h-202l-70 -138q-16 -32 -16 -51q0 -51 66 -51h32v-40h-250v40q26 0 52.5 21t44.5 55l237 457q18 34 18 45q0 17 -19 23.5t-69 6.5v40h617l6 -248h-43q-17 82 -63.5 142t-121.5 60q-40 0 -56.5 -11.5t-16.5 -37.5
v-209q63 0 90.5 27t35.5 89h40v-278h-40q-8 62 -35.5 89t-90.5 27v-220q0 -41 20.5 -56.5t58.5 -15.5q82 0 133.5 65.5t60.5 150.5h43zM236 332h174v312h-10z" />
    <glyph glyph-name="Ccedilla" unicode="&#xc7;" horiz-adv-x="741" 
d="M668 682v-244h-40q-41 113 -91 164.5t-133 51.5q-178 0 -178 -310t204 -310q99 0 154.5 60.5t61.5 174.5h44q0 -133 -73 -207t-209 -74h-7l-23 -53q21 7 35 7q42 0 64.5 -20.5t22.5 -53.5q0 -40 -35.5 -64t-96.5 -24q-46 0 -95 18l16 37q37 -13 65 -13q26 0 39 12.5
t13 28.5q0 17 -13 27t-31 10q-16 0 -29 -6l-11 9l39 88q-150 15 -234.5 114t-84.5 239q0 144 104.5 250t246.5 106q88 0 196 -59l39 41h40z" />
    <glyph glyph-name="Egrave" unicode="&#xc8;" horiz-adv-x="722" 
d="M637 688l6 -246h-43q-26 98 -85.5 149t-147.5 51q-47 0 -65 -13.5t-18 -50.5v-194q73 0 104.5 23t51.5 93h40v-278h-40q-20 70 -51.5 93t-104.5 23v-228q0 -37 18 -50.5t65 -13.5q98 0 161 57.5t88 158.5h43l-6 -262h-635v40q56 0 77 14.5t21 51.5v476q0 37 -21 51.5
t-77 14.5v40h619zM453 731h-58l-149 93q-19 12 -25 21t-6 29q0 16 14 28.5t30 12.5q24 0 37 -9t39 -39z" />
    <glyph glyph-name="Eacute" unicode="&#xc9;" horiz-adv-x="722" 
d="M637 688l6 -246h-43q-26 98 -85.5 149t-147.5 51q-47 0 -65 -13.5t-18 -50.5v-194q73 0 104.5 23t51.5 93h40v-278h-40q-20 70 -51.5 93t-104.5 23v-228q0 -37 18 -50.5t65 -13.5q98 0 161 57.5t88 158.5h43l-6 -262h-635v40q56 0 77 14.5t21 51.5v476q0 37 -21 51.5
t-77 14.5v40h619zM352 731h-58l138 159q22 25 56 25q16 0 30 -12.5t14 -28.5q0 -31 -31 -50z" />
    <glyph glyph-name="Ecircumflex" unicode="&#xca;" horiz-adv-x="722" 
d="M637 688l6 -246h-43q-26 98 -85.5 149t-147.5 51q-47 0 -65 -13.5t-18 -50.5v-194q73 0 104.5 23t51.5 93h40v-278h-40q-20 70 -51.5 93t-104.5 23v-228q0 -37 18 -50.5t65 -13.5q98 0 161 57.5t88 158.5h43l-6 -262h-635v40q56 0 77 14.5t21 51.5v476q0 37 -21 51.5
t-77 14.5v40h619zM328 907h92l122 -176h-58l-110 99l-110 -99h-58z" />
    <glyph glyph-name="Edieresis" unicode="&#xcb;" horiz-adv-x="722" 
d="M637 688l6 -246h-43q-26 98 -85.5 149t-147.5 51q-47 0 -65 -13.5t-18 -50.5v-194q73 0 104.5 23t51.5 93h40v-278h-40q-20 70 -51.5 93t-104.5 23v-228q0 -37 18 -50.5t65 -13.5q98 0 161 57.5t88 158.5h43l-6 -262h-635v40q56 0 77 14.5t21 51.5v476q0 37 -21 51.5
t-77 14.5v40h619zM414 804q0 27 18 46t46 19q29 0 47.5 -19t18.5 -46t-18.5 -46t-47.5 -19q-28 0 -46 19t-18 46zM204 804q0 27 18 46t46 19q29 0 47.5 -19t18.5 -46t-18.5 -46t-47.5 -19q-28 0 -46 19t-18 46z" />
    <glyph glyph-name="Igrave" unicode="&#xcc;" horiz-adv-x="426" 
d="M395 0h-364v40q56 0 77 14.5t21 51.5v476q0 37 -21 51.5t-77 14.5v40h364v-40q-56 0 -77 -14.5t-21 -51.5v-476q0 -37 21 -51.5t77 -14.5v-40zM310 731h-58l-149 93q-19 12 -25 21t-6 29q0 16 14 28.5t30 12.5q24 0 37 -9t39 -39z" />
    <glyph glyph-name="Iacute" unicode="&#xcd;" horiz-adv-x="426" 
d="M395 0h-364v40q56 0 77 14.5t21 51.5v476q0 37 -21 51.5t-77 14.5v40h364v-40q-56 0 -77 -14.5t-21 -51.5v-476q0 -37 21 -51.5t77 -14.5v-40zM209 731h-58l138 159q22 25 56 25q16 0 30 -12.5t14 -28.5q0 -31 -31 -50z" />
    <glyph glyph-name="Icircumflex" unicode="&#xce;" horiz-adv-x="426" 
d="M395 0h-364v40q56 0 77 14.5t21 51.5v476q0 37 -21 51.5t-77 14.5v40h364v-40q-56 0 -77 -14.5t-21 -51.5v-476q0 -37 21 -51.5t77 -14.5v-40zM185 907h92l122 -176h-58l-110 99l-110 -99h-58z" />
    <glyph glyph-name="Idieresis" unicode="&#xcf;" horiz-adv-x="426" 
d="M395 0h-364v40q56 0 77 14.5t21 51.5v476q0 37 -21 51.5t-77 14.5v40h364v-40q-56 0 -77 -14.5t-21 -51.5v-476q0 -37 21 -51.5t77 -14.5v-40zM271 804q0 27 18 46t46 19q29 0 47.5 -19t18.5 -46t-18.5 -46t-47.5 -19q-28 0 -46 19t-18 46zM61 804q0 27 18 46t46 19
q29 0 47.5 -19t18.5 -46t-18.5 -46t-47.5 -19q-28 0 -46 19t-18 46z" />
    <glyph glyph-name="Eth" unicode="&#xd0;" horiz-adv-x="759" 
d="M116 106v246h-88v56h88v174q0 37 -21 51.5t-77 14.5v40h312q183 0 287 -94.5t104 -249.5q0 -148 -100 -246t-263 -98h-340v40q56 0 77 14.5t21 51.5zM276 572v-164h158v-56h-158v-236q0 -37 20.5 -53.5t69.5 -16.5q82 0 127.5 74t45.5 224t-45.5 224t-127.5 74
q-49 0 -69.5 -16.5t-20.5 -53.5z" />
    <glyph glyph-name="Ntilde" unicode="&#xd1;" horiz-adv-x="759" 
d="M14 648v40h244l336 -468h2v352q0 37 -22 52.5t-83 23.5v40h253v-40q-52 -8 -72 -23.5t-20 -52.5v-572h-94l-382 530h-4v-424q0 -38 24 -52t93 -14v-40h-271v40q56 0 77 14.5t21 51.5v476q0 38 -22 52t-80 14zM536 877h44q-30 -126 -118 -126q-40 0 -90 24q-52 24 -69 24
t-31 -15t-18 -32h-40q6 51 38.5 88t79.5 37q30 0 84 -25q56 -25 66 -25q8 0 14 1t11 4.5l8 5.5t6.5 8.5t5 8.5t5 11t4.5 11z" />
    <glyph glyph-name="Ograve" unicode="&#xd2;" horiz-adv-x="778" 
d="M38 344q0 144 104.5 250t246.5 106t246.5 -106t104.5 -250t-104.5 -250t-246.5 -106t-246.5 106t-104.5 250zM226 344q0 -310 163 -310t163 310t-163 310t-163 -310zM481 731h-58l-149 93q-19 12 -25 21t-6 29q0 16 14 28.5t30 12.5q24 0 37 -9t39 -39z" />
    <glyph glyph-name="Oacute" unicode="&#xd3;" horiz-adv-x="778" 
d="M38 344q0 144 104.5 250t246.5 106t246.5 -106t104.5 -250t-104.5 -250t-246.5 -106t-246.5 106t-104.5 250zM226 344q0 -310 163 -310t163 310t-163 310t-163 -310zM380 731h-58l138 159q22 25 56 25q16 0 30 -12.5t14 -28.5q0 -31 -31 -50z" />
    <glyph glyph-name="Ocircumflex" unicode="&#xd4;" horiz-adv-x="778" 
d="M38 344q0 144 104.5 250t246.5 106t246.5 -106t104.5 -250t-104.5 -250t-246.5 -106t-246.5 106t-104.5 250zM226 344q0 -310 163 -310t163 310t-163 310t-163 -310zM356 907h92l122 -176h-58l-110 99l-110 -99h-58z" />
    <glyph glyph-name="Otilde" unicode="&#xd5;" horiz-adv-x="778" 
d="M38 344q0 144 104.5 250t246.5 106t246.5 -106t104.5 -250t-104.5 -250t-246.5 -106t-246.5 106t-104.5 250zM226 344q0 -310 163 -310t163 310t-163 310t-163 -310zM541 877h44q-30 -126 -118 -126q-40 0 -90 24q-52 24 -69 24t-31 -15t-18 -32h-40q6 51 38.5 88
t79.5 37q30 0 84 -25q56 -25 66 -25q8 0 14 1t11 4.5l8 5.5t6.5 8.5t5 8.5t5 11t4.5 11z" />
    <glyph glyph-name="Odieresis" unicode="&#xd6;" horiz-adv-x="778" 
d="M38 344q0 144 104.5 250t246.5 106t246.5 -106t104.5 -250t-104.5 -250t-246.5 -106t-246.5 106t-104.5 250zM226 344q0 -310 163 -310t163 310t-163 310t-163 -310zM442 804q0 27 18 46t46 19q29 0 47.5 -19t18.5 -46t-18.5 -46t-47.5 -19q-28 0 -46 19t-18 46zM232 804
q0 27 18 46t46 19q29 0 47.5 -19t18.5 -46t-18.5 -46t-47.5 -19q-28 0 -46 19t-18 46z" />
    <glyph glyph-name="multiply" unicode="&#xd7;" horiz-adv-x="600" 
d="M300 307l162 163l73 -74l-163 -161l163 -161l-73 -74l-162 163l-162 -163l-73 74l163 161l-163 161l73 74z" />
    <glyph glyph-name="Oslash" unicode="&#xd8;" horiz-adv-x="778" 
d="M241 186l276 378q-40 90 -128 90q-163 0 -163 -310q0 -92 15 -158zM538 498l-276 -377q40 -87 127 -87q163 0 163 310q0 94 -14 154zM58 -64l104 142q-58 50 -91 119.5t-33 146.5q0 144 104.5 250t246.5 106q99 0 186 -57l74 101h69l-99 -135q56 -50 88.5 -119.5
t32.5 -145.5q0 -144 -104.5 -250t-246.5 -106q-98 0 -184 56l-79 -108h-68z" />
    <glyph glyph-name="Ugrave" unicode="&#xd9;" horiz-adv-x="722" 
d="M6 688h353v-40q-58 0 -80 -14t-22 -52v-412q0 -64 44 -100t99 -36q169 0 169 174v364q0 37 -22 52.5t-85 23.5v40h253v-40q-52 -8 -72 -23.5t-20 -52.5v-356q0 -228 -263 -228q-45 0 -87.5 10t-82 31t-63.5 61.5t-24 95.5v396q0 37 -21 51.5t-76 14.5v40zM458 731h-58
l-149 93q-19 12 -25 21t-6 29q0 16 14 28.5t30 12.5q24 0 37 -9t39 -39z" />
    <glyph glyph-name="Uacute" unicode="&#xda;" horiz-adv-x="722" 
d="M6 688h353v-40q-58 0 -80 -14t-22 -52v-412q0 -64 44 -100t99 -36q169 0 169 174v364q0 37 -22 52.5t-85 23.5v40h253v-40q-52 -8 -72 -23.5t-20 -52.5v-356q0 -228 -263 -228q-45 0 -87.5 10t-82 31t-63.5 61.5t-24 95.5v396q0 37 -21 51.5t-76 14.5v40zM357 731h-58
l138 159q23 25 56 25q16 0 30 -12.5t14 -28.5q0 -31 -31 -50z" />
    <glyph glyph-name="Ucircumflex" unicode="&#xdb;" horiz-adv-x="722" 
d="M6 688h353v-40q-58 0 -80 -14t-22 -52v-412q0 -64 44 -100t99 -36q169 0 169 174v364q0 37 -22 52.5t-85 23.5v40h253v-40q-52 -8 -72 -23.5t-20 -52.5v-356q0 -228 -263 -228q-45 0 -87.5 10t-82 31t-63.5 61.5t-24 95.5v396q0 37 -21 51.5t-76 14.5v40zM333 907h92
l122 -176h-58l-110 99l-110 -99h-58z" />
    <glyph glyph-name="Udieresis" unicode="&#xdc;" horiz-adv-x="722" 
d="M6 688h353v-40q-58 0 -80 -14t-22 -52v-412q0 -64 44 -100t99 -36q169 0 169 174v364q0 37 -22 52.5t-85 23.5v40h253v-40q-52 -8 -72 -23.5t-20 -52.5v-356q0 -228 -263 -228q-45 0 -87.5 10t-82 31t-63.5 61.5t-24 95.5v396q0 37 -21 51.5t-76 14.5v40zM419 804
q0 27 18 46t46 19q29 0 47.5 -19t18.5 -46t-18.5 -46t-47.5 -19q-28 0 -46 19t-18 46zM209 804q0 27 18 46t46 19q29 0 47.5 -19t18.5 -46t-18.5 -46t-47.5 -19q-28 0 -46 19t-18 46z" />
    <glyph glyph-name="Yacute" unicode="&#xdd;" horiz-adv-x="630" 
d="M0 648v40h332v-40q-78 0 -78 -31q0 -14 21 -53l104 -199l92 185q19 38 19 56q0 19 -23 30.5t-63 11.5v40h252v-40q-53 -7 -73.5 -21.5t-37.5 -47.5l-144 -293v-180q0 -38 23.5 -52t88.5 -14v-40h-385v40q66 0 89.5 14t23.5 52v184l-126 248q-22 43 -33.5 61.5t-32.5 33.5
t-49 15zM282 731h-58l138 159q22 25 56 25q16 0 30 -12.5t14 -28.5q0 -31 -31 -50z" />
    <glyph glyph-name="Thorn" unicode="&#xde;" horiz-adv-x="648" 
d="M374 0h-364v40q56 0 77 14.5t21 51.5v476q0 37 -21 51.5t-77 14.5v40h356v-40q-56 0 -77 -14.5t-21 -51.5v-21q34 2 104 2q108 0 175.5 -48t68.5 -135q1 -90 -64.5 -140.5t-170.5 -50.5q-18 0 -56 1t-57 1v-77q0 -41 23 -57t83 -17v-40zM268 443v-208h37q139 0 139 139
q0 61 -29 102t-81 41q-29 0 -47.5 -19t-18.5 -55z" />
    <glyph glyph-name="germandbls" unicode="&#xdf;" horiz-adv-x="648" 
d="M238 0h-214v40q35 0 51.5 16t16.5 60v308h-72v46h72q0 109 68.5 169.5t173.5 60.5q79 0 145.5 -43t66.5 -116q0 -45 -15.5 -73.5t-37.5 -39.5t-44 -17.5t-37.5 -14t-15.5 -21.5q0 -15 23 -27t55.5 -23t65 -28t55.5 -52t23 -84q0 -72 -54.5 -122.5t-127.5 -50.5
q-27 0 -48.5 9t-33 17.5t-14.5 8.5q-10 0 -20 -23h-32v172h40q4 -29 9 -49.5t15 -44.5t29 -37t45 -13q32 0 56 23t24 58q0 31 -22.5 53t-54.5 35.5l-64 27.5t-54.5 37.5t-22.5 56.5q0 7 1 13t3.5 12.5t4 11t6.5 11.5t7 9.5t9 10t8.5 9t10 9.5t9.5 9q19 18 29.5 31t20 35
t9.5 47q0 61 -25 97t-64 36q-79 0 -79 -113v-547z" />
    <glyph glyph-name="agrave" unicode="&#xe0;" horiz-adv-x="556" 
d="M452 343v-229q0 -32 7 -46t24 -14q28 0 37 72h34v-19q0 -52 -33 -85.5t-93 -33.5q-71 0 -105 65q-52 -65 -144 -65q-66 0 -111 28t-45 89q0 23 9.5 44t21.5 36t35.5 29.5t40 23.5t48 19.5l45.5 15t46 13t37 9.5v58q0 44 -22.5 63.5t-67.5 19.5q-38 0 -67 -16v-2
q24 -3 39.5 -20.5t15.5 -44.5q0 -28 -20 -48.5t-51 -20.5q-33 0 -54 21t-21 56q0 49 54.5 85t154.5 36q91 0 138 -33t47 -106zM306 138v112q-50 -12 -89.5 -48.5t-39.5 -84.5q0 -32 15 -53.5t46 -21.5q32 0 50 25.5t18 70.5zM341 538h-58l-149 93q-19 12 -25 21t-6 29
q0 16 14 28.5t30 12.5q24 0 37 -9t39 -39z" />
    <glyph glyph-name="aacute" unicode="&#xe1;" horiz-adv-x="556" 
d="M452 343v-229q0 -32 7 -46t24 -14q28 0 37 72h34v-19q0 -52 -33 -85.5t-93 -33.5q-71 0 -105 65q-52 -65 -144 -65q-66 0 -111 28t-45 89q0 23 9.5 44t21.5 36t35.5 29.5t40 23.5t48 19.5l45.5 15t46 13t37 9.5v58q0 44 -22.5 63.5t-67.5 19.5q-38 0 -67 -16v-2
q24 -3 39.5 -20.5t15.5 -44.5q0 -28 -20 -48.5t-51 -20.5q-33 0 -54 21t-21 56q0 49 54.5 85t154.5 36q91 0 138 -33t47 -106zM306 138v112q-50 -12 -89.5 -48.5t-39.5 -84.5q0 -32 15 -53.5t46 -21.5q32 0 50 25.5t18 70.5zM240 538h-58l138 159q22 25 56 25q16 0 30 -12.5
t14 -28.5q0 -31 -31 -50z" />
    <glyph glyph-name="acircumflex" unicode="&#xe2;" horiz-adv-x="556" 
d="M452 343v-229q0 -32 7 -46t24 -14q28 0 37 72h34v-19q0 -52 -33 -85.5t-93 -33.5q-71 0 -105 65q-52 -65 -144 -65q-66 0 -111 28t-45 89q0 23 9.5 44t21.5 36t35.5 29.5t40 23.5t48 19.5l45.5 15t46 13t37 9.5v58q0 44 -22.5 63.5t-67.5 19.5q-38 0 -67 -16v-2
q24 -3 39.5 -20.5t15.5 -44.5q0 -28 -20 -48.5t-51 -20.5q-33 0 -54 21t-21 56q0 49 54.5 85t154.5 36q91 0 138 -33t47 -106zM306 138v112q-50 -12 -89.5 -48.5t-39.5 -84.5q0 -32 15 -53.5t46 -21.5q32 0 50 25.5t18 70.5zM216 714h92l122 -176h-58l-110 99l-110 -99h-58z
" />
    <glyph glyph-name="atilde" unicode="&#xe3;" horiz-adv-x="556" 
d="M452 343v-229q0 -32 7 -46t24 -14q28 0 37 72h34v-19q0 -52 -33 -85.5t-93 -33.5q-71 0 -105 65q-52 -65 -144 -65q-66 0 -111 28t-45 89q0 23 9.5 44t21.5 36t35.5 29.5t40 23.5t48 19.5l45.5 15t46 13t37 9.5v58q0 44 -22.5 63.5t-67.5 19.5q-38 0 -67 -16v-2
q24 -3 39.5 -20.5t15.5 -44.5q0 -28 -20 -48.5t-51 -20.5q-33 0 -54 21t-21 56q0 49 54.5 85t154.5 36q91 0 138 -33t47 -106zM306 138v112q-50 -12 -89.5 -48.5t-39.5 -84.5q0 -32 15 -53.5t46 -21.5q32 0 50 25.5t18 70.5zM401 684h44q-30 -126 -118 -126q-40 0 -90 24
q-52 24 -69 24t-31 -15t-18 -32h-40q6 51 38.5 88t79.5 37q30 0 84 -25q56 -25 66 -25q8 0 14 1t11 4.5l8 5.5t6.5 8.5t5 8.5t5 11t4.5 11z" />
    <glyph glyph-name="adieresis" unicode="&#xe4;" horiz-adv-x="556" 
d="M452 343v-229q0 -32 7 -46t24 -14q28 0 37 72h34v-19q0 -52 -33 -85.5t-93 -33.5q-71 0 -105 65q-52 -65 -144 -65q-66 0 -111 28t-45 89q0 23 9.5 44t21.5 36t35.5 29.5t40 23.5t48 19.5l45.5 15t46 13t37 9.5v58q0 44 -22.5 63.5t-67.5 19.5q-38 0 -67 -16v-2
q24 -3 39.5 -20.5t15.5 -44.5q0 -28 -20 -48.5t-51 -20.5q-33 0 -54 21t-21 56q0 49 54.5 85t154.5 36q91 0 138 -33t47 -106zM306 138v112q-50 -12 -89.5 -48.5t-39.5 -84.5q0 -32 15 -53.5t46 -21.5q32 0 50 25.5t18 70.5zM302 611q0 27 18 46t46 19q29 0 47.5 -19
t18.5 -46t-18.5 -46t-47.5 -19q-28 0 -46 19t-18 46zM92 611q0 27 18 46t46 19q29 0 47.5 -19t18.5 -46t-18.5 -46t-47.5 -19q-28 0 -46 19t-18 46z" />
    <glyph glyph-name="aring" unicode="&#xe5;" horiz-adv-x="556" 
d="M452 343v-229q0 -32 7 -46t24 -14q28 0 37 72h34v-19q0 -52 -33 -85.5t-93 -33.5q-71 0 -105 65q-52 -65 -144 -65q-66 0 -111 28t-45 89q0 23 9.5 44t21.5 36t35.5 29.5t40 23.5t48 19.5l45.5 15t46 13t37 9.5v58q0 44 -22.5 63.5t-67.5 19.5q-38 0 -67 -16v-2
q24 -3 39.5 -20.5t15.5 -44.5q0 -28 -20 -48.5t-51 -20.5q-33 0 -54 21t-21 56q0 49 54.5 85t154.5 36q91 0 138 -33t47 -106zM306 138v112q-50 -12 -89.5 -48.5t-39.5 -84.5q0 -32 15 -53.5t46 -21.5q32 0 50 25.5t18 70.5zM261 537q-43 0 -73 29.5t-30 73.5q0 43 30 73
t73 30t73 -30t30 -73t-30 -73t-73 -30zM261 699q-25 0 -42 -17.5t-17 -41.5q0 -25 17 -42t42 -17t42 17t17 42q0 24 -17 41.5t-42 17.5z" />
    <glyph glyph-name="ae" unicode="&#xe6;" horiz-adv-x="815" 
d="M771 228h-307q0 -194 130 -194q89 0 143 104l34 -16q-54 -134 -200 -134q-54 0 -103 24.5t-74 75.5q-71 -100 -216 -100q-66 0 -111 28t-45 89q0 70 77.5 114.5t218.5 54.5v49q0 63 -36 88t-83 25q-33 0 -60 -16v-2q24 -3 39.5 -20.5t15.5 -44.5q0 -28 -20 -48.5
t-51 -20.5q-33 0 -54 20.5t-21 54.5q0 42 48.5 82.5t117.5 40.5q111 0 180 -86q71 86 167 86t153 -65.5t57 -188.5zM318 163v71q-84 -9 -117 -35.5t-33 -80.5q0 -84 68 -84q42 0 62 37t20 92zM464 274h161q0 89 -14 125.5t-58 36.5t-66.5 -44.5t-22.5 -117.5z" />
    <glyph glyph-name="ccedilla" unicode="&#xe7;" horiz-adv-x="500" 
d="M441 122l27 -23q-69 -108 -181 -111l-23 -53q21 7 35 7q42 0 64.5 -20.5t22.5 -53.5q0 -40 -35.5 -64t-96.5 -24q-46 0 -95 18l16 37q37 -13 65 -13q26 0 39 12.5t13 28.5q0 17 -13 27t-31 10q-16 0 -29 -6l-11 9l38 87q-93 12 -153.5 80t-60.5 165q0 114 77 180.5
t183 66.5q74 0 124 -32t50 -86q0 -34 -23 -58t-58 -24q-33 0 -53 19t-20 49q0 60 66 72q-22 20 -66 20q-51 0 -85.5 -47.5t-34.5 -157.5q0 -94 31 -148.5t92 -54.5q59 0 126 88z" />
    <glyph glyph-name="egrave" unicode="&#xe8;" horiz-adv-x="556" 
d="M512 233h-318q0 -199 130 -199q85 0 153 100l32 -20q-33 -61 -82 -93.5t-131 -32.5q-119 0 -190.5 77t-71.5 170t71.5 170t190.5 77q94 0 155 -66.5t61 -182.5zM194 279h158q0 91 -17.5 129t-54.5 38q-74 0 -86 -167zM370 538h-58l-149 93q-19 12 -25 21t-6 29
q0 16 14 28.5t30 12.5q24 0 37 -9t39 -39z" />
    <glyph glyph-name="eacute" unicode="&#xe9;" horiz-adv-x="556" 
d="M512 233h-318q0 -199 130 -199q85 0 153 100l32 -20q-33 -61 -82 -93.5t-131 -32.5q-119 0 -190.5 77t-71.5 170t71.5 170t190.5 77q94 0 155 -66.5t61 -182.5zM194 279h158q0 91 -17.5 129t-54.5 38q-74 0 -86 -167zM269 538h-58l138 159q23 25 56 25q16 0 30 -12.5
t14 -28.5q0 -31 -31 -50z" />
    <glyph glyph-name="ecircumflex" unicode="&#xea;" horiz-adv-x="556" 
d="M512 233h-318q0 -199 130 -199q85 0 153 100l32 -20q-33 -61 -82 -93.5t-131 -32.5q-119 0 -190.5 77t-71.5 170t71.5 170t190.5 77q94 0 155 -66.5t61 -182.5zM194 279h158q0 91 -17.5 129t-54.5 38q-74 0 -86 -167zM245 714h92l122 -176h-58l-110 99l-110 -99h-58z" />
    <glyph glyph-name="edieresis" unicode="&#xeb;" horiz-adv-x="556" 
d="M512 233h-318q0 -199 130 -199q85 0 153 100l32 -20q-33 -61 -82 -93.5t-131 -32.5q-119 0 -190.5 77t-71.5 170t71.5 170t190.5 77q94 0 155 -66.5t61 -182.5zM194 279h158q0 91 -17.5 129t-54.5 38q-74 0 -86 -167zM331 611q0 27 18 46t46 19q29 0 47.5 -19t18.5 -46
t-18.5 -46t-47.5 -19q-28 0 -46 19t-18 46zM121 611q0 27 18 46t46 19q29 0 47.5 -19t18.5 -46t-18.5 -46t-47.5 -19q-28 0 -46 19t-18 46z" />
    <glyph glyph-name="igrave" unicode="&#xec;" 
d="M319 0h-305v40q51 0 66.5 14.5t15.5 51.5v258q0 37 -15 51.5t-65 14.5v36l226 4v-364q0 -37 14.5 -51.5t62.5 -14.5v-40zM234 538h-58l-149 93q-19 12 -25 21t-6 29q0 16 14 28.5t30 12.5q24 0 37 -9t39 -39z" />
    <glyph glyph-name="iacute" unicode="&#xed;" 
d="M319 0h-305v40q51 0 66.5 14.5t15.5 51.5v258q0 37 -15 51.5t-65 14.5v36l226 4v-364q0 -37 14.5 -51.5t62.5 -14.5v-40zM133 538h-58l138 159q23 25 56 25q16 0 30 -12.5t14 -28.5q0 -31 -31 -50z" />
    <glyph glyph-name="icircumflex" unicode="&#xee;" 
d="M319 0h-305v40q51 0 66.5 14.5t15.5 51.5v258q0 37 -15 51.5t-65 14.5v36l226 4v-364q0 -37 14.5 -51.5t62.5 -14.5v-40zM109 714h92l122 -176h-58l-110 99l-110 -99h-58z" />
    <glyph glyph-name="idieresis" unicode="&#xef;" 
d="M319 0h-305v40q51 0 66.5 14.5t15.5 51.5v258q0 37 -15 51.5t-65 14.5v36l226 4v-364q0 -37 14.5 -51.5t62.5 -14.5v-40zM195 611q0 27 18 46t46 19q29 0 47.5 -19t18.5 -46t-18.5 -46t-47.5 -19q-28 0 -46 19t-18 46zM-15 611q0 27 18 46t46 19q29 0 47.5 -19t18.5 -46
t-18.5 -46t-47.5 -19q-28 0 -46 19t-18 46z" />
    <glyph glyph-name="eth" unicode="&#xf0;" horiz-adv-x="593" 
d="M202 222q0 -91 24.5 -144.5t69.5 -53.5t69.5 53.5t24.5 144.5q0 93 -24 145.5t-70 52.5t-70 -52.5t-24 -145.5zM168 563l99 62q-44 29 -95 37l12 38q84 -5 148 -33l99 63l41 -31l-92 -58q87 -55 132.5 -154t45.5 -219q0 -124 -69 -202t-193 -78q-118 0 -190 74.5
t-72 159.5t72 159.5t190 74.5q42 0 80 -11q-14 91 -70 149l-98 -63z" />
    <glyph glyph-name="ntilde" unicode="&#xf1;" horiz-adv-x="611" 
d="M318 0h-300v40q46 0 60 14.5t14 51.5v258q0 37 -14 51.5t-58 14.5v36l210 4v-73q37 43 71 64t85 21q64 0 101.5 -37t37.5 -109v-230q0 -37 13.5 -51.5t54.5 -14.5v-40h-214v370q0 58 -45 58q-39 0 -67.5 -52t-28.5 -106v-164q0 -37 15 -51.5t65 -14.5v-40zM445 684h44
q-30 -126 -118 -126q-40 0 -90 24q-52 24 -69 24t-31 -15t-18 -32h-40q6 51 38.5 88t79.5 37q30 0 84 -25q56 -25 66 -25q8 0 14 1t11 4.5l8 5.5t6.5 8.5t5 8.5t5 11t4.5 11z" />
    <glyph glyph-name="ograve" unicode="&#xf2;" horiz-adv-x="593" 
d="M390 235q0 100 -24 155.5t-70 55.5t-70 -55.5t-24 -155.5t24 -155.5t70 -55.5t70 55.5t24 155.5zM558 235q0 -93 -71.5 -170t-190.5 -77t-190.5 77t-71.5 170t71.5 170t190.5 77t190.5 -77t71.5 -170zM376 538h-58l-149 93q-19 12 -25 21t-6 29q0 16 14 28.5t30 12.5
q24 0 37 -9t39 -39z" />
    <glyph glyph-name="oacute" unicode="&#xf3;" horiz-adv-x="593" 
d="M390 235q0 100 -24 155.5t-70 55.5t-70 -55.5t-24 -155.5t24 -155.5t70 -55.5t70 55.5t24 155.5zM558 235q0 -93 -71.5 -170t-190.5 -77t-190.5 77t-71.5 170t71.5 170t190.5 77t190.5 -77t71.5 -170zM275 538h-58l138 159q23 25 56 25q16 0 30 -12.5t14 -28.5
q0 -31 -31 -50z" />
    <glyph glyph-name="ocircumflex" unicode="&#xf4;" horiz-adv-x="593" 
d="M390 235q0 100 -24 155.5t-70 55.5t-70 -55.5t-24 -155.5t24 -155.5t70 -55.5t70 55.5t24 155.5zM558 235q0 -93 -71.5 -170t-190.5 -77t-190.5 77t-71.5 170t71.5 170t190.5 77t190.5 -77t71.5 -170zM251 714h92l122 -176h-58l-110 99l-110 -99h-58z" />
    <glyph glyph-name="otilde" unicode="&#xf5;" horiz-adv-x="593" 
d="M390 235q0 100 -24 155.5t-70 55.5t-70 -55.5t-24 -155.5t24 -155.5t70 -55.5t70 55.5t24 155.5zM558 235q0 -93 -71.5 -170t-190.5 -77t-190.5 77t-71.5 170t71.5 170t190.5 77t190.5 -77t71.5 -170zM436 684h44q-30 -126 -118 -126q-40 0 -90 24q-52 24 -69 24t-31 -15
t-18 -32h-40q6 51 38.5 88t79.5 37q30 0 84 -25q56 -25 66 -25q8 0 14 1t11 4.5l8 5.5t6.5 8.5t5 8.5t5 11t4.5 11z" />
    <glyph glyph-name="odieresis" unicode="&#xf6;" horiz-adv-x="593" 
d="M390 235q0 100 -24 155.5t-70 55.5t-70 -55.5t-24 -155.5t24 -155.5t70 -55.5t70 55.5t24 155.5zM558 235q0 -93 -71.5 -170t-190.5 -77t-190.5 77t-71.5 170t71.5 170t190.5 77t190.5 -77t71.5 -170zM337 611q0 27 18 46t46 19q29 0 47.5 -19t18.5 -46t-18.5 -46
t-47.5 -19q-28 0 -46 19t-18 46zM127 611q0 27 18 46t46 19q29 0 47.5 -19t18.5 -46t-18.5 -46t-47.5 -19q-28 0 -46 19t-18 46z" />
    <glyph glyph-name="divide" unicode="&#xf7;" horiz-adv-x="600" 
d="M535 184h-470v102h470v-102zM375 440q0 -30 -22.5 -52t-52.5 -22t-52.5 22t-22.5 52t22.5 52t52.5 22t52.5 -22t22.5 -52zM375 30q0 -30 -22.5 -52t-52.5 -22t-52.5 22t-22.5 52t22.5 52t52.5 22t52.5 -22t22.5 -52z" />
    <glyph glyph-name="oslash" unicode="&#xf8;" horiz-adv-x="593" 
d="M385 313l-163 -223q25 -66 74 -66q46 0 70 55.5t24 155.5q0 40 -5 78zM207 155l163 223q-23 68 -74 68q-46 0 -70 -55.5t-24 -155.5q0 -40 5 -80zM554 544l-88 -120q44 -36 68 -87t24 -102q0 -93 -71.5 -170t-190.5 -77q-69 0 -126 30l-82 -112h-63l102 140
q-44 36 -68.5 87t-24.5 102q0 93 71.5 170t190.5 77q71 0 128 -31l68 93h62z" />
    <glyph glyph-name="ugrave" unicode="&#xf9;" horiz-adv-x="611" 
d="M236 470v-350q0 -78 53 -78q45 0 66.5 36.5t21.5 83.5v202q0 37 -15.5 51.5t-66.5 14.5v36l228 4v-364q0 -37 15 -51.5t65 -14.5v-36l-217 -4v54q-37 -37 -67 -51.5t-79 -14.5q-78 0 -114 36.5t-36 113.5v226q0 37 -14 51.5t-58 14.5v36zM385 538h-58l-149 93
q-19 12 -25 21t-6 29q0 16 14 28.5t30 12.5q24 0 37 -9t39 -39z" />
    <glyph glyph-name="uacute" unicode="&#xfa;" horiz-adv-x="611" 
d="M236 470v-350q0 -78 53 -78q45 0 66.5 36.5t21.5 83.5v202q0 37 -15.5 51.5t-66.5 14.5v36l228 4v-364q0 -37 15 -51.5t65 -14.5v-36l-217 -4v54q-37 -37 -67 -51.5t-79 -14.5q-78 0 -114 36.5t-36 113.5v226q0 37 -14 51.5t-58 14.5v36zM284 538h-58l138 159
q22 25 56 25q16 0 30 -12.5t14 -28.5q0 -31 -31 -50z" />
    <glyph glyph-name="ucircumflex" unicode="&#xfb;" horiz-adv-x="611" 
d="M236 470v-350q0 -78 53 -78q45 0 66.5 36.5t21.5 83.5v202q0 37 -15.5 51.5t-66.5 14.5v36l228 4v-364q0 -37 15 -51.5t65 -14.5v-36l-217 -4v54q-37 -37 -67 -51.5t-79 -14.5q-78 0 -114 36.5t-36 113.5v226q0 37 -14 51.5t-58 14.5v36zM260 714h92l122 -176h-58
l-110 99l-110 -99h-58z" />
    <glyph glyph-name="udieresis" unicode="&#xfc;" horiz-adv-x="611" 
d="M236 470v-350q0 -78 53 -78q45 0 66.5 36.5t21.5 83.5v202q0 37 -15.5 51.5t-66.5 14.5v36l228 4v-364q0 -37 15 -51.5t65 -14.5v-36l-217 -4v54q-37 -37 -67 -51.5t-79 -14.5q-78 0 -114 36.5t-36 113.5v226q0 37 -14 51.5t-58 14.5v36zM346 611q0 27 18 46t46 19
q29 0 47.5 -19t18.5 -46t-18.5 -46t-47.5 -19q-28 0 -46 19t-18 46zM136 611q0 27 18 46t46 19q29 0 47.5 -19t18.5 -46t-18.5 -46t-47.5 -19q-28 0 -46 19t-18 46z" />
    <glyph glyph-name="yacute" unicode="&#xfd;" horiz-adv-x="537" 
d="M346 470h196v-40q-31 0 -49 -12t-31 -44l-170 -412q-58 -142 -161 -142q-50 0 -80.5 29.5t-30.5 64.5q0 32 21.5 56t54.5 24q31 0 50.5 -18.5t19.5 -45.5q0 -23 -12 -40t-30 -22v-2h19q56 0 102 110l-169 414q-10 25 -23.5 32.5t-44.5 7.5v40h286v-40q-64 0 -64 -30
q0 -12 63 -163l31 -75h2q88 226 90 238q0 33 -70 30v40zM247 538h-58l138 159q23 25 56 25q16 0 30 -12.5t14 -28.5q0 -31 -31 -50z" />
    <glyph glyph-name="thorn" unicode="&#xfe;" horiz-adv-x="593" 
d="M14 642v36l222 4v-261h4q11 25 42 43t70 18q84 0 146.5 -67.5t62.5 -179.5q0 -90 -64 -168.5t-156 -78.5q-55 0 -105 50v-106q0 -37 17 -51.5t74 -14.5v-40h-323v40q54 0 70 14.5t16 51.5v644q0 37 -14.5 51.5t-61.5 14.5zM236 233q0 -199 82 -199q83 0 83 205
q0 197 -77 197q-35 0 -61.5 -52t-26.5 -151z" />
    <glyph glyph-name="ydieresis" unicode="&#xff;" horiz-adv-x="537" 
d="M346 470h196v-40q-31 0 -49 -12t-31 -44l-170 -412q-58 -142 -161 -142q-50 0 -80.5 29.5t-30.5 64.5q0 32 21.5 56t54.5 24q31 0 50.5 -18.5t19.5 -45.5q0 -23 -12 -40t-30 -22v-2h19q56 0 102 110l-169 414q-10 25 -23.5 32.5t-44.5 7.5v40h286v-40q-64 0 -64 -30
q0 -12 63 -163l31 -75h2q88 226 90 238q0 33 -70 30v40zM309 611q0 27 18 46t46 19q29 0 47.5 -19t18.5 -46t-18.5 -46t-47.5 -19q-28 0 -46 19t-18 46zM99 611q0 27 18 46t46 19q29 0 47.5 -19t18.5 -46t-18.5 -46t-47.5 -19q-28 0 -46 19t-18 46z" />
    <glyph glyph-name="dotlessi" unicode="&#x131;" 
d="M319 0h-305v40q51 0 66.5 14.5t15.5 51.5v258q0 37 -15 51.5t-65 14.5v36l226 4v-364q0 -37 14.5 -51.5t62.5 -14.5v-40z" />
    <glyph glyph-name="Lslash" unicode="&#x141;" horiz-adv-x="630" 
d="M24 259v59l92 37v227q0 37 -21 51.5t-77 14.5v40h364v-40q-56 0 -77 -14.5t-21 -51.5v-160l152 61v-59l-152 -61v-255q0 -36 15 -49t53 -13q72 0 128.5 64t77.5 154h43l-6 -264h-577v40q56 0 77 14.5t21 51.5v190z" />
    <glyph glyph-name="lslash" unicode="&#x142;" 
d="M14 244v64l82 42v224q0 37 -15 51.5t-63 14.5v38l224 4v-258l77 37v-64l-77 -37v-254q0 -37 14.5 -51.5t62.5 -14.5v-40h-305v40q51 0 66.5 14.5t15.5 51.5v180z" />
    <glyph glyph-name="OE" unicode="&#x152;" horiz-adv-x="1000" 
d="M942 262l-6 -262h-474q-17 0 -55 -4q-36 -4 -58 -4q-138 0 -224.5 101.5t-86.5 248.5q0 62 20.5 124t58.5 115t100.5 86t138.5 33q16 0 50 -6t49 -6h462l6 -248h-43q-17 82 -63 142t-120 60q-40 0 -57.5 -11.5t-17.5 -37.5v-209q63 0 90.5 27t35.5 89h40v-278h-40
q-8 62 -35.5 89t-90.5 27v-220q0 -41 21.5 -56.5t61.5 -15.5q82 0 133.5 65.5t60.5 150.5h43zM476 150v398q0 112 -112 112q-78 0 -122 -80t-44 -234q0 -157 37 -235.5t123 -78.5q59 0 88.5 32.5t29.5 85.5z" />
    <glyph glyph-name="oe" unicode="&#x153;" horiz-adv-x="870" 
d="M186 235q0 -100 24 -155.5t70 -55.5q87 0 87 211t-87 211q-46 0 -70 -55.5t-24 -155.5zM834 228h-307q0 -194 130 -194q89 0 143 104l34 -16q-54 -134 -200 -134q-54 0 -104.5 23t-77.5 69q-30 -44 -74 -68t-90 -24q-119 0 -190.5 77t-71.5 170t71.5 170t190.5 77
q45 0 88.5 -22.5t73.5 -63.5q59 86 174 86q96 0 153 -65.5t57 -188.5zM527 274h161q0 89 -14 125.5t-58 36.5t-66.5 -44.5t-22.5 -117.5z" />
    <glyph glyph-name="Scaron" unicode="&#x160;" horiz-adv-x="630" 
d="M49 0v264h44q24 -96 79 -163t142 -67q56 0 92 28.5t36 87.5q0 34 -28.5 58.5t-71.5 38.5t-93.5 33.5t-93.5 40t-71.5 60t-28.5 93.5q0 104 67 165t166 61q48 0 84.5 -13t57.5 -26.5t30 -13.5q7 0 13.5 4.5t9 8.5l9 15t7.5 13h42v-238h-40q-24 90 -74 147t-124 57
q-50 0 -83 -26.5t-33 -74.5q0 -42 40.5 -69t98.5 -44t115.5 -38.5t98 -68t40.5 -118.5q0 -104 -76.5 -165.5t-169.5 -61.5q-54 0 -97 13t-68.5 26t-36.5 13q-18 0 -43 -40h-40zM350 731h-92l-122 176h58l110 -99l110 99h58z" />
    <glyph glyph-name="scaron" unicode="&#x161;" horiz-adv-x="481" 
d="M34 -6v178h37q14 -58 59 -101t104 -43q39 0 68.5 18t29.5 45q0 28 -22 44.5t-55.5 22t-72.5 15t-72.5 22t-55.5 44.5t-22 82q0 67 56 114t137 47q41 0 82.5 -18t43.5 -18q4 0 7 1t5 2t3.5 4t2.5 4.5t2.5 6t2.5 6.5h40v-154h-40q-25 61 -57 93.5t-89 32.5q-36 0 -58 -19
t-22 -48q0 -27 31 -41.5t75 -22t88 -20t75 -47t31 -91.5q0 -75 -61 -120t-140 -45q-53 0 -101 17l-49 17q-8 0 -14.5 -8.5t-8.5 -19.5h-40zM287 538h-92l-122 176h58l110 -99l110 99h58z" />
    <glyph glyph-name="Ydieresis" unicode="&#x178;" horiz-adv-x="630" 
d="M0 648v40h332v-40q-78 0 -78 -31q0 -14 21 -53l104 -199l92 185q19 38 19 56q0 19 -23 30.5t-63 11.5v40h252v-40q-53 -7 -73.5 -21.5t-37.5 -47.5l-144 -293v-180q0 -38 23.5 -52t88.5 -14v-40h-385v40q66 0 89.5 14t23.5 52v184l-126 248q-22 43 -33.5 61.5t-32.5 33.5
t-49 15zM344 804q0 27 18 46t46 19q29 0 47.5 -19t18.5 -46t-18.5 -46t-47.5 -19q-28 0 -46 19t-18 46zM134 804q0 27 18 46t46 19q29 0 47.5 -19t18.5 -46t-18.5 -46t-47.5 -19q-28 0 -46 19t-18 46z" />
    <glyph glyph-name="Zcaron" unicode="&#x17d;" horiz-adv-x="611" 
d="M563 264l-6 -264h-532v52l358 590h-68q-93 0 -156.5 -47.5t-67.5 -144.5h-43l6 238h503v-70l-347 -572q148 0 218.5 48t91.5 170h43zM340 731h-92l-122 176h58l110 -99l110 99h58z" />
    <glyph glyph-name="zcaron" unicode="&#x17e;" horiz-adv-x="500" 
d="M50 470h404v-44l-252 -380q87 0 140 32t77 108h34v-186h-419v60l248 364h-50q-113 0 -148 -112h-34v158zM297 538h-92l-122 176h58l110 -99l110 99h58z" />
    <glyph glyph-name="florin" unicode="&#x192;" horiz-adv-x="574" 
d="M234 392h-100v46h108q9 115 63.5 188.5t142.5 73.5q50 0 85.5 -26.5t35.5 -68.5q0 -29 -20 -48t-50 -19q-25 0 -43.5 14t-18.5 42q0 24 11 40t30 17v2q-19 7 -31 7q-33 0 -49 -31.5t-16 -102.5v-88h107v-46h-107q-11 -239 -28 -327q-36 -187 -144 -229q-35 -14 -79 -14
q-51 0 -89.5 31.5t-38.5 70.5q0 33 20 52.5t50 19.5q29 0 50.5 -17t21.5 -47q0 -20 -15 -37.5t-36 -18.5q14 -14 48 -14q40 0 58 44.5t18 149.5q0 194 16 336z" />
    <glyph glyph-name="circumflex" unicode="&#x2c6;" 
d="M121 714h92l122 -176h-58l-110 99l-110 -99h-58z" />
    <glyph glyph-name="caron" unicode="&#x2c7;" 
d="M213 538h-92l-122 176h58l110 -99l110 99h58z" />
    <glyph glyph-name="uni02C9" unicode="&#x2c9;" 
d="M332 574h-332v74h332v-74z" />
    <glyph glyph-name="breve" unicode="&#x2d8;" 
d="M274 700h44q-3 -77 -42 -120.5t-110 -43.5t-110 43.5t-42 120.5h44q17 -90 108 -90t108 90z" />
    <glyph glyph-name="dotaccent" unicode="&#x2d9;" 
d="M101 611q0 27 18 46t46 19q29 0 47.5 -19t18.5 -46t-18.5 -46t-47.5 -19q-28 0 -46 19t-18 46z" />
    <glyph glyph-name="ring" unicode="&#x2da;" 
d="M166 537q-44 0 -73.5 29.5t-29.5 73.5q0 43 30 73t73 30t73 -30t30 -73t-30 -73t-73 -30zM166 699q-25 0 -42 -17.5t-17 -41.5q0 -25 17 -42t42 -17t42 17t17 42q0 24 -17 41.5t-42 17.5z" />
    <glyph glyph-name="ogonek" unicode="&#x2db;" 
d="M259 19v-9q-137 -51 -137 -120q0 -42 51 -42q10 0 20 2t16.5 4t17.5 7.5t14 7.5l15.5 10t13.5 9l13 -36q-2 -1 -11.5 -7.5l-12.5 -8.5l-12.5 -8t-13.5 -8l-13 -6.5t-15 -6.5l-15.5 -5t-17.5 -4.5t-17.5 -2.5t-19.5 -1q-48 0 -77.5 19t-29.5 55q0 34 24.5 62t64 45.5
t73.5 27.5t69 16z" />
    <glyph glyph-name="tilde" unicode="&#x2dc;" 
d="M306 684h44q-30 -126 -118 -126q-40 0 -90 24q-52 24 -69 24t-31 -15t-18 -32h-40q6 51 38.5 88t79.5 37q30 0 84 -25q56 -25 66 -25q8 0 14 1t11 4.5l8 5.5t6.5 8.5t5 8.5t5 11t4.5 11z" />
    <glyph glyph-name="hungarumlaut" unicode="&#x2dd;" 
d="M221 538h-58l138 159q23 25 56 25q16 0 30 -12.5t14 -28.5q0 -31 -31 -50zM61 538h-55l107 153q23 31 59 31q16 0 30 -12.5t14 -28.5q0 -26 -31 -50z" />
    <glyph glyph-name="uni03A9" unicode="&#x3a9;" horiz-adv-x="751" 
d="M717 175l-29 -175h-263l-9 23l21.5 49.5t25 59.5l22 58t21 65.5t12.5 62t6 65.5q-1 143 -41.5 208t-109.5 65q-71 0 -109 -62.5t-38 -213.5q0 -57 19 -128.5t36.5 -113l50.5 -115.5l-9 -23h-264l-26 175h36q16 -44 32 -57t50 -13h93q-37 28 -60 48t-54.5 56t-47.5 81
t-16 98q0 140 87.5 224t223.5 84t221 -82t85 -220q0 -48 -15 -90.5t-47.5 -81t-55.5 -60t-66 -57.5h106q31 0 45.5 13t30.5 57h36z" />
    <glyph glyph-name="uni03BC" unicode="&#x3bc;" horiz-adv-x="611" 
d="M18 466l218 4v-350q0 -78 53 -78q45 0 66.5 36.5t21.5 83.5v202q0 37 -15.5 51.5t-66.5 14.5v36l228 4v-364q0 -37 15 -51.5t65 -14.5v-36l-217 -4v54q-37 -37 -67 -51.5t-79 -14.5h-4v-162h-218v40q41 2 56.5 12t15.5 44v442q0 37 -14 51.5t-58 14.5v36z" />
    <glyph glyph-name="pi" unicode="&#x3c0;" horiz-adv-x="602" 
d="M546 481l32 -8q-4 -31 -16.5 -70t-23.5 -54q-24 -7 -64 -7q-5 -53 -5 -187q1 -85 40 -85q19 0 44 19l13 -29q-20 -31 -55.5 -52t-69.5 -21q-109 0 -109 137q0 77 10 221q-28 0 -67 1t-56 1v-9q0 -245 -66 -332q-38 -15 -74 -19l-9 23q50 69 73 162.5t23 176.5
q-42 1 -68 -7t-61 -30l-17 32q1 2 10 13.5l11.5 14.5l11.5 14t14 15l15.5 13t18.5 12.5t20.5 9.5t25 8.5t28 4.5t32.5 2q240 -3 279 -3q25 0 37.5 7t22.5 26z" />
    <glyph glyph-name="endash" unicode="&#x2013;" horiz-adv-x="500" 
d="M500 194h-500v82h500v-82z" />
    <glyph glyph-name="emdash" unicode="&#x2014;" horiz-adv-x="1000" 
d="M1000 194h-1000v82h1000v-82z" />
    <glyph glyph-name="quoteleft" unicode="&#x2018;" horiz-adv-x="278" 
d="M145 714l40 -28q-72 -85 -83 -152q32 8 40 8q35 0 55.5 -22.5t20.5 -57.5t-23 -58.5t-58 -23.5q-45 0 -70 31t-25 79q0 44 20 92t37.5 72.5t45.5 59.5z" />
    <glyph glyph-name="quoteright" unicode="&#x2019;" horiz-adv-x="278" 
d="M133 366l-40 28q72 85 83 152q-32 -8 -40 -8q-35 0 -55.5 22.5t-20.5 57.5t23 58.5t58 23.5q45 0 70 -31t25 -79q0 -44 -20 -92t-37.5 -72.5t-45.5 -59.5z" />
    <glyph glyph-name="quotesinglbase" unicode="&#x201a;" horiz-adv-x="278" 
d="M133 -176l-40 28q72 85 83 152q-32 -8 -40 -8q-35 0 -55.5 22.5t-20.5 57.5t23 58.5t58 23.5q45 0 70 -31t25 -79q0 -44 -20 -92t-37.5 -72.5t-45.5 -59.5z" />
    <glyph glyph-name="quotedblleft" unicode="&#x201c;" horiz-adv-x="537" 
d="M142 714l40 -28q-72 -85 -83 -152q32 8 40 8q35 0 55.5 -22.5t20.5 -57.5t-23 -58.5t-58 -23.5q-45 0 -70 31t-25 79q0 44 20 92t37.5 72.5t45.5 59.5zM402 714l40 -28q-72 -85 -83 -152q32 8 40 8q35 0 55.5 -22.5t20.5 -57.5t-23 -58.5t-58 -23.5q-45 0 -70 31t-25 79
q0 44 20 92t37.5 72.5t45.5 59.5z" />
    <glyph glyph-name="quotedblright" unicode="&#x201d;" horiz-adv-x="537" 
d="M395 366l-40 28q72 85 83 152q-32 -8 -40 -8q-35 0 -55.5 22.5t-20.5 57.5t23 58.5t58 23.5q45 0 70 -31t25 -79q0 -44 -20 -92t-37.5 -72.5t-45.5 -59.5zM135 366l-40 28q72 85 83 152q-32 -8 -40 -8q-35 0 -55.5 22.5t-20.5 57.5t23 58.5t58 23.5q45 0 70 -31t25 -79
q0 -44 -20 -92t-37.5 -72.5t-45.5 -59.5z" />
    <glyph glyph-name="quotedblbase" unicode="&#x201e;" horiz-adv-x="537" 
d="M395 -176l-40 28q72 85 83 152q-32 -8 -40 -8q-35 0 -55.5 22.5t-20.5 57.5t23 58.5t58 23.5q45 0 70 -31t25 -79q0 -44 -20 -92t-37.5 -72.5t-45.5 -59.5zM135 -176l-40 28q72 85 83 152q-32 -8 -40 -8q-35 0 -55.5 22.5t-20.5 57.5t23 58.5t58 23.5q45 0 70 -31t25 -79
q0 -44 -20 -92t-37.5 -72.5t-45.5 -59.5z" />
    <glyph glyph-name="dagger" unicode="&#x2020;" horiz-adv-x="500" 
d="M264 -120h-28q0 299 -55 398q45 66 50 170q-37 -1 -72 -20t-58 -19t-40 15t-17 42t17 42t40 15t58 -19t72 -20q1 50 -20 96t-21 60q0 29 16.5 44.5t43.5 15.5t43.5 -15.5t16.5 -44.5q0 -14 -21 -60t-20 -96q37 1 72 20t58 19t40 -15t17 -42t-17 -42t-40 -15t-58 19
t-72 20q5 -104 50 -170q-55 -99 -55 -398z" />
    <glyph glyph-name="daggerdbl" unicode="&#x2021;" horiz-adv-x="500" 
d="M44 462q0 24 16 37t35 13q13 0 51.5 -15.5t84.5 -16.5q0 43 -9 74.5t-18.5 51t-9.5 34.5q0 60 56 60t56 -60q0 -15 -9.5 -34.5t-18.5 -51t-9 -74.5q46 1 84.5 16.5t51.5 15.5q19 0 35 -13t16 -37t-16 -37t-35 -13q-13 0 -51.5 15.5t-84.5 16.5q5 -101 46 -157
q-41 -56 -46 -157q46 1 84.5 16.5t51.5 15.5q19 0 35 -13t16 -37t-16 -37t-35 -13q-13 0 -51.5 15.5t-84.5 16.5q0 -43 9 -74.5t18.5 -51t9.5 -34.5q0 -60 -56 -60t-56 60q0 15 9.5 34.5t18.5 51t9 74.5q-46 -1 -84.5 -16.5t-51.5 -15.5q-19 0 -35 13t-16 37t16 37t35 13
q13 0 51.5 -15.5t84.5 -16.5q-5 101 -46 157q41 56 46 157q-46 -1 -84.5 -16.5t-51.5 -15.5q-19 0 -35 13t-16 37z" />
    <glyph glyph-name="bullet" unicode="&#x2022;" horiz-adv-x="500" 
d="M250 516q72 0 122 -50t50 -122t-50 -122t-122 -50t-121.5 50t-50.5 122q0 72 49.5 122t122.5 50z" />
    <glyph glyph-name="ellipsis" unicode="&#x2026;" horiz-adv-x="1000" 
d="M84 75q0 35 24 59t59 24t59 -24t24 -59t-24 -59t-59 -24t-59 24t-24 59zM417 75q0 35 24.5 59t58.5 24t58.5 -24t24.5 -59t-24.5 -59t-58.5 -24t-58.5 24t-24.5 59zM750 75q0 35 24 59t59 24t59 -24t24 -59t-24 -59t-59 -24t-59 24t-24 59z" />
    <glyph glyph-name="perthousand" unicode="&#x2030;" horiz-adv-x="1111" 
d="M910 189q0 -175 61 -175t61 175t-61 175t-61 -175zM672 700l-489 -712h-56l485 712h60zM140 499q0 -175 61 -175t61 175t-61 175t-61 -175zM808 189q0 85 47.5 143t115.5 58t115.5 -58t47.5 -143t-47.5 -143t-115.5 -58t-115.5 58t-47.5 143zM38 499q0 85 47.5 143
t115.5 58t115.5 -58t47.5 -143t-47.5 -143t-115.5 -58t-115.5 58t-47.5 143zM434 189q0 85 47.5 143t115.5 58t115.5 -58t47.5 -143t-47.5 -143t-115.5 -58t-115.5 58t-47.5 143zM536 189q0 -175 61 -175t61 175t-61 175t-61 -175z" />
    <glyph glyph-name="guilsinglleft" unicode="&#x2039;" 
d="M282 408q0 -16 -35.5 -66t-86.5 -107q51 -57 86.5 -107t35.5 -66q0 -15 -12 -15q-5 0 -33 29t-80 77t-106 82q54 34 106 82t80 77t33 29q12 0 12 -15z" />
    <glyph glyph-name="guilsinglright" unicode="&#x203a;" 
d="M51 62q0 16 35.5 66t86.5 107q-51 57 -86.5 107t-35.5 66q0 15 12 15q5 0 33 -29t80 -77t106 -82q-54 -34 -106 -82t-80 -77t-33 -29q-12 0 -12 15z" />
    <glyph glyph-name="fraction" unicode="&#x2044;" horiz-adv-x="167" 
d="M260 700h74l-427 -712h-74z" />
    <glyph glyph-name="Euro" unicode="&#x20ac;" horiz-adv-x="574" 
d="M425 312l-11 -46h-168q16 -231 129 -231q138 0 150 197h44q-9 -121 -59.5 -182.5t-150.5 -61.5q-117 0 -184 79.5t-85 198.5h-72l11 46h57q-1 10 -1 30q0 30 2 45h-69l11 46h66q22 111 89.5 189t168.5 78q66 0 141 -54l29 41h30v-207h-41q-28 84 -60 124q-38 49 -93 49
q-100 0 -113 -220h199l-11 -46h-190v-45v-30h181z" />
    <glyph glyph-name="afii61289" unicode="&#x2113;" horiz-adv-x="463" 
d="M420 148l26 -24q-72 -135 -196 -135q-81 0 -120 41q-21 26 -30 56t-9 95v61l-57 -37l-15 34l72 50v139q0 103 11.5 154t43.5 92q52 67 121 67q54 0 83 -40.5t29 -101.5q0 -81 -36.5 -144t-116.5 -137v-76q0 -94 18 -132.5t64 -38.5q57 0 112 77zM226 482v-104
q77 89 77 218q0 106 -40 106q-23 0 -30 -42.5t-7 -177.5z" />
    <glyph glyph-name="trademark" unicode="&#x2122;" horiz-adv-x="1000" 
d="M308 284h-220v28q37 2 44.5 9t7.5 33v306h-43q-49 0 -62 -60h-26v88h378v-88h-26q-11 60 -61 60h-44v-306q0 -26 7.5 -33t44.5 -9v-28zM584 284h-135v28q35 1 42.5 14.5t7.5 58.5v224q-24 53 -72 53v26h158l131 -270l141 270h134v-26q-35 -1 -43.5 -9t-8.5 -33v-266
q0 -26 7.5 -33t44.5 -9v-28h-218v28q36 2 43 9t7 33v208h-2l-140 -278h-16l-132 278h-2v-177q0 -44 8.5 -58t44.5 -15v-28z" />
    <glyph glyph-name="Omega" unicode="&#x2126;" horiz-adv-x="751" 
d="M717 175l-29 -175h-263l-9 23l21.5 49.5t25 59.5l22 58t21 65.5t12.5 62t6 65.5q-1 143 -41.5 208t-109.5 65q-71 0 -109 -62.5t-38 -213.5q0 -57 19 -128.5t36.5 -113l50.5 -115.5l-9 -23h-264l-26 175h36q16 -44 32 -57t50 -13h93q-37 28 -60 48t-54.5 56t-47.5 81
t-16 98q0 140 87.5 224t223.5 84t221 -82t85 -220q0 -48 -15 -90.5t-47.5 -81t-55.5 -60t-66 -57.5h106q31 0 45.5 13t30.5 57h36z" />
    <glyph glyph-name="estimated" unicode="&#x212e;" horiz-adv-x="857" 
d="M823 334h-639q-6 0 -6 -5v-193q0 -13 9 -22q102 -105 242 -105q152 0 254 117h57q-54 -63 -136 -100t-176 -37q-164 0 -279.5 103.5t-115.5 250.5q0 148 115.5 251.5t279.5 103.5t279.5 -103.5t115.5 -251.5v-9zM678 359v194q0 14 -10 23q-103 101 -239 101
q-139 0 -241 -104q-10 -9 -10 -24v-190q0 -7 6 -7h490q4 0 4 7z" />
    <glyph glyph-name="partialdiff" unicode="&#x2202;" horiz-adv-x="570" 
d="M276 433h1q34 0 67 -14.5t53 -41.5q9 56 12 111q6 91 -23 149q-34 62 -109 62q-69 0 -151 -69q-15 -1 -33.5 36t-9.5 58q70 39 151 39q152 0 231 -144q56 -99 56 -236q0 -145 -52 -242q-77 -152 -231 -152q-89 0 -142.5 54t-53.5 146q0 101 63 171q67 73 171 73zM309 382
h-1q-54 0 -87 -55q-45 -78 -45 -208q0 -91 67 -91q48 0 94 104q33 77 49 195q-9 21 -29.5 38t-47.5 17z" />
    <glyph glyph-name="Delta" unicode="&#x2206;" horiz-adv-x="674" 
d="M638 0h-603v39l265 642l62 15l276 -657v-39zM465 66l-181 443l-176 -443h357z" />
    <glyph glyph-name="product" unicode="&#x220f;" horiz-adv-x="742" 
d="M714 695v-36q-65 -5 -79.5 -21t-14.5 -78v-503q0 -66 15 -82.5t79 -21.5v-36h-312v36q54 4 65 19.5t11 83.5v557q0 24 -7 30.5t-32 6.5h-140q-23 0 -29 -5.5t-6 -28.5v-560q0 -67 9.5 -83t59.5 -20v-36h-306v36q63 5 78.5 22t15.5 81v504q0 62 -15 78t-82 21v36h690z" />
    <glyph glyph-name="summation" unicode="&#x2211;" horiz-adv-x="584" 
d="M562 134l-50 -226h-486v36l220 309l-215 406v36h481q2 -38 12 -182l-37 -8q-16 69 -39 106q-13 24 -33.5 32.5t-74.5 8.5h-140l164 -303l-225 -324h235q70 0 93.5 18t57.5 101z" />
    <glyph glyph-name="minus" unicode="&#x2212;" horiz-adv-x="600" 
d="M535 184h-470v102h470v-102z" />
    <glyph glyph-name="uni2215" unicode="&#x2215;" horiz-adv-x="167" 
d="M260 700h74l-427 -712h-74z" />
    <glyph glyph-name="uni2219" unicode="&#x2219;" horiz-adv-x="287" 
d="M60 235q0 35 24 59t59 24t59 -24t24 -59t-24 -59t-59 -24t-59 24t-24 59z" />
    <glyph glyph-name="radical" unicode="&#x221a;" horiz-adv-x="576" 
d="M568 863l-182 -1030l-31 -13l-215 537l-90 -40l-14 43l196 86l142 -379h3l138 806z" />
    <glyph glyph-name="infinity" unicode="&#x221e;" horiz-adv-x="767" 
d="M721 283v-1q0 -80 -49 -128.5t-114 -48.5q-96 0 -174 110q-42 -54 -83.5 -82t-96.5 -28q-65 0 -112 48t-47 124q0 77 48 125.5t120 48.5q97 0 175 -105q2 2 11.5 13l12.5 14.5t13 13.5t15 14.5t15.5 13t18 12.5t19 9.5t21.5 8t23 4.5t26 2q67 0 112.5 -46.5t45.5 -121.5z
M214 184h1q24 0 48.5 14.5t39.5 30t38 44.5q-27 38 -39 53t-37 31.5t-54 16.5q-39 0 -62.5 -27t-23.5 -71q0 -38 26 -65t63 -27zM555 374h-1q-9 0 -18 -1.5t-17.5 -6.5t-15 -8t-15.5 -11.5t-13.5 -12t-14 -14t-11.5 -13.5t-11.5 -14.5t-10.5 -12.5q43 -56 70.5 -76t62.5 -20
q36 0 58 29.5t22 62.5q0 43 -23.5 70.5t-61.5 27.5z" />
    <glyph glyph-name="integral" unicode="&#x222b;" horiz-adv-x="420" 
d="M165 -16l-22 391q-6 108 4 191.5t28.5 131t46.5 78t53.5 40.5t53.5 10q30 0 55 -16t25 -44q0 -31 -19 -48t-44 -17q-18 0 -28.5 17.5t-16.5 34.5t-14 17q-10 0 -16 -11t-9 -43.5t1 -91.5l20 -362q7 -123 -6.5 -217.5t-41.5 -149.5t-64.5 -82t-80.5 -27q-32 0 -55.5 18.5
t-23.5 44.5q-1 29 22.5 48.5t50.5 19.5q20 0 33 -37.5t22 -37.5q34 0 26 142z" />
    <glyph glyph-name="approxequal" unicode="&#x2248;" horiz-adv-x="542" 
d="M453 454l54 -49q-27 -48 -64 -76.5t-76 -28.5q-49 0 -109 38q-50 33 -81 33q-20 0 -38.5 -12t-27.5 -23t-26 -35l-54 49q23 45 64 74.5t87 29.5q45 0 102 -34q49 -32 68 -35q6 -1 13 -1q25 0 45 17.5t43 52.5zM453 264l54 -50q-60 -104 -141 -104q-45 0 -108 38
q-50 33 -81 33q-19 0 -36 -10.5t-26.5 -21.5t-24.5 -31q-3 -5 -5 -7l-54 49q22 44 64 73.5t87 29.5q44 0 101 -33l19.5 -12t21.5 -12.5t18.5 -7.5t22.5 -4q25 0 43.5 16.5t44.5 53.5z" />
    <glyph glyph-name="notequal" unicode="&#x2260;" horiz-adv-x="542" 
d="M405 507l-36 -81h126v-85h-158l-54 -127h212v-83h-245l-47 -111l-66 27l36 84h-127v83h159l54 127h-213v85h245l47 108z" />
    <glyph glyph-name="lessequal" unicode="&#x2264;" horiz-adv-x="542" 
d="M493 104l-442 218v90l442 217v-96l-359 -165v-2l359 -165v-97zM497 -16h-449v85h449v-85z" />
    <glyph glyph-name="greaterequal" unicode="&#x2265;" horiz-adv-x="542" 
d="M52 629l443 -217v-91l-443 -217v97l359 165v2l-359 165v96zM494 -16h-446v85h446v-85z" />
    <glyph glyph-name="lozenge" unicode="&#x25ca;" horiz-adv-x="587" 
d="M541 331l-196 -403h-104l-195 403l198 406h101zM445 331l-149 320h-4l-151 -319l152 -322h3z" />
    </font>
</defs>
</svg>
