<?xml version="1.0" encoding="UTF-8" standalone="no"?>
<svg width="640px" height="128px" viewBox="0 0 640 128" version="1.1" xmlns="http://www.w3.org/2000/svg" xmlns:xlink="http://www.w3.org/1999/xlink">
    <!-- Generator: Sketch 41 (35326) - http://www.bohemiancoding.com/sketch -->
    <title>wo-cf-basics</title>
    <desc>Created with Sketch.</desc>
    <defs>
        <rect id="path-1" x="0" y="0" width="40" height="60"></rect>
        <mask id="mask-2" maskContentUnits="userSpaceOnUse" maskUnits="objectBoundingBox" x="-4" y="-4" width="48" height="68">
            <rect x="-4" y="-4" width="48" height="68" fill="white"></rect>
            <use xlink:href="#path-1" fill="black"></use>
        </mask>
        <path d="M10.2849007,20.5749501 C10.2849007,20.5749501 9.49681686,22.258508 10.2849007,23.9062691 C11.0729846,25.5542157 12.1118308,25.8049781 12.1118308,25.8049781 C12.1118308,25.8049781 10.2585633,28.6065801 9.24605448,31.0350061 C8.29642177,33.3124553 8.20720822,35.5843403 9.24605448,37.6620328 C10.2849007,39.7397253 13.7497618,40.7932241 18.0485191,41.0797831 C22.3470909,41.3663422 24.5865177,40.894308 26.5123061,39.4173695 C28.3069635,38.041144 29.1631168,35.6919158 29.485658,33.3276642 C29.8080138,30.9634127 28.840761,28.5989756 28.840761,28.5989756 C28.840761,28.5989756 29.7701769,28.1671895 30.9234613,26.6127223 C32.3454992,24.6962077 32.5,23.1504579 32.5,23.1504579 L26.5123061,25.9123682 C26.5123061,25.9123682 25.330273,24.2646071 21.2822781,23.61971 C17.2344687,22.9749984 15.2641663,24.0496414 15.2641663,24.0496414 L10.2849007,20.5749501 Z" id="path-3"></path>
        <mask id="mask-4" maskContentUnits="userSpaceOnUse" maskUnits="objectBoundingBox" x="-3" y="-3" width="30" height="26.5844313">
            <rect x="5.5" y="17.5749501" width="30" height="26.5844313" fill="white"></rect>
            <use xlink:href="#path-3" fill="black"></use>
        </mask>
        <rect id="path-5" x="0" y="0" width="64" height="100"></rect>
        <mask id="mask-6" maskContentUnits="userSpaceOnUse" maskUnits="objectBoundingBox" x="-4" y="-4" width="72" height="108">
            <rect x="-4" y="-4" width="72" height="108" fill="white"></rect>
            <use xlink:href="#path-5" fill="black"></use>
        </mask>
        <rect id="path-7" x="0" y="0" width="40" height="60"></rect>
        <mask id="mask-8" maskContentUnits="userSpaceOnUse" maskUnits="objectBoundingBox" x="-4" y="-4" width="48" height="68">
            <rect x="-4" y="-4" width="48" height="68" fill="white"></rect>
            <use xlink:href="#path-7" fill="black"></use>
        </mask>
        <rect id="path-9" x="30" y="40" width="40" height="60"></rect>
        <mask id="mask-10" maskContentUnits="userSpaceOnUse" maskUnits="objectBoundingBox" x="-4" y="-4" width="48" height="68">
            <rect x="26" y="36" width="48" height="68" fill="white"></rect>
            <use xlink:href="#path-9" fill="black"></use>
        </mask>
        <rect id="path-11" x="60" y="0" width="40" height="60"></rect>
        <mask id="mask-12" maskContentUnits="userSpaceOnUse" maskUnits="objectBoundingBox" x="-4" y="-4" width="48" height="68">
            <rect x="56" y="-4" width="48" height="68" fill="white"></rect>
            <use xlink:href="#path-11" fill="black"></use>
        </mask>
        <rect id="path-13" x="90" y="40" width="40" height="60"></rect>
        <mask id="mask-14" maskContentUnits="userSpaceOnUse" maskUnits="objectBoundingBox" x="-4" y="-4" width="48" height="68">
            <rect x="86" y="36" width="48" height="68" fill="white"></rect>
            <use xlink:href="#path-13" fill="black"></use>
        </mask>
        <rect id="path-15" x="120" y="0" width="40" height="60"></rect>
        <mask id="mask-16" maskContentUnits="userSpaceOnUse" maskUnits="objectBoundingBox" x="-4" y="-4" width="48" height="68">
            <rect x="116" y="-4" width="48" height="68" fill="white"></rect>
            <use xlink:href="#path-15" fill="black"></use>
        </mask>
    </defs>
    <g id="Home" stroke="none" stroke-width="1" fill="none" fill-rule="evenodd">
        <g id="wo-cf-basics">
            <g id="草民證" transform="translate(105.000000, 34.000000)">
                <g>
                    <g id="Rectangle-35">
                        <use fill="#FFFFFF" fill-rule="evenodd" xlink:href="#path-1"></use>
                        <use stroke="#F8E81C" mask="url(#mask-2)" stroke-width="8" stroke-linejoin="round" xlink:href="#path-1"></use>
                    </g>
                    <use id="Fill-1" stroke="#F8E81C" mask="url(#mask-4)" stroke-width="6" stroke-linejoin="round" xlink:href="#path-3"></use>
                </g>
            </g>
            <g id="草報" transform="translate(465.000000, 14.000000)">
                <g>
                    <g id="Rectangle-13">
                        <use fill="#FFFFFF" fill-rule="evenodd" xlink:href="#path-5"></use>
                        <use stroke="#BBBBBB" mask="url(#mask-6)" stroke-width="8" stroke-linecap="round" stroke-linejoin="round" xlink:href="#path-5"></use>
                    </g>
                    <g id="草" transform="translate(18.000000, 9.000000)" fill="#4A4A4A">
                        <path d="M2.54291333,7.77961074 L2.54291333,7.89400457 L2.54291333,10.8687799 L2.54291333,12.5846873 L2.54291333,15.7879823 L2.54291333,17.7329453 L2.54291333,19.7923021 L2.54291333,20.8221144 L12.598992,20.8221144 L12.598992,22.5380219 L0,22.5380219 L0,25.7413169 L12.598992,25.7413169 L12.598992,29.8600305 L16.1820773,29.8600305 L16.1820773,25.7413169 L28.4343453,25.7413169 L28.4343453,22.423628 L16.1820773,22.423628 L16.1820773,20.7074527 L26.1225813,20.7074527 L26.1225813,19.6779083 L26.1225813,17.7329453 L26.1225813,15.9026441 L26.1225813,12.699349 L26.1225813,10.8687799 L26.1225813,7.89400457 L26.1225813,7.77961074 L2.54291333,7.77961074 Z M6.010424,12.5846873 L22.6548,12.5846873 L22.6548,10.8687799 L6.010424,10.8687799 L6.010424,12.5846873 Z M6.010424,17.7326774 L22.6548,17.7326774 L22.6548,15.7879823 L6.010424,15.7879823 L6.010424,17.7326774 Z" id="Fill-13"></path>
                        <polygon id="Fill-14" points="7.2819348 6.86443333 10.6338708 6.86443333 10.6338708 5.0338642 17.9158868 5.0338642 17.9158868 6.86443333 21.2680935 6.86443333 21.2680935 5.0338642 27.9719655 5.0338642 27.9719655 1.94496296 21.2680935 1.94496296 21.2680935 0 17.9158868 0 17.9158868 1.94496296 10.6338708 1.94496296 10.6338708 0 7.2819348 0 7.2819348 1.94496296 0.577792133 1.94496296 0.577792133 5.0338642 7.2819348 5.0338642"></polygon>
                    </g>
                    <path d="M11.7165417,50.0719681 C11.7165417,49.09075 12.3445213,48.3646486 13.3257394,48.3646486 C14.4050793,48.3646486 14.9153127,49.09075 14.9153127,50.0523437 L14.9153127,55.6649113 L17.8982157,55.6649113 L17.8982157,49.5421103 C17.8982157,47.4030549 16.7992515,45.6564866 14.3462062,45.6564866 C13.3453637,45.6564866 12.1482777,46.107847 11.6184199,47.030192 L11.6184199,45.9116033 L8.73363867,45.9116033 L8.73363867,55.6649113 L11.7165417,55.6649113 L11.7165417,50.0719681 Z M22.6669357,49.6206078 C22.7258088,48.8945064 23.3537884,47.9721614 24.6097475,47.9721614 C26.0227016,47.9721614 26.532935,48.874882 26.5721837,49.6206078 L22.6669357,49.6206078 Z M26.7880517,52.1521505 C26.5133107,52.9175006 25.9049554,53.427734 24.8256155,53.427734 C23.6677782,53.427734 22.6669357,52.6427595 22.6080626,51.5437952 L29.3980919,51.5437952 C29.4177162,51.4849222 29.456965,51.0335618 29.456965,50.6214502 C29.456965,47.4815523 27.5926506,45.6172379 24.5704988,45.6172379 C22.0389561,45.6172379 19.703657,47.6189228 19.703657,50.7588208 C19.703657,54.0360892 22.0978292,55.9592767 24.7863668,55.9592767 C27.2590364,55.9592767 28.809361,54.5463226 29.2803457,52.8586275 L26.7880517,52.1521505 Z M36.7376033,45.9116033 L34.8144158,51.6811658 L33.1855937,45.9116033 L30.0849445,45.9116033 L33.146345,55.6649113 L36.1684968,55.6649113 L38.2486791,49.3654911 L40.3681102,55.6649113 L43.3313889,55.6649113 L46.3535406,45.9116033 L43.4295107,45.9116033 L41.8006887,51.7007901 L39.8971255,45.9116033 L36.7376033,45.9116033 Z M47.079642,52.8978762 C47.1581395,53.9772161 48.1393576,55.9592767 51.2007581,55.9592767 C53.8107982,55.9592767 55.0863817,54.3304546 55.0863817,52.6623839 C55.0863817,51.2298054 54.1051636,50.013095 52.0838544,49.6009834 L50.7886465,49.3458667 C50.3569105,49.2673692 50.0232963,49.0318769 50.0232963,48.6197653 C50.0232963,48.1095319 50.5139054,47.7759177 51.0830119,47.7759177 C51.9857325,47.7759177 52.3978441,48.3253999 52.4763416,48.9730038 L54.9490112,48.5216435 C54.8508894,47.3834305 53.8696713,45.6172379 51.0437632,45.6172379 C48.865459,45.6172379 47.29551,47.0694407 47.29551,48.8552576 C47.29551,50.228963 48.1197332,51.4064247 50.1999156,51.857785 L51.3185042,52.1129017 C52.0446056,52.2698966 52.280098,52.5642621 52.280098,52.9175006 C52.280098,53.3492365 51.9072351,53.7613481 51.141885,53.7613481 C50.1214182,53.7613481 49.6504335,53.1137442 49.6111847,52.4465159 L47.079642,52.8978762 Z" id="news" fill="#4A4A4A"></path>
                    <path d="M9,65 L55.0108681,65" id="Line" stroke="#9B9B9B" stroke-width="2" stroke-linecap="round" stroke-linejoin="round"></path>
                    <path d="M9,73 L55.0108681,73" id="Line" stroke="#9B9B9B" stroke-width="2" stroke-linecap="round" stroke-linejoin="round"></path>
                    <path d="M9,81 L55.0108681,81" id="Line" stroke="#9B9B9B" stroke-width="2" stroke-linecap="round" stroke-linejoin="round"></path>
                    <path d="M9,89 L32.0217285,89" id="Line" stroke="#9B9B9B" stroke-width="2" stroke-linecap="round" stroke-linejoin="round"></path>
                </g>
            </g>
            <g id="明信片" transform="translate(225.000000, 14.000000)">
                <g>
                    <g id="Rectangle-35">
                        <use fill="#FFB55D" fill-rule="evenodd" xlink:href="#path-7"></use>
                        <use stroke="#4A4A4A" mask="url(#mask-8)" stroke-width="8" stroke-linejoin="round" xlink:href="#path-7"></use>
                    </g>
                    <g id="Rectangle-35">
                        <use fill="#50E3C2" fill-rule="evenodd" xlink:href="#path-9"></use>
                        <use stroke="#4A4A4A" mask="url(#mask-10)" stroke-width="8" stroke-linejoin="round" xlink:href="#path-9"></use>
                    </g>
                    <rect id="Rectangle-38" stroke="#FFFFFF" stroke-width="2" stroke-linejoin="round" opacity="0.5" x="6" y="6" width="10" height="10"></rect>
                    <rect id="Rectangle-38" stroke="#FFFFFF" stroke-width="2" stroke-linejoin="round" opacity="0.5" x="36" y="46" width="10" height="10"></rect>
                    <g id="Rectangle-35">
                        <use fill="#FF5368" fill-rule="evenodd" xlink:href="#path-11"></use>
                        <use stroke="#4A4A4A" mask="url(#mask-12)" stroke-width="8" stroke-linejoin="round" xlink:href="#path-11"></use>
                    </g>
                    <rect id="Rectangle-38" stroke="#FFFFFF" stroke-width="2" stroke-linejoin="round" opacity="0.5" x="66" y="6" width="10" height="10"></rect>
                    <g id="Rectangle-35">
                        <use fill="#B7F661" fill-rule="evenodd" xlink:href="#path-13"></use>
                        <use stroke="#4A4A4A" mask="url(#mask-14)" stroke-width="8" stroke-linejoin="round" xlink:href="#path-13"></use>
                    </g>
                    <rect id="Rectangle-38" stroke="#FFFFFF" stroke-width="2" stroke-linejoin="round" opacity="0.5" x="96" y="46" width="10" height="10"></rect>
                    <g id="Rectangle-35">
                        <use fill="#4DEBDF" fill-rule="evenodd" xlink:href="#path-15"></use>
                        <use stroke="#4A4A4A" mask="url(#mask-16)" stroke-width="8" stroke-linejoin="round" xlink:href="#path-15"></use>
                    </g>
                    <rect id="Rectangle-38" stroke="#FFFFFF" stroke-width="2" stroke-linejoin="round" opacity="0.5" x="126" y="6" width="10" height="10"></rect>
                </g>
            </g>
        </g>
    </g>
</svg>