<?xml version="1.0" encoding="UTF-8" standalone="no"?>
<svg width="194px" height="128px" viewBox="0 0 194 128" version="1.1" xmlns="http://www.w3.org/2000/svg" xmlns:xlink="http://www.w3.org/1999/xlink">
    <!-- Generator: Sketch 41 (35326) - http://www.bohemiancoding.com/sketch -->
    <title>wo-cf-gears</title>
    <desc>Created with Sketch.</desc>
    <defs>
        <polygon id="path-1" points="12 6 17 0 22 6 22 87 12 87"></polygon>
        <mask id="mask-2" maskContentUnits="userSpaceOnUse" maskUnits="objectBoundingBox" x="-4" y="-4" width="18" height="95">
            <rect x="8" y="-4" width="18" height="95" fill="white"></rect>
            <use xlink:href="#path-1" fill="black"></use>
        </mask>
        <rect id="path-3" x="15" y="90" width="4" height="20"></rect>
        <mask id="mask-4" maskContentUnits="userSpaceOnUse" maskUnits="objectBoundingBox" x="-4" y="-4" width="12" height="28">
            <rect x="11" y="86" width="12" height="28" fill="white"></rect>
            <use xlink:href="#path-3" fill="black"></use>
        </mask>
        <path d="M0,87 L34,87 C34,87 29.4013672,93 17,93 C4.59863281,93 0,87 0,87 Z" id="path-5"></path>
        <mask id="mask-6" maskContentUnits="userSpaceOnUse" maskUnits="objectBoundingBox" x="-4" y="-4" width="42" height="14">
            <rect x="-4" y="83" width="42" height="14" fill="white"></rect>
            <use xlink:href="#path-5" fill="black"></use>
        </mask>
        <path d="M17,116 C9.9765625,116 9,110 9,110 L25,110 C25,110 24.0234375,116 17,116 Z" id="path-7"></path>
        <mask id="mask-8" maskContentUnits="userSpaceOnUse" maskUnits="objectBoundingBox" x="-4" y="-4" width="24" height="14">
            <rect x="5" y="106" width="24" height="14" fill="white"></rect>
            <use xlink:href="#path-7" fill="black"></use>
        </mask>
        <path d="M1.3612905,0 L43.3612905,0 C43.3612905,0 43.3339468,13.7470703 43.3476186,29.4135742 C43.3612905,45.0800781 33.0263296,54.8676758 22.4921499,54.8271484 C11.9579702,54.7866211 1.34761863,44.8701172 1.34761863,29.4135742 C1.34761863,13.9570313 1.3612905,0 1.3612905,0 Z" id="path-9"></path>
        <mask id="mask-10" maskContentUnits="userSpaceOnUse" maskUnits="objectBoundingBox" x="-4" y="-4" width="50.0136719" height="62.8272738">
            <rect x="-2.65238137" y="-4" width="50.0136719" height="62.8272738" fill="white"></rect>
            <use xlink:href="#path-9" fill="black"></use>
        </mask>
        <polygon id="path-11" points="40 0 61 28 19 28"></polygon>
        <mask id="mask-12" maskContentUnits="userSpaceOnUse" maskUnits="objectBoundingBox" x="-4" y="-4" width="50" height="36">
            <rect x="15" y="-4" width="50" height="36" fill="white"></rect>
            <use xlink:href="#path-11" fill="black"></use>
        </mask>
        <path d="M40,25 C65.7314453,25 80,42 80,42 L0,42 C0,42 14.2685547,25 40,25 Z" id="path-13"></path>
        <mask id="mask-14" maskContentUnits="userSpaceOnUse" maskUnits="objectBoundingBox" x="-4" y="-4" width="88" height="25">
            <rect x="-4" y="21" width="88" height="25" fill="white"></rect>
            <use xlink:href="#path-13" fill="black"></use>
        </mask>
    </defs>
    <g id="Home" stroke="none" stroke-width="1" fill="none" fill-rule="evenodd">
        <g id="wo-cf-gears">
            <g id="裝備" transform="translate(35.000000, 6.000000)">
                <g>
                    <g id="Group-3">
                        <g id="Rectangle-39">
                            <use fill="#FFFFFF" fill-rule="evenodd" xlink:href="#path-1"></use>
                            <use stroke="#9B9B9B" mask="url(#mask-2)" stroke-width="8" stroke-linejoin="round" xlink:href="#path-1"></use>
                        </g>
                        <g id="Rectangle">
                            <use fill="#BBBBBB" fill-rule="evenodd" xlink:href="#path-3"></use>
                            <use stroke="#9B9B9B" mask="url(#mask-4)" stroke-width="8" stroke-linejoin="round" xlink:href="#path-3"></use>
                        </g>
                        <g id="Rectangle-40">
                            <use fill="#EAEAEA" fill-rule="evenodd" xlink:href="#path-5"></use>
                            <use stroke="#9B9B9B" mask="url(#mask-6)" stroke-width="8" stroke-linejoin="round" xlink:href="#path-5"></use>
                        </g>
                        <g id="Triangle-4">
                            <use fill="#EAEAEA" fill-rule="evenodd" xlink:href="#path-7"></use>
                            <use stroke="#9B9B9B" mask="url(#mask-8)" stroke-width="8" stroke-linejoin="round" xlink:href="#path-7"></use>
                        </g>
                    </g>
                    <g id="Group" transform="translate(61.000000, 61.000000)">
                        <g id="Rectangle-41">
                            <use fill="#FFFFFF" fill-rule="evenodd" xlink:href="#path-9"></use>
                            <use stroke="#9B9B9B" mask="url(#mask-10)" stroke-width="8" stroke-linejoin="round" xlink:href="#path-9"></use>
                        </g>
                        <path d="M29,41 L17,41" id="Line" stroke="#9B9B9B" stroke-width="3" stroke-linecap="round" stroke-linejoin="round"></path>
                        <path d="M19.6743164,14.1269531 C19.6743164,14.1269531 16.4394531,9.35225065 10.7890625,6.93896484 C5.13867187,4.52567904 0.228027344,4.57763672 0.228027344,4.57763672" id="Path-14" stroke="#9B9B9B" stroke-width="4" stroke-linecap="round" stroke-linejoin="round"></path>
                        <path d="M16,19 L5.5,19" id="Line" stroke="#9B9B9B" stroke-width="3" stroke-linecap="round" stroke-linejoin="round"></path>
                        <path d="M21.8525391,31.9892578 C21.8525391,31.9892578 18.9550781,35.7382812 14.4863281,35.7382812 C4.81494141,35.7382813 1.70654297,25.9882812 1.70654297,25.9882812" id="Path-15" stroke="#9B9B9B" stroke-width="4" stroke-linecap="round" stroke-linejoin="round"></path>
                        <path d="M43.8525391,31.9892578 C43.8525391,31.9892578 40.9550781,35.7382812 36.4863281,35.7382812 C26.8149414,35.7382813 23.706543,25.9882812 23.706543,25.9882812" id="Path-15" stroke="#9B9B9B" stroke-width="4" stroke-linecap="round" stroke-linejoin="round" transform="translate(33.779541, 30.863281) scale(-1, 1) translate(-33.779541, -30.863281) "></path>
                        <path d="M44.7719727,14.1269531 C44.7719727,14.1269531 41.5371094,9.35225065 35.8867188,6.93896484 C30.2363281,4.52567904 25.3256836,4.57763672 25.3256836,4.57763672" id="Path-14" stroke="#9B9B9B" stroke-width="4" stroke-linecap="round" stroke-linejoin="round" transform="translate(35.048828, 9.352251) scale(-1, 1) translate(-35.048828, -9.352251) "></path>
                        <path d="M40,19 L29.5,19" id="Line" stroke="#9B9B9B" stroke-width="3" stroke-linecap="round" stroke-linejoin="round" transform="translate(34.500000, 19.000000) scale(-1, 1) translate(-34.500000, -19.000000) "></path>
                        <path d="M23,46 L23,51" id="Line" stroke="#9B9B9B" stroke-width="4" stroke-linecap="round" stroke-linejoin="round"></path>
                        <path d="M17.9355469,27.4138184 C17.9355469,27.4138184 19.8398438,30.168457 22.6604004,30.168457 C25.480957,30.168457 26.78125,27.5175781 26.78125,27.5175781" id="Path-16" stroke="#9B9B9B" stroke-width="2" stroke-linecap="round" stroke-linejoin="round"></path>
                    </g>
                    <g id="Group-2" transform="translate(44.000000, 0.000000)">
                        <g id="Triangle-3">
                            <use fill="#EAEAEA" fill-rule="evenodd" xlink:href="#path-11"></use>
                            <use stroke="#9B9B9B" mask="url(#mask-12)" stroke-width="8" stroke-linejoin="round" xlink:href="#path-11"></use>
                        </g>
                        <g id="Triangle-3">
                            <use fill="#EAEAEA" fill-rule="evenodd" xlink:href="#path-13"></use>
                            <use stroke="#9B9B9B" mask="url(#mask-14)" stroke-width="8" stroke-linejoin="round" xlink:href="#path-13"></use>
                        </g>
                        <path d="M40,12 L40,17" id="Line" stroke="#9B9B9B" stroke-width="2" stroke-linecap="round" stroke-linejoin="round"></path>
                        <path d="M44,12 L47,17" id="Line" stroke="#9B9B9B" stroke-width="2" stroke-linecap="round" stroke-linejoin="round"></path>
                        <path d="M36,12 L33,17" id="Line" stroke="#9B9B9B" stroke-width="2" stroke-linecap="round" stroke-linejoin="round"></path>
                    </g>
                </g>
            </g>
        </g>
    </g>
</svg>