<?xml version="1.0" encoding="UTF-8" standalone="no"?>
<svg width="108px" height="128px" viewBox="0 0 108 128" version="1.1" xmlns="http://www.w3.org/2000/svg" xmlns:xlink="http://www.w3.org/1999/xlink">
    <!-- Generator: Sketch 41 (35326) - http://www.bohemiancoding.com/sketch -->
    <title>wo-cf-pillow</title>
    <desc>Created with Sketch.</desc>
    <defs>
        <path d="M3.45286686,3.64261664 C3.45286686,3.64261664 15.2584275,0.344494048 33.851312,0.333333333 C52.4441964,0.322172619 62.9280855,3.64261664 62.9280855,3.64261664 C62.9280855,3.64261664 65.5714286,14.5614102 65.5714286,33.4261664 C65.5714286,52.2909226 62.9280855,63.2097162 62.9280855,63.2097162 C62.9280855,63.2097162 53.5639881,65.8072917 33.851312,65.8571429 C14.1386358,65.906994 3.45286686,63.2097162 3.45286686,63.2097162 C3.45286686,63.2097162 0.80952381,51.750744 0.80952381,33.4261664 C0.80952381,15.1015888 3.45286686,3.64261664 3.45286686,3.64261664 Z" id="path-1"></path>
        <mask id="mask-2" maskContentUnits="userSpaceOnUse" maskUnits="objectBoundingBox" x="-4" y="-4" width="72.7619048" height="73.5245202">
            <rect x="-3.19047619" y="-3.66669474" width="72.7619048" height="73.5245202" fill="white"></rect>
            <use xlink:href="#path-1" fill="black"></use>
        </mask>
        <polygon id="path-3" points="38.809762 46.59234 43.3230399 29.8944685 43.3230399 51.2278018 21.9897066 51.2278018"></polygon>
        <mask id="mask-4" maskContentUnits="userSpaceOnUse" maskUnits="objectBoundingBox" x="-2" y="-2" width="25.3333333" height="25.3333333">
            <rect x="19.9897066" y="27.8944685" width="25.3333333" height="25.3333333" fill="white"></rect>
            <use xlink:href="#path-3" fill="black"></use>
        </mask>
    </defs>
    <g id="Home" stroke="none" stroke-width="1" fill="none" fill-rule="evenodd">
        <g id="wo-cf-pillow">
            <g id="Group-10" transform="translate(27.000000, 57.000000)">
                <g id="Rectangle-50">
                    <use fill-opacity="0.5" fill="#50E3C2" fill-rule="evenodd" xlink:href="#path-1"></use>
                    <use stroke="#50E3C2" mask="url(#mask-2)" stroke-width="8" stroke-linejoin="round" xlink:href="#path-1"></use>
                </g>
                <g id="Rectangle-51" transform="translate(32.656373, 40.561135) rotate(-315.000000) translate(-32.656373, -40.561135) ">
                    <use fill="#FFFFFF" fill-rule="evenodd" xlink:href="#path-3"></use>
                    <use stroke="#FFFFFF" mask="url(#mask-4)" stroke-width="4" stroke-linejoin="round" xlink:href="#path-3"></use>
                </g>
            </g>
        </g>
    </g>
</svg>