<?xml version="1.0" encoding="UTF-8" standalone="no"?>
<svg width="142px" height="128px" viewBox="0 0 142 128" version="1.1" xmlns="http://www.w3.org/2000/svg" xmlns:xlink="http://www.w3.org/1999/xlink">
    <!-- Generator: Sketch 41 (35326) - http://www.bohemiancoding.com/sketch -->
    <title>tickets</title>
    <desc>Created with Sketch.</desc>
    <defs>
        <rect id="path-1" x="0" y="0" width="72" height="28"></rect>
        <mask id="mask-2" maskContentUnits="userSpaceOnUse" maskUnits="objectBoundingBox" x="-4" y="-4" width="80" height="36">
            <rect x="-4" y="-4" width="80" height="36" fill="white"></rect>
            <use xlink:href="#path-1" fill="black"></use>
        </mask>
        <rect id="path-3" x="0" y="44" width="72" height="28"></rect>
        <mask id="mask-4" maskContentUnits="userSpaceOnUse" maskUnits="objectBoundingBox" x="-4" y="-4" width="80" height="36">
            <rect x="-4" y="40" width="80" height="36" fill="white"></rect>
            <use xlink:href="#path-3" fill="black"></use>
        </mask>
        <rect id="path-5" x="0" y="88" width="72" height="28"></rect>
        <mask id="mask-6" maskContentUnits="userSpaceOnUse" maskUnits="objectBoundingBox" x="-4" y="-4" width="80" height="36">
            <rect x="-4" y="84" width="80" height="36" fill="white"></rect>
            <use xlink:href="#path-5" fill="black"></use>
        </mask>
    </defs>
    <g id="Home" stroke="none" stroke-width="1" fill="none" fill-rule="evenodd">
        <g id="tickets">
            <g id="票券" transform="translate(44.000000, 6.000000)">
                <g stroke-width="1" id="Rectangle-42">
                    <g>
                        <use fill="#FFFFFF" fill-rule="evenodd" xlink:href="#path-1"></use>
                        <use stroke="#BBBBBB" mask="url(#mask-2)" stroke-width="8" stroke-linejoin="round" xlink:href="#path-1"></use>
                    </g>
                    <g>
                        <use fill="#FFFFFF" fill-rule="evenodd" xlink:href="#path-3"></use>
                        <use stroke="#BBBBBB" mask="url(#mask-4)" stroke-width="8" stroke-linejoin="round" xlink:href="#path-3"></use>
                    </g>
                    <g>
                        <use fill="#FFFFFF" fill-rule="evenodd" xlink:href="#path-5"></use>
                        <use stroke="#BBBBBB" mask="url(#mask-6)" stroke-width="8" stroke-linejoin="round" xlink:href="#path-5"></use>
                    </g>
                </g>
                <path d="M15.46,16.42 C15.46,15.04 15.02,13.8 14.2,12.96 C13.52,12.26 12.52,11.82 11.3,11.82 C10.12,11.82 8.94,12.18 8.32,13.08 L8.54,8.64 L14.76,8.64 L14.76,7.1 L7.08,7.1 L6.7,14.56 L8.6,14.56 C9.08,13.76 10.02,13.34 10.96,13.34 C11.84,13.34 12.5,13.64 12.94,14.12 C13.46,14.7 13.74,15.54 13.74,16.5 C13.74,17.44 13.5,18.22 13.04,18.8 C12.62,19.34 11.92,19.72 10.96,19.72 C10.08,19.72 9.36,19.44 8.9,18.98 C8.44,18.52 8.14,17.88 8.1,17 L6.4,17 C6.46,18.28 6.92,19.32 7.7,20.08 C8.46,20.82 9.62,21.28 10.98,21.28 C12.44,21.28 13.56,20.72 14.28,19.92 C15.06,19.06 15.46,17.88 15.46,16.42 Z M27.48,21 L27.48,19.4 L21.24,19.4 L26.08,13.54 C26.84,12.6 27.26,11.68 27.26,10.58 C27.26,9.7 27.04,9.02 26.62,8.42 C25.92,7.44 24.68,6.82 23.16,6.82 C20.7,6.82 19,8.46 19,10.88 L20.76,10.88 C20.76,9.04 21.94,8.36 23.18,8.36 C24.64,8.36 25.52,9.18 25.52,10.6 C25.52,11.32 25.3,11.96 24.76,12.6 L19.02,19.54 L19.02,21 L27.48,21 Z M40.4,21 L36.62,15.84 L40.3,10.88 L38.26,10.88 L35.54,14.68 L32.7,10.88 L30.6,10.88 L34.32,15.84 L30.58,21 L32.62,21 L35.46,16.98 L38.32,21 L40.4,21 Z M53.04,21 L53.04,19.44 L49.28,19.44 L49.28,7.1 L47.64,7.1 L43.8,9.48 L43.8,11.3 L47.56,9.04 L47.56,19.44 L43.78,19.44 L43.78,21 L53.04,21 Z M65.72,13.92 C65.72,11.66 65.54,9.6 64,8.1 C62.98,7.1 61.72,6.56 60.3,6.56 C58.88,6.56 57.62,7.1 56.6,8.1 C55.06,9.6 54.88,11.66 54.88,13.92 C54.88,16.18 55.06,18.24 56.6,19.74 C57.62,20.74 58.88,21.28 60.3,21.28 C61.26,21.28 62.14,21.04 62.94,20.56 L64.26,22.28 L65.44,21.36 L64.1,19.64 C65.54,18.14 65.72,16.14 65.72,13.92 Z M63.88,13.92 C63.88,15.3 63.92,17.02 63,18.22 L61.36,16.14 L60.2,17.04 L61.86,19.18 C61.4,19.44 60.88,19.58 60.3,19.58 C59.34,19.58 58.52,19.2 57.84,18.5 C56.68,17.3 56.72,15.4 56.72,13.92 C56.72,12.44 56.68,10.54 57.84,9.34 C58.52,8.64 59.34,8.26 60.3,8.26 C61.26,8.26 62.08,8.64 62.76,9.34 C63.92,10.54 63.88,12.44 63.88,13.92 Z" id="52x1Q" fill="#4A4A4A"></path>
                <path d="M16.28,62.04 L16.28,60.5 L14.4,60.5 L14.4,56.36 L12.68,56.36 L12.68,60.5 L7.78,60.5 L13.42,51.1 L11.58,51.1 L6.1,60.2 L6.1,62.04 L12.68,62.04 L12.68,65 L14.4,65 L14.4,62.04 L16.28,62.04 Z M28.56,64.9 L28.56,63.64 C28.56,63.64 28.3,63.7 28.12,63.7 C27.78,63.7 27.52,63.56 27.52,63.02 L27.52,58.12 C27.52,57.54 27.42,57.08 27.22,56.62 C26.74,55.52 25.58,54.62 23.62,54.62 C22.38,54.62 21.2,55.04 20.5,55.74 C19.96,56.28 19.58,56.96 19.56,57.82 L21.24,57.82 C21.28,57.3 21.46,56.96 21.78,56.64 C22.12,56.3 22.7,56.02 23.62,56.02 C24.44,56.02 24.98,56.28 25.32,56.6 C25.78,57.02 25.84,57.56 25.84,58.06 L25.84,58.8 L22.68,58.98 C20.1,59.12 19.06,60.78 19.06,62.28 C19.06,63.72 20.14,65.26 22.56,65.26 C23.98,65.26 25.3,64.62 25.9,63.6 L25.94,63.6 C25.94,64.46 26.54,65.14 27.44,65.14 C27.86,65.14 28.2,65.08 28.56,64.9 Z M25.84,60.72 C25.84,61.56 25.54,62.38 24.94,63 C24.4,63.56 23.6,63.82 22.82,63.82 C21.38,63.82 20.8,63.04 20.8,62.14 C20.8,60.86 21.96,60.34 23.04,60.28 L25.84,60.12 L25.84,60.72 Z M40.6,57.84 C40.6,55.88 40.4,53.92 39.4,52.54 C38.72,51.62 37.5,50.82 35.94,50.82 C34.5,50.82 33.34,51.36 32.6,52.16 C31.82,53.02 31.32,54.16 31.32,55.56 C31.32,57.04 31.84,58.3 32.74,59.16 C33.4,59.8 34.46,60.24 35.72,60.24 C37.04,60.24 38.44,59.58 38.88,58.62 C38.86,60.08 38.66,61.88 37.78,62.88 C37.36,63.36 36.7,63.72 35.82,63.72 C35.16,63.72 34.6,63.54 34.2,63.18 C33.78,62.82 33.46,62.3 33.42,61.62 L31.7,61.62 C31.74,62.64 32.2,63.5 32.82,64.12 C33.52,64.84 34.58,65.26 35.76,65.26 C37.52,65.26 38.78,64.42 39.44,63.38 C40.38,61.88 40.6,59.82 40.6,57.84 Z M38.7,55.54 C38.7,56.52 38.42,57.3 37.9,57.88 C37.48,58.36 36.78,58.72 35.9,58.72 C35.02,58.72 34.3,58.4 33.88,57.92 C33.36,57.34 33.04,56.52 33.04,55.54 C33.04,54.56 33.34,53.74 33.88,53.16 C34.32,52.68 34.98,52.36 35.86,52.36 C36.74,52.36 37.42,52.72 37.86,53.2 C38.4,53.78 38.7,54.56 38.7,55.54 Z M53.58,66.5 C53.58,65.66 53.28,65 52.8,64.52 C52,63.7 50.7,63.46 49.5,63.46 L47.28,63.46 C46.64,63.46 45.72,63.34 45.78,62.46 C45.82,61.98 46.28,61.64 46.66,61.52 C47.3,61.74 47.74,61.84 48.42,61.84 C49.76,61.84 50.84,61.34 51.5,60.62 C52.06,60 52.42,59.18 52.42,58.22 C52.42,57.32 52.16,56.66 51.74,56.12 C51.86,55.62 52.34,55.2 53,55.2 C53.14,55.2 53.28,55.2 53.38,55.22 L53.38,53.84 C53.22,53.82 53.04,53.8 52.88,53.8 C51.92,53.8 51.12,54.32 50.78,55.22 C50.16,54.84 49.38,54.62 48.42,54.62 C47.08,54.62 46.08,55.04 45.38,55.76 C44.8,56.36 44.4,57.12 44.4,58.22 C44.4,59.18 44.76,60.16 45.58,60.84 C44.82,61.2 44.2,61.9 44.2,62.8 C44.2,63.58 44.68,64.24 45.36,64.5 C44.56,64.9 43.92,65.72 43.92,66.78 C43.92,67.58 44.26,68.14 44.68,68.56 C45.66,69.54 47.24,69.72 48.58,69.72 C50,69.72 51.74,69.48 52.72,68.52 C53.2,68.04 53.58,67.38 53.58,66.5 Z M50.76,58.22 C50.76,59.5 49.78,60.48 48.4,60.48 C47.02,60.48 46.04,59.5 46.04,58.22 C46.04,56.94 46.96,56 48.4,56 C49.84,56 50.76,56.94 50.76,58.22 Z M51.92,66.5 C51.92,66.94 51.72,67.28 51.46,67.54 C50.82,68.18 49.54,68.26 48.68,68.26 C47.8,68.26 46.54,68.22 45.88,67.56 C45.62,67.3 45.46,66.96 45.46,66.5 C45.46,65.72 46.06,65.12 46.74,64.9 L48.68,64.9 C49.96,64.9 51.92,64.78 51.92,66.5 Z M66.36,65 L66.36,63.34 L59.04,63.34 L59.04,50.82 L57.26,50.82 L57.26,65 L66.36,65 Z" id="4a9gL" fill="#4A4A4A"></path>
                <path d="M16.56,98.9 L14.96,98.9 L13.9,106.94 L12,101.52 L10.4,101.52 L8.52,106.96 L7.48,98.9 L5.86,98.9 L7.24,109 L9.26,109 L11.2,103.3 L13.12,109 L15.16,109 L16.56,98.9 Z M27.98,109 L27.98,107.4 L21.74,107.4 L26.58,101.54 C27.34,100.6 27.76,99.68 27.76,98.58 C27.76,97.7 27.54,97.02 27.12,96.42 C26.42,95.44 25.18,94.82 23.66,94.82 C21.2,94.82 19.5,96.46 19.5,98.88 L21.26,98.88 C21.26,97.04 22.44,96.36 23.68,96.36 C25.14,96.36 26.02,97.18 26.02,98.6 C26.02,99.32 25.8,99.96 25.26,100.6 L19.52,107.54 L19.52,109 L27.98,109 Z M40.96,103.84 L40.96,94.82 L39.18,94.82 L39.18,103.86 C39.18,106 38.32,107.58 36,107.58 C33.66,107.58 32.8,106.02 32.8,103.86 L32.8,94.82 L31.02,94.82 L31.02,103.84 C31.02,107.02 32.66,109.26 35.98,109.26 C39.32,109.26 40.96,107.04 40.96,103.84 Z M52.72,105.2 C52.72,103.76 51.88,102.3 50.4,101.8 C51.54,101.32 52.44,99.96 52.44,98.66 C52.44,97.46 52.02,96.58 51.32,95.94 C50.58,95.24 49.46,94.82 48.3,94.82 C47.1,94.82 46.04,95.18 45.26,95.82 C44.44,96.5 43.94,97.5 43.92,98.88 L45.66,98.88 C45.68,98.04 45.96,97.36 46.5,96.92 C46.92,96.58 47.5,96.36 48.26,96.36 C49.02,96.36 49.64,96.66 50.02,97.04 C50.46,97.46 50.68,98.02 50.68,98.66 C50.68,100.12 49.66,101 48.06,101 L47.16,101 L47.16,102.58 L48.06,102.58 C49.76,102.58 50.98,103.46 50.98,105.16 C50.98,105.92 50.7,106.5 50.32,106.92 C49.84,107.46 49.08,107.72 48.24,107.72 C47.36,107.72 46.7,107.4 46.28,106.94 C45.82,106.46 45.6,105.8 45.56,105.02 L43.82,105.02 C43.84,106.3 44.28,107.28 45,108 C45.78,108.78 46.9,109.26 48.24,109.26 C49.8,109.26 50.92,108.78 51.66,108 C52.34,107.28 52.72,106.28 52.72,105.2 Z M65.54,96.64 L65.54,95.1 L56.22,95.1 L56.22,96.64 L63.7,96.64 L57.86,109 L59.7,109 L65.54,96.64 Z" id="w2U37" fill="#4A4A4A"></path>
            </g>
        </g>
    </g>
</svg>