<svg id="圖層_1" data-name="圖層 1" xmlns="http://www.w3.org/2000/svg" viewBox="0 0 13.3 42.99">
  <defs>
    <style>
      .cls-1 {
        fill: #fff;
      }
    </style>
  </defs>
  <title>bottle</title>
  <path class="cls-1" d="M13.25,27.43c0-2.1,0-4.27,0-6.4A7.17,7.17,0,0,0,11.45,16a1,1,0,0,1-.21-0.42C11,13.77,10.87,12,10.71,10.2L10.49,7.81c-0.07-.68-0.13-1.35-0.18-2s-0.07-1.57-.09-2.36a2.15,2.15,0,0,0,.23-1.74A2,2,0,0,0,9,.31a9.24,9.24,0,0,0-4.7,0,2,2,0,0,0-1.3,3A6,6,0,0,0,3,4.36a3.16,3.16,0,0,1,0,.54c-0.16,2-.35,4-0.53,6-0.14,1.44-.27,2.88-0.4,4.32a1.18,1.18,0,0,1-.32.82A6.33,6.33,0,0,0,0,20.9c0.06,1.08.08,2.07,0.08,3q0,3.62,0,7.25,0,4.25,0,8.5a3.38,3.38,0,0,0,.87,2.49,3,3,0,0,0,2.2.83H3.31c1,0,2-.06,2.82-0.06H8.61l0.68,0,0.78,0h0.27a2.7,2.7,0,0,0,2.88-2.33,3.93,3.93,0,0,0,.08-1V30.12a1.27,1.27,0,0,0,0-.32c0-.79,0-1.59,0-2.38m-2.77,12.3a1.6,1.6,0,0,1,0,.26l0,0.14H10.07l-0.69,0c-0.26,0-.52,0-0.84,0H6.13c-0.87,0-1.91,0-3,.06H2.87a1.6,1.6,0,0,1-.05-0.48q0-4.25,0-8.49,0-3.63,0-7.25c0-1,0-2-.08-3.18a3.56,3.56,0,0,1,1-2.74A4,4,0,0,0,4.93,15.5c0.12-1.43.26-2.86,0.39-4.3,0.19-2,.38-4.05.54-6.08a5.86,5.86,0,0,0,0-1,2.31,2.31,0,0,1,0-.69,1.48,1.48,0,0,0,.07-0.6,6.29,6.29,0,0,1,1.49,0,1.77,1.77,0,0,0,0,.28V3.48c0,0.83,0,1.66.1,2.49s0.11,1.41.18,2.12L7.9,10.46c0.17,1.8.33,3.61,0.53,5.41A3.73,3.73,0,0,0,9.3,17.8,4.36,4.36,0,0,1,10.47,21c-0.06,2.17,0,4.37,0,6.49,0,0.89,0,1.78,0,2.68a1.43,1.43,0,0,0,0,.32v9.28Z"/>
</svg>
