<svg id="圖層_2" data-name="圖層 2" xmlns="http://www.w3.org/2000/svg" viewBox="0 0 45.48 23.24"><title>intro_logo</title><path d="M39.27,0.86a4.42,4.42,0,0,0-.49-1.52A5.35,5.35,0,0,0,37.4-2.4a6.17,6.17,0,0,0-2-1.11l-1.86-.65-2.68-.95L27.34-6.36l-2-.69L16.6-10.14H16.5L16.15-10l-4.24,1.5L-1.6-3.76C-2-3.61-2.44-3.51-2.84-3.32a5.89,5.89,0,0,0-2,1.45A5.42,5.42,0,0,0-5.78-.51,4.54,4.54,0,0,0-6.17.86V1.91a1.7,1.7,0,0,1,0,.24,4.91,4.91,0,0,0,.64,1.91A5.43,5.43,0,0,0-4.31,5.49a5.79,5.79,0,0,0,1.82,1l1.75,0.57c0.66,0.23,1.3.46,2,.68L3.57,8.55,5.78,9.34l2.31,0.81,2,0.69,2,0.7,2.42,0.85,2,0.7a0.32,0.32,0,0,0,.18,0,2.27,2.27,0,0,0,.56-0.18l2.11-.74,1.8-.63,2.42-.86,1.54-.53,2.55-.9,2.1-.74,1.88-.66,2.14-.76,1.6-.53a6.67,6.67,0,0,0,1.76-.89,5.35,5.35,0,0,0,1.76-2.21,4.43,4.43,0,0,0,.38-1.58,5.63,5.63,0,0,0,0-1h0ZM38.4,3.24a4.71,4.71,0,0,1-1.11,1.57,5.58,5.58,0,0,1-2.37,1.32c-0.4.12-.8,0.27-1.2,0.4l-1.6.57L18.36,11.95l-1.71.61a0.4,0.4,0,0,1-.17,0c-1.08-.38-2.16-0.75-3.23-1.14L11,10.62,6.08,8.88l-2.3-.82L0.48,6.89l-2-.72a5.78,5.78,0,0,0-.8-0.24,5.32,5.32,0,0,1-1.47-.87A5.12,5.12,0,0,1-5.12,3.6,4.08,4.08,0,0,1-5.66,2a4,4,0,0,1,.24-2A4.71,4.71,0,0,1-4.7-1.32,5.39,5.39,0,0,1-3.22-2.51a6.33,6.33,0,0,1,1.46-.6l1.13-.4C-0.1-3.69.44-3.94,1-4.08l2.44-.86,2.48-.87,2.72-1,1.85-.64,2.07-.73,1.87-.66,2-.72a0.27,0.27,0,0,1,.19,0l1.88,0.62,2.73,1L23.78-7l7.29,2.55,1.87,0.66,1.71,0.61c0.3,0.11.63,0.19,0.94,0.32a5.36,5.36,0,0,1,1.65,1A4.73,4.73,0,0,1,38.3-.51,3.66,3.66,0,0,1,38.78.9V1.48a4.64,4.64,0,0,1-.4,1.71h0Z" transform="translate(6.17 10.14)"/><path d="M4.2-2.94H3a0.5,0.5,0,0,0-.3,0,0.63,0.63,0,0,0-.11.28L1.88-.35a0.1,0.1,0,0,1-.11.09H0.2L1-2.94H-0.59a0.09,0.09,0,0,0-.1.07h0C-0.83-2.4-1-1.94-1.12-1.51L-1.67.29C-1.85.9-2,1.53-2.22,2.15s-0.35,1.17-.54,1.77h1.61A0.13,0.13,0,0,0-1,3.85c0.07-.21.12-0.43,0.19-0.63l0.39-1.46c0.1-.32.18-0.62,0.28-0.92H1.5L0.58,4h1.7l2.07-6.9H4.2Z" transform="translate(6.17 10.14)"/><path d="M19.61-.69a0.09,0.09,0,0,0-.1.07h0c-0.1.41-.19,0.84-0.32,1.25-0.16.58-.32,1.17-0.5,1.74a1,1,0,0,1-.58.66,0.33,0.33,0,0,1-.38,0,0.28,0.28,0,0,1,0-.32c0.08-.32.16-0.63,0.25-0.95,0.16-.57.33-1.14,0.49-1.73,0.06-.22.12-0.45,0.19-0.69H17.33a0.15,0.15,0,0,0-.18.11h0L16.78,1l-0.43,1.5a3.08,3.08,0,0,0-.15.94,0.6,0.6,0,0,0,.29.52,1.76,1.76,0,0,0,.92.22,1.83,1.83,0,0,0,.9-0.26,0.92,0.92,0,0,1-.1.32c-0.12.44-.22,0.84-0.36,1.3a0.84,0.84,0,0,1-.87.63H13.57c-0.22,0-.22,0-0.28.21s-0.16.58-.24,0.88h4.88a1,1,0,0,0,.33-0.06,1.49,1.49,0,0,0,.85-1c0.15-.44.24-0.86,0.36-1.29l0.84-3L20.89-.2A1.88,1.88,0,0,1,21-.69H19.61Z" transform="translate(6.17 10.14)"/><path d="M27.78-2.94h-1.7a0.12,0.12,0,0,0-.09,0c-0.21.35-.42,0.69-0.63,1l-1.8,3L22,3.7c-0.07.12-.13,0.24-0.22,0.38h1.41a0.14,0.14,0,0,0,.11,0l1-1.54a0.19,0.19,0,0,1,.17-0.1h1.9V4.06h1.35a2.85,2.85,0,0,0,0-.29V-2.94h0.07ZM26.33,1.4h-1.4l1.4-2.54V1.4Z" transform="translate(6.17 10.14)"/><path d="M31.48-.73a0.11,0.11,0,0,0-.07.07,0.57,0.57,0,0,1-.08.33L31.27-.42a0.8,0.8,0,0,0-.63-0.36,1.31,1.31,0,0,0-.85.18,1.87,1.87,0,0,0-.64.89,9.08,9.08,0,0,0-.52,1.77,5.72,5.72,0,0,0-.2,1.41,0.73,0.73,0,0,0,.36.67,1.27,1.27,0,0,0,1.26,0h0.08a0.39,0.39,0,0,1,0,.17,2.17,2.17,0,0,1-.35.89,0.33,0.33,0,0,1-.33.15,0.27,0.27,0,0,1-.22-0.25V4.68H28.06a2.78,2.78,0,0,0,0,.55,0.89,0.89,0,0,0,.63.64A2.7,2.7,0,0,0,30,6a1.3,1.3,0,0,0,1.2-1c0.26-1,.53-2,0.8-3s0.49-1.82.72-2.73H31.48ZM30.9,1.15L30.46,3a0.39,0.39,0,0,1-.34.33,0.37,0.37,0,0,1-.39-0.46,2.65,2.65,0,0,1,.13-0.5L30.3,0.63A0.46,0.46,0,0,1,30.56.28,0.32,0.32,0,0,1,31,.4a0.34,0.34,0,0,1,0,.16,4.7,4.7,0,0,1-.11.6h0Z" transform="translate(6.17 10.14)"/><path d="M13.78,3.95h0.06V4.12H15a0.15,0.15,0,0,0,.1-0.1c0.13-.46.25-0.92,0.39-1.37l0.84-3c0.16-.58.33-1.17,0.5-1.74q0.1-.42.17-0.85H15.78a0.12,0.12,0,0,0-.07.06c-0.1.4-.18,0.79-0.28,1.19L15.11-.29A1,1,0,0,0,14.47-.8a1.39,1.39,0,0,0-.74,0,1.22,1.22,0,0,0-.81.85c-0.24.78-.44,1.56-0.66,2.35a3.51,3.51,0,0,0-.18,1.11,0.64,0.64,0,0,0,.29.53,1.38,1.38,0,0,0,1.46,0h0Zm-0.3-1.46c0.19-.69.39-1.39,0.59-2.09A0.53,0.53,0,0,1,14.31.06a0.31,0.31,0,0,1,.42.1,0.35,0.35,0,0,1,0,.18,3.27,3.27,0,0,1-.12.58c-0.11.45-.24,0.89-0.35,1.32a4.61,4.61,0,0,1-.27.82,0.38,0.38,0,0,1-.42.33h0c-0.18,0-.25-0.16-0.25-0.46a2.25,2.25,0,0,1,.11-0.43h0.06Z" transform="translate(6.17 10.14)"/><path d="M11.46-.76a1.62,1.62,0,0,0-1.22.07V-0.87H9l-1.42,5h1.2a0.11,0.11,0,0,0,.08-0.07,1.19,1.19,0,0,1,.1-0.32c0.15-.49.29-1,0.44-1.47S9.74,1,9.91.39A0.47,0.47,0,0,1,10.35,0a0.38,0.38,0,0,1,.34.51,9.08,9.08,0,0,1-.22.9C10.31,2,10.14,2.53,10,3.07c-0.11.35-.21,0.7-0.32,1.06h1.13a0.11,0.11,0,0,0,.07-0.07L11,3.61l0.84-2.83A1.75,1.75,0,0,0,11.9-.16a0.72,0.72,0,0,0-.45-0.6h0Z" transform="translate(6.17 10.14)"/><path d="M7.65,0.06A0.91,0.91,0,0,0,7.43-.46,1.3,1.3,0,0,0,6.78-.79a1.83,1.83,0,0,0-1.41,0A2.67,2.67,0,0,0,4.19.56H5.32A0.15,0.15,0,0,0,5.41.5,1.21,1.21,0,0,1,5.84,0a0.4,0.4,0,0,1,.62.21,0.68,0.68,0,0,1-.1.51A0.51,0.51,0,0,1,6,1.06a7.34,7.34,0,0,0-.89.13,1.92,1.92,0,0,0-1.49,1.2A1.87,1.87,0,0,0,3.54,3.5a0.72,0.72,0,0,0,.56.61A1.77,1.77,0,0,0,5.34,3.9,3.56,3.56,0,0,0,5.7,3.64V4.06H6.84a6.46,6.46,0,0,1,0-.7,8.51,8.51,0,0,1,.5-2A3,3,0,0,0,7.58.06H7.65Zm-2,3a0.58,0.58,0,0,1-.6.17,0.53,0.53,0,0,1-.27-0.45,0.65,0.65,0,0,1,.3-0.61A1.54,1.54,0,0,1,6,1.94a2,2,0,0,1-.33,1.19h0V3.06Z" transform="translate(6.17 10.14)"/><path d="M35.78-.8a6.8,6.8,0,0,0-.71,0,1.51,1.51,0,0,0-.64.15,1.84,1.84,0,0,0-.89,1,6.29,6.29,0,0,0-.41,1.54,5.07,5.07,0,0,0-.07,1.48,0.86,0.86,0,0,0,.74.86,3.53,3.53,0,0,0,.5.06,1.54,1.54,0,0,0,1.35-.52,2.39,2.39,0,0,0,.5-0.8l0.18-.53h-1a0.12,0.12,0,0,0-.13.1,1.34,1.34,0,0,1-.35.61,0.42,0.42,0,0,1-.59.08h0l-0.08-.08a0.37,0.37,0,0,1,0-.3c0.06-.3.13-0.62,0.21-0.92a0.14,0.14,0,0,1,.16-0.12h1.83a0.11,0.11,0,0,0,.12-0.06h0A8.22,8.22,0,0,0,36.66.21a1,1,0,0,0-.88-1h0Zm-0.5,1.75a0.08,0.08,0,0,1-.07.06H34.56c0.07-.28.15-0.55,0.23-0.8A0.33,0.33,0,0,1,35.23.06H35.3a0.2,0.2,0,0,1,.06.13,2.52,2.52,0,0,1-.11.73h0Z" transform="translate(6.17 10.14)"/><path d="M16.39-5.39A1.64,1.64,0,0,0,18.06-7a1.64,1.64,0,0,0-1.61-1.67,1.64,1.64,0,0,0-1.67,1.61,1.64,1.64,0,0,0,1.61,1.67h0Zm0-3.12A1.5,1.5,0,0,1,17.89-7a1.5,1.5,0,0,1-1.5,1.5,1.46,1.46,0,0,1-1.48-1.43h0a1.5,1.5,0,0,1,1.45-1.55h0Z" transform="translate(6.17 10.14)"/><path d="M22.86,0.49C22.92,0.28,23,.08,23-0.15H21.78a0.12,0.12,0,0,0-.08.09,3.19,3.19,0,0,0-.11.38,1.56,1.56,0,0,1-.12.43H22.6C22.78,0.72,22.78.72,22.86,0.49Z" transform="translate(6.17 10.14)"/><path d="M16-6.87h0.44a0.14,0.14,0,0,1,.08.06,4.65,4.65,0,0,1,.36.58,0.35,0.35,0,0,0,.42.22h0l-0.48-.85L17-6.94a0.61,0.61,0,0,0,.23-0.69,0.5,0.5,0,0,0-.51-0.31h-1v2H16V-6.87h0Zm0-.91h0.77a0.31,0.31,0,0,1,.23.33,0.28,0.28,0,0,1-.25.3H16V-7.78h0Z" transform="translate(6.17 10.14)"/></svg>