<svg id="圖層_2" data-name="圖層 2" xmlns="http://www.w3.org/2000/svg" viewBox="0 0 48.02 31.24">
  <defs>
    <style>
      .cls-1, .cls-2 {
        fill: #fff;
      }

      .cls-1 {
        opacity: 0.4;
      }
    </style>
  </defs>
  <title>logo</title>
  <path class="cls-1" d="M47.57,11.66h0a5.72,5.72,0,0,0-.59-2,6.58,6.58,0,0,0-1.72-2.16A7.43,7.43,0,0,0,42.88,6.2L24-.45l-0.11,0a1.9,1.9,0,0,0-.46,0,1.79,1.79,0,0,0-.52.12L5,6,4.57,6.1l-0.9.32A7.13,7.13,0,0,0,1.16,8.2,6.65,6.65,0,0,0,.09,9.88,5.83,5.83,0,0,0-.42,11.7v0.21a1,1,0,0,0,0,.14v0.78a1,1,0,0,0,0,.14v0.1a1.29,1.29,0,0,0,0,.19,6.19,6.19,0,0,0,.78,2.37,6.65,6.65,0,0,0,1.5,1.76,7.07,7.07,0,0,0,2.23,1.28l3.7,1.24L22,25a2.67,2.67,0,0,0-1,.4,2.25,2.25,0,0,0-.86-0.43,2.6,2.6,0,0,0-2.09.4,1.76,1.76,0,0,0-.84-0.4,2.42,2.42,0,0,0-1.26,0H15.82a1.38,1.38,0,0,0-1.36-1.15H14a1.36,1.36,0,0,0-.43,0l-0.11,0a1.54,1.54,0,0,0-.46.3A2.14,2.14,0,0,0,12.66,24,2.94,2.94,0,0,0,11,23.81,2.76,2.76,0,0,0,8.67,26a2.32,2.32,0,0,0,0,1,1.29,1.29,0,0,0-.4.94v0.4a2.42,2.42,0,0,0,2,2.29,3.31,3.31,0,0,0,.72.08H11.3a3.09,3.09,0,0,0,1.12-.33,1.56,1.56,0,0,0,.78.25h0.7a1.27,1.27,0,0,0,.43-0.09,1.56,1.56,0,0,0,.5.11h0.56a1.38,1.38,0,0,0,.48-0.09,1.6,1.6,0,0,0,.55.12h0.46a1.37,1.37,0,0,0,.9-0.26,2,2,0,0,0,.62.25,2.83,2.83,0,0,0,.69.08,2.58,2.58,0,0,0,1.45-.47,2.34,2.34,0,0,0,.9.41,2.74,2.74,0,0,0,3.25-1.88,1.45,1.45,0,0,0,0-.25,1.28,1.28,0,0,0,.08-0.25A4,4,0,0,0,24.85,27,2.28,2.28,0,0,0,24,25.42l1.89-.67a1.52,1.52,0,0,0-.52.85s0,0.06,0,.1L25.31,26a1.38,1.38,0,0,0,.33,1.3,1.45,1.45,0,0,0,.25.2l-0.21,1.4A1.41,1.41,0,0,0,26,30.11a1.51,1.51,0,0,0,1,.47h0.66a1.3,1.3,0,0,0,.89-0.35,2.2,2.2,0,0,0,1.12.46H30a2.62,2.62,0,0,0,1.58-.54,2.29,2.29,0,0,0,1,.47h0.13a2,2,0,0,0,.46,0,3.05,3.05,0,0,0,.79,0A2.71,2.71,0,0,0,35,30l0.08,0.12a1.43,1.43,0,0,0,1.06.51h0.64a1.31,1.31,0,0,0,1.27-1.14l0.66-4a1.42,1.42,0,0,0-.28-1.2,1.39,1.39,0,0,0-1-.54H37.07a1.46,1.46,0,0,0-1.34.69l-0.1,0a2.12,2.12,0,0,0-.85-0.63l-0.15,0a2.49,2.49,0,0,0-1.38-.07,2.6,2.6,0,0,0-1,.48,2.18,2.18,0,0,0-1.15-.52,2.5,2.5,0,0,0-1.82.44,1.39,1.39,0,0,0-.69-0.36L41.3,19.25l1.41-.47a7.91,7.91,0,0,0,2.14-1.07,6.61,6.61,0,0,0,2.26-2.8,5.61,5.61,0,0,0,.48-2A6.78,6.78,0,0,0,47.57,11.66Zm-41.46,4h0ZM3.4,13.26c-0.07.22-.13,0.44-0.19,0.65l-0.07.22L3,13.92H3a2.83,2.83,0,0,1-.37-1.15,2.76,2.76,0,0,1,.17-1.35,3.38,3.38,0,0,1,.51-0.92,4,4,0,0,1,1.13-1l0.06,0Zm3.31,2.67a1.29,1.29,0,0,0,.54.29,0.9,0.9,0,0,0,.33,0h1.7A1.3,1.3,0,0,0,10,16a1.9,1.9,0,0,0,.83.38,3.06,3.06,0,0,0,1.51-.08,1.32,1.32,0,0,0,.37.06h1.15a1.29,1.29,0,0,0,.29,0,1.35,1.35,0,0,0,.42.08h1.13a1.31,1.31,0,0,0,.43,0l0.08,0a1.33,1.33,0,0,0,.44.08h1.05a1.09,1.09,0,0,0,1-.29l0,0a2.62,2.62,0,0,0,.58.26,1.42,1.42,0,0,0-.19.45l-0.24.89a1.3,1.3,0,0,0,1.25,1.63H25a2.4,2.4,0,0,0,.82-0.16,2.76,2.76,0,0,0,1.53-1.7c0.09-.27.16-0.53,0.23-0.79L27.82,16a1.34,1.34,0,0,0,.19.16,1.32,1.32,0,0,0,.79.25H30.2a1.41,1.41,0,0,0,1.19-.67l0.66-1v0.38a1.3,1.3,0,0,0,1.3,1.3h0.42V16.5a2.16,2.16,0,0,0,1.29,1.56L23.48,22.15l-0.11,0-2.75-1-14.19-5A1.38,1.38,0,0,0,6.71,15.94ZM22.44,6.69H22.37a1.51,1.51,0,0,0-.84.74,1.28,1.28,0,0,0-.08.25L21.23,8.77a2.8,2.8,0,0,0-.86.09,2.49,2.49,0,0,0-.82.47A1.8,1.8,0,0,0,18.88,9,2.94,2.94,0,0,0,18,8.81l-0.33,0a1.32,1.32,0,0,0-.32,0H16a1.31,1.31,0,0,0-1,.51A2.44,2.44,0,0,0,14.23,9a3.12,3.12,0,0,0-1.79-.09l0.15-.52A1.3,1.3,0,0,0,12,6.89l3.55-1.32,4.95-1.73v0A2.94,2.94,0,0,0,22.44,6.69Zm3.88-3,8.48,3H33.08a1.43,1.43,0,0,0-1.21.7L30.53,9.58A1.31,1.31,0,0,0,30,9.48H29.1v0A1.33,1.33,0,0,0,28.37,9,1.15,1.15,0,0,0,28,9H26.38l-0.24.06a1.35,1.35,0,0,0-.52-0.12H25.18l0.08-.3,0.09-.33a1.3,1.3,0,0,0-.94-1.58l-0.08,0a3,3,0,0,0,2-2.73C26.33,3.88,26.33,3.8,26.33,3.72ZM40.87,9.09l-0.29.16a1.31,1.31,0,0,0-.83-0.32h-1.1a1.42,1.42,0,0,0-.36,0,1.77,1.77,0,0,0-.45-0.09,2.66,2.66,0,0,0-1.73.39h0V8A1.28,1.28,0,0,0,35.59,7l3.88,1.37L41.23,9Zm-1.44,7.32L39.52,16a2.13,2.13,0,0,0,.47.3l-0.6.21ZM23.33,4.05a0.19,0.19,0,0,1,0-.15,0.2,0.2,0,0,1,.12-0.19h0a0.19,0.19,0,0,1,.19.19A0.2,0.2,0,0,1,23.33,4.05Z" transform="translate(0.42 0.49)"/>
  <path class="cls-2" d="M12.16,25.14a1.73,1.73,0,0,0-1-.08,1.47,1.47,0,0,0-1.24,1.17,0.9,0.9,0,0,0,.55,1.09l0.44,0.11a7.36,7.36,0,0,1,.73.23,0.37,0.37,0,0,1,.19.56,0.64,0.64,0,0,1-.33.29,1.11,1.11,0,0,1-.66.06,0.59,0.59,0,0,1-.47-0.36,2.54,2.54,0,0,1-.07-0.29,0.12,0.12,0,0,0-.06-0.07H9.55v0.33a1.14,1.14,0,0,0,1,1.14,2,2,0,0,0,.66,0,1.57,1.57,0,0,0,1.4-1,1,1,0,0,0-.68-1.51l-0.63-.18a2.36,2.36,0,0,1-.51-0.1,0.25,0.25,0,0,1-.13-0.32h0A0.49,0.49,0,0,1,11,25.88a1.06,1.06,0,0,1,.64,0,0.48,0.48,0,0,1,.4.45v0.12h0.76a1.18,1.18,0,0,0-.67-1.28h0Z" transform="translate(0.42 0.49)"/>
  <path class="cls-2" d="M34.3,25.1a1.27,1.27,0,0,0-.76,0,1.22,1.22,0,0,0-.74,2H32.73A1.53,1.53,0,0,0,32,28.18a1,1,0,0,0,.74,1.17h0a1.65,1.65,0,0,0,.73,0,1.4,1.4,0,0,0,1-1.62,1.09,1.09,0,0,0-.41-0.64h0a1.49,1.49,0,0,0,.68-0.91,0.9,0.9,0,0,0-.51-1.08h0Zm-0.51,3.22a0.62,0.62,0,0,1-.69.36,0.39,0.39,0,0,1-.31-0.43,0.71,0.71,0,0,1,.27-0.52l0.24-.18a0.21,0.21,0,0,1,.29,0h0a0.58,0.58,0,0,1,.24.76h0ZM34,26a0.76,0.76,0,0,1-.47.61,0.06,0.06,0,0,1-.06,0,0.52,0.52,0,0,1-.28-0.44,0.47,0.47,0,0,1,.42-0.51h0.15a0.28,0.28,0,0,1,.27.29h0Z" transform="translate(0.42 0.49)"/>
  <path class="cls-2" d="M30.89,25a1.2,1.2,0,0,0-.92.24,1.81,1.81,0,0,0-.73,1.63,1,1,0,0,0,1.51.84h0.08a2.22,2.22,0,0,1-.36.76,1,1,0,0,1-.21.18,0.31,0.31,0,0,1-.41-0.08,0.48,0.48,0,0,1-.06-0.17,1.83,1.83,0,0,1,0-.25,0.13,0.13,0,0,0-.07-0.08H29a3.76,3.76,0,0,0,0,.41,0.9,0.9,0,0,0,.76.84,1.3,1.3,0,0,0,1-.27,2,2,0,0,0,.57-0.76,4.65,4.65,0,0,0,.43-1.43,2.6,2.6,0,0,0,0-1.11A1,1,0,0,0,31,25H30.89Zm0.16,1.48v0.1a0.38,0.38,0,0,1-.11.33,0.87,0.87,0,0,1-.58.24A0.37,0.37,0,0,1,30,26.86a1.11,1.11,0,0,1,.27-1A0.39,0.39,0,0,1,31,26a3.08,3.08,0,0,1,.07.46h0v0Z" transform="translate(0.42 0.49)"/>
  <path class="cls-2" d="M22.68,26.18a1.38,1.38,0,0,0-1.29.5,2.18,2.18,0,0,0-.48,1.75,1,1,0,0,0,.79.89,1.45,1.45,0,0,0,1.7-.93c0-.07,0-0.1-0.07-0.1H22.79a0.13,0.13,0,0,0-.15.08,0.55,0.55,0,0,1-.66.27A0.58,0.58,0,0,1,21.66,28h1.76a0.13,0.13,0,0,0,.11-0.06,2.72,2.72,0,0,0,0-.89A1,1,0,0,0,22.68,26.18Zm-0.89,1.16a0.72,0.72,0,0,1,.56-0.47,0.43,0.43,0,0,1,.49.47h-1Z" transform="translate(0.42 0.49)"/>
  <path class="cls-2" d="M16.89,26.21a1.09,1.09,0,0,0-.83.1L16,26.37c0-.12,0-0.12-0.13-0.12H15.31a0.09,0.09,0,0,0-.11.07h0c-0.15,1-.3,1.92-0.46,2.88,0,0.07,0,.11.09,0.11h0.53a0.09,0.09,0,0,0,.11-0.07h0c0.09-.58.18-1.17,0.28-1.75a0.65,0.65,0,0,1,0-.28,0.88,0.88,0,0,1,.56-0.34,0.21,0.21,0,0,1,.26.14v0a0.1,0.1,0,0,1,0,.08,1.34,1.34,0,0,1,0,.22c-0.1.62-.19,1.24-0.3,1.86,0,0.08,0,.12.1,0.12H17a0.09,0.09,0,0,0,.11-0.07h0c0.08-.55.18-1.09,0.25-1.63a4.1,4.1,0,0,0,0-.76,0.58,0.58,0,0,0-.47-0.62h0Z" transform="translate(0.42 0.49)"/>
  <path class="cls-2" d="M19.79,26.19a1.3,1.3,0,0,0-1.25.38A2.15,2.15,0,0,0,18,28.65a0.9,0.9,0,0,0,.69.69,1.38,1.38,0,0,0,1.68-1h0c0-.07,0-0.08-0.07-0.08h-0.5a0.17,0.17,0,0,0-.19.12,0.46,0.46,0,0,1-.49.3,0.41,0.41,0,0,1-.38-0.4A1.58,1.58,0,0,1,19,27.14a0.7,0.7,0,0,1,.29-0.24,0.34,0.34,0,0,1,.53.29,0.14,0.14,0,0,0,.07.07h0.59a0.11,0.11,0,0,0,.07-0.07,0.92,0.92,0,0,0-.73-1h0Z" transform="translate(0.42 0.49)"/>
  <path class="cls-2" d="M28.23,25.09H27.86a0.11,0.11,0,0,0-.13.08,0.87,0.87,0,0,1-.59.55,1.79,1.79,0,0,1-.35,0,0.12,0.12,0,0,0-.11.08h0l-0.07.47c0,0.1,0,.12.1,0.11l0.72-.07a1.25,1.25,0,0,1-.08.53L27,29.11a0.07,0.07,0,0,0,0,.09h0.67a0.13,0.13,0,0,0,0-.06l0.4-2.5c0.08-.51.16-1,0.24-1.53,0-.08,0-0.1-0.11-0.1h0v0.07Z" transform="translate(0.42 0.49)"/>
  <path class="cls-2" d="M37.38,25.09H37a0.13,0.13,0,0,0-.15.1,0.88,0.88,0,0,1-.69.57H35.9a0.09,0.09,0,0,0-.1.07h0l-0.07.49c0,0.1,0,.12.1,0.12h0.71v0.08l-0.22,1.32c-0.07.47-.15,0.93-0.23,1.41,0,0,0,.1.06,0.1h0.64l0.47-2.92,0.18-1.11c0-.16,0-0.17-0.11-0.17h0Z" transform="translate(0.42 0.49)"/>
  <path class="cls-2" d="M14.29,26.23h-0.5a0.09,0.09,0,0,0-.11.06h0c-0.09.56-.17,1.11-0.27,1.65s-0.13.81-.19,1.22c0,0,0,.12.06,0.12h0.61a0.53,0.53,0,0,0,0-.13l0.22-1.35c0.09-.5.16-1,0.24-1.49,0-.07,0-0.1-0.09-0.1h0Z" transform="translate(0.42 0.49)"/>
  <path class="cls-2" d="M14.49,25.09H13.92a0.12,0.12,0,0,0-.07.06,4.07,4.07,0,0,1-.11.67,0.06,0.06,0,0,0,0,.08H14.3a0.07,0.07,0,0,0,.09,0v0h0a3.76,3.76,0,0,1,.1-0.66,0.07,0.07,0,0,0-.07-0.07h0Z" transform="translate(0.42 0.49)"/>
  <path class="cls-2" d="M46.28,11.8a4.42,4.42,0,0,0-.49-1.52,5.35,5.35,0,0,0-1.38-1.74,6.17,6.17,0,0,0-2-1.11l-1.86-.65-2.68-.95L34.35,4.58l-2-.69L23.61,0.8h-0.1l-0.35.13-4.24,1.5L5.41,7.18C5,7.33,4.57,7.43,4.17,7.62a5.89,5.89,0,0,0-2,1.45,5.42,5.42,0,0,0-.94,1.36A4.54,4.54,0,0,0,.84,11.8v1.05a1.7,1.7,0,0,1,0,.24A4.91,4.91,0,0,0,1.48,15,5.43,5.43,0,0,0,2.7,16.43a5.79,5.79,0,0,0,1.82,1L6.27,18c0.66,0.23,1.3.46,2,.68l2.31,0.81,2.21,0.79,2.31,0.81,2,0.69,2,0.7,2.42,0.85,2,0.7a0.32,0.32,0,0,0,.18,0,2.27,2.27,0,0,0,.56-0.18l2.11-.74,1.8-.63,2.42-.86,1.54-.53,2.55-.9,2.1-.74,1.88-.66,2.14-.76,1.6-.53a6.67,6.67,0,0,0,1.76-.89,5.35,5.35,0,0,0,1.76-2.21,4.43,4.43,0,0,0,.38-1.58,5.63,5.63,0,0,0,0-1h0Zm-0.87,2.38a4.71,4.71,0,0,1-1.11,1.57,5.58,5.58,0,0,1-2.37,1.32c-0.4.12-.8,0.27-1.2,0.4l-1.6.57L25.37,22.89l-1.71.61a0.4,0.4,0,0,1-.17,0c-1.08-.38-2.16-0.75-3.23-1.14L18,21.56l-4.91-1.74L10.79,19l-3.3-1.17-2-.72C5.22,17,5,16.95,4.69,16.87A5.32,5.32,0,0,1,3.22,16a5.12,5.12,0,0,1-1.33-1.46,4.08,4.08,0,0,1-.54-1.64,4,4,0,0,1,.24-2,4.71,4.71,0,0,1,.72-1.28A5.39,5.39,0,0,1,3.79,8.43a6.33,6.33,0,0,1,1.46-.6l1.13-.4C6.91,7.25,7.45,7,8,6.86L10.44,6l2.48-.87,2.72-1,1.85-.64,2.07-.73,1.87-.66,2-.72a0.27,0.27,0,0,1,.19,0L25.5,2l2.73,1,2.56,0.9,7.29,2.55,1.87,0.66,1.71,0.61c0.3,0.11.63,0.19,0.94,0.32a5.36,5.36,0,0,1,1.65,1,4.73,4.73,0,0,1,1.06,1.39,3.66,3.66,0,0,1,.48,1.41v0.58a4.64,4.64,0,0,1-.4,1.71h0Z" transform="translate(0.42 0.49)"/>
  <path class="cls-2" d="M11.21,8H10a0.5,0.5,0,0,0-.3,0,0.63,0.63,0,0,0-.11.28l-0.7,2.31a0.1,0.1,0,0,1-.11.09H7.21L8,8H6.42a0.09,0.09,0,0,0-.1.07h0C6.18,8.54,6,9,5.89,9.43l-0.55,1.8c-0.18.61-.36,1.24-0.55,1.86s-0.35,1.17-.54,1.77H5.86A0.13,0.13,0,0,0,6,14.79c0.07-.21.12-0.43,0.19-0.63L6.58,12.7c0.1-.32.18-0.62,0.28-0.92H8.51L7.59,14.9h1.7L11.36,8H11.21Z" transform="translate(0.42 0.49)"/>
  <path class="cls-2" d="M26.62,10.25a0.09,0.09,0,0,0-.1.07h0c-0.1.41-.19,0.84-0.32,1.25-0.16.58-.32,1.17-0.5,1.74a1,1,0,0,1-.58.66,0.33,0.33,0,0,1-.38,0,0.28,0.28,0,0,1,0-.32c0.08-.32.16-0.63,0.25-0.95,0.16-.57.33-1.14,0.49-1.73,0.06-.22.12-0.45,0.19-0.69H24.34a0.15,0.15,0,0,0-.18.11h0l-0.37,1.53-0.43,1.5a3.08,3.08,0,0,0-.15.94,0.6,0.6,0,0,0,.29.52,1.76,1.76,0,0,0,.92.22,1.83,1.83,0,0,0,.9-0.26,0.92,0.92,0,0,1-.1.32C25.1,15.6,25,16,24.86,16.46a0.84,0.84,0,0,1-.87.63H20.58c-0.22,0-.22,0-0.28.21s-0.16.58-.24,0.88h4.88a1,1,0,0,0,.33-0.06,1.49,1.49,0,0,0,.85-1c0.15-.44.24-0.86,0.36-1.29l0.84-3,0.58-2.09A1.88,1.88,0,0,1,28,10.25H26.62Z" transform="translate(0.42 0.49)"/>
  <path class="cls-2" d="M34.79,8h-1.7A0.12,0.12,0,0,0,33,8c-0.21.35-.42,0.69-0.63,1l-1.8,3L29,14.64c-0.07.12-.13,0.24-0.22,0.38h1.41A0.14,0.14,0,0,0,30.3,15l1-1.54a0.19,0.19,0,0,1,.17-0.1h1.9V15h1.35a2.85,2.85,0,0,0,0-.29V8h0.07Zm-1.45,4.34h-1.4l1.4-2.54v2.54Z" transform="translate(0.42 0.49)"/>
  <path class="cls-2" d="M38.49,10.21a0.11,0.11,0,0,0-.07.07,0.57,0.57,0,0,1-.08.33l-0.06-.09a0.8,0.8,0,0,0-.63-0.36,1.31,1.31,0,0,0-.85.18,1.87,1.87,0,0,0-.64.89A9.08,9.08,0,0,0,35.64,13a5.72,5.72,0,0,0-.2,1.41,0.73,0.73,0,0,0,.36.67,1.27,1.27,0,0,0,1.26,0h0.08a0.39,0.39,0,0,1,0,.17,2.17,2.17,0,0,1-.35.89,0.33,0.33,0,0,1-.33.15,0.27,0.27,0,0,1-.22-0.25V15.62H35.07a2.78,2.78,0,0,0,0,.55,0.89,0.89,0,0,0,.63.64,2.7,2.7,0,0,0,1.28.13,1.3,1.3,0,0,0,1.2-1c0.26-1,.53-2,0.8-3s0.49-1.82.72-2.73H38.49Zm-0.58,1.88-0.44,1.85a0.39,0.39,0,0,1-.34.33,0.37,0.37,0,0,1-.39-0.46,2.65,2.65,0,0,1,.13-0.5l0.44-1.74a0.46,0.46,0,0,1,.26-0.35,0.32,0.32,0,0,1,.41.12,0.34,0.34,0,0,1,0,.16,4.7,4.7,0,0,1-.11.6h0Z" transform="translate(0.42 0.49)"/>
  <path class="cls-2" d="M20.79,14.89h0.06v0.17H22a0.15,0.15,0,0,0,.1-0.1c0.13-.46.25-0.92,0.39-1.37l0.84-3c0.16-.58.33-1.17,0.5-1.74Q23.93,8.43,24,8H22.79a0.12,0.12,0,0,0-.07.06c-0.1.4-.18,0.79-0.28,1.19l-0.32,1.4a1,1,0,0,0-.64-0.51,1.39,1.39,0,0,0-.74,0,1.22,1.22,0,0,0-.81.85c-0.24.78-.44,1.56-0.66,2.35a3.51,3.51,0,0,0-.18,1.11,0.64,0.64,0,0,0,.29.53,1.38,1.38,0,0,0,1.46,0h0Zm-0.3-1.46c0.19-.69.39-1.39,0.59-2.09A0.53,0.53,0,0,1,21.32,11a0.31,0.31,0,0,1,.42.1,0.35,0.35,0,0,1,0,.18,3.27,3.27,0,0,1-.12.58c-0.11.45-.24,0.89-0.35,1.32S21.12,13.71,21,14a0.38,0.38,0,0,1-.43.33h0c-0.18,0-.25-0.16-0.25-0.46a2.25,2.25,0,0,1,.11-0.43h0Z" transform="translate(0.42 0.49)"/>
  <path class="cls-2" d="M18.47,10.18a1.62,1.62,0,0,0-1.22.07V10.07H16l-1.42,5h1.2A0.11,0.11,0,0,0,15.86,15a1.19,1.19,0,0,1,.1-0.32c0.15-.49.29-1,0.44-1.47s0.35-1.25.52-1.88a0.47,0.47,0,0,1,.44-0.38,0.38,0.38,0,0,1,.34.51,9.08,9.08,0,0,1-.22.9c-0.16.55-.33,1.11-0.5,1.65-0.11.35-.21,0.7-0.32,1.06h1.13A0.11,0.11,0,0,0,17.86,15L18,14.55l0.84-2.83a1.75,1.75,0,0,0,.07-0.94,0.72,0.72,0,0,0-.45-0.6h0Z" transform="translate(0.42 0.49)"/>
  <path class="cls-2" d="M14.66,11a0.91,0.91,0,0,0-.22-0.52,1.3,1.3,0,0,0-.65-0.33,1.83,1.83,0,0,0-1.41,0,2.67,2.67,0,0,0-1.18,1.35h1.13a0.15,0.15,0,0,0,.09-0.06,1.21,1.21,0,0,1,.43-0.5,0.4,0.4,0,0,1,.62.21,0.68,0.68,0,0,1-.1.51A0.51,0.51,0,0,1,13,12a7.34,7.34,0,0,0-.89.13,1.92,1.92,0,0,0-1.49,1.2,1.87,1.87,0,0,0-.07,1.11,0.72,0.72,0,0,0,.56.61,1.77,1.77,0,0,0,1.24-.21,3.56,3.56,0,0,0,.36-0.26V15h1.14a6.46,6.46,0,0,1,0-.7,8.51,8.51,0,0,1,.5-2A3,3,0,0,0,14.59,11h0Zm-2,3a0.58,0.58,0,0,1-.6.17,0.53,0.53,0,0,1-.27-0.45,0.65,0.65,0,0,1,.3-0.61A1.54,1.54,0,0,1,13,12.88a2,2,0,0,1-.33,1.19h0Z" transform="translate(0.42 0.49)"/>
  <path class="cls-2" d="M42.79,10.14a6.8,6.8,0,0,0-.71,0,1.51,1.51,0,0,0-.64.15,1.84,1.84,0,0,0-.89,1,6.29,6.29,0,0,0-.41,1.54,5.07,5.07,0,0,0-.07,1.48,0.86,0.86,0,0,0,.74.86,3.53,3.53,0,0,0,.5.06,1.54,1.54,0,0,0,1.35-.52,2.39,2.39,0,0,0,.5-0.8l0.18-.53h-1a0.12,0.12,0,0,0-.13.1,1.34,1.34,0,0,1-.35.61,0.42,0.42,0,0,1-.59.08l-0.08-.08a0.37,0.37,0,0,1,0-.3c0.06-.3.13-0.62,0.21-0.92a0.14,0.14,0,0,1,.16-0.12h1.83a0.11,0.11,0,0,0,.12-0.06h0a8.22,8.22,0,0,0,.16-1.54,1,1,0,0,0-.88-1h0Zm-0.5,1.75a0.08,0.08,0,0,1-.07.06H41.57c0.07-.28.15-0.55,0.23-0.8A0.33,0.33,0,0,1,42.24,11h0.07a0.2,0.2,0,0,1,.06.13,2.52,2.52,0,0,1-.11.73h0Z" transform="translate(0.42 0.49)"/>
  <path class="cls-2" d="M23.4,5.55a1.64,1.64,0,1,0-1.61-1.67A1.64,1.64,0,0,0,23.4,5.55h0Zm0-3.12a1.5,1.5,0,0,1,0,3A1.46,1.46,0,0,1,21.92,4h0a1.5,1.5,0,0,1,1.45-1.55h0Z" transform="translate(0.42 0.49)"/>
  <path class="cls-2" d="M29.87,11.43c0.06-.21.13-0.41,0.19-0.64H28.79a0.12,0.12,0,0,0-.08.09,3.19,3.19,0,0,0-.11.38,1.56,1.56,0,0,1-.12.43h1.13C29.79,11.66,29.79,11.66,29.87,11.43Z" transform="translate(0.42 0.49)"/>
  <path class="cls-2" d="M23,4.07h0.44a0.14,0.14,0,0,1,.08.06,4.65,4.65,0,0,1,.36.58,0.35,0.35,0,0,0,.42.22h0l-0.48-.85L24,4a0.61,0.61,0,0,0,.23-0.69A0.5,0.5,0,0,0,23.72,3h-1V5H23V4.07h0Zm0-.91h0.77a0.31,0.31,0,0,1,.23.33,0.28,0.28,0,0,1-.25.3H23V3.16h0Z" transform="translate(0.42 0.49)"/>
</svg>
