<?xml version="1.0" encoding="utf-8"?>
<!-- Generator: Adobe Illustrator 18.0.0, SVG Export Plug-In . SVG Version: 6.00 Build 0)  -->
<!DOCTYPE svg PUBLIC "-//W3C//DTD SVG 1.1//EN" "http://www.w3.org/Graphics/SVG/1.1/DTD/svg11.dtd">
<svg version="1.1" id="watchout" xmlns="http://www.w3.org/2000/svg" xmlns:xlink="http://www.w3.org/1999/xlink" x="0px" y="0px"
	 viewBox="0 0 200 65" enable-background="new 0 0 200 65" xml:space="preserve">
<g id="en">
	<polygon fill="#FFFFFF" points="77.3,42.2 74.1,42.2 74.1,33.6 70.4,33.6 70.4,42.2 67.2,42.2 67.2,23.4 63.5,23.4 63.5,42.2 
		63.5,42.2 63.5,45.6 63.5,45.6 67.2,45.6 70.4,45.6 74.1,45.6 77.3,45.6 81,45.6 81,42.2 81,27 77.3,27 	"/>
	<polygon fill="#FFFFFF" points="197.2,27 193.9,27 193.9,23.4 190.2,23.4 190.2,27 186.9,27 186.9,30.7 190.2,30.7 190.2,45.6 
		193.9,45.6 193.9,30.7 197.2,30.7 	"/>
	<polygon fill="#FFFFFF" points="116.3,27 114,45.6 114.5,45.6 117.7,45.6 128.5,45.6 128.5,42.2 118.1,42.2 119.5,30.7 128.5,30.7 
		128.5,27 120,27 	"/>
	<path fill="#FFFFFF" d="M95,27h-0.5h-2.9h-1.4h-2.3l-2.3,18.6h3.7l0.6-5.3h6.2l0.6,5.3h3.7L98.2,27H95z M90.4,36.6l0.7-5.9h3.8
		l0.7,5.9H90.4z"/>
	<polygon fill="#FFFFFF" points="143.1,27 136.9,27 136.9,17.6 133.2,17.6 133.2,27 133.2,30.7 133.2,45.6 136.9,45.6 136.9,30.7 
		143.1,30.7 143.1,45.6 146.8,45.6 146.8,27 144.3,27 	"/>
	<polygon fill="#FFFFFF" points="108.8,23.4 105.1,23.4 105.1,27 101.8,27 101.8,30.7 105.1,30.7 105.1,45.6 108.8,45.6 108.8,30.7 
		112.1,30.7 112.1,27 108.8,27 	"/>
	<path fill="#FFFFFF" d="M161.2,27h-6.2h-3.7h0v3.7h0v11.5v3.5h3.7h6.2h3.7v-3.5V27h0H161.2z M155.1,42.2V30.7h6.2v11.5H155.1z"/>
	<polygon fill="#FFFFFF" points="179.3,42.2 173.1,42.2 173.1,30.8 169.4,30.8 169.4,42.2 169.4,45.6 173.1,45.6 179.3,45.6 
		183,45.6 183,45.6 183,27.1 179.3,27.1 	"/>
</g>
<g id="tw">
	<path fill="#FFFFFF" d="M55,39.1H44.4v-1.5H53v-0.9V35v-1.6v-2.8V29v-2.6v-0.1H32.6v0.1V29v1.5v2.8V35v1.8v0.9h8.7v1.5H30.4v2.8
		h10.9v3.6h3.1v-3.6H55V39.1z M35.6,29H50v1.5H35.6V29z M35.6,33.3H50V35H35.6V33.3z"/>
	<polygon fill="#FFFFFF" points="8.5,25.4 6.3,21.1 3,21.1 5.2,25.4 	"/>
	<rect x="4.1" y="27.5" fill="#FFFFFF" width="4.5" height="3"/>
	<polygon fill="#FFFFFF" points="2.8,45.5 5.9,45.5 8.3,32.6 5.2,32.6 	"/>
	<polygon fill="#FFFFFF" points="26.6,31.8 26.6,28.9 20,28.9 20,24.1 24.7,24.1 24.7,21.1 12.1,21.1 12.1,24.1 16.9,24.1 
		16.9,28.9 10.3,28.9 10.3,31.8 16.6,31.8 9.9,45.5 13.2,45.5 18.4,34.9 23.7,45.5 27,45.5 20.3,31.8 	"/>
	<polygon fill="#FFFFFF" points="36.7,25.5 39.6,25.5 39.6,23.9 45.9,23.9 45.9,25.5 48.8,25.5 48.8,23.9 54.6,23.9 54.6,21.2 
		48.8,21.2 48.8,19.5 45.9,19.5 45.9,21.2 39.6,21.2 39.6,19.5 36.7,19.5 36.7,21.2 30.9,21.2 30.9,23.9 36.7,23.9 	"/>
</g>
</svg>
