<?xml version="1.0" encoding="utf-8"?>
<!-- Generator: Adobe Illustrator 18.0.0, SVG Export Plug-In . SVG Version: 6.00 Build 0)  -->
<!DOCTYPE svg PUBLIC "-//W3C//DTD SVG 1.1//EN" "http://www.w3.org/Graphics/SVG/1.1/DTD/svg11.dtd">
<svg version="1.1" id="Layer_1" xmlns="http://www.w3.org/2000/svg" xmlns:xlink="http://www.w3.org/1999/xlink" x="0px" y="0px"
	 viewBox="0 0 32 32" enable-background="new 0 0 32 32" xml:space="preserve">
<title>wo-august-2-info</title>
<desc>Created with Sketch.</desc>
<g id="Home">
	<g id="wo-august-2-info">
		<g id="Oval-19">
			<path d="M16,28C9.4,28,4,22.6,4,16C4,9.4,9.4,4,16,4c6.6,0,12,5.4,12,12C28,22.6,22.6,28,16,28z M16,6C10.5,6,6,10.5,6,16
				c0,5.5,4.5,10,10,10c5.5,0,10-4.5,10-10C26,10.5,21.5,6,16,6z"/>
		</g>
		<g id="i">
			<path d="M17.5,23v-9.9h-3V23H17.5z M14.2,10c0,1,0.8,1.8,1.8,1.8c1,0,1.8-0.8,1.8-1.8S17,8.2,16,8.2C15,8.2,14.2,9,14.2,10
				L14.2,10z"/>
		</g>
	</g>
</g>
</svg>
