<?xml version="1.0" encoding="utf-8"?>
<!-- Generator: Adobe Illustrator 18.0.0, SVG Export Plug-In . SVG Version: 6.00 Build 0)  -->
<!DOCTYPE svg PUBLIC "-//W3C//DTD SVG 1.1//EN" "http://www.w3.org/Graphics/SVG/1.1/DTD/svg11.dtd">
<svg version="1.1" id="Layer_1" xmlns="http://www.w3.org/2000/svg" xmlns:xlink="http://www.w3.org/1999/xlink" x="0px" y="0px"
	 viewBox="0 0 192 512" enable-background="new 0 0 192 512" xml:space="preserve">
<title>wo-august-2-bills-desktop</title>
<desc>Created with Sketch.</desc>
<g id="Home">
	<g id="wo-august-2-bills-desktop">
		<g id="A">
			<path d="M67.9,57h8.3L63.5,23h-8.8L41.9,57h8l2.4-6.9h13.2L67.9,57z M59,31.4L63,43.2h-8.3L59,31.4z"/>
		</g>
		<g id="B">
			<path fill="#9B9B9B" d="M47.9,84v34h13.7c6.4,0,10.7-4.1,10.7-9.6c0-4.4-3-7.2-6-8c2.8-0.9,5-3.8,5-7.3c0-5.2-3.9-9.1-10.6-9.1
				H47.9z M55.3,97.6v-7.3h4c3,0,4.5,1.4,4.5,3.6c0,2.3-1.7,3.7-4.4,3.7H55.3z M55.3,111.8v-8H60c3,0,4.7,1.6,4.7,4
				c0,2.4-1.8,4-4.7,4H55.3z"/>
		</g>
		<g id="C">
			<path fill="#9B9B9B" d="M133.9,57.7c10.6,0,15.1-7.2,16.2-11.9l-7.2-2.1c-0.7,2.4-3,6.4-8.9,6.4c-5.1,0-9.8-3.7-9.8-10.1
				c0-7.2,5.1-10.4,9.7-10.4c6,0,8.2,4,8.7,6.3l7.2-2.3c-1.1-4.9-5.6-11.5-15.8-11.5c-9.5,0-17.6,7.2-17.6,17.8
				S124.1,57.7,133.9,57.7L133.9,57.7z"/>
		</g>
		<g id="D">
			<path fill="#9B9B9B" d="M127.4,110.8V91.1h4.4c5.2,0,9.5,3.1,9.5,9.9c0,6.8-4.3,9.8-9.5,9.8H127.4z M132.1,118
				c10.3,0,17.1-6.5,17.1-17s-6.9-17-17.1-17h-12.3v34H132.1z"/>
		</g>
		<g id="Combined-Shape">
			<path fill="#FFFFFF" d="M85.8,72.4l4.3-2.5L76.1,59.5L78,76.9l4.3-2.5l5,8.7l3.5-2L85.8,72.4z"/>
			<path d="M87.3,84c-0.3,0-0.7-0.2-0.9-0.5L82,75.7l-3.5,2c-0.3,0.2-0.6,0.2-1,0C77.2,77.6,77,77.3,77,77l-1.9-17.4
				c0-0.4,0.1-0.8,0.5-1c0.3-0.2,0.8-0.2,1.1,0.1l14.1,10.4c0.3,0.2,0.4,0.5,0.4,0.9c0,0.3-0.2,0.6-0.5,0.8l-3.5,2l4.5,7.8
				c0.1,0.2,0.2,0.5,0.1,0.8c-0.1,0.3-0.2,0.5-0.5,0.6l-3.5,2C87.7,84,87.5,84,87.3,84z M82.3,73.4c0.3,0,0.7,0.2,0.9,0.5l4.5,7.8
				l1.7-1l-4.5-7.8c-0.3-0.5-0.1-1.1,0.4-1.4l3-1.7l-11-8.1l1.5,13.6l3-1.7C82,73.4,82.2,73.4,82.3,73.4z"/>
		</g>
		<g id="Oval-17">
			<path fill="#FFFFFF" d="M58,213.8c8.3,0,15.6-4.6,19.3-11.5c0.2,0-14.1-10.5-14.1-10.5s14.3-10.1,14.3-10.1
				c-3.7-7.1-11-11.9-19.5-11.9c-12.2,0-22,9.8-22,22C36,204,45.8,213.8,58,213.8z"/>
			<path d="M58,215.8c-13.2,0-24-10.8-24-24s10.8-24,24-24c9,0,17.2,5,21.3,13c0.5,0.9,0.2,2-0.6,2.6l-12,8.5c1.3,1,3.1,2.3,4.8,3.6
				c8.2,6.1,8.2,6.1,7.8,7.5c0,0.1-0.1,0.3-0.2,0.4C74.8,211.1,66.8,215.8,58,215.8z M58,171.8c-11,0-20,9-20,20s9,20,20,20
				c6.8,0,13-3.4,16.7-9c-2.6-2-8.7-6.4-12.7-9.4c-0.5-0.4-0.8-1-0.8-1.6s0.3-1.2,0.8-1.6l12.8-9.1C71.2,175.4,64.9,171.8,58,171.8z
				"/>
		</g>
		<g id="Oval-17_1_">
			<path fill="#FFFFFF" d="M141.2,206.5c-5.6,0-10.5-3.1-13-7.7c-0.1,0,9.5-7.1,9.5-7.1l-9.6-6.8c2.5-4.8,7.4-8,13.2-8
				c8.2,0,14.8,6.6,14.8,14.8S149.4,206.5,141.2,206.5z"/>
			<path fill="#9B9B9B" d="M141.2,208.5c-6.2,0-11.8-3.4-14.8-8.8c-0.1-0.1-0.1-0.2-0.1-0.3c-0.5-1.4-0.5-1.4,5.5-5.8
				c0.9-0.7,1.8-1.3,2.5-1.9l-7.4-5.2c-0.8-0.6-1.1-1.7-0.6-2.6c2.9-5.6,8.6-9.1,14.9-9.1c9.3,0,16.8,7.5,16.8,16.8
				C158,200.9,150.5,208.5,141.2,208.5z M130.8,199.2c2.4,3.3,6.2,5.3,10.4,5.3c7.1,0,12.8-5.8,12.8-12.8c0-7.1-5.8-12.8-12.8-12.8
				c-4.2,0-8.1,2.1-10.5,5.4l8.1,5.7c0.5,0.4,0.8,1,0.8,1.6s-0.3,1.2-0.8,1.6C136.4,195.1,132.7,197.8,130.8,199.2z"/>
		</g>
		<g id="Oval-17_2_">
			<path fill="#FFFFFF" d="M117.7,145.7c0,5.6-3.1,10.5-7.7,13c0,0.1-7.1-9.5-7.1-9.5l-6.8,9.6c-4.8-2.5-8-7.4-8-13.2
				c0-8.2,6.6-14.8,14.8-14.8C111,130.8,117.7,137.5,117.7,145.7z"/>
			<path fill="#9B9B9B" d="M96,160.8c-0.3,0-0.6-0.1-0.9-0.2c-5.6-2.9-9.1-8.6-9.1-14.9c0-9.3,7.5-16.8,16.8-16.8
				c9.3,0,16.8,7.5,16.8,16.8c0,6.2-3.4,11.8-8.8,14.8c-0.3,0.2-0.6,0.2-0.9,0.2c-1.1,0-1.1,0-7.1-8.1l-5.2,7.4
				C97.3,160.5,96.6,160.8,96,160.8z M102.8,132.8c-7.1,0-12.8,5.8-12.8,12.8c0,4.2,2.1,8.1,5.4,10.5l5.7-8.1c0.4-0.5,1-0.8,1.6-0.8
				c0.7,0,1.2,0.3,1.6,0.8c1.8,2.5,4.5,6.1,5.9,8c3.3-2.4,5.3-6.2,5.3-10.4C115.7,138.6,109.9,132.8,102.8,132.8z"/>
		</g>
		<g id="Oval-17_3_">
			<path fill="#FFFFFF" d="M88,238c0-5.6,3.1-10.5,7.7-13c0-0.1,7.1,9.5,7.1,9.5l6.8-9.6c4.8,2.5,8,7.4,8,13.2
				c0,8.2-6.6,14.8-14.8,14.8C94.6,252.8,88,246.2,88,238z"/>
			<path fill="#9B9B9B" d="M102.8,254.8c-9.3,0-16.8-7.5-16.8-16.8c0-6.2,3.4-11.8,8.8-14.8c0.3-0.2,0.6-0.2,0.9-0.2
				c1,0,1.1,0,7.1,8.1l5.2-7.4c0.6-0.8,1.7-1.1,2.6-0.6c5.6,2.9,9.1,8.6,9.1,14.9C119.7,247.3,112.1,254.8,102.8,254.8z M95.3,227.6
				C92,230,90,233.9,90,238c0,7.1,5.8,12.8,12.8,12.8s12.8-5.8,12.8-12.8c0-4.2-2.1-8.1-5.4-10.5l-5.7,8.1c-0.4,0.5-1,0.8-1.6,0.8
				c-0.6,0-1.2-0.3-1.6-0.8C99.4,233.2,96.7,229.6,95.3,227.6z"/>
		</g>
		<g id="Wave" transform="translate(93.000000, 174.829003)">
			<g id="Oval-18">
				<path d="M0.2,26.4c-0.7,0-1.4-0.4-1.7-1c-0.6-1-0.2-2.2,0.7-2.7c2-1.2,3.2-3.3,3.2-5.6c0-2.3-1.2-4.4-3.2-5.6
					C-1.7,10.9-2,9.7-1.4,8.8s1.8-1.3,2.7-0.7c3.2,1.9,5.1,5.3,5.1,9c0,3.7-2,7.2-5.2,9.1C0.9,26.3,0.6,26.4,0.2,26.4z"/>
			</g>
			<g id="Oval-18_1_">
				<path d="M4.8,35.2c-0.7,0-1.4-0.4-1.7-1c-0.6-1-0.2-2.2,0.7-2.7c5.2-3.1,8.5-8.7,8.5-14.8C12.2,10.7,9,5,3.9,2
					C2.9,1.4,2.6,0.2,3.2-0.8C3.7-1.7,5-2,5.9-1.5c6.4,3.8,10.3,10.8,10.3,18.2c0,7.5-4,14.5-10.5,18.3C5.5,35.1,5.1,35.2,4.8,35.2z
					"/>
			</g>
		</g>
		<g id="Decoration" transform="translate(135.000000, 306.000000)" opacity="0.5">
			<g id="Rectangle-26">
				<g opacity="0.25">
					<polygon fill="#50E3C2" points="9,35 27,35 27,53 18,44 9,53 					"/>
				</g>
				<g>
					<path fill="#50E3C2" d="M27,55c-0.5,0-1-0.2-1.4-0.6L18,46.8l-7.6,7.6C9.8,55,9,55.2,8.2,54.8C7.5,54.5,7,53.8,7,53V35
						c0-1.1,0.9-2,2-2h18c1.1,0,2,0.9,2,2v18c0,0.8-0.5,1.5-1.2,1.8C27.5,55,27.3,55,27,55z M18,42c0.5,0,1,0.2,1.4,0.6l5.6,5.6V37
						H11v11.2l5.6-5.6C17,42.2,17.5,42,18,42z"/>
				</g>
			</g>
			<g id="Oval-16">
				<circle fill="#FFFFFF" cx="18" cy="18" r="18"/>
				<path d="M18,38C7,38-2,29-2,18S7-2,18-2s20,9,20,20S29,38,18,38z M18,2C9.2,2,2,9.2,2,18s7.2,16,16,16s16-7.2,16-16S26.8,2,18,2
					z"/>
			</g>
		</g>
		<g id="Decoration_1_" transform="translate(21.000000, 306.000000)" opacity="0.5">
			<g id="Rectangle-26_1_">
				<g opacity="0.25">
					<polygon fill="#50E3C2" points="9,35 27,35 27,53 18,44 9,53 					"/>
				</g>
				<g>
					<path fill="#50E3C2" d="M27,55c-0.5,0-1-0.2-1.4-0.6L18,46.8l-7.6,7.6C9.8,55,9,55.2,8.2,54.8C7.5,54.5,7,53.8,7,53V35
						c0-1.1,0.9-2,2-2h18c1.1,0,2,0.9,2,2v18c0,0.8-0.5,1.5-1.2,1.8C27.5,55,27.3,55,27,55z M18,42c0.5,0,1,0.2,1.4,0.6l5.6,5.6V37
						H11v11.2l5.6-5.6C17,42.2,17.5,42,18,42z"/>
				</g>
			</g>
			<g id="Oval-16_1_">
				<circle fill="#FFFFFF" cx="18" cy="18" r="18"/>
				<path d="M18,38C7,38-2,29-2,18S7-2,18-2s20,9,20,20S29,38,18,38z M18,2C9.2,2,2,9.2,2,18s7.2,16,16,16s16-7.2,16-16S26.8,2,18,2
					z"/>
			</g>
		</g>
		<g id="Decoration_2_" transform="translate(78.000000, 306.000000)">
			<g id="Rectangle-26_2_">
				<g opacity="0.25">
					<polygon fill="#50E3C2" points="9,35 27,35 27,53 18,44 9,53 					"/>
				</g>
				<g>
					<path fill="#50E3C2" d="M27,55c-0.5,0-1-0.2-1.4-0.6L18,46.8l-7.6,7.6C9.8,55,9,55.2,8.2,54.8C7.5,54.5,7,53.8,7,53V35
						c0-1.1,0.9-2,2-2h18c1.1,0,2,0.9,2,2v18c0,0.8-0.5,1.5-1.2,1.8C27.5,55,27.3,55,27,55z M18,42c0.5,0,1,0.2,1.4,0.6l5.6,5.6V37
						H11v11.2l5.6-5.6C17,42.2,17.5,42,18,42z"/>
				</g>
			</g>
			<g id="Oval-16_2_">
				<circle fill="#FFFFFF" cx="18" cy="18" r="18"/>
				<path d="M18,38C7,38-2,29-2,18S7-2,18-2c11,0,20,9,20,20S29,38,18,38z M18,2C9.2,2,2,9.2,2,18s7.2,16,16,16s16-7.2,16-16
					S26.8,2,18,2z"/>
			</g>
		</g>
		<g id="Page-1" transform="translate(86.000000, 311.000000)">
			<g id="Fill-1">
				<polygon points="8.2,0 5.6,4.4 8.1,6.1 11.1,1.8 				"/>
			</g>
			<g id="Fill-2">
				<polygon points="11.8,2.6 9.1,6.8 11.3,8.3 14.4,4.7 				"/>
			</g>
			<g id="Fill-3">
				<polygon points="15.1,5.5 11,11.2 12.7,12.5 17.3,7.6 				"/>
			</g>
			<g id="Fill-4">
				<polygon points="13.7,13.1 15.3,14.7 19.8,11 17.9,8.7 				"/>
			</g>
			<g id="Fill-5">
				<polygon points="0,11 6.1,20.5 4.9,29 10.5,29 11.2,20.7 10.8,20.7 10.8,20 11.5,19.4 7.7,11.7 4.7,10.7 4.9,10.3 6.1,10.5
					6.3,10.2 5.4,8.8 5.7,8.5 7.6,10.7 10.2,10.6 11,9.1 4.3,4.8 				"/>
			</g>
			<g id="Fill-6">
				<polygon points="8.8,12 13.1,20 13.1,20.7 12.3,20.7 11.5,29 15.4,28.9 15.4,21.3 18.1,18.9 18.5,13.5 15.1,15.9 12.8,13.4
					9.1,11.8 				"/>
			</g>
		</g>
		<g id="Lock" transform="translate(80.000000, 422.000000)">
			<g id="Rectangle-23">
				<path d="M34,59H0c-1.1,0-2-0.9-2-2V23c0-1.1,0.9-2,2-2h34c1.1,0,2,0.9,2,2v34C36,58.1,35.1,59,34,59z M2,55h30V25H2V55z"/>
			</g>
			<g id="Oval-8">
				<path d="M28,15c-2.2,0-4-1.8-4-4c0-3.9-3.1-7-7-7c-3.9,0-7,3.1-7,7c0,2.2-1.8,4-4,4s-4-1.8-4-4C2,2.7,8.7-4,17-4
					c8.3,0,15,6.7,15,15C32,13.2,30.2,15,28,15z"/>
			</g>
			<g id="Line">
				<path d="M6,25c-2.2,0-4-1.8-4-4V11c0-2.2,1.8-4,4-4s4,1.8,4,4v10C10,23.2,8.2,25,6,25z"/>
			</g>
			<g id="Oval-9">
				<circle cx="17.5" cy="37.5" r="5.5"/>
			</g>
			<g id="Line_1_">
				<path d="M17.5,49.6c-1.4,0-2.5-1.1-2.5-2.5V38c0-1.4,1.1-2.5,2.5-2.5S20,36.6,20,38v9.1C20,48.4,18.9,49.6,17.5,49.6z"/>
			</g>
		</g>
		<g id="Dialog-to-the-Right" transform="translate(3.000000, 387.000000)" opacity="0.25">
			<g id="Combined-Shape_1_">
				<path fill="#9B9B9B" d="M6,35.8c-0.3,0-0.5-0.1-0.8-0.2c-0.7-0.3-1.2-1-1.2-1.8V26H0c-1.1,0-2-0.9-2-2V0c0-1.1,0.9-2,2-2h36
					c1.1,0,2,0.9,2,2v24c0,1.1-0.9,2-2,2H16.8l-9.4,9.2C7,35.6,6.5,35.8,6,35.8z M2,22h4c1.1,0,2,0.9,2,2v5l6.6-6.4
					C15,22.2,15.5,22,16,22h18V2H2V22z"/>
			</g>
			<g id="Line_2_">
				<path fill="#9B9B9B" d="M29,7H7C6.4,7,6,6.6,6,6s0.4-1,1-1h22c0.6,0,1,0.4,1,1S29.6,7,29,7z"/>
			</g>
			<g id="Line_3_">
				<path fill="#9B9B9B" d="M29,13H7c-0.6,0-1-0.4-1-1s0.4-1,1-1h22c0.6,0,1,0.4,1,1S29.6,13,29,13z"/>
			</g>
			<g id="Line_4_">
				<path fill="#9B9B9B" d="M29,19H7c-0.6,0-1-0.4-1-1s0.4-1,1-1h22c0.6,0,1,0.4,1,1S29.6,19,29,19z"/>
			</g>
		</g>
		<g id="Dialog-to-the-Left" transform="translate(24.000000, 419.000000)" opacity="0.25">
			<g id="Combined-Shape_2_">
				<path fill="#9B9B9B" d="M30,35.8c-0.5,0-1-0.2-1.4-0.6L19.2,26H0c-1.1,0-2-0.9-2-2V0c0-1.1,0.9-2,2-2h36c1.1,0,2,0.9,2,2v24
					c0,1.1-0.9,2-2,2h-4v7.8c0,0.8-0.5,1.5-1.2,1.8C30.5,35.7,30.3,35.8,30,35.8z M2,22h18c0.5,0,1,0.2,1.4,0.6L28,29v-5
					c0-1.1,0.9-2,2-2h4V2H2V22z"/>
			</g>
			<g id="Line_5_">
				<path fill="#9B9B9B" d="M29,7H7C6.4,7,6,6.6,6,6s0.4-1,1-1h22c0.6,0,1,0.4,1,1S29.6,7,29,7z"/>
			</g>
			<g id="Line_6_">
				<path fill="#9B9B9B" d="M29,13H7c-0.6,0-1-0.4-1-1s0.4-1,1-1h22c0.6,0,1,0.4,1,1S29.6,13,29,13z"/>
			</g>
			<g id="Line_7_">
				<path fill="#9B9B9B" d="M29,19H7c-0.6,0-1-0.4-1-1s0.4-1,1-1h22c0.6,0,1,0.4,1,1S29.6,19,29,19z"/>
			</g>
		</g>
		<g id="Networked-Deliberation" transform="translate(128.000000, 388.000000)" opacity="0.25">
			<g id="Oval-10">
				<path fill="#9B9B9B" d="M39,31c-4.4,0-8-3.6-8-8s3.6-8,8-8s8,3.6,8,8S43.4,31,39,31z M39,19c-2.2,0-4,1.8-4,4s1.8,4,4,4
					s4-1.8,4-4S41.2,19,39,19z"/>
			</g>
			<g id="Oval-11">
				<path fill="#9B9B9B" d="M57,10c-3.3,0-6-2.7-6-6s2.7-6,6-6s6,2.7,6,6S60.3,10,57,10z M57,2c-1.1,0-2,0.9-2,2s0.9,2,2,2
					s2-0.9,2-2S58.1,2,57,2z"/>
			</g>
			<g id="Oval-12">
				<path fill="#9B9B9B" d="M48,52c-3.3,0-6-2.7-6-6s2.7-6,6-6s6,2.7,6,6S51.3,52,48,52z M48,44c-1.1,0-2,0.9-2,2s0.9,2,2,2
					s2-0.9,2-2S49.1,44,48,44z"/>
			</g>
			<g id="Oval-13">
				<path fill="#9B9B9B" d="M8,24C2.5,24-2,19.5-2,14S2.5,4,8,4s10,4.5,10,10S13.5,24,8,24z M8,8c-3.3,0-6,2.7-6,6s2.7,6,6,6
					s6-2.7,6-6S11.3,8,8,8z"/>
			</g>
			<g id="Line_8_">

					<rect x="14.6" y="17.5" transform="matrix(0.9594 0.2822 -0.2822 0.9594 6.216 -6.1616)" fill="#9B9B9B" width="19.7" height="2"/>
			</g>
			<g id="Line_9_">

					<rect x="47.5" y="5.3" transform="matrix(0.7432 0.669 -0.669 0.7432 21.1498 -29.1096)" fill="#9B9B9B" width="2" height="15.5"/>
			</g>
			<g id="Line_10_">
				<rect x="36" y="34" transform="matrix(0.3846 0.9231 -0.9231 0.3846 59.0753 -18.6159)" fill="#9B9B9B" width="15" height="2"/>
			</g>
		</g>
		<g id="Coin" transform="translate(18.000000, 483.000000)" opacity="0.25">
			<g id="Oval-14">
				<path fill="#9B9B9B" d="M13.5,29C5,29-2,22-2,13.5S5-2,13.5-2S29,5,29,13.5S22,29,13.5,29z M13.5,2C7.2,2,2,7.2,2,13.5
					S7.2,25,13.5,25S25,19.8,25,13.5S19.8,2,13.5,2z"/>
			</g>
			<g enable-background="new    ">
				<path fill="#9B9B9B" d="M18.5,9.1h2L17.7,19h-2l-2.3-7.1L11.2,19h-2L6.4,9.1h2l1.8,6.8l2.2-6.8h2l2.2,6.9L18.5,9.1z"/>
			</g>
			<g id="Line_11_">
				<rect x="4" y="11" fill="#9B9B9B" width="19" height="2"/>
			</g>
			<g id="Line_12_">
				<rect x="4" y="15" fill="#9B9B9B" width="19" height="2"/>
			</g>
		</g>
		<g id="Hierarchy" transform="translate(141.000000, 474.000000)" opacity="0.25">
			<g id="Rectangle-24">
				<path fill="#9B9B9B" d="M28,16H14c-1.1,0-2-0.9-2-2V0c0-1.1,0.9-2,2-2h14c1.1,0,2,0.9,2,2v14C30,15.1,29.1,16,28,16z M16,12h10
					V2H16V12z"/>
			</g>
			<g id="Rectangle-24_1_">
				<path fill="#9B9B9B" d="M14,38H0c-1.1,0-2-0.9-2-2V22c0-1.1,0.9-2,2-2h14c1.1,0,2,0.9,2,2v14C16,37.1,15.1,38,14,38z M2,34h10
					V24H2V34z"/>
			</g>
			<g id="Rectangle-24_2_">
				<path fill="#9B9B9B" d="M42,38H28c-1.1,0-2-0.9-2-2V22c0-1.1,0.9-2,2-2h14c1.1,0,2,0.9,2,2v14C44,37.1,43.1,38,42,38z M30,34h10
					V24H30V34z"/>
			</g>
			<g id="Line_13_">

					<rect x="9.5" y="11.5" transform="matrix(0.7071 0.7071 -0.7071 0.7071 15.4645 -2.2633)" fill="#9B9B9B" width="2" height="12"/>
			</g>
			<g id="Line_14_">

					<rect x="25.5" y="16.5" transform="matrix(0.7071 0.7071 -0.7071 0.7071 21.6362 -17.163)" fill="#9B9B9B" width="12" height="2"/>
			</g>
		</g>
	</g>
</g>
</svg>
