<?xml version="1.0" encoding="utf-8"?>
<!-- Generator: Adobe Illustrator 18.0.0, SVG Export Plug-In . SVG Version: 6.00 Build 0)  -->
<!DOCTYPE svg PUBLIC "-//W3C//DTD SVG 1.1//EN" "http://www.w3.org/Graphics/SVG/1.1/DTD/svg11.dtd">
<svg version="1.1" id="Layer_1" xmlns="http://www.w3.org/2000/svg" xmlns:xlink="http://www.w3.org/1999/xlink" x="0px" y="0px"
	 viewBox="0 0 284 572" enable-background="new 0 0 284 572" xml:space="preserve">
<title>wo-august-2-purchases</title>
<desc>Created with Sketch.</desc>
<g id="Home">
	<g id="wo-august-2-purchases">
		<g id="Bracelet" transform="translate(50.000000, 87.000000)" opacity="0.12">
			<g id="Line">
				<path d="M19.4,11.8c-0.6,0-1-0.4-1-1V5.8c0-0.6,0.4-1,1-1s1,0.4,1,1v5.1C20.4,11.4,20,11.8,19.4,11.8z"/>
			</g>
			<g id="Line_1_">
				<path d="M0.6,11.8c-0.6,0-1-0.4-1-1V5.8c0-0.6,0.4-1,1-1s1,0.4,1,1v5.1C1.6,11.4,1.1,11.8,0.6,11.8z"/>
			</g>
			<g id="Oval-6">
				<path d="M10,17.4c-5.9,0-10.4-2.9-10.4-6.6c0-0.6,0.4-1,1-1s1,0.4,1,1c0,2.5,3.9,4.6,8.4,4.6s8.4-2.1,8.4-4.6c0-0.6,0.4-1,1-1
					s1,0.4,1,1C20.4,14.5,15.9,17.4,10,17.4z"/>
			</g>
			<g id="Oval-6_1_">
				<path d="M19.4,11.1c-0.6,0-1-0.4-1-1c0-2.5-3.9-4.6-8.4-4.6s-8.4,2.1-8.4,4.6c0,0.6-0.4,1-1,1s-1-0.4-1-1
					c0-3.7,4.6-6.6,10.4-6.6s10.4,2.9,10.4,6.6C20.4,10.7,20,11.1,19.4,11.1z"/>
			</g>
			<g id="Oval-6_2_">
				<path d="M10,13.3c-5.9,0-10.4-3.1-10.4-7c0-3.9,4.6-7,10.4-7s10.4,3.1,10.4,7C20.4,10.2,15.9,13.3,10,13.3z M10,1.4
					c-4.6,0-8.4,2.3-8.4,5c0,2.7,3.9,5,8.4,5s8.4-2.3,8.4-5C18.4,3.6,14.6,1.4,10,1.4z"/>
			</g>
		</g>
		<g id="Towel" opacity="0.12" enable-background="new    ">
			<path d="M225,105h-26c-1.1,0-2-0.9-2-2V4c0-1.1,0.9-2,2-2h26c1.1,0,2,0.9,2,2v99C227,104.1,226.1,105,225,105z M201,101h22V6h-22
				V101z"/>
		</g>
		<g id="Figure" opacity="0.12" enable-background="new    ">
			<path d="M252.9,102.5c-0.9,0-1.6-0.3-2-0.8c-0.5-0.6-0.5-1.2-0.5-1.4c0-1,0.7-1.3,1-1.5c0.1,0,0.2-0.1,0.2-0.1
				c0.2-0.2,0.2-1.9,0.2-2.6c0-2.2-1.3-4.4-1.7-5.1c-0.1-0.2-0.3-0.4-0.4-0.5c-0.6-0.7-1.3-1.6-1.7-3.8c-1.1-0.2-2.4-0.8-3.5-2.1
				c-2.6-3-0.9-7,0.4-9.9l0.1-0.2c0.8-1.8,2.6-4.2,4-6c-1.1-0.4-2-1-3-1.8c-3.1-2.7-3.8-6.4-2.1-11.1c0.6-1.6,1.7-3.4,3-5
				c-0.7-0.4-1.4-0.9-2-1.6c-1.6-2.2-0.2-5.3-0.1-5.4c0.2-0.5,0.8-0.7,1.3-0.5l6.3,2.9c1.7-0.9,3.4-1.3,5.1-1.3l0.8,0
				c1.4,0,3.5,0.1,5.5,1.2l3.4-2.1c0.2-0.1,0.5-0.2,0.8-0.1c0.3,0.1,0.5,0.2,0.6,0.4c0.1,0.2,1.3,2.1,0.8,4c-0.2,0.7-0.6,1.3-1.2,2
				c1.8,3,2.2,6.2,2,8.9l2.3-3c0.1-0.3,0.5-1.1,1.1-2c0.6-0.9,1.4-1.4,1.9-1.6c1-2.6,1.3-2.9,1.5-3c0.6-0.4,1.6-0.2,2.1,0.5
				c0.4,0.5,0.5,1.2,0.3,1.8c-0.1,0.4-0.5,1.2-0.8,1.8c0.8,0.6,1.5,1.4,1.5,2.7c0,1.7-1.5,2.8-2.2,3.2c-0.4,1.1-1.6,4.5-2.8,7.1
				c-1.2,2.6-3.1,6.5-3.7,7.6c0.2,1.3,0.9,6,1,12c0.8,0.3,1.5,0.9,1.8,2c0.4,1.7-1,2.8-2,3.3c-0.5,5.3-1.7,9.3-1.8,9.5
				c-0.1,0.3-0.3,0.5-0.6,0.6c-0.1,0-1.3,0.6-3.7,0.9c-0.4,0.1-0.7,0.1-1,0.1c-1.2,0-1.8-0.5-2.1-0.9c-0.4-0.5-0.4-1.2-0.2-1.9
				c0.3-0.8,0.9-1,1.2-1.1c0-0.5-0.1-1.6-0.6-3.2c-0.3-1.1-0.8-2-1.1-2.5c-0.9,0.2-2.7,0.4-3.8,0.2c0.1,0.9,0.2,2,0.2,2.9
				c0,1.9-0.7,4.3-0.7,4.4c0,0.1-0.1,0.2-0.1,0.2c-0.2,0.3-0.9,1.2-3.7,1.8C253.8,102.4,253.3,102.5,252.9,102.5z M252.5,100.5
				c0.2,0,0.8,0,1.4-0.1c1.5-0.3,2.1-0.7,2.3-0.8c0.2-0.6,0.6-2.3,0.6-3.6c0-1.7-0.4-4.2-0.4-4.2c-0.1-0.4,0.1-0.7,0.4-1
				c0.3-0.2,0.7-0.3,1-0.1c0,0,1,0.4,2.1,0.4c1,0,2.2-0.3,2.6-0.4c0.4-0.1,0.8,0,1.1,0.3c0.1,0.1,1.2,1.6,1.9,3.7
				c1.2,4.2,0.4,4.9,0.2,5.2c-0.2,0.2-0.4,0.3-0.6,0.4c0.2,0,0.5,0,0.9-0.1c1.3-0.2,2.3-0.5,2.8-0.7c0.4-1.3,1.3-5.2,1.7-9.7
				c0-0.4,0.3-0.8,0.8-0.9c0.3-0.1,0.5,0,0.8,0.1c0.3-0.2,0.5-0.4,0.4-0.8c0-0.2-0.1-0.6-0.8-0.6c-0.6,0-1-0.4-1-1
				c0-7.1-1-12.7-1-12.8c0-0.2,0-0.4,0.1-0.6c0,0,2.4-4.8,3.8-7.8c1.3-3,2.8-7.2,2.8-7.3c0.1-0.2,0.3-0.4,0.5-0.6
				c0.4-0.2,1.4-0.9,1.4-1.7c0-0.8-1.2-1.3-1.2-1.3c-0.2-0.1-0.4-0.3-0.5-0.5c0,0,0,0,0,0c0,0-0.7,0.1-1.1,0.7c-0.6,1-1,1.9-1,1.9
				c0,0.1-0.1,0.1-0.1,0.2l-6,7.7c-0.2,0.2-0.4,0.3-0.6,0.4l-0.3,0.1c-0.4,0.1-0.9-0.1-1.1-0.5c-0.2-0.4-0.1-0.9,0.2-1.2
				c0.9-0.9,1.3-1.8,1.4-2.4c0.3-1,1.6-6-1.6-10.8c-0.3-0.4-0.2-1,0.2-1.3c0.9-0.8,1.2-1.3,1.2-1.5c0.1-0.5,0-1.1-0.1-1.6l-2.9,1.8
				c-0.3,0.2-0.7,0.2-1,0c-1.8-1.1-3.7-1.2-5.1-1.2l-0.8,0c-1.5,0-3.1,0.4-4.6,1.3c-0.3,0.2-0.6,0.2-0.9,0l-5.8-2.6
				c-0.2,0.8-0.3,1.8,0.2,2.5c0.6,0.8,1.6,1.2,2.3,1.4c0.3,0.1,0.6,0.4,0.7,0.7c0.1,0.3,0,0.7-0.2,0.9c-1.6,1.7-2.9,3.7-3.5,5.4
				c-1.4,3.9-0.9,6.7,1.6,8.9c1.1,0.9,2.2,1.5,3.6,1.7c0.4,0.1,0.6,0.3,0.8,0.6s0.1,0.7-0.2,1c-1.1,1.3-3.8,4.7-4.7,6.7l-0.1,0.2
				c-1.2,2.7-2.5,5.8-0.7,7.9c0.8,0.9,1.8,1.4,2.9,1.5c0.5,0,0.9,0.4,0.9,0.9c0.2,2.2,0.7,2.9,1.3,3.5c0.2,0.2,0.4,0.5,0.6,0.7
				c0.6,1,2.1,3.5,2.1,6.2c0,2.3-0.1,3.3-0.8,4C252.8,100.3,252.7,100.4,252.5,100.5z"/>
		</g>
		<g id="Magnets" transform="translate(122.000000, 91.000000)">
			<g id="Oval-4">
				<path fill="#50E3C2" d="M4.5,10C1.5,10-1,7.5-1,4.5S1.5-1,4.5-1S10,1.5,10,4.5S7.5,10,4.5,10z M4.5,1C2.6,1,1,2.6,1,4.5
					S2.6,8,4.5,8S8,6.4,8,4.5S6.4,1,4.5,1z"/>
			</g>
			<g id="Oval-4_1_">
				<path fill="#50E3C2" d="M36.5,10c-3,0-5.5-2.5-5.5-5.5S33.5-1,36.5-1S42,1.5,42,4.5S39.5,10,36.5,10z M36.5,1
					C34.6,1,33,2.6,33,4.5S34.6,8,36.5,8S40,6.4,40,4.5S38.4,1,36.5,1z"/>
			</g>
			<g id="Oval-4_2_">
				<path fill="#50E3C2" d="M20.5,10c-3,0-5.5-2.5-5.5-5.5S17.5-1,20.5-1c3,0,5.5,2.5,5.5,5.5S23.5,10,20.5,10z M20.5,1
					C18.6,1,17,2.6,17,4.5S18.6,8,20.5,8C22.4,8,24,6.4,24,4.5S22.4,1,20.5,1z"/>
			</g>
		</g>
		<g id="T-shirt" transform="translate(104.000000, 9.000000)" opacity="0.12">
			<g id="Combined-Shape">
				<path d="M60.6,65H16.4c-1.1,0-2-0.9-2-2V28.1L13,29.5c-0.8,0.8-2,0.8-2.8,0L-1.4,17.9c-0.8-0.8-0.8-2,0-2.8L14.5-0.8
					c0.3-0.7,1-1.2,1.8-1.2h44.3c0.8,0,1.4,0.4,1.8,1.1l16,16c0.4,0.4,0.6,0.9,0.6,1.4s-0.2,1-0.6,1.4L66.8,29.5
					c-0.8,0.8-2,0.8-2.8,0l-1.4-1.4V63C62.6,64.1,61.7,65,60.6,65z M18.4,61h40.3V23.2c0-0.8,0.5-1.5,1.2-1.8
					c0.7-0.3,1.6-0.1,2.2,0.4l3.4,3.4l8.7-8.7L59.7,2H17.4L2.9,16.5l8.7,8.7l3.4-3.4c0.6-0.6,1.4-0.7,2.2-0.4c0.7,0.3,1.2,1,1.2,1.8
					V61z"/>
			</g>
			<g id="Oval-5">
				<path d="M39.7,11.5c-6.3,0-11.5-5.2-11.5-11.5c0-0.6,0.4-1,1-1h21c0.6,0,1,0.4,1,1C51.1,6.4,46,11.5,39.7,11.5z M30.2,1
					c0.5,4.8,4.5,8.5,9.4,8.5c4.9,0,8.9-3.7,9.4-8.5H30.2z"/>
			</g>
		</g>
		<g id="Keyring" transform="translate(255.000000, 6.000000)" opacity="0.12">
			<g id="Oval-4_3_">
				<path d="M4.5,10C1.5,10-1,7.5-1,4.5S1.5-1,4.5-1S10,1.5,10,4.5S7.5,10,4.5,10z M4.5,1C2.6,1,1,2.6,1,4.5S2.6,8,4.5,8
					S8,6.4,8,4.5S6.4,1,4.5,1z"/>
			</g>
			<g id="Oval-4_4_">
				<path d="M4.5,19C0.9,19-2,16.1-2,12.5S0.9,6,4.5,6S11,8.9,11,12.5S8.1,19,4.5,19z M4.5,10C3.1,10,2,11.1,2,12.5S3.1,15,4.5,15
					S7,13.9,7,12.5S5.9,10,4.5,10z"/>
			</g>
		</g>
		<g id="Bracelet_1_" transform="translate(50.000000, 195.000000)">
			<g id="Line_2_">
				<path fill="#F6A623" d="M19.4,11.8c-0.6,0-1-0.4-1-1V5.8c0-0.6,0.4-1,1-1s1,0.4,1,1v5.1C20.4,11.4,20,11.8,19.4,11.8z"/>
			</g>
			<g id="Line_3_">
				<path fill="#F6A623" d="M0.6,11.8c-0.6,0-1-0.4-1-1V5.8c0-0.6,0.4-1,1-1s1,0.4,1,1v5.1C1.6,11.4,1.1,11.8,0.6,11.8z"/>
			</g>
			<g id="Oval-6_3_">
				<path fill="#F6A623" d="M10,17.4c-5.9,0-10.4-2.9-10.4-6.6c0-0.6,0.4-1,1-1s1,0.4,1,1c0,2.5,3.9,4.6,8.4,4.6s8.4-2.1,8.4-4.6
					c0-0.6,0.4-1,1-1s1,0.4,1,1C20.4,14.5,15.9,17.4,10,17.4z"/>
			</g>
			<g id="Oval-6_4_">
				<path fill="#F6A623" d="M19.4,11.1c-0.6,0-1-0.4-1-1c0-2.5-3.9-4.6-8.4-4.6s-8.4,2.1-8.4,4.6c0,0.6-0.4,1-1,1s-1-0.4-1-1
					c0-3.7,4.6-6.6,10.4-6.6s10.4,2.9,10.4,6.6C20.4,10.7,20,11.1,19.4,11.1z"/>
			</g>
			<g id="Oval-6_5_">
				<path fill="#F6A623" d="M10,13.3c-5.9,0-10.4-3.1-10.4-7c0-3.9,4.6-7,10.4-7s10.4,3.1,10.4,7C20.4,10.2,15.9,13.3,10,13.3z
					 M10,1.4c-4.6,0-8.4,2.3-8.4,5c0,2.7,3.9,5,8.4,5s8.4-2.3,8.4-5C18.4,3.6,14.6,1.4,10,1.4z"/>
			</g>
		</g>
		<g id="Towel_1_">
			<path fill="#50E3C2" d="M225,213h-26c-1.1,0-2-0.9-2-2v-99c0-1.1,0.9-2,2-2h26c1.1,0,2,0.9,2,2v99C227,212.1,226.1,213,225,213z
				 M201,209h22v-95h-22V209z"/>
		</g>
		<g id="Figure_1_" opacity="0.12" enable-background="new    ">
			<path d="M252.9,210.5c-0.9,0-1.6-0.3-2-0.8c-0.5-0.6-0.5-1.2-0.5-1.4c0-1,0.7-1.3,1-1.5c0.1,0,0.2-0.1,0.2-0.1
				c0.2-0.2,0.2-1.9,0.2-2.6c0-2.2-1.3-4.4-1.7-5.1c-0.1-0.2-0.3-0.4-0.4-0.5c-0.6-0.7-1.3-1.6-1.7-3.8c-1.1-0.2-2.4-0.8-3.5-2.1
				c-2.6-3-0.9-7,0.4-9.9l0.1-0.2c0.8-1.8,2.6-4.2,4-6c-1.1-0.4-2-1-3-1.8c-3.1-2.7-3.8-6.4-2.1-11.1c0.6-1.6,1.7-3.4,3-5
				c-0.7-0.4-1.4-0.9-2-1.6c-1.6-2.2-0.2-5.3-0.1-5.4c0.2-0.5,0.8-0.7,1.3-0.5l6.3,2.9c1.7-0.9,3.4-1.3,5.1-1.3l0.8,0
				c1.4,0,3.5,0.1,5.5,1.2l3.4-2.1c0.2-0.1,0.5-0.2,0.8-0.1c0.3,0.1,0.5,0.2,0.6,0.4c0.1,0.2,1.3,2.1,0.8,4c-0.2,0.7-0.6,1.3-1.2,2
				c1.8,3,2.2,6.2,2,8.9l2.3-3c0.1-0.3,0.5-1.1,1.1-2c0.6-0.9,1.4-1.4,1.9-1.6c1-2.6,1.3-2.9,1.5-3c0.6-0.4,1.6-0.2,2.1,0.5
				c0.4,0.5,0.5,1.2,0.3,1.8c-0.1,0.4-0.5,1.2-0.8,1.8c0.8,0.6,1.5,1.4,1.5,2.7c0,1.7-1.5,2.8-2.2,3.2c-0.4,1.1-1.6,4.5-2.8,7.1
				c-1.2,2.6-3.1,6.5-3.7,7.6c0.2,1.3,0.9,6,1,12c0.8,0.3,1.5,0.9,1.8,2c0.4,1.7-1,2.8-2,3.3c-0.5,5.3-1.7,9.3-1.8,9.5
				c-0.1,0.3-0.3,0.5-0.6,0.6c-0.1,0-1.3,0.6-3.7,0.9c-0.4,0.1-0.7,0.1-1,0.1c-1.2,0-1.8-0.5-2.1-0.9c-0.4-0.5-0.4-1.2-0.2-1.9
				c0.3-0.8,0.9-1,1.2-1.1c0-0.5-0.1-1.6-0.6-3.2c-0.3-1.1-0.8-2-1.1-2.5c-0.9,0.2-2.7,0.4-3.8,0.2c0.1,0.9,0.2,2,0.2,2.9
				c0,1.9-0.7,4.3-0.7,4.4c0,0.1-0.1,0.2-0.1,0.2c-0.2,0.3-0.9,1.2-3.7,1.8C253.8,210.4,253.3,210.5,252.9,210.5z M252.5,208.5
				c0.2,0,0.8,0,1.4-0.1c1.5-0.3,2.1-0.7,2.3-0.8c0.2-0.6,0.6-2.3,0.6-3.6c0-1.7-0.4-4.2-0.4-4.2c-0.1-0.4,0.1-0.7,0.4-1
				c0.3-0.2,0.7-0.3,1-0.1c0,0,1,0.4,2.1,0.4c1,0,2.2-0.3,2.6-0.4c0.4-0.1,0.8,0,1.1,0.3c0.1,0.1,1.2,1.6,1.9,3.7
				c1.2,4.2,0.4,4.9,0.2,5.2c-0.2,0.2-0.4,0.3-0.6,0.4c0.2,0,0.5,0,0.9-0.1c1.3-0.2,2.3-0.5,2.8-0.7c0.4-1.3,1.3-5.2,1.7-9.7
				c0-0.4,0.3-0.8,0.8-0.9c0.3-0.1,0.5,0,0.8,0.1c0.3-0.2,0.5-0.4,0.4-0.8c0-0.2-0.1-0.6-0.8-0.6c-0.6,0-1-0.4-1-1
				c0-7.1-1-12.7-1-12.8c0-0.2,0-0.4,0.1-0.6c0,0,2.4-4.8,3.8-7.8c1.3-3,2.8-7.2,2.8-7.3c0.1-0.2,0.3-0.4,0.5-0.6
				c0.4-0.2,1.4-0.9,1.4-1.7c0-0.8-1.2-1.3-1.2-1.3c-0.2-0.1-0.4-0.3-0.5-0.5c0,0,0,0,0,0c0,0-0.7,0.1-1.1,0.7c-0.6,1-1,1.9-1,1.9
				c0,0.1-0.1,0.1-0.1,0.2l-6,7.7c-0.2,0.2-0.4,0.3-0.6,0.4l-0.3,0.1c-0.4,0.1-0.9-0.1-1.1-0.5c-0.2-0.4-0.1-0.9,0.2-1.2
				c0.9-0.9,1.3-1.8,1.4-2.4c0.3-1,1.6-6-1.6-10.8c-0.3-0.4-0.2-1,0.2-1.3c0.9-0.8,1.2-1.3,1.2-1.5c0.1-0.5,0-1.1-0.1-1.6l-2.9,1.8
				c-0.3,0.2-0.7,0.2-1,0c-1.8-1.1-3.7-1.2-5.1-1.2l-0.8,0c-1.5,0-3.1,0.4-4.6,1.3c-0.3,0.2-0.6,0.2-0.9,0l-5.8-2.6
				c-0.2,0.8-0.3,1.8,0.2,2.5c0.6,0.8,1.6,1.2,2.3,1.4c0.3,0.1,0.6,0.4,0.7,0.7c0.1,0.3,0,0.7-0.2,0.9c-1.6,1.7-2.9,3.7-3.5,5.4
				c-1.4,3.9-0.9,6.7,1.6,8.9c1.1,0.9,2.2,1.5,3.6,1.7c0.4,0.1,0.6,0.3,0.8,0.6s0.1,0.7-0.2,1c-1.1,1.3-3.8,4.7-4.7,6.7l-0.1,0.2
				c-1.2,2.7-2.5,5.8-0.7,7.9c0.8,0.9,1.8,1.4,2.9,1.5c0.5,0,0.9,0.4,0.9,0.9c0.2,2.2,0.7,2.9,1.3,3.5c0.2,0.2,0.4,0.5,0.6,0.7
				c0.6,1,2.1,3.5,2.1,6.2c0,2.3-0.1,3.3-0.8,4C252.8,208.3,252.7,208.4,252.5,208.5z"/>
		</g>
		<g id="Magnets_1_" transform="translate(122.000000, 199.000000)" opacity="0.12">
			<g id="Oval-4_5_">
				<path d="M4.5,10C1.5,10-1,7.5-1,4.5S1.5-1,4.5-1S10,1.5,10,4.5S7.5,10,4.5,10z M4.5,1C2.6,1,1,2.6,1,4.5S2.6,8,4.5,8
					S8,6.4,8,4.5S6.4,1,4.5,1z"/>
			</g>
			<g id="Oval-4_6_">
				<path d="M36.5,10c-3,0-5.5-2.5-5.5-5.5S33.5-1,36.5-1S42,1.5,42,4.5S39.5,10,36.5,10z M36.5,1C34.6,1,33,2.6,33,4.5
					S34.6,8,36.5,8S40,6.4,40,4.5S38.4,1,36.5,1z"/>
			</g>
			<g id="Oval-4_7_">
				<path d="M20.5,10c-3,0-5.5-2.5-5.5-5.5S17.5-1,20.5-1c3,0,5.5,2.5,5.5,5.5S23.5,10,20.5,10z M20.5,1C18.6,1,17,2.6,17,4.5
					S18.6,8,20.5,8C22.4,8,24,6.4,24,4.5S22.4,1,20.5,1z"/>
			</g>
		</g>
		<g id="T-shirt_1_" transform="translate(104.000000, 117.000000)">
			<g id="Combined-Shape_1_">
				<path d="M60.6,65H16.4c-1.1,0-2-0.9-2-2V28.1L13,29.5c-0.8,0.8-2,0.8-2.8,0L-1.4,17.9c-0.8-0.8-0.8-2,0-2.8L14.5-0.8
					c0.3-0.7,1-1.2,1.8-1.2h44.3c0.8,0,1.4,0.4,1.8,1.1l16,16c0.4,0.4,0.6,0.9,0.6,1.4s-0.2,1-0.6,1.4L66.8,29.5
					c-0.8,0.8-2,0.8-2.8,0l-1.4-1.4V63C62.6,64.1,61.7,65,60.6,65z M18.4,61h40.3V23.2c0-0.8,0.5-1.5,1.2-1.8
					c0.7-0.3,1.6-0.1,2.2,0.4l3.4,3.4l8.7-8.7L59.7,2H17.4L2.9,16.5l8.7,8.7l3.4-3.4c0.6-0.6,1.4-0.7,2.2-0.4c0.7,0.3,1.2,1,1.2,1.8
					V61z"/>
			</g>
			<g id="Oval-5_1_">
				<path d="M39.7,11.5c-6.3,0-11.5-5.2-11.5-11.5c0-0.6,0.4-1,1-1h21c0.6,0,1,0.4,1,1C51.1,6.4,46,11.5,39.7,11.5z M30.2,1
					c0.5,4.8,4.5,8.5,9.4,8.5c4.9,0,8.9-3.7,9.4-8.5H30.2z"/>
			</g>
		</g>
		<g id="Keyring_1_" transform="translate(255.000000, 114.000000)" opacity="0.12">
			<g id="Oval-4_8_">
				<path d="M4.5,10C1.5,10-1,7.5-1,4.5S1.5-1,4.5-1S10,1.5,10,4.5S7.5,10,4.5,10z M4.5,1C2.6,1,1,2.6,1,4.5S2.6,8,4.5,8
					S8,6.4,8,4.5S6.4,1,4.5,1z"/>
			</g>
			<g id="Oval-4_9_">
				<path d="M4.5,19C0.9,19-2,16.1-2,12.5S0.9,6,4.5,6S11,8.9,11,12.5S8.1,19,4.5,19z M4.5,10C3.1,10,2,11.1,2,12.5S3.1,15,4.5,15
					S7,13.9,7,12.5S5.9,10,4.5,10z"/>
			</g>
		</g>
		<g id="Bracelet_2_" transform="translate(50.000000, 303.000000)">
			<g id="Line_4_">
				<path fill="#F6A623" d="M19.4,11.8c-0.6,0-1-0.4-1-1V5.8c0-0.6,0.4-1,1-1s1,0.4,1,1v5.1C20.4,11.4,20,11.8,19.4,11.8z"/>
			</g>
			<g id="Line_5_">
				<path fill="#F6A623" d="M0.6,11.8c-0.6,0-1-0.4-1-1V5.8c0-0.6,0.4-1,1-1s1,0.4,1,1v5.1C1.6,11.4,1.1,11.8,0.6,11.8z"/>
			</g>
			<g id="Oval-6_6_">
				<path fill="#F6A623" d="M10,17.4c-5.9,0-10.4-2.9-10.4-6.6c0-0.6,0.4-1,1-1s1,0.4,1,1c0,2.5,3.9,4.6,8.4,4.6s8.4-2.1,8.4-4.6
					c0-0.6,0.4-1,1-1s1,0.4,1,1C20.4,14.5,15.9,17.4,10,17.4z"/>
			</g>
			<g id="Oval-6_7_">
				<path fill="#F6A623" d="M19.4,11.1c-0.6,0-1-0.4-1-1c0-2.5-3.9-4.6-8.4-4.6s-8.4,2.1-8.4,4.6c0,0.6-0.4,1-1,1s-1-0.4-1-1
					c0-3.7,4.6-6.6,10.4-6.6s10.4,2.9,10.4,6.6C20.4,10.7,20,11.1,19.4,11.1z"/>
			</g>
			<g id="Oval-6_8_">
				<path fill="#F6A623" d="M10,13.3c-5.9,0-10.4-3.1-10.4-7s4.6-7,10.4-7s10.4,3.1,10.4,7S15.9,13.3,10,13.3z M10,1.4
					c-4.6,0-8.4,2.3-8.4,5s3.9,5,8.4,5s8.4-2.3,8.4-5S14.6,1.4,10,1.4z"/>
			</g>
		</g>
		<g id="Towel_2_" opacity="0.12" enable-background="new    ">
			<path d="M225,321h-26c-1.1,0-2-0.9-2-2v-99c0-1.1,0.9-2,2-2h26c1.1,0,2,0.9,2,2v99C227,320.1,226.1,321,225,321z M201,317h22v-95
				h-22V317z"/>
		</g>
		<g id="Figure_2_">
			<path fill="#F6A623" d="M252.9,318.5c-0.9,0-1.6-0.3-2-0.8c-0.5-0.6-0.5-1.2-0.5-1.4c0-1,0.7-1.3,1-1.5c0.1,0,0.2-0.1,0.2-0.1
				c0.2-0.2,0.2-1.9,0.2-2.6c0-2.2-1.3-4.4-1.7-5.1c-0.1-0.2-0.3-0.4-0.4-0.5c-0.6-0.7-1.3-1.6-1.7-3.8c-1.1-0.2-2.4-0.8-3.5-2.1
				c-2.6-3-0.9-7,0.4-9.9l0.1-0.2c0.8-1.8,2.6-4.2,4-6c-1.1-0.4-2-1-3-1.8c-3.1-2.7-3.8-6.4-2.1-11.1c0.6-1.6,1.7-3.4,3-5
				c-0.7-0.4-1.4-0.9-2-1.6c-1.6-2.2-0.2-5.3-0.1-5.4c0.2-0.5,0.8-0.7,1.3-0.5l6.3,2.9c1.7-0.9,3.4-1.3,5.1-1.3l0.8,0
				c1.4,0,3.5,0.1,5.5,1.2l3.4-2.1c0.2-0.1,0.5-0.2,0.8-0.1c0.3,0.1,0.5,0.2,0.6,0.4c0.1,0.2,1.3,2.1,0.8,4c-0.2,0.7-0.6,1.3-1.2,2
				c1.8,3,2.2,6.2,2,8.9l2.3-3c0.1-0.3,0.5-1.1,1.1-2c0.6-0.9,1.4-1.4,1.9-1.6c1-2.6,1.3-2.9,1.5-3c0.6-0.4,1.6-0.2,2.1,0.5
				c0.4,0.5,0.5,1.2,0.3,1.8c-0.1,0.4-0.5,1.2-0.8,1.8c0.8,0.6,1.5,1.4,1.5,2.7c0,1.7-1.5,2.8-2.2,3.2c-0.4,1.1-1.6,4.5-2.8,7.1
				c-1.2,2.6-3.1,6.5-3.7,7.6c0.2,1.3,0.9,6,1,12c0.8,0.3,1.5,0.9,1.8,2c0.4,1.7-1,2.8-2,3.3c-0.5,5.3-1.7,9.3-1.8,9.5
				c-0.1,0.3-0.3,0.5-0.6,0.6c-0.1,0-1.3,0.6-3.7,0.9c-0.4,0.1-0.7,0.1-1,0.1c-1.2,0-1.8-0.5-2.1-0.9c-0.4-0.5-0.4-1.2-0.2-1.9
				c0.3-0.8,0.9-1,1.2-1.1c0-0.5-0.1-1.6-0.6-3.2c-0.3-1.1-0.8-2-1.1-2.5c-0.9,0.2-2.7,0.4-3.8,0.2c0.1,0.9,0.2,2,0.2,2.9
				c0,1.9-0.7,4.3-0.7,4.4c0,0.1-0.1,0.2-0.1,0.2c-0.2,0.3-0.9,1.2-3.7,1.8C253.8,318.4,253.3,318.5,252.9,318.5z M252.5,316.5
				c0.2,0,0.8,0,1.4-0.1c1.5-0.3,2.1-0.7,2.3-0.8c0.2-0.6,0.6-2.3,0.6-3.6c0-1.7-0.4-4.2-0.4-4.2c-0.1-0.4,0.1-0.7,0.4-1
				c0.3-0.2,0.7-0.3,1-0.1c0,0,1,0.4,2.1,0.4c1,0,2.2-0.3,2.6-0.4c0.4-0.1,0.8,0,1.1,0.3c0.1,0.1,1.2,1.6,1.9,3.7
				c1.2,4.2,0.4,4.9,0.2,5.2c-0.2,0.2-0.4,0.3-0.6,0.4c0.2,0,0.5,0,0.9-0.1c1.3-0.2,2.3-0.5,2.8-0.7c0.4-1.3,1.3-5.2,1.7-9.7
				c0-0.4,0.3-0.8,0.8-0.9c0.3-0.1,0.5,0,0.8,0.1c0.3-0.2,0.5-0.4,0.4-0.8c0-0.2-0.1-0.6-0.8-0.6c-0.6,0-1-0.4-1-1
				c0-7.1-1-12.7-1-12.8c0-0.2,0-0.4,0.1-0.6c0,0,2.4-4.8,3.8-7.8c1.3-3,2.8-7.2,2.8-7.3c0.1-0.2,0.3-0.4,0.5-0.6
				c0.4-0.2,1.4-0.9,1.4-1.7c0-0.8-1.2-1.3-1.2-1.3c-0.2-0.1-0.4-0.3-0.5-0.5c0,0,0,0,0,0c0,0-0.7,0.1-1.1,0.7c-0.6,1-1,1.9-1,1.9
				c0,0.1-0.1,0.1-0.1,0.2l-6,7.7c-0.2,0.2-0.4,0.3-0.6,0.4l-0.3,0.1c-0.4,0.1-0.9-0.1-1.1-0.5c-0.2-0.4-0.1-0.9,0.2-1.2
				c0.9-0.9,1.3-1.8,1.4-2.4c0.3-1,1.6-6-1.6-10.8c-0.3-0.4-0.2-1,0.2-1.3c0.9-0.8,1.2-1.3,1.2-1.5c0.1-0.5,0-1.1-0.1-1.6l-2.9,1.8
				c-0.3,0.2-0.7,0.2-1,0c-1.8-1.1-3.7-1.2-5.1-1.2l-0.8,0c-1.5,0-3.1,0.4-4.6,1.3c-0.3,0.2-0.6,0.2-0.9,0l-5.8-2.6
				c-0.2,0.8-0.3,1.8,0.2,2.5c0.6,0.8,1.6,1.2,2.3,1.4c0.3,0.1,0.6,0.4,0.7,0.7c0.1,0.3,0,0.7-0.2,0.9c-1.6,1.7-2.9,3.7-3.5,5.4
				c-1.4,3.9-0.9,6.7,1.6,8.9c1.1,0.9,2.2,1.5,3.6,1.7c0.4,0.1,0.6,0.3,0.8,0.6s0.1,0.7-0.2,1c-1.1,1.3-3.8,4.7-4.7,6.7l-0.1,0.2
				c-1.2,2.7-2.5,5.8-0.7,7.9c0.8,0.9,1.8,1.4,2.9,1.5c0.5,0,0.9,0.4,0.9,0.9c0.2,2.2,0.7,2.9,1.3,3.5c0.2,0.2,0.4,0.5,0.6,0.7
				c0.6,1,2.1,3.5,2.1,6.2c0,2.3-0.1,3.3-0.8,4C252.8,316.3,252.7,316.4,252.5,316.5z"/>
		</g>
		<g id="Magnets_2_" transform="translate(122.000000, 307.000000)" opacity="0.12">
			<g id="Oval-4_10_">
				<path d="M4.5,10C1.5,10-1,7.5-1,4.5S1.5-1,4.5-1S10,1.5,10,4.5S7.5,10,4.5,10z M4.5,1C2.6,1,1,2.6,1,4.5S2.6,8,4.5,8
					S8,6.4,8,4.5S6.4,1,4.5,1z"/>
			</g>
			<g id="Oval-4_11_">
				<path d="M36.5,10c-3,0-5.5-2.5-5.5-5.5S33.5-1,36.5-1S42,1.5,42,4.5S39.5,10,36.5,10z M36.5,1C34.6,1,33,2.6,33,4.5
					S34.6,8,36.5,8S40,6.4,40,4.5S38.4,1,36.5,1z"/>
			</g>
			<g id="Oval-4_12_">
				<path d="M20.5,10c-3,0-5.5-2.5-5.5-5.5S17.5-1,20.5-1c3,0,5.5,2.5,5.5,5.5S23.5,10,20.5,10z M20.5,1C18.6,1,17,2.6,17,4.5
					S18.6,8,20.5,8C22.4,8,24,6.4,24,4.5S22.4,1,20.5,1z"/>
			</g>
		</g>
		<g id="T-shirt_2_" transform="translate(104.000000, 225.000000)">
			<g id="Combined-Shape_2_">
				<path d="M60.6,65H16.4c-1.1,0-2-0.9-2-2V28.1L13,29.5c-0.8,0.8-2,0.8-2.8,0L-1.4,17.9c-0.8-0.8-0.8-2,0-2.8L14.5-0.8
					c0.3-0.7,1-1.2,1.8-1.2h44.3c0.8,0,1.4,0.4,1.8,1.1l16,16c0.4,0.4,0.6,0.9,0.6,1.4s-0.2,1-0.6,1.4L66.8,29.5
					c-0.8,0.8-2,0.8-2.8,0l-1.4-1.4V63C62.6,64.1,61.7,65,60.6,65z M18.4,61h40.3V23.2c0-0.8,0.5-1.5,1.2-1.8
					c0.7-0.3,1.6-0.1,2.2,0.4l3.4,3.4l8.7-8.7L59.7,2H17.4L2.9,16.5l8.7,8.7l3.4-3.4c0.6-0.6,1.4-0.7,2.2-0.4c0.7,0.3,1.2,1,1.2,1.8
					V61z"/>
			</g>
			<g id="Oval-5_2_">
				<path d="M39.7,11.5c-6.3,0-11.5-5.2-11.5-11.5c0-0.6,0.4-1,1-1h21c0.6,0,1,0.4,1,1C51.1,6.4,46,11.5,39.7,11.5z M30.2,1
					c0.5,4.8,4.5,8.5,9.4,8.5c4.9,0,8.9-3.7,9.4-8.5H30.2z"/>
			</g>
		</g>
		<g id="Keyring_2_" transform="translate(255.000000, 222.000000)" opacity="0.12">
			<g id="Oval-4_13_">
				<path d="M4.5,10C1.5,10-1,7.5-1,4.5S1.5-1,4.5-1S10,1.5,10,4.5S7.5,10,4.5,10z M4.5,1C2.6,1,1,2.6,1,4.5S2.6,8,4.5,8
					S8,6.4,8,4.5S6.4,1,4.5,1z"/>
			</g>
			<g id="Oval-4_14_">
				<path d="M4.5,19C0.9,19-2,16.1-2,12.5S0.9,6,4.5,6S11,8.9,11,12.5S8.1,19,4.5,19z M4.5,10C3.1,10,2,11.1,2,12.5S3.1,15,4.5,15
					S7,13.9,7,12.5S5.9,10,4.5,10z"/>
			</g>
		</g>
		<g id="Bracelet_3_" transform="translate(50.000000, 411.000000)">
			<g id="Line_6_">
				<path fill="#F6A623" d="M19.4,11.8c-0.6,0-1-0.4-1-1V5.8c0-0.6,0.4-1,1-1s1,0.4,1,1v5.1C20.4,11.4,20,11.8,19.4,11.8z"/>
			</g>
			<g id="Line_7_">
				<path fill="#F6A623" d="M0.6,11.8c-0.6,0-1-0.4-1-1V5.8c0-0.6,0.4-1,1-1s1,0.4,1,1v5.1C1.6,11.4,1.1,11.8,0.6,11.8z"/>
			</g>
			<g id="Oval-6_9_">
				<path fill="#F6A623" d="M10,17.4c-5.9,0-10.4-2.9-10.4-6.6c0-0.6,0.4-1,1-1s1,0.4,1,1c0,2.5,3.9,4.6,8.4,4.6s8.4-2.1,8.4-4.6
					c0-0.6,0.4-1,1-1s1,0.4,1,1C20.4,14.5,15.9,17.4,10,17.4z"/>
			</g>
			<g id="Oval-6_10_">
				<path fill="#F6A623" d="M19.4,11.1c-0.6,0-1-0.4-1-1c0-2.5-3.9-4.6-8.4-4.6s-8.4,2.1-8.4,4.6c0,0.6-0.4,1-1,1s-1-0.4-1-1
					c0-3.7,4.6-6.6,10.4-6.6s10.4,2.9,10.4,6.6C20.4,10.7,20,11.1,19.4,11.1z"/>
			</g>
			<g id="Oval-6_11_">
				<path fill="#F6A623" d="M10,13.3c-5.9,0-10.4-3.1-10.4-7s4.6-7,10.4-7s10.4,3.1,10.4,7S15.9,13.3,10,13.3z M10,1.4
					c-4.6,0-8.4,2.3-8.4,5s3.9,5,8.4,5s8.4-2.3,8.4-5S14.6,1.4,10,1.4z"/>
			</g>
		</g>
		<g id="Towel_3_">
			<path fill="#50E3C2" d="M225,429h-26c-1.1,0-2-0.9-2-2v-99c0-1.1,0.9-2,2-2h26c1.1,0,2,0.9,2,2v99C227,428.1,226.1,429,225,429z
				 M201,425h22v-95h-22V425z"/>
		</g>
		<g id="Figure_3_">
			<path fill="#F6A623" d="M252.9,426.5c-0.9,0-1.6-0.3-2-0.8c-0.5-0.6-0.5-1.2-0.5-1.4c0-1,0.7-1.3,1-1.5c0.1,0,0.2-0.1,0.2-0.1
				c0.2-0.2,0.2-1.9,0.2-2.6c0-2.2-1.3-4.4-1.7-5.1c-0.1-0.2-0.3-0.4-0.4-0.5c-0.6-0.7-1.3-1.6-1.7-3.8c-1.1-0.2-2.4-0.8-3.5-2.1
				c-2.6-3-0.9-7,0.4-9.9l0.1-0.2c0.8-1.8,2.6-4.2,4-6c-1.1-0.4-2-1-3-1.8c-3.1-2.7-3.8-6.4-2.1-11.1c0.6-1.6,1.6-3.4,3-5
				c-0.7-0.4-1.4-0.9-2-1.6c-1.6-2.2-0.2-5.3-0.1-5.4c0.2-0.5,0.8-0.7,1.3-0.5l6.3,2.9c1.7-0.9,3.4-1.3,5.1-1.3l0.8,0
				c1.4,0,3.5,0.1,5.5,1.2l3.4-2.1c0.2-0.1,0.5-0.2,0.8-0.1c0.3,0.1,0.5,0.2,0.6,0.4c0.1,0.2,1.3,2.1,0.8,4c-0.2,0.7-0.6,1.3-1.2,2
				c1.8,3,2.2,6.2,2,8.9l2.3-3c0.1-0.3,0.5-1.1,1.1-2c0.6-0.9,1.4-1.4,1.9-1.6c1-2.6,1.3-2.9,1.5-3c0.6-0.4,1.6-0.2,2.1,0.5
				c0.4,0.5,0.5,1.2,0.3,1.8c-0.1,0.4-0.5,1.2-0.8,1.8c0.8,0.6,1.5,1.4,1.5,2.7c0,1.7-1.5,2.8-2.2,3.2c-0.4,1.1-1.6,4.5-2.8,7.1
				c-1.2,2.6-3.1,6.5-3.7,7.6c0.2,1.3,0.9,6,1,12c0.8,0.3,1.5,0.9,1.8,2c0.4,1.7-1,2.8-2,3.3c-0.5,5.3-1.7,9.3-1.8,9.5
				c-0.1,0.3-0.3,0.5-0.6,0.6c-0.1,0-1.3,0.6-3.7,0.9c-0.4,0.1-0.7,0.1-1,0.1c-1.2,0-1.8-0.5-2.1-0.9c-0.4-0.5-0.4-1.2-0.2-1.9
				c0.3-0.8,0.9-1,1.2-1.1c0-0.5-0.1-1.6-0.6-3.2c-0.3-1.1-0.8-2-1.1-2.5c-0.9,0.2-2.7,0.4-3.8,0.2c0.1,0.9,0.2,2,0.2,2.9
				c0,1.9-0.7,4.3-0.7,4.4c0,0.1-0.1,0.2-0.1,0.2c-0.2,0.3-0.9,1.2-3.7,1.8C253.8,426.4,253.3,426.5,252.9,426.5z M252.5,424.5
				c0.2,0,0.8,0,1.4-0.1c1.5-0.3,2.1-0.7,2.3-0.8c0.2-0.6,0.6-2.3,0.6-3.6c0-1.7-0.4-4.2-0.4-4.2c-0.1-0.4,0.1-0.7,0.4-1
				c0.3-0.2,0.7-0.3,1-0.1c0,0,1,0.4,2.1,0.4c1,0,2.2-0.3,2.6-0.4c0.4-0.1,0.8,0,1.1,0.3c0.1,0.1,1.2,1.6,1.9,3.7
				c1.2,4.2,0.4,4.9,0.2,5.2c-0.2,0.2-0.4,0.3-0.6,0.4c0.2,0,0.5,0,0.9-0.1c1.3-0.2,2.3-0.5,2.8-0.7c0.4-1.3,1.3-5.2,1.7-9.7
				c0-0.4,0.3-0.8,0.8-0.9c0.3-0.1,0.5,0,0.8,0.1c0.3-0.2,0.5-0.4,0.4-0.8c0-0.2-0.1-0.6-0.8-0.6c-0.6,0-1-0.4-1-1
				c0-7.1-1-12.7-1-12.8c0-0.2,0-0.4,0.1-0.6c0,0,2.4-4.8,3.8-7.8c1.3-3,2.8-7.2,2.8-7.3c0.1-0.2,0.3-0.4,0.5-0.6
				c0.4-0.2,1.4-0.9,1.4-1.7c0-0.8-1.2-1.3-1.2-1.3c-0.2-0.1-0.4-0.3-0.5-0.5c0,0,0,0,0,0c0,0-0.7,0.1-1.1,0.7c-0.6,1-1,1.9-1,1.9
				c0,0.1-0.1,0.2-0.1,0.2l-6,7.7c-0.2,0.2-0.4,0.3-0.6,0.4l-0.3,0.1c-0.4,0.1-0.9-0.1-1.1-0.5c-0.2-0.4-0.1-0.9,0.2-1.2
				c0.9-0.9,1.3-1.8,1.4-2.4c0.3-1,1.6-6-1.6-10.8c-0.3-0.4-0.2-1,0.2-1.3c0.7-0.6,1.1-1.1,1.2-1.5c0.1-0.5,0-1.1-0.1-1.6l-2.9,1.8
				c-0.3,0.2-0.7,0.2-1,0c-1.8-1.1-3.7-1.2-5.1-1.2l-0.8,0c-1.5,0-3.1,0.4-4.6,1.3c-0.3,0.2-0.6,0.2-0.9,0l-5.8-2.6
				c-0.2,0.8-0.3,1.8,0.2,2.5c0.6,0.8,1.6,1.2,2.3,1.4c0.3,0.1,0.6,0.4,0.7,0.7c0.1,0.3,0,0.7-0.2,0.9c-1.6,1.7-2.9,3.7-3.5,5.4
				c-1.4,3.9-0.9,6.7,1.6,8.9c1.1,0.9,2.2,1.5,3.6,1.7c0.4,0.1,0.6,0.3,0.8,0.6s0.1,0.7-0.2,1c-1.1,1.3-3.8,4.7-4.7,6.7l-0.1,0.2
				c-1.2,2.7-2.5,5.8-0.7,7.9c0.8,0.9,1.8,1.4,2.9,1.5c0.5,0,0.9,0.4,0.9,0.9c0.2,2.2,0.7,2.9,1.3,3.5c0.2,0.2,0.4,0.5,0.6,0.7
				c0.6,1,2.1,3.5,2.1,6.2c0,2.3-0.1,3.3-0.8,4C252.8,424.3,252.7,424.4,252.5,424.5z"/>
		</g>
		<g id="Magnets_3_" transform="translate(122.000000, 415.000000)">
			<g id="Oval-4_15_">
				<path fill="#50E3C2" d="M4.5,10C1.5,10-1,7.5-1,4.5S1.5-1,4.5-1S10,1.5,10,4.5S7.5,10,4.5,10z M4.5,1C2.6,1,1,2.6,1,4.5
					S2.6,8,4.5,8S8,6.4,8,4.5S6.4,1,4.5,1z"/>
			</g>
			<g id="Oval-4_16_">
				<path fill="#50E3C2" d="M36.5,10c-3,0-5.5-2.5-5.5-5.5S33.5-1,36.5-1S42,1.5,42,4.5S39.5,10,36.5,10z M36.5,1
					C34.6,1,33,2.6,33,4.5S34.6,8,36.5,8S40,6.4,40,4.5S38.4,1,36.5,1z"/>
			</g>
			<g id="Oval-4_17_">
				<path fill="#50E3C2" d="M20.5,10c-3,0-5.5-2.5-5.5-5.5S17.5-1,20.5-1c3,0,5.5,2.5,5.5,5.5S23.5,10,20.5,10z M20.5,1
					C18.6,1,17,2.6,17,4.5S18.6,8,20.5,8C22.4,8,24,6.4,24,4.5S22.4,1,20.5,1z"/>
			</g>
		</g>
		<g id="T-shirt_3_" transform="translate(104.000000, 333.000000)">
			<g id="Combined-Shape_3_">
				<path d="M60.6,65H16.4c-1.1,0-2-0.9-2-2V28.1L13,29.5c-0.8,0.8-2,0.8-2.8,0L-1.4,17.9c-0.8-0.8-0.8-2,0-2.8L14.5-0.8
					c0.3-0.7,1-1.2,1.8-1.2h44.3c0.8,0,1.4,0.4,1.8,1.1l16,16c0.4,0.4,0.6,0.9,0.6,1.4s-0.2,1-0.6,1.4L66.8,29.5
					c-0.8,0.8-2,0.8-2.8,0l-1.4-1.4V63C62.6,64.1,61.7,65,60.6,65z M18.4,61h40.3V23.2c0-0.8,0.5-1.5,1.2-1.8s1.6-0.1,2.2,0.4
					l3.4,3.4l8.7-8.7L59.7,2H17.4L2.9,16.5l8.7,8.7l3.4-3.4c0.6-0.6,1.4-0.7,2.2-0.4c0.7,0.3,1.2,1,1.2,1.8V61z"/>
			</g>
			<g id="Oval-5_3_">
				<path d="M39.7,11.5c-6.3,0-11.5-5.2-11.5-11.5c0-0.6,0.4-1,1-1h21c0.6,0,1,0.4,1,1C51.1,6.4,46,11.5,39.7,11.5z M30.2,1
					c0.5,4.8,4.5,8.5,9.4,8.5c4.9,0,8.9-3.7,9.4-8.5H30.2z"/>
			</g>
		</g>
		<g id="Keyring_3_" transform="translate(255.000000, 330.000000)">
			<g id="Oval-4_18_">
				<path d="M4.5,10C1.5,10-1,7.5-1,4.5S1.5-1,4.5-1S10,1.5,10,4.5S7.5,10,4.5,10z M4.5,1C2.6,1,1,2.6,1,4.5S2.6,8,4.5,8
					S8,6.4,8,4.5S6.4,1,4.5,1z"/>
			</g>
			<g id="Oval-4_19_">
				<path d="M4.5,19C0.9,19-2,16.1-2,12.5S0.9,6,4.5,6S11,8.9,11,12.5S8.1,19,4.5,19z M4.5,10C3.1,10,2,11.1,2,12.5S3.1,15,4.5,15
					S7,13.9,7,12.5S5.9,10,4.5,10z"/>
			</g>
		</g>
		<g id="Bracelet_4_" transform="translate(50.000000, 535.000000)">
			<g id="Line_8_">
				<path fill="#F6A623" d="M19.4,11.8c-0.6,0-1-0.4-1-1V5.8c0-0.6,0.4-1,1-1s1,0.4,1,1v5.1C20.4,11.4,20,11.8,19.4,11.8z"/>
			</g>
			<g id="Line_9_">
				<path fill="#F6A623" d="M0.6,11.8c-0.6,0-1-0.4-1-1V5.8c0-0.6,0.4-1,1-1s1,0.4,1,1v5.1C1.6,11.4,1.1,11.8,0.6,11.8z"/>
			</g>
			<g id="Oval-6_12_">
				<path fill="#F6A623" d="M10,17.4c-5.9,0-10.4-2.9-10.4-6.6c0-0.6,0.4-1,1-1s1,0.4,1,1c0,2.5,3.9,4.6,8.4,4.6s8.4-2.1,8.4-4.6
					c0-0.6,0.4-1,1-1s1,0.4,1,1C20.4,14.5,15.9,17.4,10,17.4z"/>
			</g>
			<g id="Oval-6_13_">
				<path fill="#F6A623" d="M19.4,11.1c-0.6,0-1-0.4-1-1c0-2.5-3.9-4.6-8.4-4.6s-8.4,2.1-8.4,4.6c0,0.6-0.4,1-1,1s-1-0.4-1-1
					c0-3.7,4.6-6.6,10.4-6.6s10.4,2.9,10.4,6.6C20.4,10.7,20,11.1,19.4,11.1z"/>
			</g>
			<g id="Oval-6_14_">
				<path fill="#F6A623" d="M10,13.3c-5.9,0-10.4-3.1-10.4-7s4.6-7,10.4-7s10.4,3.1,10.4,7S15.9,13.3,10,13.3z M10,1.4
					c-4.6,0-8.4,2.3-8.4,5s3.9,5,8.4,5s8.4-2.3,8.4-5S14.6,1.4,10,1.4z"/>
			</g>
		</g>
		<g id="Towel_4_">
			<path fill="#50E3C2" d="M225,553h-26c-1.1,0-2-0.9-2-2v-99c0-1.1,0.9-2,2-2h26c1.1,0,2,0.9,2,2v99C227,552.1,226.1,553,225,553z
				 M201,549h22v-95h-22V549z"/>
		</g>
		<g id="Figure_4_">
			<path fill="#F6A623" d="M252.9,550.5c-0.9,0-1.6-0.3-2-0.8c-0.5-0.6-0.5-1.2-0.5-1.4c0-1,0.7-1.3,1-1.5c0.1,0,0.2-0.1,0.2-0.1
				c0.2-0.2,0.2-1.9,0.2-2.6c0-2.2-1.3-4.4-1.7-5.1c-0.1-0.2-0.3-0.4-0.4-0.5c-0.6-0.7-1.3-1.6-1.7-3.8c-1.1-0.2-2.4-0.8-3.5-2.1
				c-2.6-3-0.9-7,0.4-9.9l0.1-0.2c0.8-1.8,2.6-4.2,4-6c-1.1-0.4-2-1-3-1.8c-3.1-2.7-3.8-6.4-2.1-11.1c0.6-1.6,1.6-3.4,3-5
				c-0.7-0.4-1.4-0.9-2-1.6c-1.6-2.2-0.2-5.3-0.1-5.4c0.2-0.5,0.8-0.7,1.3-0.5l6.3,2.9c1.7-0.9,3.4-1.3,5.1-1.3l0.8,0
				c1.4,0,3.5,0.1,5.5,1.2l3.4-2.1c0.2-0.1,0.5-0.2,0.8-0.1c0.3,0.1,0.5,0.2,0.6,0.4c0.1,0.2,1.3,2.1,0.8,4c-0.2,0.7-0.6,1.3-1.2,2
				c1.8,3,2.2,6.2,2,8.9l2.3-3c0.1-0.3,0.5-1.1,1.1-2c0.6-0.9,1.4-1.4,1.9-1.6c1-2.6,1.3-2.9,1.5-3c0.6-0.4,1.6-0.2,2.1,0.5
				c0.4,0.5,0.5,1.2,0.3,1.8c-0.1,0.4-0.5,1.2-0.8,1.8c0.8,0.6,1.5,1.4,1.5,2.7c0,1.7-1.5,2.8-2.2,3.2c-0.4,1.1-1.6,4.5-2.8,7.1
				c-1.2,2.6-3.1,6.5-3.7,7.6c0.2,1.3,0.9,6,1,12c0.8,0.3,1.5,0.9,1.8,2c0.4,1.7-1,2.8-2,3.3c-0.5,5.3-1.7,9.3-1.8,9.5
				c-0.1,0.3-0.3,0.5-0.6,0.6c-0.1,0-1.3,0.6-3.7,0.9c-0.4,0.1-0.7,0.1-1,0.1c-1.2,0-1.8-0.5-2.1-0.9c-0.4-0.5-0.4-1.2-0.2-1.9
				c0.3-0.8,0.9-1,1.2-1.1c0-0.5-0.1-1.6-0.6-3.2c-0.3-1.1-0.8-2-1.1-2.5c-0.9,0.2-2.7,0.4-3.8,0.2c0.1,0.9,0.2,2,0.2,2.9
				c0,1.9-0.7,4.3-0.7,4.4c0,0.1-0.1,0.2-0.1,0.2c-0.2,0.3-0.9,1.2-3.7,1.8C253.8,550.4,253.3,550.5,252.9,550.5z M252.5,548.5
				c0.2,0,0.8,0,1.4-0.1c1.5-0.3,2.1-0.7,2.3-0.8c0.2-0.6,0.6-2.3,0.6-3.6c0-1.7-0.4-4.2-0.4-4.2c-0.1-0.4,0.1-0.7,0.4-1
				c0.3-0.2,0.7-0.3,1-0.1c0,0,1,0.4,2.1,0.4c1,0,2.2-0.3,2.6-0.4c0.4-0.1,0.8,0,1.1,0.3c0.1,0.1,1.2,1.6,1.9,3.7
				c1.2,4.2,0.4,4.9,0.2,5.2c-0.2,0.2-0.4,0.3-0.6,0.4c0.2,0,0.5,0,0.9-0.1c1.3-0.2,2.3-0.5,2.8-0.7c0.4-1.3,1.3-5.2,1.7-9.7
				c0-0.4,0.3-0.8,0.8-0.9c0.3-0.1,0.5,0,0.8,0.1c0.3-0.2,0.5-0.4,0.4-0.8c0-0.2-0.1-0.6-0.8-0.6c-0.6,0-1-0.4-1-1
				c0-7.1-1-12.7-1-12.8c0-0.2,0-0.4,0.1-0.6c0,0,2.4-4.8,3.8-7.8c1.3-3,2.8-7.2,2.8-7.3c0.1-0.2,0.3-0.4,0.5-0.6
				c0.4-0.2,1.4-0.9,1.4-1.7c0-0.8-1.2-1.3-1.2-1.3c-0.2-0.1-0.4-0.3-0.5-0.5c0,0,0,0,0,0c0,0-0.7,0.1-1.1,0.7c-0.6,1-1,1.9-1,1.9
				c0,0.1-0.1,0.2-0.1,0.2l-6,7.7c-0.2,0.2-0.4,0.3-0.6,0.4l-0.3,0.1c-0.4,0.1-0.9-0.1-1.1-0.5c-0.2-0.4-0.1-0.9,0.2-1.2
				c0.9-0.9,1.3-1.8,1.4-2.4c0.3-1,1.6-6-1.6-10.8c-0.3-0.4-0.2-1,0.2-1.3c0.7-0.6,1.1-1.1,1.2-1.5c0.1-0.5,0-1.1-0.1-1.6l-2.9,1.8
				c-0.3,0.2-0.7,0.2-1,0c-1.8-1.1-3.7-1.2-5.1-1.2l-0.8,0c-1.5,0-3.1,0.4-4.6,1.3c-0.3,0.2-0.6,0.2-0.9,0l-5.8-2.6
				c-0.2,0.8-0.3,1.8,0.2,2.5c0.6,0.8,1.6,1.2,2.3,1.4c0.3,0.1,0.6,0.4,0.7,0.7c0.1,0.3,0,0.7-0.2,0.9c-1.6,1.7-2.9,3.7-3.5,5.4
				c-1.4,3.9-0.9,6.7,1.6,8.9c1.1,0.9,2.2,1.5,3.6,1.7c0.4,0.1,0.6,0.3,0.8,0.6s0.1,0.7-0.2,1c-1.1,1.3-3.8,4.7-4.7,6.7l-0.1,0.2
				c-1.2,2.7-2.5,5.8-0.7,7.9c0.8,0.9,1.8,1.4,2.9,1.5c0.5,0,0.9,0.4,0.9,0.9c0.2,2.2,0.7,2.9,1.3,3.5c0.2,0.2,0.4,0.5,0.6,0.7
				c0.6,1,2.1,3.5,2.1,6.2c0,2.3-0.1,3.3-0.8,4C252.8,548.3,252.7,548.4,252.5,548.5z"/>
		</g>
		<g id="Magnets_4_" transform="translate(122.000000, 539.000000)">
			<g id="Oval-4_20_">
				<path fill="#50E3C2" d="M4.5,10C1.5,10-1,7.5-1,4.5S1.5-1,4.5-1S10,1.5,10,4.5S7.5,10,4.5,10z M4.5,1C2.6,1,1,2.6,1,4.5
					S2.6,8,4.5,8S8,6.4,8,4.5S6.4,1,4.5,1z"/>
			</g>
			<g id="Oval-4_21_">
				<path fill="#50E3C2" d="M36.5,10c-3,0-5.5-2.5-5.5-5.5S33.5-1,36.5-1S42,1.5,42,4.5S39.5,10,36.5,10z M36.5,1
					C34.6,1,33,2.6,33,4.5S34.6,8,36.5,8S40,6.4,40,4.5S38.4,1,36.5,1z"/>
			</g>
			<g id="Oval-4_22_">
				<path fill="#50E3C2" d="M20.5,10c-3,0-5.5-2.5-5.5-5.5S17.5-1,20.5-1c3,0,5.5,2.5,5.5,5.5S23.5,10,20.5,10z M20.5,1
					C18.6,1,17,2.6,17,4.5S18.6,8,20.5,8C22.4,8,24,6.4,24,4.5S22.4,1,20.5,1z"/>
			</g>
		</g>
		<g id="T-shirt_4_" transform="translate(104.000000, 457.000000)">
			<g id="Combined-Shape_4_">
				<g opacity="2.500000e-03">
					<polygon fill="#50E3C2" points="60.6,23.2 60.6,63 16.4,63 16.4,23.3 11.6,28.1 0,16.5 16.4,0.2 16.4,0 60.6,0 60.6,0.2 
						77,16.5 65.4,28.1 					"/>
				</g>
				<g>
					<path d="M60.6,65H16.4c-1.1,0-2-0.9-2-2V28.1L13,29.5c-0.8,0.8-2,0.8-2.8,0L-1.4,17.9c-0.8-0.8-0.8-2,0-2.8L14.5-0.8
						c0.3-0.7,1-1.2,1.8-1.2h44.3c0.8,0,1.4,0.4,1.8,1.1l16,16c0.4,0.4,0.6,0.9,0.6,1.4s-0.2,1-0.6,1.4L66.8,29.5
						c-0.8,0.8-2,0.8-2.8,0l-1.4-1.4V63C62.6,64.1,61.7,65,60.6,65z M18.4,61h40.3V23.2c0-0.8,0.5-1.5,1.2-1.8
						c0.7-0.3,1.6-0.1,2.2,0.4l3.4,3.4l8.7-8.7L59.7,2H17.4L2.9,16.5l8.7,8.7l3.4-3.4c0.6-0.6,1.4-0.7,2.2-0.4
						c0.7,0.3,1.2,1,1.2,1.8V61z"/>
				</g>
			</g>
			<g id="Oval-5_4_">
				<path d="M39.7,11.5c-6.3,0-11.5-5.2-11.5-11.5c0-0.6,0.4-1,1-1h21c0.6,0,1,0.4,1,1C51.1,6.4,46,11.5,39.7,11.5z M30.2,1
					c0.5,4.8,4.5,8.5,9.4,8.5c4.9,0,8.9-3.7,9.4-8.5H30.2z"/>
			</g>
		</g>
		<g id="Keyring_4_" transform="translate(255.000000, 454.000000)">
			<g id="Oval-4_23_">
				<path d="M4.5,10C1.5,10-1,7.5-1,4.5S1.5-1,4.5-1S10,1.5,10,4.5S7.5,10,4.5,10z M4.5,1C2.6,1,1,2.6,1,4.5S2.6,8,4.5,8
					S8,6.4,8,4.5S6.4,1,4.5,1z"/>
			</g>
			<g id="Oval-4_24_">
				<path d="M4.5,19C0.9,19-2,16.1-2,12.5S0.9,6,4.5,6S11,8.9,11,12.5S8.1,19,4.5,19z M4.5,10C3.1,10,2,11.1,2,12.5S3.1,15,4.5,15
					S7,13.9,7,12.5S5.9,10,4.5,10z"/>
			</g>
		</g>
		<g id="Bag" transform="translate(31.000000, 461.000000)">
			<g id="Rectangle">
				<path fill="#50E3C2" d="M49,56h-4c-3.9,0-7-3.1-7-7c0-0.6,0.4-1,1-1s1,0.4,1,1c0,2.8,2.2,5,5,5h4c3.9,0,7-2.9,7-6.6V12
					c0-3.9-3.1-7-7-7h-2c-0.6,0-1-0.4-1-1s0.4-1,1-1h2c5,0,9,4,9,9v35.4C58,52.1,54,56,49,56z"/>
			</g>
			<g id="Rectangle_1_">
				<path fill="#50E3C2" d="M12,56H8c-5,0-9-3.8-9-8.6V12c0-5,4-9,9-9h2c0.6,0,1,0.4,1,1s-0.4,1-1,1H8c-3.9,0-7,3.1-7,7v35.4
					C1,51,4.1,54,8,54h4c2.8,0,5-2.2,5-5c0-0.6,0.4-1,1-1s1,0.4,1,1C19,52.8,15.9,56,12,56z"/>
			</g>
			<g id="Rectangle-19">
				<path fill="#50E3C2" d="M49.6,49.8C49.6,49.8,49.6,49.8,49.6,49.8H7c-0.6,0-1.1-0.2-1.5-0.6C5.2,48.7,5,48.2,5,47.6L8.1-0.1
					C8.2-1.2,9.1-2,10.1-2h36.3c1.1,0,1.9,0.8,2,1.9l3.1,47.5c0,0.1,0,0.3,0,0.4C51.6,48.9,50.7,49.8,49.6,49.8z M9.1,45.8h38.3
					L44.6,2H12L9.1,45.8z"/>
			</g>
		</g>
		<g id="Bag_1_" transform="translate(31.000000, 337.000000)">
			<g id="Rectangle_2_">
				<path fill="#50E3C2" d="M49,56h-4c-3.9,0-7-3.1-7-7c0-0.6,0.4-1,1-1s1,0.4,1,1c0,2.8,2.2,5,5,5h4c3.9,0,7-2.9,7-6.6V12
					c0-3.9-3.1-7-7-7h-2c-0.6,0-1-0.4-1-1s0.4-1,1-1h2c5,0,9,4,9,9v35.4C58,52.1,54,56,49,56z"/>
			</g>
			<g id="Rectangle_3_">
				<path fill="#50E3C2" d="M12,56H8c-5,0-9-3.8-9-8.6V12c0-5,4-9,9-9h2c0.6,0,1,0.4,1,1s-0.4,1-1,1H8c-3.9,0-7,3.1-7,7v35.4
					C1,51,4.1,54,8,54h4c2.8,0,5-2.2,5-5c0-0.6,0.4-1,1-1s1,0.4,1,1C19,52.8,15.9,56,12,56z"/>
			</g>
			<g id="Rectangle-19_1_">
				<path fill="#50E3C2" d="M49.6,49.8C49.6,49.8,49.6,49.8,49.6,49.8H7c-0.6,0-1.1-0.2-1.5-0.6C5.2,48.7,5,48.2,5,47.6L8.1-0.1
					C8.2-1.2,9.1-2,10.1-2h36.3c1.1,0,1.9,0.8,2,1.9l3.1,47.5c0,0.1,0,0.3,0,0.4C51.6,48.9,50.7,49.8,49.6,49.8z M9.1,45.8h38.3
					L44.6,2H12L9.1,45.8z"/>
			</g>
		</g>
		<g id="Bag_2_" transform="translate(31.000000, 229.000000)">
			<g id="Rectangle_4_">
				<path fill="#50E3C2" d="M49,56h-4c-3.9,0-7-3.1-7-7c0-0.6,0.4-1,1-1s1,0.4,1,1c0,2.8,2.2,5,5,5h4c3.9,0,7-2.9,7-6.6V12
					c0-3.9-3.1-7-7-7h-2c-0.6,0-1-0.4-1-1s0.4-1,1-1h2c5,0,9,4,9,9v35.4C58,52.1,54,56,49,56z"/>
			</g>
			<g id="Rectangle_5_">
				<path fill="#50E3C2" d="M12,56H8c-5,0-9-3.8-9-8.6V12c0-5,4-9,9-9h2c0.6,0,1,0.4,1,1s-0.4,1-1,1H8c-3.9,0-7,3.1-7,7v35.4
					C1,51,4.1,54,8,54h4c2.8,0,5-2.2,5-5c0-0.6,0.4-1,1-1s1,0.4,1,1C19,52.8,15.9,56,12,56z"/>
			</g>
			<g id="Rectangle-19_2_">
				<path fill="#50E3C2" d="M49.6,49.8C49.6,49.8,49.6,49.8,49.6,49.8H7c-0.6,0-1.1-0.2-1.5-0.6C5.2,48.7,5,48.2,5,47.6L8.1-0.1
					C8.2-1.2,9.1-2,10.1-2h36.3c1.1,0,1.9,0.8,2,1.9l3.1,47.5c0,0.1,0,0.3,0,0.4C51.6,48.9,50.7,49.8,49.6,49.8z M9.1,45.8h38.3
					L44.6,2H12L9.1,45.8z"/>
			</g>
		</g>
		<g id="Bag_3_" transform="translate(31.000000, 121.000000)" opacity="0.12">
			<g id="Rectangle_6_">
				<path d="M49,56h-4c-3.9,0-7-3.1-7-7c0-0.6,0.4-1,1-1s1,0.4,1,1c0,2.8,2.2,5,5,5h4c3.9,0,7-2.9,7-6.6V12c0-3.9-3.1-7-7-7h-2
					c-0.6,0-1-0.4-1-1s0.4-1,1-1h2c5,0,9,4,9,9v35.4C58,52.1,54,56,49,56z"/>
			</g>
			<g id="Rectangle_7_">
				<path d="M12,56H8c-5,0-9-3.8-9-8.6V12c0-5,4-9,9-9h2c0.6,0,1,0.4,1,1s-0.4,1-1,1H8c-3.9,0-7,3.1-7,7v35.4C1,51,4.1,54,8,54h4
					c2.8,0,5-2.2,5-5c0-0.6,0.4-1,1-1s1,0.4,1,1C19,52.8,15.9,56,12,56z"/>
			</g>
			<g id="Rectangle-19_3_">
				<path d="M49.6,49.8C49.6,49.8,49.6,49.8,49.6,49.8H7c-0.6,0-1.1-0.2-1.5-0.6C5.2,48.7,5,48.2,5,47.6L8.1-0.1
					C8.2-1.2,9.1-2,10.1-2h36.3c1.1,0,1.9,0.8,2,1.9l3.1,47.5c0,0.1,0,0.3,0,0.4C51.6,48.9,50.7,49.8,49.6,49.8z M9.1,45.8h38.3
					L44.6,2H12L9.1,45.8z"/>
			</g>
		</g>
		<g id="Bag_4_" transform="translate(31.000000, 13.000000)" opacity="0.12">
			<g id="Rectangle_8_">
				<path d="M49,56h-4c-3.9,0-7-3.1-7-7c0-0.6,0.4-1,1-1s1,0.4,1,1c0,2.8,2.2,5,5,5h4c3.9,0,7-2.9,7-6.6V12c0-3.9-3.1-7-7-7h-2
					c-0.6,0-1-0.4-1-1s0.4-1,1-1h2c5,0,9,4,9,9v35.4C58,52.1,54,56,49,56z"/>
			</g>
			<g id="Rectangle_9_">
				<path d="M12,56H8c-5,0-9-3.8-9-8.6V12c0-5,4-9,9-9h2c0.6,0,1,0.4,1,1s-0.4,1-1,1H8c-3.9,0-7,3.1-7,7v35.4C1,51,4.1,54,8,54h4
					c2.8,0,5-2.2,5-5c0-0.6,0.4-1,1-1s1,0.4,1,1C19,52.8,15.9,56,12,56z"/>
			</g>
			<g id="Rectangle-19_4_">
				<path d="M49.6,49.8C49.6,49.8,49.6,49.8,49.6,49.8H7c-0.6,0-1.1-0.2-1.5-0.6C5.2,48.7,5,48.2,5,47.6L8.1-0.1
					C8.2-1.2,9.1-2,10.1-2h36.3c1.1,0,1.9,0.8,2,1.9l3.1,47.5c0,0.1,0,0.3,0,0.4C51.6,48.9,50.7,49.8,49.6,49.8z M9.1,45.8h38.3
					L44.6,2H12L9.1,45.8z"/>
			</g>
		</g>
	</g>
</g>
</svg>
