<?xml version="1.0" encoding="UTF-8" standalone="no"?>
<svg width="30px" height="120px" viewBox="0 0 30 120" version="1.1" xmlns="http://www.w3.org/2000/svg" xmlns:xlink="http://www.w3.org/1999/xlink">
    <!-- Generator: Sketch 39.1 (31720) - http://www.bohemiancoding.com/sketch -->
    <title>wo-august-2-project-logo-small</title>
    <desc>Created with Sketch.</desc>
    <defs>
        <polygon id="path-1" points="0.743147826 2.26086957 2.79217391 2.26086957 2.79217391 0.211504348 0.743147826 0.211504348"></polygon>
    </defs>
    <g id="Home" stroke="none" stroke-width="1" fill="none" fill-rule="evenodd">
        <g id="wo-august-2-project-logo-small">
            <g id="國會無雙" transform="translate(5.000000, 4.000000)" fill="#B8282E">
                <polygon id="Fill-9" points="8.78037838 9.93007105 8.78037838 2.82654474 0.872810811 -0.000165789474 -0.000162162162 20.6284658 8.78037838 19.26015 8.78037838 11.0237289 4.13497297 11.0237289 4.21227027 8.04559737 5.79172973 8.30312368 5.79172973 9.62225526"></polygon>
                <polygon id="Fill-12" points="18.9405946 0 11.0335676 2.82671053 11.0335676 9.933 14.0373514 9.62352632 14.0373514 8.30273684 15.6168108 8.04576316 15.6941081 11.0233421 11.0335676 11.0233421 11.0335676 19.2603158 19.8135676 20.6286316"></polygon>
            </g>
            <g id="市長給問嗎？" transform="translate(5.000000, 33.000000)" fill="#62C3CC">
                <path d="M12.3523841,3.83333333 L12.3523841,6.69444444 L15.1923295,6.69444444 C15.1923295,5.11111111 13.9240044,3.83333333 12.3523841,3.83333333" id="Fill-22"></path>
                <polygon id="Fill-23" points="3.80497545 9.08333333 5.87289689 7.41666667 3.80497545 4.83333333"></polygon>
                <path d="M17.0948172,6.69444444 L17.0948172,8.61111111 L17.0948172,15.3055556 L15.1923295,13.3888889 L15.1923295,8.61111111 L12.3523841,8.61111111 L12.3523841,10.5277778 L10.4498963,10.5277778 L10.4498963,1.91666667 L12.3523841,1.91666667 C14.9717512,1.91666667 17.0948172,4.05555556 17.0948172,6.69444444 L17.0948172,6.69444444 Z M12.5178178,22.9722222 L10.4774686,20.9166667 C10.1741735,21 9.84330606,21.0555556 9.48486634,21.0555556 L9.29186034,21.0555556 C7.27908347,20.9722222 5.67989089,19.2777778 5.67989089,17.25 L5.67989089,15.3333333 C5.67989089,13.2222222 7.38937261,11.5 9.48486634,11.5 C11.5803601,11.5 13.2898418,13.2222222 13.2898418,15.3333333 L13.2898418,17.2222222 C13.2898418,18.2777778 12.8762575,19.2222222 12.1869504,19.9166667 L15.1923295,22.9444444 L12.5178178,22.9444444 L12.5178178,22.9722222 Z M3.80497545,17.2222222 L1.90248773,15.3055556 L1.90248773,3.33333333 C1.90248773,2.55555556 2.5366503,1.88888889 3.28110202,1.91666667 C3.63954173,1.91666667 3.97040917,2.08333333 4.19098745,2.30555556 C4.24613202,2.36111111 7.08607747,5.88888889 8.13382433,7.19444444 C8.35440262,7.47222222 8.29925805,7.86111111 8.05110747,8.08333333 L3.80497545,11.5555556 L3.80497545,17.2222222 Z M13.0416912,0 L12.3799564,0 L1.90248773,0 C0.854740862,0 0,0.861111111 0,1.91666667 L0,17.2222222 L7.6099509,24.8888889 L17.0948172,24.8888889 C18.1425641,24.8888889 18.997305,24.0277778 18.997305,22.9722222 L18.997305,6.66666667 L18.997305,6 C18.6664375,2.83333333 16.1849318,0.333333333 13.0416912,0 L13.0416912,0 Z" id="Fill-24"></path>
                <path d="M10.8359083,18.5833333 L10.8359083,18.5833333 C11.1943481,18.2222222 11.4149264,17.75 11.4149264,17.2222222 L11.4149264,15.3055556 C11.4149264,14.25 10.5601855,13.3888889 9.51243863,13.3888889 C8.46469176,13.3888889 7.6099509,14.25 7.6099509,15.3055556 L7.6099509,17.2222222 C7.6099509,18.2777778 8.46469176,19.1388889 9.51243863,19.1388889 C10.0087398,19.1388889 10.4774686,18.9166667 10.8359083,18.5833333" id="Fill-25"></path>
            </g>
            <g id="公民學院" transform="translate(3.000000, 65.000000)" fill="#8CC63E">
                <polygon id="Fill-10" points="23.676122 6.2394675 16.4918056 2.4505425 7.07350056 7.3550925 5.03338757 6.2163675 14.3492972 1.3207425 11.845026 -0.0001575 -0.000103954802 6.2394675 11.8434667 12.4722675"></polygon>
                <polygon id="Fill-13" points="12.5077898 16.7179425 11.184965 16.7179425 11.1927616 13.5779175 4.46272768 9.9974175 4.44505537 17.0985675 11.8419593 20.9573175 19.2274282 17.0670675 19.2274282 9.9958425 12.5077898 13.5479925"></polygon>
            </g>
            <g id="Page-1" transform="translate(4.000000, 92.000000)">
                <g id="Group-11" transform="translate(3.391304, 4.156835)">
                    <path d="M0.432730435,0.304652174 L0.432730435,11.3467391 C0.432730435,15.3383043 4.7769913,18.8155217 7.76246957,19.3875217 C10.6303826,18.8155217 15.0910783,15.3383043 15.0910783,11.3467391 L15.0910783,0.304652174 L0.432730435,0.304652174 Z" id="Fill-1" fill="#FFFFFF"></path>
                    <path d="M6.80623478,0.304652174 L0.432843478,0.304652174 L0.432843478,11.3467391 C0.432843478,12.5178696 0.753886957,13.644913 1.34623478,14.6668261 L6.80623478,9.16273913 L6.80623478,0.304652174 Z" id="Fill-3" fill="#7F7F7F"></path>
                    <path d="M2.23170435,15.9838957 C3.51587826,17.5133739 5.53144348,18.6743304 6.80657391,19.185287 L6.80657391,11.4090261 L2.23170435,15.9838957 Z" id="Fill-5" fill="#7F7F7F"></path>
                    <path d="M8.71825217,0.304652174 L8.71825217,19.1761304 C11.2673826,18.2118696 15.0916435,14.9946522 15.0916435,11.3467391 L15.0916435,0.304652174 L8.71825217,0.304652174 Z" id="Fill-7" fill="#7F7F7F"></path>
                    <path d="M13.3763217,18.5484 C14.871887,18.7891826 16.4951913,18.3517043 17.6606696,17.1850957 C18.8272783,16.0196174 19.265887,14.396313 19.0239739,12.9007478 L13.3763217,18.5484 Z" id="Fill-9" fill="#B3B3B3"></path>
                </g>
                <polygon id="Fill-12" fill="#00FFFF" points="0 -0.000113043478 0 1.79953913 19.0749565 20.8665826 20.7073043 19.1731913 1.60521739 -0.000113043478"></polygon>
                <polygon id="Fill-13" fill="#C2262E" points="19.8777913 21.2572609 23.6285739 25.006913 24.8132696 23.8233478 21.062487 20.0714348"></polygon>
                <g id="Group-19" transform="translate(18.086957, 17.722052)">
                    <g id="Group-16" transform="translate(4.521739, 5.652174)">
                        <mask id="mask-2" fill="white">
                            <use xlink:href="#path-1"></use>
                        </mask>
                        <g id="Clip-15"></g>
                        <path d="M2.44106087,1.90941739 C2.9101913,1.44028696 2.9101913,0.680634783 2.44106087,0.211504348 L0.743147826,1.90941739 C1.21227826,2.37854783 1.97193043,2.37854783 2.44106087,1.90941739" id="Fill-14" fill="#B3B3B3" mask="url(#mask-2)"></path>
                    </g>
                    <path d="M3.23202609,1.42265217 C3.89672174,2.08734783 3.89672174,3.16578261 3.23202609,3.83047826 C2.56733043,4.49630435 1.48889565,4.49630435 0.8242,3.83047826 C0.158373913,3.16578261 0.158373913,2.08734783 0.8242,1.42265217 C1.48889565,0.757956522 2.56733043,0.757956522 3.23202609,1.42265217" id="Fill-17" fill="#EE1C23"></path>
                </g>
            </g>
        </g>
    </g>
</svg>