<?xml version="1.0" encoding="UTF-8" standalone="no"?>
<svg width="128px" height="256px" viewBox="0 0 128 256" version="1.1" xmlns="http://www.w3.org/2000/svg" xmlns:xlink="http://www.w3.org/1999/xlink">
    <!-- Generator: Sketch 40.3 (33839) - http://www.bohemiancoding.com/sketch -->
    <title>wo-cf-monthly-payments-usa</title>
    <desc>Created with Sketch.</desc>
    <defs></defs>
    <g id="Home" stroke="none" stroke-width="1" fill="none" fill-rule="evenodd">
        <g id="wo-cf-monthly-payments-usa">
            <g id="$?" transform="translate(41.000000, 212.000000)">
                <rect id="Rectangle-4" fill-opacity="0.25" fill="#4990E2" x="0" y="6" width="40" height="24"></rect>
                <rect id="Rectangle-4" fill-opacity="0.25" fill="#4990E2" x="6" y="0" width="40" height="24"></rect>
                <path d="M26.68,11.8 C26.68,9.42 24.74,8 22.48,8 C19.54,8 18,10.14 18,12.4 L19.8,12.4 C19.8,10.84 20.74,9.54 22.48,9.54 C23.2,9.54 23.88,9.8 24.32,10.26 C24.7,10.66 24.92,11.18 24.92,11.78 C24.92,12.86 24.5,13.48 23.7,14.1 C22.12,15.32 21.46,16.02 21.46,18.16 L21.46,18.66 L23.1,18.66 L23.1,18.22 C23.1,17 23.24,16.42 24.52,15.48 C25.88,14.48 26.68,13.4 26.68,11.8 L26.68,11.8 Z M23.62,22.5 L23.62,19.82 L21,19.82 L21,22.5 L23.62,22.5 Z" id="?" fill="#000000"></path>
            </g>
            <g id="$30" transform="translate(41.000000, 20.000000)">
                <rect id="Rectangle-4" fill-opacity="0.36" fill="#F8E81C" x="0" y="6" width="40" height="24"></rect>
                <rect id="Rectangle-4" fill-opacity="0.25" fill="#7ED321" x="6" y="0" width="40" height="24"></rect>
            </g>
            <rect id="Rectangle-4" fill-opacity="0.25" fill="#4990E2" x="44" y="154" width="40" height="24"></rect>
            <g id="$50" transform="translate(41.000000, 77.000000)">
                <rect id="Rectangle-4" fill-opacity="0.36" fill="#F8E81C" x="0" y="13" width="40" height="24"></rect>
                <rect id="Rectangle-4" fill-opacity="0.25" fill="#7ED321" x="6" y="7" width="40" height="24"></rect>
                <rect id="Rectangle-4" fill-opacity="0.25" fill="#7ED321" x="12" y="0" width="40" height="24"></rect>
            </g>
        </g>
    </g>
</svg>