<?xml version="1.0" encoding="UTF-8" standalone="no"?>
<svg width="128px" height="256px" viewBox="0 0 128 256" version="1.1" xmlns="http://www.w3.org/2000/svg" xmlns:xlink="http://www.w3.org/1999/xlink">
    <!-- Generator: Sketch 39.1 (31720) - http://www.bohemiancoding.com/sketch -->
    <title>wo-cf-monthly-payments</title>
    <desc>Created with Sketch.</desc>
    <defs></defs>
    <g id="Home" stroke="none" stroke-width="1" fill="none" fill-rule="evenodd">
        <g id="wo-cf-monthly-payments">
            <g id="$250" transform="translate(29.000000, 84.000000)">
                <rect id="Rectangle-4" fill-opacity="0.25" fill="#D0011B" x="0" y="6" width="40" height="24"></rect>
                <rect id="Rectangle-4" fill-opacity="0.25" fill="#D0011B" x="6" y="0" width="40" height="24"></rect>
                <circle id="Oval-2" fill="#F8E81C" cx="61" cy="21" r="9"></circle>
            </g>
            <rect id="Rectangle-4" fill-opacity="0.25" fill="#D0011B" x="44" y="26" width="40" height="24"></rect>
            <rect id="Rectangle-4" fill-opacity="0.25" fill="#8B572A" x="41" y="154" width="46" height="24"></rect>
            <rect id="Rectangle-4" fill-opacity="0.25" fill="#4990E2" x="38" y="218" width="52" height="24"></rect>
            <path d="M67.68,226.8 C67.68,224.42 65.74,223 63.48,223 C60.54,223 59,225.14 59,227.4 L60.8,227.4 C60.8,225.84 61.74,224.54 63.48,224.54 C64.2,224.54 64.88,224.8 65.32,225.26 C65.7,225.66 65.92,226.18 65.92,226.78 C65.92,227.86 65.5,228.48 64.7,229.1 C63.12,230.32 62.46,231.02 62.46,233.16 L62.46,233.66 L64.1,233.66 L64.1,233.22 C64.1,232 64.24,231.42 65.52,230.48 C66.88,229.48 67.68,228.4 67.68,226.8 L67.68,226.8 Z M64.62,237.5 L64.62,234.82 L62,234.82 L62,237.5 L64.62,237.5 Z" id="?" fill="#000000"></path>
        </g>
    </g>
</svg>