<?xml version="1.0" encoding="utf-8"?>
<!-- Generator: Adobe Illustrator 18.0.0, SVG Export Plug-In . SVG Version: 6.00 Build 0)  -->
<!DOCTYPE svg PUBLIC "-//W3C//DTD SVG 1.1//EN" "http://www.w3.org/Graphics/SVG/1.1/DTD/svg11.dtd">
<svg version="1.1" id="Layer_1" xmlns="http://www.w3.org/2000/svg" xmlns:xlink="http://www.w3.org/1999/xlink" x="0px" y="0px"
	 viewBox="0 0 128 512" enable-background="new 0 0 128 512" xml:space="preserve">
<title>wo-cf-gifts</title>
<desc>Created with Sketch.</desc>
<g id="Home">
	<g id="wo-cf-gifts">
		<g id="草民證" transform="translate(4.000000, 24.000000)">
			<g id="Rectangle-12">
				<path fill="#9B9B9B" d="M120,82H0c-1.1,0-2-0.9-2-2V0c0-1.1,0.9-2,2-2h120c1.1,0,2,0.9,2,2v80C122,81.1,121.1,82,120,82z M2,78
					h116V2H2V78z"/>
			</g>
			<g id="草民頭像" transform="translate(10.000000, 19.000000)">
				<g id="Rectangle-28">
					<rect fill="#EAEAEA" width="44" height="44"/>
					<path fill="#BBBBBB" d="M44,45H0c-0.6,0-1-0.4-1-1V0c0-0.6,0.4-1,1-1h44c0.6,0,1,0.4,1,1v44C45,44.6,44.6,45,44,45z M1,43h42V1
						H1V43z"/>
				</g>
				<g id="Page-1">
					<path fill="#50E3C2" d="M23.2,14.7c0,0-1-1.2,0-4.3c0.9-2.6,3.9-4.3,3.9-4.3s0.7,2,0.8,4.4c0.1,2.7-0.1,4.7-0.1,4.7l3.6,0.8
						c0,0-0.4-2.1,1.5-3.9c2-1.9,2.6-4.3,2.6-4.3s2.5,2.2,1.4,5.6c-0.8,2.5-2.9,4.1-2.9,4.1s2.7,3.2,2.6,7.3
						c-0.2,3.8-1,10.9-11.9,11.2S6.5,33.6,6.2,28.3c-0.3-6.6,4.8-10.9,7.2-12.1C18.3,13.8,23.2,14.7,23.2,14.7L23.2,14.7z"/>
				</g>
			</g>
		</g>
		<g id="Postcards" transform="translate(16.000000, 155.000000)">
			<g id="Rectangle-12_1_">
				<rect y="31" fill="#FFFFFF" width="66" height="44"/>
				<path fill="#9B9B9B" d="M66,77H0c-1.1,0-2-0.9-2-2V31c0-1.1,0.9-2,2-2h66c1.1,0,2,0.9,2,2v44C68,76.1,67.1,77,66,77z M2,73h62
					V33H2V73z"/>
			</g>
			<g id="Rectangle-12_2_">
				<rect x="15" y="16" fill="#FFFFFF" width="66" height="44"/>
				<path fill="#9B9B9B" d="M81,62H15c-1.1,0-2-0.9-2-2V16c0-1.1,0.9-2,2-2h66c1.1,0,2,0.9,2,2v44C83,61.1,82.1,62,81,62z M17,58h62
					V18H17V58z"/>
			</g>
			<g id="Rectangle-12_3_">
				<rect x="30" fill="#FFFFFF" width="66" height="44"/>
				<path fill="#9B9B9B" d="M96,46H30c-1.1,0-2-0.9-2-2V0c0-1.1,0.9-2,2-2h66c1.1,0,2,0.9,2,2v44C98,45.1,97.1,46,96,46z M32,42h62
					V2H32V42z"/>
			</g>
		</g>
		<g id="草報" transform="translate(32.000000, 270.000000)">
			<g id="Rectangle-13">
				<path fill="#9B9B9B" d="M64,102H0c-1.1,0-2-0.9-2-2V0c0-1.1,0.9-2,2-2h64c1.1,0,2,0.9,2,2v100C66,101.1,65.1,102,64,102z M2,98
					h60V2H2V98z"/>
			</g>
			<g id="news">
				<path d="M14.6,45.2c0-0.8,0.5-1.5,1.4-1.5c0.9,0,1.4,0.6,1.4,1.5V50h2.6v-5.3c0-1.8-0.9-3.3-3.1-3.3c-0.9,0-1.9,0.4-2.3,1.2v-1
					H12V50h2.6V45.2z M24,44.8c0.1-0.6,0.6-1.4,1.7-1.4c1.2,0,1.7,0.8,1.7,1.4H24z M27.5,47c-0.2,0.7-0.8,1.1-1.7,1.1
					c-1,0-1.9-0.7-1.9-1.6h5.8c0-0.1,0.1-0.4,0.1-0.8c0-2.7-1.6-4.3-4.2-4.3c-2.2,0-4.2,1.7-4.2,4.4c0,2.8,2.1,4.5,4.4,4.5
					c2.1,0,3.5-1.2,3.9-2.7L27.5,47z M36.1,41.6l-1.7,5l-1.4-5h-2.7L33,50h2.6l1.8-5.4l1.8,5.4h2.5l2.6-8.4h-2.5l-1.4,5l-1.6-5H36.1
					z M45,47.6c0.1,0.9,0.9,2.6,3.5,2.6c2.2,0,3.3-1.4,3.3-2.8c0-1.2-0.8-2.3-2.6-2.6l-1.1-0.2c-0.4-0.1-0.7-0.3-0.7-0.6
					c0-0.4,0.4-0.7,0.9-0.7c0.8,0,1.1,0.5,1.2,1l2.1-0.4c-0.1-1-0.9-2.5-3.4-2.5c-1.9,0-3.2,1.2-3.2,2.8c0,1.2,0.7,2.2,2.5,2.6
					l1,0.2c0.6,0.1,0.8,0.4,0.8,0.7c0,0.4-0.3,0.7-1,0.7c-0.9,0-1.3-0.6-1.3-1.1L45,47.6z"/>
			</g>
			<g id="沃" transform="translate(22.492987, 12.004003)">
				<g id="Fill-2">
					<polygon points="0.2,0 2,3.6 4.7,3.6 2.9,0 					"/>
				</g>
				<g id="Fill-3">
					<polygon points="1.1,7.9 4.8,7.9 4.8,5.4 1.1,5.4 					"/>
				</g>
				<g id="Fill-4">
					<polygon points="2,9.6 0,20.3 2.5,20.3 4.5,9.6 					"/>
				</g>
				<g id="Fill-5">
					<polygon points="7.7,0 7.7,2.5 11.6,2.5 11.6,6.5 6.2,6.5 6.2,8.9 11.4,8.9 5.8,20.3 8.6,20.3 12.9,11.5 17.2,20.3 19.9,20.3 
						14.4,8.9 19.6,8.9 19.6,6.5 14.2,6.5 14.2,2.5 18,2.5 18,0 					"/>
				</g>
			</g>
			<g id="Line">
				<path fill="#9B9B9B" d="M55,63H9c-0.6,0-1-0.4-1-1s0.4-1,1-1h46c0.6,0,1,0.4,1,1S55.6,63,55,63z"/>
			</g>
			<g id="Line_1_">
				<path fill="#9B9B9B" d="M55,71H9c-0.6,0-1-0.4-1-1s0.4-1,1-1h46c0.6,0,1,0.4,1,1S55.6,71,55,71z"/>
			</g>
			<g id="Line_2_">
				<path fill="#9B9B9B" d="M55,79H9c-0.6,0-1-0.4-1-1s0.4-1,1-1h46c0.6,0,1,0.4,1,1S55.6,79,55,79z"/>
			</g>
			<g id="Line_3_">
				<path fill="#9B9B9B" d="M32,87H9c-0.6,0-1-0.4-1-1s0.4-1,1-1h23c0.6,0,1,0.4,1,1S32.6,87,32,87z"/>
			</g>
		</g>
		<g id="Page-1_1_" transform="translate(63.000000, 51.000000)">
			<g id="Fill-1">
				<path d="M6.3,1.2C5.8,1.2,6.1,1.5,6.1,1.5C6.1,1.6,6.6,2,7.2,2.5C7.6,2.8,7.8,3.1,8,3.3c0.2,0.2,1,2,1,2S7.7,5.8,7.1,5.8
					S5.4,5.7,5,5.7C4.7,5.7,4.7,6,4.8,6.3c0.1,0.2,1.7,1.2,1.9,1.4c0.1,0,0.4,0.2,0.8,0C8,7.3,9.5,6.4,9.5,6.4s0.6,1.8,0.7,2
					c0.1,0.2,0.5,0.4,0.7,0C11,8,10.9,6.7,10.7,5.2c-0.1-1.2-0.2-2,0-2.6C10.8,2,10.5,1.4,10,1.4H7.8L6.3,1.2z"/>
			</g>
			<g id="Fill-3_1_">
				<path d="M15.8,0.5c0.1,0.3,0.3,0.7,0.2,1.1c-0.1,0.4-0.2,0.9-1,2.5c-0.9,1.6-2.1,2.7-2.1,2.8c0,0.1,0,0.2,0.2,0.2
					c0.2,0,1.9-0.9,2.5-1.4c0.9-0.7,1.5-1.6,1.5-1.6s1,0.3,1.9,0.2c0.9-0.1,2.1-0.5,2.4-0.6C21.8,3.6,22.1,3.5,22,3
					c-0.1-0.4-0.9-0.8-1.1-0.8c-0.2,0-1-0.2-1.3,0c-1,0.5-1.9,0.5-1.9,0.5s0.1-0.4,0.3-0.7c0.2-0.4,0.5-0.8,0.7-1
					c0.2-0.2,0-1.2-0.5-1.1c-0.5,0.1-0.9,0.2-1.2,0.2S16.2,0,16,0S15.7,0.2,15.8,0.5"/>
			</g>
			<g id="Fill-5_1_">
				<path d="M9.1,10.6c0,0,0.1,1.3,0.2,2.4s0.5,1.9,0.5,1.9s1.1-0.2,2.7-0.5s3-0.2,3.2-0.2c0.2,0,0.3-0.1,0.3-0.2
					c0-0.1,0.2-1,0.4-2.3c0.2-1.6,0.2-2.8,0.2-2.8s-0.8-0.2-1.9,0.1c-1.1,0.3-1.6,0.4-3.1,0.8C10.2,10.2,9.1,10.6,9.1,10.6 M6.4,9.2
					c0.5,0,0.9,0.5,1.2,0.4c0.3-0.1,1.9-0.5,4.5-1c2.6-0.5,3.5-1,3.8-1.2c0.3-0.2,0.6-0.4,0.8-0.4c0.2,0,1.4,0.7,2.3,1.2
					c0.9,0.4,1.5,1,1.8,1.3c0.3,0.3,0.3,1,0.1,0.9c-0.2-0.1-0.9,0.3-1.3,0.6c-0.4,0.3-1,1.6-1.1,1.9c-0.1,0.2-0.3,0.9-0.5,1.5
					c-0.3,0.6-0.9,1-1,1.2c-0.2,0.1-0.4,0.3-0.7,0.6c-0.2,0.2-0.6-0.1-0.7-0.3c-0.1-0.2-0.1-0.4-0.1-0.4s-1.7,0-2.6,0.2
					c-0.8,0.2-2.4,0.7-2.6,0.8c-0.2,0.1-0.7,0.7-1,0.6c-0.3-0.1-0.7-0.7-0.8-0.8c-0.2-0.2-0.1-0.7-0.3-1.8c-0.2-1.1-0.4-2.5-0.5-3
					c-0.2-0.4-1.6-1.6-1.6-1.8C5.8,9.2,5.8,9.2,6.4,9.2"/>
			</g>
			<g id="Fill-7">
				<path d="M9.1,12.7c0.1,0.1,0.9,0.1,1.5,0.2c0.6,0.1,1.3,0.2,2.6-0.2c1.4-0.4,2-0.6,2.1-0.8c0.1-0.2,0-0.6-0.5-0.8
					c-0.5-0.2-1.1-0.3-1.4-0.1c-0.4,0.2-1,0.4-2,0.7c-1,0.3-1.8,0.7-2.1,0.8C9.1,12.4,9,12.6,9.1,12.7"/>
			</g>
			<g id="Fill-9">
				<path d="M0,19.5c0,0.2,0.8,0.7,1.4,1.1c0.5,0.4,1.2,0.6,1.4,0.6c0.2,0,0.8,0.1,1.1-0.1c0.3-0.2,1.2-0.6,2.2-1
					c1-0.4,4.6-1,7.3-1.3c2.7-0.2,5.9-0.5,7.1-0.4c1.3,0.1,4,0.5,4.3,0.6c0.2,0.1,0.8-0.2,0.8-0.7c0-0.5-0.9-1.1-1.7-1.5
					c-0.8-0.4-1.4-0.7-1.7-0.6c-0.3,0.1-0.5,0.1-0.7,0.2c-0.2,0.1-2.3,0.2-9.4,1.2c-7,1-9.1,1.5-10,1.5s-1.6-0.1-1.9,0
					C-0.1,19.3,0,19.4,0,19.5"/>
			</g>
			<g id="Fill-11">
				<path d="M12,14.7c0.2-0.1,1.1,0.3,1.3,0.4c0.3,0.1,0.4,0.4,0.4,0.6c0,0.2,0,3-0.1,4.3c-0.1,1.3,0.1,2.6,0.2,2.9
					c0,0.3,0.2,1.1-0.1,1.9c-0.3,0.7-0.6,1.6-0.7,1.8c-0.1,0.2-0.7,0.1-0.8-0.2c-0.1-0.4-0.5-2.3-0.5-2.6c0.1-0.3,0.3-1.2,0.2-4.1
					c-0.1-2.9-0.4-4.2-0.4-4.4C11.7,14.8,11.9,14.7,12,14.7"/>
			</g>
			<g id="Fill-13">
				<path d="M30.9,3.1c0,0.2,0.8,0.9,1,1.2c0.2,0.4,0.5,2.3,0.2,7c-0.3,4.7-0.4,7.7-0.4,8c0,0.3-1.6,1.3-1.7,1.5
					c-0.1,0.2,1,2.5,1.1,3.1c0.1,0.5,0.6,0.6,0.7,0.3c0.1-0.3,1-2.3,2.2-3.2c1.2-1,4.7-4,4.7-4l-0.3-0.2l-4.8,2.1c0,0,0-3,0.2-5.6
					c0.1-2.5,0.3-5.5,0.2-6.9c0-1.4,0.2-2.4-0.2-2.7c-0.3-0.3-1.5-1-2.2-0.9C31,2.8,30.8,2.8,30.9,3.1"/>
			</g>
			<g id="Fill-15">
				<path d="M32.7,3.1c0.3-0.2,1.4,0.1,3.1-0.3c1.7-0.4,3.4-0.8,3.9-1.1C40.1,1.4,40.9,1,41,0.8c0.1-0.1,0.3-0.1,0.5,0
					c0.2,0.1,0.8,0.4,1.2,0.6c0.4,0.2,0.6,0.2,0.8,0.3c0.2,0.1,0.8,0.7,0.8,0.8c0,0.2-1.2,0.8-1.6,1.5c-0.5,0.7-1.3,2.1-1.5,2.3
					c-0.2,0.2-0.8-0.5-0.8-0.7c0-0.1,0.3-2.6,0.3-2.8c0-0.2-0.3-0.3-0.4-0.2c-0.2,0.1-1.7,0.6-2.9,0.9c-1.3,0.3-4,0.9-4.3,0.7
					C32.8,4.2,32.6,3.2,32.7,3.1"/>
			</g>
			<g id="Fill-17">
				<path d="M33.2,7.3c0.2,0,1.4-0.1,3.7-0.7c2.3-0.6,3.6-1.1,3.8-1.3c0.2-0.2,0.9-0.1,1.3,0.2c0.3,0.3,0.5,0.6,0.4,0.9
					c-0.1,0.2-2,0.6-4.8,1.3c-2.8,0.7-3.7,1.3-4.3,1.2c-0.6-0.1-0.4-1.2-0.4-1.4C32.9,7.3,33.1,7.4,33.2,7.3"/>
			</g>
			<g id="Fill-19">
				<path d="M33.9,12.7c0.1,0.2,0.6,0.2,1.1,0.3c0.5,0.1,1.3,0.1,4.3-0.3c3-0.4,5.6-1.1,5.9-1.4c0.3-0.2,0.4-0.7-0.1-1
					c-0.5-0.3-1.2-0.6-1.8-0.4c-0.5,0.2-1.9,0.7-4.4,1.3c-2.5,0.6-4.6,1-4.8,1.1C33.9,12.4,33.8,12.6,33.9,12.7"/>
			</g>
			<g id="Group-23" transform="translate(37.296296, 6.226529)">
				<g id="Clip-22">
				</g>
				<defs>
					<filter id="Adobe_OpacityMaskFilter" filterUnits="userSpaceOnUse" x="0.5" y="0.3" width="14.7" height="19">
						<feColorMatrix  type="matrix" values="1 0 0 0 0  0 1 0 0 0  0 0 1 0 0  0 0 0 1 0"/>
					</filter>
				</defs>
				<mask maskUnits="userSpaceOnUse" x="0.5" y="0.3" width="14.7" height="19" id="mask-2_1_">
					<g filter="url(#Adobe_OpacityMaskFilter)">
						<polygon id="path-1_1_" fill="#FFFFFF" points="15.2,19.2 15.2,0.3 0.5,0.3 0.5,19.2 						"/>
					</g>
				</mask>
				<g id="Fill-21" mask="url(#mask-2_1_)">
					<path d="M1.3,0.3c0.2,0,1.1,0.1,1.3,0.3c0.2,0.2-0.3,0.8,0,1.9c0.3,1.1,0.2,3.3,3.2,8c3,4.6,5.7,5.1,5.9,5.1
						c0.2,0,0.4-0.2,0.6-0.3c0.2-0.1,1.2-3.9,1.3-4c0.1-0.1,0.3,0,0.3,0.2c0,0.2-0.2,1.4-0.1,2.8c0.1,1.4,0.3,2.5,0.5,2.7
						c0.2,0.2,0.7,0.4,0.9,0.9c0.2,0.5-0.6,1.2-1.4,1.3c-0.5,0.1-1,0.2-2.2-0.3c-1.8-0.8-4.1-2.9-6-5.8s-3-5.5-3.9-8.3
						C0.7,2,0.4,1,0.5,0.8C0.7,0.5,0.8,0.3,1.3,0.3"/>
				</g>
			</g>
		</g>
		<g id="Page-1_2_" transform="translate(48.000000, 157.000000)">
			<g id="Mask">
				<g id="path-3_1_">
					<polygon fill="#EAEAEA" points="0,0 62,0 62,40 0,40 					"/>
				</g>
			</g>
			<defs>
				<filter id="Adobe_OpacityMaskFilter_1_" filterUnits="userSpaceOnUse" x="3" y="10" width="53" height="51.4">
					<feColorMatrix  type="matrix" values="1 0 0 0 0  0 1 0 0 0  0 0 1 0 0  0 0 0 1 0"/>
				</filter>
			</defs>
			<mask maskUnits="userSpaceOnUse" x="3" y="10" width="53" height="51.4" id="mask-4_1_">
				<g filter="url(#Adobe_OpacityMaskFilter_1_)">
					<polygon id="path-3_2_" fill="#FFFFFF" points="0,0 62,0 62,40 0,40 					"/>
				</g>
			</mask>
			<g mask="url(#mask-4_1_)">
				<path fill="#50E3C2" d="M32.2,24.6c0,0-1.8-2,0-7.3c1.5-4.4,6.7-7.3,6.7-7.3s1.2,3.5,1.4,7.6c0.2,4.6-0.2,8-0.2,8l6.1,1.4
					c0,0-0.7-3.6,2.6-6.7c3.5-3.2,4.4-7.3,4.4-7.3s4.3,3.8,2.3,9.6c-1.4,4.2-5,7.1-5,7.1s4.7,5.4,4.4,12.4
					c-0.3,6.6-1.7,18.7-20.4,19.2C15.9,61.9,3.5,56.9,3,47.9c-0.6-11.4,8.2-18.7,12.2-20.7C23.7,23,32.2,24.6,32.2,24.6L32.2,24.6z"
					/>
			</g>
		</g>
		<g id="Rectangle-34">
			<polygon fill="#50E3C2" points="75,439.1 83.2,435.2 83.2,471.3 75,475.2 			"/>
		</g>
		<g id="Path-12">
			<polygon fill="#50E3C2" points="53.5,420.7 81.2,434.8 72.9,438.8 45.5,424.7 			"/>
		</g>
		<g id="Cube" transform="translate(35.000000, 416.000000)">
			<g id="Rectangle-14">
				<path fill="#9B9B9B" d="M28.8,66c-0.3,0-0.6-0.1-0.9-0.2L-0.8,52.1c-0.7-0.3-1.1-1-1.1-1.8V14.7c0-0.7,0.4-1.3,0.9-1.7
					c0.6-0.4,1.3-0.4,1.9-0.1l28.8,13.7c0.7,0.3,1.1,1,1.1,1.8V64c0,0.7-0.4,1.3-0.9,1.7C29.6,65.9,29.2,66,28.8,66z M2.1,49.1
					l24.8,11.8V29.7L2.1,17.9V49.1z"/>
			</g>
			<g id="Rectangle-14_1_">
				<path fill="#9B9B9B" d="M28.8,66c-0.4,0-0.7-0.1-1.1-0.3c-0.6-0.4-0.9-1-0.9-1.7V28.4c0-0.8,0.4-1.5,1.1-1.8l28.8-13.7
					c0.6-0.3,1.3-0.3,1.9,0.1c0.6,0.4,0.9,1,0.9,1.7v35.6c0,0.8-0.4,1.5-1.1,1.8L29.7,65.8C29.4,65.9,29.1,66,28.8,66z M30.8,29.7
					v31.2l24.8-11.8V17.9L30.8,29.7z"/>
			</g>
			<g id="Path-2">
				<path fill="#9B9B9B" d="M57.5,16.9c-0.3,0-0.6-0.1-0.9-0.2L28.9,2.3L1.2,16.6c-1,0.5-2.2,0.1-2.7-0.9c-0.5-1-0.1-2.2,0.9-2.7
					L28-1.8c0.6-0.3,1.3-0.3,1.8,0l28.6,14.8c1,0.5,1.4,1.7,0.9,2.7C59,16.5,58.3,16.9,57.5,16.9z"/>
			</g>
		</g>
		<g id="Path-13">
			<path fill="#9B9B9B" d="M48.9,465c-0.4,0-0.7-0.2-0.9-0.6c-0.4-0.9-4-8.7-4-11.7c0-1.6,0-5.3,3.5-5.3c1.3,0,2.2,1,2.8,2
				c0.6-1,1.5-1.8,2.8-1.8c0.4,0,0.7,0.1,1.1,0.2c0.9,0.3,1.5,1,1.8,2c0.7,2.5-1.1,6.4-2.6,8.2c-1.7,2.1-3.7,6.4-3.7,6.4
				C49.6,464.8,49.3,465,48.9,465z M47.5,449.4c-0.7,0-1.5,0-1.5,3.3c0,1.7,1.7,6,2.9,8.9c0.8-1.5,1.9-3.5,3-4.9
				c1.4-1.7,2.6-4.9,2.2-6.4c-0.1-0.4-0.3-0.6-0.6-0.6c-0.1-0.1-0.3-0.1-0.4-0.1c-1,0-1.7,2-1.9,2.9c-0.1,0.5-0.5,0.8-1,0.8
				c-0.4,0-0.9-0.3-1-0.8C49,451.2,48.2,449.4,47.5,449.4z"/>
		</g>
	</g>
</g>
</svg>
