<?xml version="1.0" encoding="UTF-8" standalone="no"?>
<svg width="284px" height="572px" viewBox="0 0 284 572" version="1.1" xmlns="http://www.w3.org/2000/svg" xmlns:xlink="http://www.w3.org/1999/xlink">
    <!-- Generator: Sketch 39.1 (31720) - http://www.bohemiancoding.com/sketch -->
    <title>wo-august-2-purchases</title>
    <desc>Created with Sketch.</desc>
    <defs></defs>
    <g id="Home" stroke="none" stroke-width="1" fill="none" fill-rule="evenodd" stroke-linecap="round" stroke-linejoin="round">
        <g id="wo-august-2-purchases">
            <g id="Bracelet" opacity="0.12" transform="translate(50.000000, 87.000000)" stroke="#000000" stroke-width="2">
                <path d="M19.4444444,5.76530612 L19.4444444,10.8474103" id="Line"></path>
                <path d="M0.555555556,5.76530612 L0.555555556,10.8474103" id="Line"></path>
                <path d="M0.555555556,10.8163265 C0.555555556,13.9158838 4.78397736,16.4285714 10,16.4285714 C15.2160226,16.4285714 19.4444444,13.9158838 19.4444444,10.8163265" id="Oval-6"></path>
                <path d="M19.4444444,10.1335638 C19.4444444,7.03400654 15.2160226,4.52131892 10,4.52131892 C4.78397736,4.52131892 0.555555556,7.03400654 0.555555556,10.1335638" id="Oval-6"></path>
                <ellipse id="Oval-6" cx="10" cy="6.32653061" rx="9.44444444" ry="5.9630102"></ellipse>
            </g>
            <rect id="Towel" stroke="#000000" stroke-width="4" opacity="0.12" x="199" y="4" width="26" height="99"></rect>
            <path d="M271.403886,90.0694092 C270.963249,95.8338277 269.563632,100.482022 269.563632,100.482022 C269.563632,100.482022 268.41936,100.983246 266.147332,101.359165 C263.875305,101.735083 263.683052,100.690792 263.935646,100.031008 C264.18824,99.3712236 264.578913,99.726221 264.996454,99.319031 C265.413994,98.9118411 265.151049,97.078055 264.578913,95.0962799 C264.006778,93.1145048 262.893557,91.6984792 262.893557,91.6984792 C262.893557,91.6984792 261.402436,92.1726166 259.978262,92.1726166 C258.554088,92.1726166 257.428315,91.6421025 257.428315,91.6421025 C257.428315,91.6421025 257.831321,94.1940316 257.831321,95.9815711 C257.831321,97.7691107 257.175721,100.07285 257.175721,100.07285 C257.175721,100.07285 256.683305,100.878861 254.151856,101.365551 C251.620408,101.852241 251.407674,100.906169 251.407674,100.302541 C251.407674,99.6989135 251.883793,99.8138692 252.290983,99.4088815 C252.698173,99.0038938 252.817313,98.3335389 252.817313,96.1368274 C252.817313,93.9401159 251.704092,91.7348158 250.906449,90.5194122 C250.215948,89.467265 249.155936,89.0802028 248.883627,85.7965826 C247.824647,85.7341526 246.433934,85.3435201 245.265911,83.9772861 C243.037707,81.3709623 244.63938,77.7811283 245.865134,74.9118597 C246.774455,72.7833033 249.430816,69.5064153 250.741714,67.9563882 C249.195837,67.6739694 247.900402,67.0729658 246.680815,66.0024469 C243.740415,63.4214486 243.381233,60.0256299 244.815757,56.011649 C245.434058,54.281565 246.751165,52.126633 248.541602,50.2345338 C247.659264,49.9673978 246.438199,49.4337496 245.708776,48.4169867 C244.468268,46.6878059 245.708776,44 245.708776,44 L252.49502,47.1086722 C254.063757,46.2400406 255.785221,45.6971772 257.588175,45.6973453 C258.77968,45.6974564 261.453676,45.5247453 263.991322,47.0182024 L267.85361,44.5576014 C267.85361,44.5576014 268.922787,46.2511062 268.521763,47.815341 C268.323755,48.5876919 267.622251,49.3218163 266.962733,49.8671677 C269.985412,54.3583246 269.443077,59.2017968 268.736019,61.4958297 C268.468075,62.3651699 267.945284,63.3520614 267.059121,64.2843342 L267.387621,64.2245005 L273.43557,56.481065 C273.43557,56.481065 273.840557,55.5495272 274.49836,54.4426929 C275.156162,53.3358586 276.323557,53.2189209 276.323557,53.2189209 C276.323557,53.2189209 277.340761,50.4289322 277.693556,50.1783199 C278.046351,49.9277076 278.764935,50.6379226 278.526875,51.3247941 C278.288816,52.0116655 277.340761,53.8077937 277.340761,53.8077937 C277.340761,53.8077937 279.155388,54.5199907 279.155388,56.0694706 C279.155388,57.6189505 277.16106,58.6194177 277.16106,58.6194177 C277.16106,58.6194177 275.667957,62.910878 274.302142,65.9620497 C272.936327,69.0132214 270.503318,73.8451058 270.503318,73.8451058 C270.503318,73.8451058 271.535056,79.5547939 271.535056,86.7448123 C271.535056,86.7705941 271.535031,86.7963677 271.534981,86.8221327 C271.903418,86.8219674 273.02064,86.9321162 273.310484,88.2447423 C273.659095,89.8235117 271.652214,90.464577 271.652214,90.464577 L271.403886,90.0694092 Z" id="Figure" stroke="#000000" stroke-width="2" opacity="0.12"></path>
            <g id="Magnets" transform="translate(122.000000, 91.000000)" stroke="#50E3C2" stroke-width="2">
                <ellipse id="Oval-4" cx="4.484375" cy="4.5" rx="4.484375" ry="4.5"></ellipse>
                <path d="M36.515625,9 C38.9922769,9 41,6.98528137 41,4.5 C41,2.01471863 38.9922769,0 36.515625,0 C34.0389731,0 32.03125,2.01471863 32.03125,4.5 C32.03125,6.98528137 34.0389731,9 36.515625,9 Z" id="Oval-4"></path>
                <path d="M20.5,9 C22.9766519,9 24.984375,6.98528137 24.984375,4.5 C24.984375,2.01471863 22.9766519,0 20.5,0 C18.0233481,0 16.015625,2.01471863 16.015625,4.5 C16.015625,6.98528137 18.0233481,9 20.5,9 Z" id="Oval-4"></path>
            </g>
            <g id="T-shirt" opacity="0.12" transform="translate(104.000000, 9.000000)" stroke="#000000">
                <path d="M60.6144118,23.2413536 L60.6144118,63 L16.3587657,63 L16.3587657,23.276124 L11.5734309,28.0614588 L0.0442587207,16.5322866 L16.3587657,0.217779599 L16.3587657,0.0355932203 L60.6144118,0.0355932203 L60.6144118,0.155582255 L76.9744641,16.5156346 L65.4315784,28.0585202 L60.6144118,23.2413536 Z" id="Combined-Shape" stroke-width="4"></path>
                <path d="M39.651211,10.5296611 C45.4400391,10.5296611 50.1328114,5.83130688 50.1328114,0.0355932773 C50.1328114,0.0355931492 29.1696106,0.0355932773 29.1696106,0.0355932773 C29.1696106,5.83130688 33.862383,10.5296611 39.651211,10.5296611 Z" id="Oval-5" stroke-width="2"></path>
            </g>
            <g id="Keyring" opacity="0.12" transform="translate(255.000000, 6.000000)" stroke="#000000">
                <ellipse id="Oval-4" stroke-width="2" cx="4.484375" cy="4.5" rx="4.484375" ry="4.5"></ellipse>
                <ellipse id="Oval-4" stroke-width="4" cx="4.484375" cy="12.5" rx="4.484375" ry="4.5"></ellipse>
            </g>
            <g id="Bracelet" transform="translate(50.000000, 195.000000)" stroke="#F6A623" stroke-width="2">
                <path d="M19.4444444,5.76530612 L19.4444444,10.8474103" id="Line"></path>
                <path d="M0.555555556,5.76530612 L0.555555556,10.8474103" id="Line"></path>
                <path d="M0.555555556,10.8163265 C0.555555556,13.9158838 4.78397736,16.4285714 10,16.4285714 C15.2160226,16.4285714 19.4444444,13.9158838 19.4444444,10.8163265" id="Oval-6"></path>
                <path d="M19.4444444,10.1335638 C19.4444444,7.03400654 15.2160226,4.52131892 10,4.52131892 C4.78397736,4.52131892 0.555555556,7.03400654 0.555555556,10.1335638" id="Oval-6"></path>
                <ellipse id="Oval-6" cx="10" cy="6.32653061" rx="9.44444444" ry="5.9630102"></ellipse>
            </g>
            <rect id="Towel" stroke="#50E3C2" stroke-width="4" x="199" y="112" width="26" height="99"></rect>
            <path d="M271.403886,198.069409 C270.963249,203.833828 269.563632,208.482022 269.563632,208.482022 C269.563632,208.482022 268.41936,208.983246 266.147332,209.359165 C263.875305,209.735083 263.683052,208.690792 263.935646,208.031008 C264.18824,207.371224 264.578913,207.726221 264.996454,207.319031 C265.413994,206.911841 265.151049,205.078055 264.578913,203.09628 C264.006778,201.114505 262.893557,199.698479 262.893557,199.698479 C262.893557,199.698479 261.402436,200.172617 259.978262,200.172617 C258.554088,200.172617 257.428315,199.642102 257.428315,199.642102 C257.428315,199.642102 257.831321,202.194032 257.831321,203.981571 C257.831321,205.769111 257.175721,208.07285 257.175721,208.07285 C257.175721,208.07285 256.683305,208.878861 254.151856,209.365551 C251.620408,209.852241 251.407674,208.906169 251.407674,208.302541 C251.407674,207.698913 251.883793,207.813869 252.290983,207.408881 C252.698173,207.003894 252.817313,206.333539 252.817313,204.136827 C252.817313,201.940116 251.704092,199.734816 250.906449,198.519412 C250.215948,197.467265 249.155936,197.080203 248.883627,193.796583 C247.824647,193.734153 246.433934,193.34352 245.265911,191.977286 C243.037707,189.370962 244.63938,185.781128 245.865134,182.91186 C246.774455,180.783303 249.430816,177.506415 250.741714,175.956388 C249.195837,175.673969 247.900402,175.072966 246.680815,174.002447 C243.740415,171.421449 243.381233,168.02563 244.815757,164.011649 C245.434058,162.281565 246.751165,160.126633 248.541602,158.234534 C247.659264,157.967398 246.438199,157.43375 245.708776,156.416987 C244.468268,154.687806 245.708776,152 245.708776,152 L252.49502,155.108672 C254.063757,154.240041 255.785221,153.697177 257.588175,153.697345 C258.77968,153.697456 261.453676,153.524745 263.991322,155.018202 L267.85361,152.557601 C267.85361,152.557601 268.922787,154.251106 268.521763,155.815341 C268.323755,156.587692 267.622251,157.321816 266.962733,157.867168 C269.985412,162.358325 269.443077,167.201797 268.736019,169.49583 C268.468075,170.36517 267.945284,171.352061 267.059121,172.284334 L267.387621,172.224501 L273.43557,164.481065 C273.43557,164.481065 273.840557,163.549527 274.49836,162.442693 C275.156162,161.335859 276.323557,161.218921 276.323557,161.218921 C276.323557,161.218921 277.340761,158.428932 277.693556,158.17832 C278.046351,157.927708 278.764935,158.637923 278.526875,159.324794 C278.288816,160.011666 277.340761,161.807794 277.340761,161.807794 C277.340761,161.807794 279.155388,162.519991 279.155388,164.069471 C279.155388,165.618951 277.16106,166.619418 277.16106,166.619418 C277.16106,166.619418 275.667957,170.910878 274.302142,173.96205 C272.936327,177.013221 270.503318,181.845106 270.503318,181.845106 C270.503318,181.845106 271.535056,187.554794 271.535056,194.744812 C271.535056,194.770594 271.535031,194.796368 271.534981,194.822133 C271.903418,194.821967 273.02064,194.932116 273.310484,196.244742 C273.659095,197.823512 271.652214,198.464577 271.652214,198.464577 L271.403886,198.069409 Z" id="Figure" stroke="#000000" stroke-width="2" opacity="0.12"></path>
            <g id="Magnets" opacity="0.12" transform="translate(122.000000, 199.000000)" stroke="#000000" stroke-width="2">
                <ellipse id="Oval-4" cx="4.484375" cy="4.5" rx="4.484375" ry="4.5"></ellipse>
                <path d="M36.515625,9 C38.9922769,9 41,6.98528137 41,4.5 C41,2.01471863 38.9922769,0 36.515625,0 C34.0389731,0 32.03125,2.01471863 32.03125,4.5 C32.03125,6.98528137 34.0389731,9 36.515625,9 Z" id="Oval-4"></path>
                <path d="M20.5,9 C22.9766519,9 24.984375,6.98528137 24.984375,4.5 C24.984375,2.01471863 22.9766519,0 20.5,0 C18.0233481,0 16.015625,2.01471863 16.015625,4.5 C16.015625,6.98528137 18.0233481,9 20.5,9 Z" id="Oval-4"></path>
            </g>
            <g id="T-shirt" transform="translate(104.000000, 117.000000)" stroke="#000000">
                <path d="M60.6144118,23.2413536 L60.6144118,63 L16.3587657,63 L16.3587657,23.276124 L11.5734309,28.0614588 L0.0442587207,16.5322866 L16.3587657,0.217779599 L16.3587657,0.0355932203 L60.6144118,0.0355932203 L60.6144118,0.155582255 L76.9744641,16.5156346 L65.4315784,28.0585202 L60.6144118,23.2413536 Z" id="Combined-Shape" stroke-width="4"></path>
                <path d="M39.651211,10.5296611 C45.4400391,10.5296611 50.1328114,5.83130688 50.1328114,0.0355932773 C50.1328114,0.0355931492 29.1696106,0.0355932773 29.1696106,0.0355932773 C29.1696106,5.83130688 33.862383,10.5296611 39.651211,10.5296611 Z" id="Oval-5" stroke-width="2"></path>
            </g>
            <g id="Keyring" opacity="0.12" transform="translate(255.000000, 114.000000)" stroke="#000000">
                <ellipse id="Oval-4" stroke-width="2" cx="4.484375" cy="4.5" rx="4.484375" ry="4.5"></ellipse>
                <ellipse id="Oval-4" stroke-width="4" cx="4.484375" cy="12.5" rx="4.484375" ry="4.5"></ellipse>
            </g>
            <g id="Bracelet" transform="translate(50.000000, 303.000000)" stroke="#F6A623" stroke-width="2">
                <path d="M19.4444444,5.76530612 L19.4444444,10.8474103" id="Line"></path>
                <path d="M0.555555556,5.76530612 L0.555555556,10.8474103" id="Line"></path>
                <path d="M0.555555556,10.8163265 C0.555555556,13.9158838 4.78397736,16.4285714 10,16.4285714 C15.2160226,16.4285714 19.4444444,13.9158838 19.4444444,10.8163265" id="Oval-6"></path>
                <path d="M19.4444444,10.1335638 C19.4444444,7.03400654 15.2160226,4.52131892 10,4.52131892 C4.78397736,4.52131892 0.555555556,7.03400654 0.555555556,10.1335638" id="Oval-6"></path>
                <ellipse id="Oval-6" cx="10" cy="6.32653061" rx="9.44444444" ry="5.9630102"></ellipse>
            </g>
            <rect id="Towel" stroke="#000000" stroke-width="4" opacity="0.12" x="199" y="220" width="26" height="99"></rect>
            <path d="M271.403886,306.069409 C270.963249,311.833828 269.563632,316.482022 269.563632,316.482022 C269.563632,316.482022 268.41936,316.983246 266.147332,317.359165 C263.875305,317.735083 263.683052,316.690792 263.935646,316.031008 C264.18824,315.371224 264.578913,315.726221 264.996454,315.319031 C265.413994,314.911841 265.151049,313.078055 264.578913,311.09628 C264.006778,309.114505 262.893557,307.698479 262.893557,307.698479 C262.893557,307.698479 261.402436,308.172617 259.978262,308.172617 C258.554088,308.172617 257.428315,307.642102 257.428315,307.642102 C257.428315,307.642102 257.831321,310.194032 257.831321,311.981571 C257.831321,313.769111 257.175721,316.07285 257.175721,316.07285 C257.175721,316.07285 256.683305,316.878861 254.151856,317.365551 C251.620408,317.852241 251.407674,316.906169 251.407674,316.302541 C251.407674,315.698913 251.883793,315.813869 252.290983,315.408881 C252.698173,315.003894 252.817313,314.333539 252.817313,312.136827 C252.817313,309.940116 251.704092,307.734816 250.906449,306.519412 C250.215948,305.467265 249.155936,305.080203 248.883627,301.796583 C247.824647,301.734153 246.433934,301.34352 245.265911,299.977286 C243.037707,297.370962 244.63938,293.781128 245.865134,290.91186 C246.774455,288.783303 249.430816,285.506415 250.741714,283.956388 C249.195837,283.673969 247.900402,283.072966 246.680815,282.002447 C243.740415,279.421449 243.381233,276.02563 244.815757,272.011649 C245.434058,270.281565 246.751165,268.126633 248.541602,266.234534 C247.659264,265.967398 246.438199,265.43375 245.708776,264.416987 C244.468268,262.687806 245.708776,260 245.708776,260 L252.49502,263.108672 C254.063757,262.240041 255.785221,261.697177 257.588175,261.697345 C258.77968,261.697456 261.453676,261.524745 263.991322,263.018202 L267.85361,260.557601 C267.85361,260.557601 268.922787,262.251106 268.521763,263.815341 C268.323755,264.587692 267.622251,265.321816 266.962733,265.867168 C269.985412,270.358325 269.443077,275.201797 268.736019,277.49583 C268.468075,278.36517 267.945284,279.352061 267.059121,280.284334 L267.387621,280.224501 L273.43557,272.481065 C273.43557,272.481065 273.840557,271.549527 274.49836,270.442693 C275.156162,269.335859 276.323557,269.218921 276.323557,269.218921 C276.323557,269.218921 277.340761,266.428932 277.693556,266.17832 C278.046351,265.927708 278.764935,266.637923 278.526875,267.324794 C278.288816,268.011666 277.340761,269.807794 277.340761,269.807794 C277.340761,269.807794 279.155388,270.519991 279.155388,272.069471 C279.155388,273.618951 277.16106,274.619418 277.16106,274.619418 C277.16106,274.619418 275.667957,278.910878 274.302142,281.96205 C272.936327,285.013221 270.503318,289.845106 270.503318,289.845106 C270.503318,289.845106 271.535056,295.554794 271.535056,302.744812 C271.535056,302.770594 271.535031,302.796368 271.534981,302.822133 C271.903418,302.821967 273.02064,302.932116 273.310484,304.244742 C273.659095,305.823512 271.652214,306.464577 271.652214,306.464577 L271.403886,306.069409 Z" id="Figure" stroke="#F6A623" stroke-width="2"></path>
            <g id="Magnets" opacity="0.12" transform="translate(122.000000, 307.000000)" stroke="#000000" stroke-width="2">
                <ellipse id="Oval-4" cx="4.484375" cy="4.5" rx="4.484375" ry="4.5"></ellipse>
                <path d="M36.515625,9 C38.9922769,9 41,6.98528137 41,4.5 C41,2.01471863 38.9922769,0 36.515625,0 C34.0389731,0 32.03125,2.01471863 32.03125,4.5 C32.03125,6.98528137 34.0389731,9 36.515625,9 Z" id="Oval-4"></path>
                <path d="M20.5,9 C22.9766519,9 24.984375,6.98528137 24.984375,4.5 C24.984375,2.01471863 22.9766519,0 20.5,0 C18.0233481,0 16.015625,2.01471863 16.015625,4.5 C16.015625,6.98528137 18.0233481,9 20.5,9 Z" id="Oval-4"></path>
            </g>
            <g id="T-shirt" transform="translate(104.000000, 225.000000)" stroke="#000000">
                <path d="M60.6144118,23.2413536 L60.6144118,63 L16.3587657,63 L16.3587657,23.276124 L11.5734309,28.0614588 L0.0442587207,16.5322866 L16.3587657,0.217779599 L16.3587657,0.0355932203 L60.6144118,0.0355932203 L60.6144118,0.155582255 L76.9744641,16.5156346 L65.4315784,28.0585202 L60.6144118,23.2413536 Z" id="Combined-Shape" stroke-width="4"></path>
                <path d="M39.651211,10.5296611 C45.4400391,10.5296611 50.1328114,5.83130688 50.1328114,0.0355932773 C50.1328114,0.0355931492 29.1696106,0.0355932773 29.1696106,0.0355932773 C29.1696106,5.83130688 33.862383,10.5296611 39.651211,10.5296611 Z" id="Oval-5" stroke-width="2"></path>
            </g>
            <g id="Keyring" opacity="0.12" transform="translate(255.000000, 222.000000)" stroke="#000000">
                <ellipse id="Oval-4" stroke-width="2" cx="4.484375" cy="4.5" rx="4.484375" ry="4.5"></ellipse>
                <ellipse id="Oval-4" stroke-width="4" cx="4.484375" cy="12.5" rx="4.484375" ry="4.5"></ellipse>
            </g>
            <g id="Bracelet" transform="translate(50.000000, 411.000000)" stroke="#F6A623" stroke-width="2">
                <path d="M19.4444444,5.76530612 L19.4444444,10.8474103" id="Line"></path>
                <path d="M0.555555556,5.76530612 L0.555555556,10.8474103" id="Line"></path>
                <path d="M0.555555556,10.8163265 C0.555555556,13.9158838 4.78397736,16.4285714 10,16.4285714 C15.2160226,16.4285714 19.4444444,13.9158838 19.4444444,10.8163265" id="Oval-6"></path>
                <path d="M19.4444444,10.1335638 C19.4444444,7.03400654 15.2160226,4.52131892 10,4.52131892 C4.78397736,4.52131892 0.555555556,7.03400654 0.555555556,10.1335638" id="Oval-6"></path>
                <ellipse id="Oval-6" cx="10" cy="6.32653061" rx="9.44444444" ry="5.9630102"></ellipse>
            </g>
            <rect id="Towel" stroke="#50E3C2" stroke-width="4" x="199" y="328" width="26" height="99"></rect>
            <path d="M271.403886,414.069409 C270.963249,419.833828 269.563632,424.482022 269.563632,424.482022 C269.563632,424.482022 268.41936,424.983246 266.147332,425.359165 C263.875305,425.735083 263.683052,424.690792 263.935646,424.031008 C264.18824,423.371224 264.578913,423.726221 264.996454,423.319031 C265.413994,422.911841 265.151049,421.078055 264.578913,419.09628 C264.006778,417.114505 262.893557,415.698479 262.893557,415.698479 C262.893557,415.698479 261.402436,416.172617 259.978262,416.172617 C258.554088,416.172617 257.428315,415.642102 257.428315,415.642102 C257.428315,415.642102 257.831321,418.194032 257.831321,419.981571 C257.831321,421.769111 257.175721,424.07285 257.175721,424.07285 C257.175721,424.07285 256.683305,424.878861 254.151856,425.365551 C251.620408,425.852241 251.407674,424.906169 251.407674,424.302541 C251.407674,423.698913 251.883793,423.813869 252.290983,423.408881 C252.698173,423.003894 252.817313,422.333539 252.817313,420.136827 C252.817313,417.940116 251.704092,415.734816 250.906449,414.519412 C250.215948,413.467265 249.155936,413.080203 248.883627,409.796583 C247.824647,409.734153 246.433934,409.34352 245.265911,407.977286 C243.037707,405.370962 244.63938,401.781128 245.865134,398.91186 C246.774455,396.783303 249.430816,393.506415 250.741714,391.956388 C249.195837,391.673969 247.900402,391.072966 246.680815,390.002447 C243.740415,387.421449 243.381233,384.02563 244.815757,380.011649 C245.434058,378.281565 246.751165,376.126633 248.541602,374.234534 C247.659264,373.967398 246.438199,373.43375 245.708776,372.416987 C244.468268,370.687806 245.708776,368 245.708776,368 L252.49502,371.108672 C254.063757,370.240041 255.785221,369.697177 257.588175,369.697345 C258.77968,369.697456 261.453676,369.524745 263.991322,371.018202 L267.85361,368.557601 C267.85361,368.557601 268.922787,370.251106 268.521763,371.815341 C268.323755,372.587692 267.622251,373.321816 266.962733,373.867168 C269.985412,378.358325 269.443077,383.201797 268.736019,385.49583 C268.468075,386.36517 267.945284,387.352061 267.059121,388.284334 L267.387621,388.224501 L273.43557,380.481065 C273.43557,380.481065 273.840557,379.549527 274.49836,378.442693 C275.156162,377.335859 276.323557,377.218921 276.323557,377.218921 C276.323557,377.218921 277.340761,374.428932 277.693556,374.17832 C278.046351,373.927708 278.764935,374.637923 278.526875,375.324794 C278.288816,376.011666 277.340761,377.807794 277.340761,377.807794 C277.340761,377.807794 279.155388,378.519991 279.155388,380.069471 C279.155388,381.618951 277.16106,382.619418 277.16106,382.619418 C277.16106,382.619418 275.667957,386.910878 274.302142,389.96205 C272.936327,393.013221 270.503318,397.845106 270.503318,397.845106 C270.503318,397.845106 271.535056,403.554794 271.535056,410.744812 C271.535056,410.770594 271.535031,410.796368 271.534981,410.822133 C271.903418,410.821967 273.02064,410.932116 273.310484,412.244742 C273.659095,413.823512 271.652214,414.464577 271.652214,414.464577 L271.403886,414.069409 Z" id="Figure" stroke="#F6A623" stroke-width="2"></path>
            <g id="Magnets" transform="translate(122.000000, 415.000000)" stroke="#50E3C2" stroke-width="2">
                <ellipse id="Oval-4" cx="4.484375" cy="4.5" rx="4.484375" ry="4.5"></ellipse>
                <path d="M36.515625,9 C38.9922769,9 41,6.98528137 41,4.5 C41,2.01471863 38.9922769,0 36.515625,0 C34.0389731,0 32.03125,2.01471863 32.03125,4.5 C32.03125,6.98528137 34.0389731,9 36.515625,9 Z" id="Oval-4"></path>
                <path d="M20.5,9 C22.9766519,9 24.984375,6.98528137 24.984375,4.5 C24.984375,2.01471863 22.9766519,0 20.5,0 C18.0233481,0 16.015625,2.01471863 16.015625,4.5 C16.015625,6.98528137 18.0233481,9 20.5,9 Z" id="Oval-4"></path>
            </g>
            <g id="T-shirt" transform="translate(104.000000, 333.000000)" stroke="#000000">
                <path d="M60.6144118,23.2413536 L60.6144118,63 L16.3587657,63 L16.3587657,23.276124 L11.5734309,28.0614588 L0.0442587207,16.5322866 L16.3587657,0.217779599 L16.3587657,0.0355932203 L60.6144118,0.0355932203 L60.6144118,0.155582255 L76.9744641,16.5156346 L65.4315784,28.0585202 L60.6144118,23.2413536 Z" id="Combined-Shape" stroke-width="4"></path>
                <path d="M39.651211,10.5296611 C45.4400391,10.5296611 50.1328114,5.83130688 50.1328114,0.0355932773 C50.1328114,0.0355931492 29.1696106,0.0355932773 29.1696106,0.0355932773 C29.1696106,5.83130688 33.862383,10.5296611 39.651211,10.5296611 Z" id="Oval-5" stroke-width="2"></path>
            </g>
            <g id="Keyring" transform="translate(255.000000, 330.000000)" stroke="#000000">
                <ellipse id="Oval-4" stroke-width="2" cx="4.484375" cy="4.5" rx="4.484375" ry="4.5"></ellipse>
                <ellipse id="Oval-4" stroke-width="4" cx="4.484375" cy="12.5" rx="4.484375" ry="4.5"></ellipse>
            </g>
            <g id="Bracelet" transform="translate(50.000000, 535.000000)" stroke="#F6A623" stroke-width="2">
                <path d="M19.4444444,5.76530612 L19.4444444,10.8474103" id="Line"></path>
                <path d="M0.555555556,5.76530612 L0.555555556,10.8474103" id="Line"></path>
                <path d="M0.555555556,10.8163265 C0.555555556,13.9158838 4.78397736,16.4285714 10,16.4285714 C15.2160226,16.4285714 19.4444444,13.9158838 19.4444444,10.8163265" id="Oval-6"></path>
                <path d="M19.4444444,10.1335638 C19.4444444,7.03400654 15.2160226,4.52131892 10,4.52131892 C4.78397736,4.52131892 0.555555556,7.03400654 0.555555556,10.1335638" id="Oval-6"></path>
                <ellipse id="Oval-6" cx="10" cy="6.32653061" rx="9.44444444" ry="5.9630102"></ellipse>
            </g>
            <rect id="Towel" stroke="#50E3C2" stroke-width="4" x="199" y="452" width="26" height="99"></rect>
            <path d="M271.403886,538.069409 C270.963249,543.833828 269.563632,548.482022 269.563632,548.482022 C269.563632,548.482022 268.41936,548.983246 266.147332,549.359165 C263.875305,549.735083 263.683052,548.690792 263.935646,548.031008 C264.18824,547.371224 264.578913,547.726221 264.996454,547.319031 C265.413994,546.911841 265.151049,545.078055 264.578913,543.09628 C264.006778,541.114505 262.893557,539.698479 262.893557,539.698479 C262.893557,539.698479 261.402436,540.172617 259.978262,540.172617 C258.554088,540.172617 257.428315,539.642102 257.428315,539.642102 C257.428315,539.642102 257.831321,542.194032 257.831321,543.981571 C257.831321,545.769111 257.175721,548.07285 257.175721,548.07285 C257.175721,548.07285 256.683305,548.878861 254.151856,549.365551 C251.620408,549.852241 251.407674,548.906169 251.407674,548.302541 C251.407674,547.698913 251.883793,547.813869 252.290983,547.408881 C252.698173,547.003894 252.817313,546.333539 252.817313,544.136827 C252.817313,541.940116 251.704092,539.734816 250.906449,538.519412 C250.215948,537.467265 249.155936,537.080203 248.883627,533.796583 C247.824647,533.734153 246.433934,533.34352 245.265911,531.977286 C243.037707,529.370962 244.63938,525.781128 245.865134,522.91186 C246.774455,520.783303 249.430816,517.506415 250.741714,515.956388 C249.195837,515.673969 247.900402,515.072966 246.680815,514.002447 C243.740415,511.421449 243.381233,508.02563 244.815757,504.011649 C245.434058,502.281565 246.751165,500.126633 248.541602,498.234534 C247.659264,497.967398 246.438199,497.43375 245.708776,496.416987 C244.468268,494.687806 245.708776,492 245.708776,492 L252.49502,495.108672 C254.063757,494.240041 255.785221,493.697177 257.588175,493.697345 C258.77968,493.697456 261.453676,493.524745 263.991322,495.018202 L267.85361,492.557601 C267.85361,492.557601 268.922787,494.251106 268.521763,495.815341 C268.323755,496.587692 267.622251,497.321816 266.962733,497.867168 C269.985412,502.358325 269.443077,507.201797 268.736019,509.49583 C268.468075,510.36517 267.945284,511.352061 267.059121,512.284334 L267.387621,512.224501 L273.43557,504.481065 C273.43557,504.481065 273.840557,503.549527 274.49836,502.442693 C275.156162,501.335859 276.323557,501.218921 276.323557,501.218921 C276.323557,501.218921 277.340761,498.428932 277.693556,498.17832 C278.046351,497.927708 278.764935,498.637923 278.526875,499.324794 C278.288816,500.011666 277.340761,501.807794 277.340761,501.807794 C277.340761,501.807794 279.155388,502.519991 279.155388,504.069471 C279.155388,505.618951 277.16106,506.619418 277.16106,506.619418 C277.16106,506.619418 275.667957,510.910878 274.302142,513.96205 C272.936327,517.013221 270.503318,521.845106 270.503318,521.845106 C270.503318,521.845106 271.535056,527.554794 271.535056,534.744812 C271.535056,534.770594 271.535031,534.796368 271.534981,534.822133 C271.903418,534.821967 273.02064,534.932116 273.310484,536.244742 C273.659095,537.823512 271.652214,538.464577 271.652214,538.464577 L271.403886,538.069409 Z" id="Figure" stroke="#F6A623" stroke-width="2"></path>
            <g id="Magnets" transform="translate(122.000000, 539.000000)" stroke="#50E3C2" stroke-width="2">
                <ellipse id="Oval-4" cx="4.484375" cy="4.5" rx="4.484375" ry="4.5"></ellipse>
                <path d="M36.515625,9 C38.9922769,9 41,6.98528137 41,4.5 C41,2.01471863 38.9922769,0 36.515625,0 C34.0389731,0 32.03125,2.01471863 32.03125,4.5 C32.03125,6.98528137 34.0389731,9 36.515625,9 Z" id="Oval-4"></path>
                <path d="M20.5,9 C22.9766519,9 24.984375,6.98528137 24.984375,4.5 C24.984375,2.01471863 22.9766519,0 20.5,0 C18.0233481,0 16.015625,2.01471863 16.015625,4.5 C16.015625,6.98528137 18.0233481,9 20.5,9 Z" id="Oval-4"></path>
            </g>
            <g id="T-shirt" transform="translate(104.000000, 457.000000)" stroke="#000000">
                <path d="M60.6144118,23.2413536 L60.6144118,63 L16.3587657,63 L16.3587657,23.276124 L11.5734309,28.0614588 L0.0442587207,16.5322866 L16.3587657,0.217779599 L16.3587657,0.0355932203 L60.6144118,0.0355932203 L60.6144118,0.155582255 L76.9744641,16.5156346 L65.4315784,28.0585202 L60.6144118,23.2413536 Z" id="Combined-Shape" stroke-width="4" fill-opacity="0.0025" fill="#50E3C2"></path>
                <path d="M39.651211,10.5296611 C45.4400391,10.5296611 50.1328114,5.83130688 50.1328114,0.0355932773 C50.1328114,0.0355931492 29.1696106,0.0355932773 29.1696106,0.0355932773 C29.1696106,5.83130688 33.862383,10.5296611 39.651211,10.5296611 Z" id="Oval-5" stroke-width="2"></path>
            </g>
            <g id="Keyring" transform="translate(255.000000, 454.000000)" stroke="#000000">
                <ellipse id="Oval-4" stroke-width="2" cx="4.484375" cy="4.5" rx="4.484375" ry="4.5"></ellipse>
                <ellipse id="Oval-4" stroke-width="4" cx="4.484375" cy="12.5" rx="4.484375" ry="4.5"></ellipse>
            </g>
            <g id="Bag" transform="translate(31.000000, 461.000000)" stroke="#50E3C2">
                <path d="M46.9998866,4 L49.0001134,4 C53.4183288,4 57,7.58786228 57,12.0093207 L57,47.3919527 L57,47.3919527 C57,51.566754 53.423938,54.9510992 48.9969907,54.9510992 L47.6816644,54.9510992 L45.0060392,54.9510992 C41.6889954,54.9510992 39,52.2656287 39,48.956534" id="Rectangle" stroke-width="2"></path>
                <path d="M7.9998866,4 L10.0001134,4 C14.4183288,4 18,7.58786228 18,12.0093207 L18,47.3919527 L18,47.3919527 C18,51.566754 14.423938,54.9510992 9.99699067,54.9510992 L8.68166444,54.9510992 L6.00603923,54.9510992 C2.68899535,54.9510992 0,52.2656287 0,48.956534" id="Rectangle" stroke-width="2" transform="translate(9.000000, 29.475550) scale(-1, 1) translate(-9.000000, -29.475550) "></path>
                <polygon id="Rectangle-19" stroke-width="4" points="10.1132075 0 46.4339623 0 49.5471698 47.7692308 7 47.7692308"></polygon>
            </g>
            <g id="Bag" transform="translate(31.000000, 337.000000)" stroke="#50E3C2">
                <path d="M46.9998866,4 L49.0001134,4 C53.4183288,4 57,7.58786228 57,12.0093207 L57,47.3919527 L57,47.3919527 C57,51.566754 53.423938,54.9510992 48.9969907,54.9510992 L47.6816644,54.9510992 L45.0060392,54.9510992 C41.6889954,54.9510992 39,52.2656287 39,48.956534" id="Rectangle" stroke-width="2"></path>
                <path d="M7.9998866,4 L10.0001134,4 C14.4183288,4 18,7.58786228 18,12.0093207 L18,47.3919527 L18,47.3919527 C18,51.566754 14.423938,54.9510992 9.99699067,54.9510992 L8.68166444,54.9510992 L6.00603923,54.9510992 C2.68899535,54.9510992 0,52.2656287 0,48.956534" id="Rectangle" stroke-width="2" transform="translate(9.000000, 29.475550) scale(-1, 1) translate(-9.000000, -29.475550) "></path>
                <polygon id="Rectangle-19" stroke-width="4" points="10.1132075 0 46.4339623 0 49.5471698 47.7692308 7 47.7692308"></polygon>
            </g>
            <g id="Bag" transform="translate(31.000000, 229.000000)" stroke="#50E3C2">
                <path d="M46.9998866,4 L49.0001134,4 C53.4183288,4 57,7.58786228 57,12.0093207 L57,47.3919527 L57,47.3919527 C57,51.566754 53.423938,54.9510992 48.9969907,54.9510992 L47.6816644,54.9510992 L45.0060392,54.9510992 C41.6889954,54.9510992 39,52.2656287 39,48.956534" id="Rectangle" stroke-width="2"></path>
                <path d="M7.9998866,4 L10.0001134,4 C14.4183288,4 18,7.58786228 18,12.0093207 L18,47.3919527 L18,47.3919527 C18,51.566754 14.423938,54.9510992 9.99699067,54.9510992 L8.68166444,54.9510992 L6.00603923,54.9510992 C2.68899535,54.9510992 0,52.2656287 0,48.956534" id="Rectangle" stroke-width="2" transform="translate(9.000000, 29.475550) scale(-1, 1) translate(-9.000000, -29.475550) "></path>
                <polygon id="Rectangle-19" stroke-width="4" points="10.1132075 0 46.4339623 0 49.5471698 47.7692308 7 47.7692308"></polygon>
            </g>
            <g id="Bag" opacity="0.12" transform="translate(31.000000, 121.000000)" stroke="#000000">
                <path d="M46.9998866,4 L49.0001134,4 C53.4183288,4 57,7.58786228 57,12.0093207 L57,47.3919527 L57,47.3919527 C57,51.566754 53.423938,54.9510992 48.9969907,54.9510992 L47.6816644,54.9510992 L45.0060392,54.9510992 C41.6889954,54.9510992 39,52.2656287 39,48.956534" id="Rectangle" stroke-width="2"></path>
                <path d="M7.9998866,4 L10.0001134,4 C14.4183288,4 18,7.58786228 18,12.0093207 L18,47.3919527 L18,47.3919527 C18,51.566754 14.423938,54.9510992 9.99699067,54.9510992 L8.68166444,54.9510992 L6.00603923,54.9510992 C2.68899535,54.9510992 0,52.2656287 0,48.956534" id="Rectangle" stroke-width="2" transform="translate(9.000000, 29.475550) scale(-1, 1) translate(-9.000000, -29.475550) "></path>
                <polygon id="Rectangle-19" stroke-width="4" points="10.1132075 0 46.4339623 0 49.5471698 47.7692308 7 47.7692308"></polygon>
            </g>
            <g id="Bag" opacity="0.12" transform="translate(31.000000, 13.000000)" stroke="#000000">
                <path d="M46.9998866,4 L49.0001134,4 C53.4183288,4 57,7.58786228 57,12.0093207 L57,47.3919527 L57,47.3919527 C57,51.566754 53.423938,54.9510992 48.9969907,54.9510992 L47.6816644,54.9510992 L45.0060392,54.9510992 C41.6889954,54.9510992 39,52.2656287 39,48.956534" id="Rectangle" stroke-width="2"></path>
                <path d="M7.9998866,4 L10.0001134,4 C14.4183288,4 18,7.58786228 18,12.0093207 L18,47.3919527 L18,47.3919527 C18,51.566754 14.423938,54.9510992 9.99699067,54.9510992 L8.68166444,54.9510992 L6.00603923,54.9510992 C2.68899535,54.9510992 0,52.2656287 0,48.956534" id="Rectangle" stroke-width="2" transform="translate(9.000000, 29.475550) scale(-1, 1) translate(-9.000000, -29.475550) "></path>
                <polygon id="Rectangle-19" stroke-width="4" points="10.1132075 0 46.4339623 0 49.5471698 47.7692308 7 47.7692308"></polygon>
            </g>
        </g>
    </g>
</svg>