<?xml version="1.0" encoding="UTF-8" standalone="no"?>
<svg width="128px" height="512px" viewBox="0 0 128 512" version="1.1" xmlns="http://www.w3.org/2000/svg" xmlns:xlink="http://www.w3.org/1999/xlink">
    <!-- Generator: Sketch 39.1 (31720) - http://www.bohemiancoding.com/sketch -->
    <title>wo-august-2-amendments</title>
    <desc>Created with Sketch.</desc>
    <defs>
        <polygon id="path-1" points="15.2123086 19.2340521 15.2123086 0.279435983 0.489477245 0.279435983 0.489477245 19.2340521 15.2123086 19.2340521"></polygon>
    </defs>
    <g id="Home" stroke="none" stroke-width="1" fill="none" fill-rule="evenodd">
        <g id="wo-august-2-amendments">
            <g id="草民證" transform="translate(4.000000, 24.000000)">
                <rect id="Rectangle-12" stroke="#9B9B9B" stroke-width="4" stroke-linecap="round" stroke-linejoin="round" x="0" y="0" width="120" height="80"></rect>
                <g id="草民頭像" transform="translate(11.000000, 19.000000)">
                    <rect id="Rectangle-28" fill="#50E3C2" x="0" y="0" width="44" height="44"></rect>
                    <path d="M23.1339943,15.0593191 C23.1339943,15.0593191 22.1642971,13.9385902 23.1339943,11.0296596 C23.9399263,8.61186383 26.8412811,7 26.8412811,7 C26.8412811,7 27.4860267,8.93423659 27.593538,11.190846 C27.7134607,13.7109951 27.4860267,15.5965534 27.4860267,15.5965534 L30.8709407,16.3488102 C30.8709407,16.3488102 30.465557,14.3428457 32.3216182,12.6415234 C34.2558548,10.8684732 34.7394139,8.61186383 34.7394139,8.61186383 C34.7394139,8.61186383 37.1035346,10.7072868 36.028905,13.9310145 C35.2524702,16.2601577 33.2887365,17.8531627 33.2887365,17.8531627 C33.2887365,17.8531627 35.8677186,20.8620289 35.7065322,24.7305021 C35.5551782,28.3638044 34.7394139,35.0464306 24.4234854,35.3688034 C14.1075569,35.6911762 7.27132002,32.944399 7.01535605,27.9542298 C6.69298328,21.6679608 11.5285748,17.6383013 13.7851841,16.5099966 C18.4634577,14.1708598 23.1339943,15.0593191 23.1339943,15.0593191 L23.1339943,15.0593191 Z" id="Page-1" stroke="#000000" stroke-width="2" stroke-linecap="round" stroke-linejoin="round"></path>
                </g>
            </g>
            <g id="Postcards" transform="translate(16.000000, 155.000000)" stroke="#9B9B9B" stroke-width="4" fill="#FFFFFF" stroke-linecap="round" stroke-linejoin="round">
                <rect id="Rectangle-12" x="0" y="31" width="66" height="44"></rect>
                <rect id="Rectangle-12" x="15" y="16" width="66" height="44"></rect>
                <rect id="Rectangle-12" x="30" y="0" width="66" height="44"></rect>
            </g>
            <g id="草報" transform="translate(32.000000, 270.000000)">
                <rect id="Rectangle-13" stroke="#9B9B9B" stroke-width="4" stroke-linecap="round" stroke-linejoin="round" x="0" y="0" width="64" height="100"></rect>
                <path d="M15.504,44.44 C15.504,43.64 16.016,43.048 16.816,43.048 C17.696,43.048 18.112,43.64 18.112,44.424 L18.112,49 L20.544,49 L20.544,44.008 C20.544,42.264 19.648,40.84 17.648,40.84 C16.832,40.84 15.856,41.208 15.424,41.96 L15.424,41.048 L13.072,41.048 L13.072,49 L15.504,49 L15.504,44.44 Z M24.432,44.072 C24.48,43.48 24.992,42.728 26.016,42.728 C27.168,42.728 27.584,43.464 27.616,44.072 L24.432,44.072 Z M27.792,46.136 C27.568,46.76 27.072,47.176 26.192,47.176 C25.248,47.176 24.432,46.536 24.384,45.64 L29.92,45.64 C29.936,45.592 29.968,45.224 29.968,44.888 C29.968,42.328 28.448,40.808 25.984,40.808 C23.92,40.808 22.016,42.44 22.016,45 C22.016,47.672 23.968,49.24 26.16,49.24 C28.176,49.24 29.44,48.088 29.824,46.712 L27.792,46.136 Z M35.904,41.048 L34.336,45.752 L33.008,41.048 L30.48,41.048 L32.976,49 L35.44,49 L37.136,43.864 L38.864,49 L41.28,49 L43.744,41.048 L41.36,41.048 L40.032,45.768 L38.48,41.048 L35.904,41.048 Z M44.336,46.744 C44.4,47.624 45.2,49.24 47.696,49.24 C49.824,49.24 50.864,47.912 50.864,46.552 C50.864,45.384 50.064,44.392 48.416,44.056 L47.36,43.848 C47.008,43.784 46.736,43.592 46.736,43.256 C46.736,42.84 47.136,42.568 47.6,42.568 C48.336,42.568 48.672,43.016 48.736,43.544 L50.752,43.176 C50.672,42.248 49.872,40.808 47.568,40.808 C45.792,40.808 44.512,41.992 44.512,43.448 C44.512,44.568 45.184,45.528 46.88,45.896 L47.792,46.104 C48.384,46.232 48.576,46.472 48.576,46.76 C48.576,47.112 48.272,47.448 47.648,47.448 C46.816,47.448 46.432,46.92 46.4,46.376 L44.336,46.744 Z" id="news" fill="#000000"></path>
                <g id="沃" transform="translate(23.000000, 13.000000)" fill="#000000">
                    <polygon id="Fill-2" points="0.168101625 0 1.8638156 3.4105373 4.45436165 3.4105373 2.75835948 0"></polygon>
                    <polygon id="Fill-3" points="1.00941668 7.44461137 4.5411935 7.4449035 4.5411935 5.08717788 1.00941668 5.08688576"></polygon>
                    <polygon id="Fill-4" points="1.89370098 9.09119249 0 19.2635034 2.41071506 19.2635034 4.30441603 9.09119249"></polygon>
                    <polygon id="Fill-5" points="7.28007129 0 7.28007129 2.35801774 10.9634364 2.35801774 10.9634364 6.11910276 5.8414234 6.11910276 5.8414234 8.47741262 10.7697723 8.47741262 5.54256966 19.2631821 8.11928256 19.2631821 12.1908405 10.8628899 16.2621103 19.2631821 18.8391114 19.2631821 13.6116206 8.47741262 18.5402576 8.47741262 18.5402576 6.11910276 13.4179564 6.11910276 13.4179564 2.35801774 17.1013216 2.35801774 17.1013216 0"></polygon>
                </g>
                <path d="M9,60 L55.0108681,60" id="Line" stroke="#9B9B9B" stroke-width="2" stroke-linecap="round" stroke-linejoin="round"></path>
                <path d="M9,68 L55.0108681,68" id="Line" stroke="#9B9B9B" stroke-width="2" stroke-linecap="round" stroke-linejoin="round"></path>
                <path d="M9,76 L55.0108681,76" id="Line" stroke="#9B9B9B" stroke-width="2" stroke-linecap="round" stroke-linejoin="round"></path>
                <path d="M9,84 L32.0217285,84" id="Line" stroke="#9B9B9B" stroke-width="2" stroke-linecap="round" stroke-linejoin="round"></path>
            </g>
            <g id="Cube" transform="translate(35.000000, 416.000000)" stroke-linecap="round" stroke-width="4" stroke="#9B9B9B" stroke-linejoin="round">
                <polygon id="Rectangle-14" points="0.0561797753 14.7368421 28.8426966 28.4210526 28.8426966 64 0.0561797753 50.3157895"></polygon>
                <polyline id="Rectangle-14" points="57.6292135 14.7368421 28.8426966 28.4210526 28.8426966 64 57.6292135 50.3157895 57.6292135 14.7368421"></polyline>
                <polyline id="Path-2" points="0.291015625 14.8623047 28.9116211 0.017578125 57.5322266 14.8623047"></polyline>
            </g>
            <g id="Page-1" transform="translate(64.000000, 51.000000)">
                <path d="M6.33657531,1.1799 C5.84583457,1.23455854 6.14551358,1.53682683 6.14551358,1.53682683 C6.08597037,1.62704634 6.6356,2.01360732 7.15447654,2.46931463 C7.57782222,2.8413878 7.79505679,3.11468049 7.98611852,3.30631463 C8.17652593,3.49860732 8.95385926,5.3504122 8.95385926,5.3504122 C8.95385926,5.3504122 7.68971111,5.82719268 7.08969877,5.82719268 C6.48968642,5.82719268 5.39108148,5.69877805 5.02793333,5.72116829 C4.66478519,5.74355854 4.74134074,6.00894878 4.82313086,6.2559 C4.90492099,6.50285122 6.55315556,7.47485122 6.74552593,7.61446098 C6.80376049,7.65660732 7.15447654,7.8614122 7.56342716,7.57297317 C7.97237778,7.28519268 9.49890864,6.44819268 9.49890864,6.44819268 C9.49890864,6.44819268 10.098921,8.20385122 10.1532296,8.4231439 C10.2075383,8.64309512 10.6439704,8.8623878 10.8075506,8.42380244 C10.9711309,7.98455854 10.8756,6.70897317 10.7120198,5.18577805 C10.5831185,3.98197317 10.5484395,3.21016829 10.6714519,2.55163171 C10.7702543,2.02085122 10.5353531,1.39919268 10.0446123,1.39919268 L7.80879753,1.39919268 L6.33657531,1.1799 Z" id="Fill-1" fill="#000000"></path>
                <path d="M15.7833346,0.452743902 C15.8939148,0.730646341 16.1104951,1.19359756 16.0287049,1.56369512 C15.9469148,1.93445122 15.8651247,2.42835366 15.0066556,4.03320732 C14.1455691,5.64267073 12.9206802,6.75032927 12.8801123,6.87347561 C12.8388901,6.99728049 12.9206802,7.07959756 13.0842605,7.07959756 C13.2478407,7.07959756 14.950384,6.19715854 15.5791864,5.67954878 C16.4788778,4.93869512 17.0919765,4.07469512 17.0919765,4.07469512 C17.0919765,4.07469512 18.1146802,4.40396341 19.0143716,4.32164634 C19.914063,4.23932927 21.0996926,3.86857317 21.4268531,3.74542683 C21.7540136,3.62162195 22.0811741,3.4569878 21.999384,3.04606098 C21.9175938,2.63447561 21.1409148,2.26371951 20.9361123,2.26371951 C20.7319642,2.26371951 19.981458,2.11159756 19.6274704,2.30520732 C18.6459889,2.83993902 17.7462975,2.83993902 17.7462975,2.83993902 C17.7462975,2.83993902 17.8693099,2.46984146 18.073458,2.09908537 C18.2782605,1.72832927 18.605421,1.3167439 18.7690012,1.11128049 C18.9325815,0.905158537 18.727779,-0.0411585366 18.2782605,0.0411585366 C17.8280877,0.12347561 17.419137,0.205792683 17.0919765,0.205792683 C16.764816,0.205792683 16.1517173,0.000329268293 15.988137,0.000329268293 C15.8245568,0.000329268293 15.7015444,0.247280488 15.7833346,0.452743902" id="Fill-3" fill="#000000"></path>
                <path d="M9.06293457,10.5915073 C9.06293457,10.5915073 9.11724321,11.936239 9.30830494,13.006361 C9.49936667,14.0764829 9.7715642,14.8996537 9.7715642,14.8996537 C9.7715642,14.8996537 10.8348358,14.6797024 12.4981198,14.3504341 C14.1614037,14.0211659 15.5243543,14.1588 15.6879346,14.1858 C15.8515148,14.2134585 15.9607864,14.1034829 15.9607864,13.9941659 C15.9607864,13.8841902 16.1911074,13.0241415 16.3965642,11.6892878 C16.6419346,10.0976049 16.6151074,8.86284878 16.6151074,8.86284878 C16.6151074,8.86284878 15.8240333,8.6435561 14.6789716,8.91750732 C13.5339099,9.19211707 13.0981321,9.32909268 11.6259099,9.74067805 C10.1536877,10.1522634 9.06293457,10.5915073 9.06293457,10.5915073 M6.39134198,9.19211707 C6.93639136,9.19211707 7.26355185,9.68601951 7.59071235,9.63136098 C7.91787284,9.5760439 9.4444037,9.13745854 12.0616877,8.58823902 C14.6789716,8.03967805 15.5518358,7.60043415 15.8240333,7.38114146 C16.0968852,7.16184878 16.4240457,6.94189756 16.6419346,6.94189756 C16.8604778,6.94189756 18.0055395,7.65575122 18.932058,8.09433659 C19.8592309,8.53358049 20.4042802,9.08214146 20.7314407,9.41140976 C21.0586012,9.74067805 21.0042926,10.3992146 20.7864037,10.3445561 C20.5678605,10.2898976 19.9135395,10.6191659 19.5320704,10.9484341 C19.1506012,11.2777024 18.4962802,12.5947756 18.3870086,12.8140683 C18.277737,13.033361 18.1141568,13.7472146 17.8419593,14.3504341 C17.5691074,14.9543122 16.9690951,15.3935561 16.8055148,15.5028732 C16.6419346,15.6128488 16.3965642,15.8321415 16.0968852,16.1067512 C15.8796506,16.3056293 15.4641568,15.9855805 15.3607741,15.7774829 C15.278984,15.6128488 15.278984,15.338239 15.278984,15.338239 C15.278984,15.338239 13.5339099,15.338239 12.7160086,15.5028732 C11.8981074,15.6675073 10.3172679,16.2167268 10.1536877,16.3260439 C9.99010741,16.4360195 9.49936667,17.0398976 9.17220617,16.929922 C8.84504568,16.8199463 8.51788519,16.2713854 8.35430494,16.1067512 C8.19072469,15.9421171 8.24503333,15.3935561 8.02714444,14.2957756 C7.80860123,13.1979951 7.64502099,11.7716049 7.48144074,11.332361 C7.31786049,10.8931171 5.84563827,9.74792195 5.84563827,9.52138537 C5.84563827,9.19211707 5.84563827,9.19211707 6.39134198,9.19211707" id="Fill-5" fill="#000000"></path>
                <path d="M9.09021975,12.7042902 C9.15303457,12.8096561 9.98991111,12.7866073 10.562442,12.9235829 C11.1349728,13.0612171 11.8167753,13.1158756 13.2072074,12.6766317 C14.5976395,12.2380463 15.1969975,12.1004122 15.3062691,11.853461 C15.4155407,11.6065098 15.2787877,11.2502415 14.8155284,11.0579488 C14.3522691,10.8656561 13.7247753,10.783339 13.3707877,10.9479732 C13.0161457,11.1126073 12.3343432,11.3049 11.3803432,11.6341683 C10.4263432,11.9634366 9.55347901,12.375022 9.30810864,12.4026805 C9.06273827,12.4296805 9.00842963,12.5673146 9.09021975,12.7042902" id="Fill-7" fill="#000000"></path>
                <path d="M0.0115160494,19.5091463 C0.0115160494,19.683 0.829417284,20.2223415 1.37446667,20.5792683 C1.92017037,20.9361951 2.54700988,21.2101463 2.7380716,21.2101463 C2.92847901,21.2101463 3.55597284,21.2924634 3.88313333,21.1008293 C4.21029383,20.9085366 5.10998519,20.4969512 6.06398519,20.1130244 C7.01798519,19.728439 10.6985407,19.0699024 13.3707877,18.8229512 C16.0423802,18.576 19.2321951,18.3020488 20.5133556,18.4113659 C21.7951704,18.5213415 24.5210716,18.9329268 24.766442,19.0152439 C25.0118123,19.097561 25.5300346,18.7959512 25.5300346,18.3020488 C25.5300346,17.8081463 24.6303432,17.2319268 23.812442,16.8203415 C22.9945407,16.4087561 22.4220099,16.1341463 22.1223309,16.2164634 C21.8219975,16.2987805 21.6315901,16.353439 21.3862198,16.4357561 C21.1408494,16.5180732 19.0686148,16.6827073 12.0346642,17.6435122 C5.00071358,18.6036585 2.98344198,19.1522195 2.08375062,19.1522195 C1.18405926,19.1522195 0.474775309,19.0429024 0.202577778,19.1522195 C-0.0702740741,19.2621951 0.0115160494,19.3721707 0.0115160494,19.5091463" id="Fill-9" fill="#000000"></path>
                <path d="M12.0346642,14.652439 C12.2447012,14.5470732 13.0979358,14.9540488 13.3707877,15.0916829 C13.6429852,15.2286585 13.7797383,15.5032683 13.7797383,15.6949024 C13.7797383,15.8871951 13.7797383,18.6583171 13.7247753,19.9483902 C13.6704667,21.2378049 13.8615284,22.5272195 13.8883556,22.8564878 C13.915837,23.1857561 14.0519358,23.9819268 13.7522568,24.7227805 C13.4525778,25.4636341 13.1522444,26.3414634 13.0979358,26.5337561 C13.0436272,26.7253902 12.4161333,26.6707317 12.3343432,26.2868049 C12.2525531,25.9022195 11.7892938,23.9819268 11.8436025,23.6526585 C11.8985654,23.3233902 12.1439358,22.4449024 12.0889728,19.5091463 C12.0346642,16.5733902 11.6800222,15.2833171 11.7075037,15.0640244 C11.7349852,14.8447317 11.871084,14.7347561 12.0346642,14.652439" id="Fill-11" fill="#000000"></path>
                <path d="M30.8880728,3.13996829 C30.9234062,3.35662683 31.7151346,4.08035854 31.8944185,4.38196829 C32.1201593,4.76128537 32.3773074,6.67762683 32.0887519,11.3486268 C31.8008506,16.0202854 31.6987765,19.0686512 31.6497025,19.344578 C31.6006284,19.6198463 30.0394185,20.639261 29.9347272,20.8611878 C29.8300358,21.0831146 30.9665914,23.3649439 31.0320235,23.9128463 C31.0974556,24.4600902 31.6438136,24.5042122 31.7471963,24.2276268 C31.8512333,23.9510415 32.7928012,21.9556756 33.9731963,20.998822 C35.1535914,20.0413098 38.6378506,17.0067732 38.6378506,17.0067732 L38.3623815,16.8474073 L33.6041593,18.9204805 C33.6041593,18.9204805 33.652579,15.8727732 33.7651222,13.3459683 C33.8783198,10.8185049 34.0366654,7.85113902 34.0078753,6.42474878 C33.9797395,4.99835854 34.1786531,4.06126098 33.8449494,3.73857805 C33.5112457,3.41589512 32.2987889,2.78172439 31.6444679,2.79555366 C30.9908012,2.80872439 30.8259123,2.7567 30.8880728,3.13996829" id="Fill-13" fill="#000000"></path>
                <path d="M32.715984,3.09578049 C32.9678975,2.91929268 34.0822062,3.19653659 35.7788605,2.77639024 C37.4755148,2.35558537 39.2160086,1.97692683 39.636737,1.71087805 C40.0574654,1.44482927 40.8577,0.956853659 40.9833296,0.825804878 C41.1083049,0.694097561 41.2790827,0.690804878 41.4518235,0.815926829 C41.6252185,0.94104878 42.270379,1.22817073 42.6996136,1.3914878 C43.1295025,1.55414634 43.3002802,1.59365854 43.5162062,1.71812195 C43.7321321,1.84192683 44.339342,2.38785366 44.3432679,2.55907317 C44.3465395,2.73095122 43.1661444,3.39804878 42.710737,4.05131707 C42.2546753,4.70392683 41.3883543,6.13756098 41.2221568,6.35553659 C41.0559593,6.57285366 40.4435148,5.81356098 40.4408975,5.6844878 C40.4389346,5.55607317 40.7294531,3.06153659 40.7261815,2.89031707 C40.7229099,2.71843902 40.4637988,2.5524878 40.294984,2.64139024 C40.1261691,2.73095122 38.6447864,3.27556098 37.3721321,3.55873171 C36.0988235,3.84190244 33.3820827,4.41219512 33.0810951,4.28970732 C32.7801074,4.16721951 32.5897,3.18402439 32.715984,3.09578049" id="Fill-15" fill="#000000"></path>
                <path d="M33.2272704,7.33293659 C33.4019741,7.28552195 34.5889123,7.21966829 36.9215667,6.61447317 C39.254221,6.00927805 40.5654802,5.51076585 40.7323321,5.33559512 C40.8998383,5.16042439 41.6693198,5.27369268 42.0154556,5.52393659 C42.3615914,5.77418049 42.4970358,6.15744878 42.3733691,6.37476585 C42.2497025,6.59208293 40.3390852,6.97403415 37.5399,7.67405854 C34.7400605,8.37474146 33.8148506,8.99442439 33.2580235,8.87654634 C32.7018506,8.75932683 32.8503815,7.68393659 32.8896407,7.5114 C32.9289,7.33886341 33.0578012,7.37903415 33.2272704,7.33293659" id="Fill-17" fill="#000000"></path>
                <path d="M33.8887889,12.6824927 C34.0307765,12.8879561 34.4462704,12.8425171 34.9599123,12.9610537 C35.4742086,13.0795902 36.2417272,13.1065902 39.2169247,12.6601024 C42.1921222,12.2136146 44.7786531,11.5175415 45.0724432,11.2969317 C45.3662333,11.076322 45.4846654,10.6021756 44.9664432,10.2689561 C44.448221,9.93639512 43.7186531,9.69405366 43.2109,9.87580976 C42.7031469,10.0575659 41.3074802,10.6008585 38.8040481,11.2100049 C36.3012704,11.8184927 34.2205296,12.2037366 34.0517148,12.2932976 C33.8829,12.3822 33.8011099,12.5553951 33.8887889,12.6824927" id="Fill-19" fill="#000000"></path>
                <g id="Group-23" transform="translate(37.296296, 6.226529)">
                    <mask id="mask-2" fill="white">
                        <use xlink:href="#path-1"></use>
                    </mask>
                    <g id="Clip-22"></g>
                    <path d="M1.3356,0.282709756 C1.58293333,0.257026829 2.44205679,0.383465854 2.65143951,0.626465854 C2.86082222,0.869465854 2.33998272,1.41473415 2.64882222,2.52041707 C2.95700741,3.62544146 2.87914321,5.84997805 5.83536543,10.4827829 C8.79158765,15.1162463 11.5004765,15.5963195 11.705279,15.5917098 C11.9094272,15.5877585 12.1515259,15.4178561 12.3530568,15.2907585 C12.555242,15.1630024 13.5426123,11.3553439 13.6636617,11.2710512 C13.7847111,11.1861 13.9914765,11.3052951 13.9535259,11.4705878 C13.9162296,11.6358805 13.7362914,12.8745878 13.8475259,14.3134902 C13.9581062,15.7517341 14.1439333,16.8593927 14.3107852,17.0207341 C14.477637,17.1820756 15.0141802,17.4184902 15.1875753,17.9091 C15.3609704,18.3990512 14.5973778,19.0733927 13.8220074,19.1715146 C13.2776123,19.240661 12.8032296,19.357222 11.6064765,18.8461976 C9.82606914,18.0855878 7.45742716,15.9249293 5.5598963,13.0820268 C3.66236543,10.2391244 2.54543951,7.58588049 1.63069877,4.80488049 C0.715958025,2.02453902 0.367204938,0.961002439 0.526859259,0.752246341 C0.68651358,0.542831707 0.84551358,0.33407561 1.3356,0.282709756" id="Fill-21" fill="#000000" mask="url(#mask-2)"></path>
                </g>
            </g>
        </g>
    </g>
</svg>