<?xml version="1.0" encoding="UTF-8" standalone="no"?>
<svg width="284px" height="540px" viewBox="0 0 284 540" version="1.1" xmlns="http://www.w3.org/2000/svg" xmlns:xlink="http://www.w3.org/1999/xlink">
    <!-- Generator: Sketch 39.1 (31720) - http://www.bohemiancoding.com/sketch -->
    <title>wo-august-2-purchases</title>
    <desc>Created with Sketch.</desc>
    <defs></defs>
    <g id="Home" stroke="none" stroke-width="1" fill="none" fill-rule="evenodd">
        <g id="wo-august-2-purchases">
            <rect id="Rectangle-18" stroke="#9B9B9B" stroke-width="4" stroke-linecap="round" stroke-linejoin="round" opacity="0.25" x="199" y="4" width="25" height="99"></rect>
            <g id="Group-9" opacity="0.25" transform="translate(41.000000, 87.000000)" stroke="#9B9B9B" stroke-width="2" stroke-linecap="round" stroke-linejoin="round">
                <path d="M19.4444444,5.76530612 L19.4444444,10.8474103" id="Line"></path>
                <path d="M0.555555556,5.76530612 L0.555555556,10.8474103" id="Line"></path>
                <path d="M0.555555556,10.8163265 C0.555555556,13.9158838 4.78397736,16.4285714 10,16.4285714 C15.2160226,16.4285714 19.4444444,13.9158838 19.4444444,10.8163265" id="Oval-6"></path>
                <path d="M19.4444444,10.1335638 C19.4444444,7.03400654 15.2160226,4.52131892 10,4.52131892 C4.78397736,4.52131892 0.555555556,7.03400654 0.555555556,10.1335638" id="Oval-6"></path>
                <ellipse id="Oval-6" cx="10" cy="6.32653061" rx="9.44444444" ry="5.9630102"></ellipse>
            </g>
            <g id="Group-10" opacity="0.25" transform="translate(6.000000, 17.000000)">
                <polygon id="Rectangle-19" stroke="#9B9B9B" stroke-width="4" stroke-linecap="round" stroke-linejoin="round" points="34 0 54 0 67 46 21 46"></polygon>
                <circle id="Oval-7" fill="#9B9B9B" transform="translate(28.500000, 40.500000) rotate(2.000000) translate(-28.500000, -40.500000) " cx="28.5" cy="40.5" r="1.5"></circle>
                <circle id="Oval-7" fill="#9B9B9B" transform="translate(59.500000, 40.500000) rotate(2.000000) translate(-59.500000, -40.500000) " cx="59.5" cy="40.5" r="1.5"></circle>
                <path d="M33.5390625,2.17773438 C26.9013672,6.60205078 20.0068585,2.75794053 13.8588867,8.95117187 C6.89453124,15.9667969 13.8588867,21.75 12.5668945,34.6313477 C11.7676628,42.5998028 0.602050662,41.5343095 0.602050775,53.1020508 C0.602050806,56.2460937 5.29687499,60.0014648 10.5986328,55.0332031 C15.9003906,50.0649414 14.4238281,39.1884766 19.2856445,38.137207 C24.1474609,37.0859375 23.925293,40.5126953 28.8100586,40.5126953" id="Path-3" stroke="#9B9B9B" stroke-width="2" stroke-linecap="round" stroke-linejoin="round"></path>
                <path d="" id="Path-4" stroke="#9B9B9B" stroke-width="4" stroke-linecap="round" stroke-linejoin="round"></path>
                <path d="M54.9904785,1.4438477 C58.4658203,2.37695308 65.2744141,-1.59350591 69.494873,2.04809569 C73.715332,5.68969729 69.4754449,17.7143206 72.9374676,24.5419916 C77.7763023,34.0849598 89.1130313,32.8553588 89.8012695,42.8554705 C90.4682617,52.5468767 80.9106445,51.597658 78.2900391,49.0556658 C75.6694336,46.5136736 77.5152461,42.2237113 73.7104492,40.5498064 C66.8481445,37.5307634 64.921875,42.3369158 60.1943359,40.5498047" id="Path-5" stroke="#9B9B9B" stroke-width="2" stroke-linecap="round" stroke-linejoin="round"></path>
            </g>
            <path d="M272.403886,90.0694092 C271.963249,95.8338277 270.563632,100.482022 270.563632,100.482022 C270.563632,100.482022 269.41936,100.983246 267.147332,101.359165 C264.875305,101.735083 264.683052,100.690792 264.935646,100.031008 C265.18824,99.3712236 265.578913,99.726221 265.996454,99.319031 C266.413994,98.9118411 266.151049,97.078055 265.578913,95.0962799 C265.006778,93.1145048 263.893557,91.6984792 263.893557,91.6984792 C263.893557,91.6984792 262.402436,92.1726166 260.978262,92.1726166 C259.554088,92.1726166 258.428315,91.6421025 258.428315,91.6421025 C258.428315,91.6421025 258.831321,94.1940316 258.831321,95.9815711 C258.831321,97.7691107 258.175721,100.07285 258.175721,100.07285 C258.175721,100.07285 257.683305,100.878861 255.151856,101.365551 C252.620408,101.852241 252.407674,100.906169 252.407674,100.302541 C252.407674,99.6989135 252.883793,99.8138692 253.290983,99.4088815 C253.698173,99.0038938 253.817313,98.3335389 253.817313,96.1368274 C253.817313,93.9401159 252.704092,91.7348158 251.906449,90.5194122 C251.215948,89.467265 250.155936,89.0802028 249.883627,85.7965826 C248.824647,85.7341526 247.433934,85.3435201 246.265911,83.9772861 C244.037707,81.3709623 245.63938,77.7811283 246.865134,74.9118597 C247.774455,72.7833033 250.430816,69.5064153 251.741714,67.9563882 C250.195837,67.6739694 248.900402,67.0729658 247.680815,66.0024469 C244.740415,63.4214486 244.381233,60.0256299 245.815757,56.011649 C246.434058,54.281565 247.751165,52.126633 249.541602,50.2345338 C248.659264,49.9673978 247.438199,49.4337496 246.708776,48.4169867 C245.468268,46.6878059 246.708776,44 246.708776,44 L253.49502,47.1086722 C255.063757,46.2400406 256.785221,45.6971772 258.588175,45.6973453 C259.77968,45.6974564 262.453676,45.5247453 264.991322,47.0182024 L268.85361,44.5576014 C268.85361,44.5576014 269.922787,46.2511062 269.521763,47.815341 C269.323755,48.5876919 268.622251,49.3218163 267.962733,49.8671677 C270.985412,54.3583246 270.443077,59.2017968 269.736019,61.4958297 C269.468075,62.3651699 268.945284,63.3520614 268.059121,64.2843342 L268.387621,64.2245005 L274.43557,56.481065 C274.43557,56.481065 274.840557,55.5495272 275.49836,54.4426929 C276.156162,53.3358586 277.323557,53.2189209 277.323557,53.2189209 C277.323557,53.2189209 278.340761,50.4289322 278.693556,50.1783199 C279.046351,49.9277076 279.764935,50.6379226 279.526875,51.3247941 C279.288816,52.0116655 278.340761,53.8077937 278.340761,53.8077937 C278.340761,53.8077937 280.155388,54.5199907 280.155388,56.0694706 C280.155388,57.6189505 278.16106,58.6194177 278.16106,58.6194177 C278.16106,58.6194177 276.667957,62.910878 275.302142,65.9620497 C273.936327,69.0132214 271.503318,73.8451058 271.503318,73.8451058 C271.503318,73.8451058 272.535056,79.5547939 272.535056,86.7448123 C272.535056,86.7705941 272.535031,86.7963677 272.534981,86.8221327 C272.903418,86.8219674 274.02064,86.9321162 274.310484,88.2447423 C274.659095,89.8235117 272.652214,90.464577 272.652214,90.464577 L272.403886,90.0694092 Z" id="Combined-Shape" stroke="#9B9B9B" stroke-width="2" stroke-linecap="round" stroke-linejoin="round" opacity="0.25"></path>
            <rect id="Rectangle-18" stroke="#50E3C2" stroke-width="4" stroke-linecap="round" stroke-linejoin="round" x="199" y="112" width="25" height="99"></rect>
            <g id="Group-9" transform="translate(41.000000, 195.000000)" stroke="#9B9B9B" stroke-width="2" stroke-linecap="round" stroke-linejoin="round">
                <path d="M19.4444444,5.76530612 L19.4444444,10.8474103" id="Line"></path>
                <path d="M0.555555556,5.76530612 L0.555555556,10.8474103" id="Line"></path>
                <path d="M0.555555556,10.8163265 C0.555555556,13.9158838 4.78397736,16.4285714 10,16.4285714 C15.2160226,16.4285714 19.4444444,13.9158838 19.4444444,10.8163265" id="Oval-6"></path>
                <path d="M19.4444444,10.1335638 C19.4444444,7.03400654 15.2160226,4.52131892 10,4.52131892 C4.78397736,4.52131892 0.555555556,7.03400654 0.555555556,10.1335638" id="Oval-6"></path>
                <ellipse id="Oval-6" cx="10" cy="6.32653061" rx="9.44444444" ry="5.9630102"></ellipse>
            </g>
            <g id="Group-10" opacity="0.25" transform="translate(6.000000, 125.000000)">
                <polygon id="Rectangle-19" stroke="#9B9B9B" stroke-width="4" stroke-linecap="round" stroke-linejoin="round" points="34 0 54 0 67 46 21 46"></polygon>
                <circle id="Oval-7" fill="#9B9B9B" transform="translate(28.500000, 40.500000) rotate(2.000000) translate(-28.500000, -40.500000) " cx="28.5" cy="40.5" r="1.5"></circle>
                <circle id="Oval-7" fill="#9B9B9B" transform="translate(59.500000, 40.500000) rotate(2.000000) translate(-59.500000, -40.500000) " cx="59.5" cy="40.5" r="1.5"></circle>
                <path d="M33.5390625,2.17773438 C26.9013672,6.60205078 20.0068585,2.75794053 13.8588867,8.95117187 C6.89453124,15.9667969 13.8588867,21.75 12.5668945,34.6313477 C11.7676628,42.5998028 0.602050662,41.5343095 0.602050775,53.1020508 C0.602050806,56.2460937 5.29687499,60.0014648 10.5986328,55.0332031 C15.9003906,50.0649414 14.4238281,39.1884766 19.2856445,38.137207 C24.1474609,37.0859375 23.925293,40.5126953 28.8100586,40.5126953" id="Path-3" stroke="#9B9B9B" stroke-width="2" stroke-linecap="round" stroke-linejoin="round"></path>
                <path d="" id="Path-4" stroke="#9B9B9B" stroke-width="4" stroke-linecap="round" stroke-linejoin="round"></path>
                <path d="M54.9904785,1.4438477 C58.4658203,2.37695308 65.2744141,-1.59350591 69.494873,2.04809569 C73.715332,5.68969729 69.4754449,17.7143206 72.9374676,24.5419916 C77.7763023,34.0849598 89.1130313,32.8553588 89.8012695,42.8554705 C90.4682617,52.5468767 80.9106445,51.597658 78.2900391,49.0556658 C75.6694336,46.5136736 77.5152461,42.2237113 73.7104492,40.5498064 C66.8481445,37.5307634 64.921875,42.3369158 60.1943359,40.5498047" id="Path-5" stroke="#9B9B9B" stroke-width="2" stroke-linecap="round" stroke-linejoin="round"></path>
            </g>
            <path d="M272.403886,198.069409 C271.963249,203.833828 270.563632,208.482022 270.563632,208.482022 C270.563632,208.482022 269.41936,208.983246 267.147332,209.359165 C264.875305,209.735083 264.683052,208.690792 264.935646,208.031008 C265.18824,207.371224 265.578913,207.726221 265.996454,207.319031 C266.413994,206.911841 266.151049,205.078055 265.578913,203.09628 C265.006778,201.114505 263.893557,199.698479 263.893557,199.698479 C263.893557,199.698479 262.402436,200.172617 260.978262,200.172617 C259.554088,200.172617 258.428315,199.642102 258.428315,199.642102 C258.428315,199.642102 258.831321,202.194032 258.831321,203.981571 C258.831321,205.769111 258.175721,208.07285 258.175721,208.07285 C258.175721,208.07285 257.683305,208.878861 255.151856,209.365551 C252.620408,209.852241 252.407674,208.906169 252.407674,208.302541 C252.407674,207.698913 252.883793,207.813869 253.290983,207.408881 C253.698173,207.003894 253.817313,206.333539 253.817313,204.136827 C253.817313,201.940116 252.704092,199.734816 251.906449,198.519412 C251.215948,197.467265 250.155936,197.080203 249.883627,193.796583 C248.824647,193.734153 247.433934,193.34352 246.265911,191.977286 C244.037707,189.370962 245.63938,185.781128 246.865134,182.91186 C247.774455,180.783303 250.430816,177.506415 251.741714,175.956388 C250.195837,175.673969 248.900402,175.072966 247.680815,174.002447 C244.740415,171.421449 244.381233,168.02563 245.815757,164.011649 C246.434058,162.281565 247.751165,160.126633 249.541602,158.234534 C248.659264,157.967398 247.438199,157.43375 246.708776,156.416987 C245.468268,154.687806 246.708776,152 246.708776,152 L253.49502,155.108672 C255.063757,154.240041 256.785221,153.697177 258.588175,153.697345 C259.77968,153.697456 262.453676,153.524745 264.991322,155.018202 L268.85361,152.557601 C268.85361,152.557601 269.922787,154.251106 269.521763,155.815341 C269.323755,156.587692 268.622251,157.321816 267.962733,157.867168 C270.985412,162.358325 270.443077,167.201797 269.736019,169.49583 C269.468075,170.36517 268.945284,171.352061 268.059121,172.284334 L268.387621,172.224501 L274.43557,164.481065 C274.43557,164.481065 274.840557,163.549527 275.49836,162.442693 C276.156162,161.335859 277.323557,161.218921 277.323557,161.218921 C277.323557,161.218921 278.340761,158.428932 278.693556,158.17832 C279.046351,157.927708 279.764935,158.637923 279.526875,159.324794 C279.288816,160.011666 278.340761,161.807794 278.340761,161.807794 C278.340761,161.807794 280.155388,162.519991 280.155388,164.069471 C280.155388,165.618951 278.16106,166.619418 278.16106,166.619418 C278.16106,166.619418 276.667957,170.910878 275.302142,173.96205 C273.936327,177.013221 271.503318,181.845106 271.503318,181.845106 C271.503318,181.845106 272.535056,187.554794 272.535056,194.744812 C272.535056,194.770594 272.535031,194.796368 272.534981,194.822133 C272.903418,194.821967 274.02064,194.932116 274.310484,196.244742 C274.659095,197.823512 272.652214,198.464577 272.652214,198.464577 L272.403886,198.069409 Z" id="Combined-Shape" stroke="#9B9B9B" stroke-width="2" stroke-linecap="round" stroke-linejoin="round" opacity="0.25"></path>
            <rect id="Rectangle-18" stroke="#9B9B9B" stroke-width="4" stroke-linecap="round" stroke-linejoin="round" opacity="0.25" x="199" y="220" width="25" height="99"></rect>
            <g id="Group-9" transform="translate(41.000000, 303.000000)" stroke="#F6A623" stroke-width="2" stroke-linecap="round" stroke-linejoin="round">
                <path d="M19.4444444,5.76530612 L19.4444444,10.8474103" id="Line"></path>
                <path d="M0.555555556,5.76530612 L0.555555556,10.8474103" id="Line"></path>
                <path d="M0.555555556,10.8163265 C0.555555556,13.9158838 4.78397736,16.4285714 10,16.4285714 C15.2160226,16.4285714 19.4444444,13.9158838 19.4444444,10.8163265" id="Oval-6"></path>
                <path d="M19.4444444,10.1335638 C19.4444444,7.03400654 15.2160226,4.52131892 10,4.52131892 C4.78397736,4.52131892 0.555555556,7.03400654 0.555555556,10.1335638" id="Oval-6"></path>
                <ellipse id="Oval-6" cx="10" cy="6.32653061" rx="9.44444444" ry="5.9630102"></ellipse>
            </g>
            <g id="Group-9" transform="translate(41.000000, 411.000000)" stroke="#F6A623" stroke-width="2" stroke-linecap="round" stroke-linejoin="round">
                <path d="M19.4444444,5.76530612 L19.4444444,10.8474103" id="Line"></path>
                <path d="M0.555555556,5.76530612 L0.555555556,10.8474103" id="Line"></path>
                <path d="M0.555555556,10.8163265 C0.555555556,13.9158838 4.78397736,16.4285714 10,16.4285714 C15.2160226,16.4285714 19.4444444,13.9158838 19.4444444,10.8163265" id="Oval-6"></path>
                <path d="M19.4444444,10.1335638 C19.4444444,7.03400654 15.2160226,4.52131892 10,4.52131892 C4.78397736,4.52131892 0.555555556,7.03400654 0.555555556,10.1335638" id="Oval-6"></path>
                <ellipse id="Oval-6" cx="10" cy="6.32653061" rx="9.44444444" ry="5.9630102"></ellipse>
            </g>
            <g id="Group-9" transform="translate(41.000000, 519.000000)" stroke="#F6A623" stroke-width="2" stroke-linecap="round" stroke-linejoin="round">
                <path d="M19.4444444,5.76530612 L19.4444444,10.8474103" id="Line"></path>
                <path d="M0.555555556,5.76530612 L0.555555556,10.8474103" id="Line"></path>
                <path d="M0.555555556,10.8163265 C0.555555556,13.9158838 4.78397736,16.4285714 10,16.4285714 C15.2160226,16.4285714 19.4444444,13.9158838 19.4444444,10.8163265" id="Oval-6"></path>
                <path d="M19.4444444,10.1335638 C19.4444444,7.03400654 15.2160226,4.52131892 10,4.52131892 C4.78397736,4.52131892 0.555555556,7.03400654 0.555555556,10.1335638" id="Oval-6"></path>
                <ellipse id="Oval-6" cx="10" cy="6.32653061" rx="9.44444444" ry="5.9630102"></ellipse>
            </g>
            <g id="Group-10" transform="translate(6.000000, 233.000000)">
                <polygon id="Rectangle-19" stroke="#50E3C2" stroke-width="4" stroke-linecap="round" stroke-linejoin="round" points="34 0 54 0 67 46 21 46"></polygon>
                <circle id="Oval-7" fill="#50E3C2" transform="translate(28.500000, 40.500000) rotate(2.000000) translate(-28.500000, -40.500000) " cx="28.5" cy="40.5" r="1.5"></circle>
                <circle id="Oval-7" fill="#50E3C2" transform="translate(59.500000, 40.500000) rotate(2.000000) translate(-59.500000, -40.500000) " cx="59.5" cy="40.5" r="1.5"></circle>
                <path d="M33.5390625,2.17773438 C26.9013672,6.60205078 20.0068585,2.75794053 13.8588867,8.95117187 C6.89453124,15.9667969 13.8588867,21.75 12.5668945,34.6313477 C11.7676628,42.5998028 0.602050662,41.5343095 0.602050775,53.1020508 C0.602050806,56.2460937 5.29687499,60.0014648 10.5986328,55.0332031 C15.9003906,50.0649414 14.4238281,39.1884766 19.2856445,38.137207 C24.1474609,37.0859375 23.925293,40.5126953 28.8100586,40.5126953" id="Path-3" stroke="#50E3C2" stroke-width="2" stroke-linecap="round" stroke-linejoin="round"></path>
                <path d="M54.9904785,1.4438477 C58.4658203,2.37695308 65.2744141,-1.59350591 69.494873,2.04809569 C73.715332,5.68969729 69.4754449,17.7143206 72.9374676,24.5419916 C77.7763023,34.0849598 89.1130313,32.8553588 89.8012695,42.8554705 C90.4682617,52.5468767 80.9106445,51.597658 78.2900391,49.0556658 C75.6694336,46.5136736 77.5152461,42.2237113 73.7104492,40.5498064 C66.8481445,37.5307634 64.921875,42.3369158 60.1943359,40.5498047" id="Path-5" stroke="#50E3C2" stroke-width="2" stroke-linecap="round" stroke-linejoin="round"></path>
            </g>
            <g id="Group-10" transform="translate(6.000000, 341.000000)">
                <polygon id="Rectangle-19" stroke="#50E3C2" stroke-width="4" stroke-linecap="round" stroke-linejoin="round" points="34 0 54 0 67 46 21 46"></polygon>
                <circle id="Oval-7" fill="#50E3C2" transform="translate(28.500000, 40.500000) rotate(2.000000) translate(-28.500000, -40.500000) " cx="28.5" cy="40.5" r="1.5"></circle>
                <circle id="Oval-7" fill="#50E3C2" transform="translate(59.500000, 40.500000) rotate(2.000000) translate(-59.500000, -40.500000) " cx="59.5" cy="40.5" r="1.5"></circle>
                <path d="M33.5390625,2.17773438 C26.9013672,6.60205078 20.0068585,2.75794053 13.8588867,8.95117187 C6.89453124,15.9667969 13.8588867,21.75 12.5668945,34.6313477 C11.7676628,42.5998028 0.602050662,41.5343095 0.602050775,53.1020508 C0.602050806,56.2460937 5.29687499,60.0014648 10.5986328,55.0332031 C15.9003906,50.0649414 14.4238281,39.1884766 19.2856445,38.137207 C24.1474609,37.0859375 23.925293,40.5126953 28.8100586,40.5126953" id="Path-3" stroke="#50E3C2" stroke-width="2" stroke-linecap="round" stroke-linejoin="round"></path>
                <path d="M54.9904785,1.4438477 C58.4658203,2.37695308 65.2744141,-1.59350591 69.494873,2.04809569 C73.715332,5.68969729 69.4754449,17.7143206 72.9374676,24.5419916 C77.7763023,34.0849598 89.1130313,32.8553588 89.8012695,42.8554705 C90.4682617,52.5468767 80.9106445,51.597658 78.2900391,49.0556658 C75.6694336,46.5136736 77.5152461,42.2237113 73.7104492,40.5498064 C66.8481445,37.5307634 64.921875,42.3369158 60.1943359,40.5498047" id="Path-5" stroke="#50E3C2" stroke-width="2" stroke-linecap="round" stroke-linejoin="round"></path>
            </g>
            <g id="Group-10" transform="translate(6.000000, 449.000000)">
                <polygon id="Rectangle-19" stroke="#50E3C2" stroke-width="4" stroke-linecap="round" stroke-linejoin="round" points="34 0 54 0 67 46 21 46"></polygon>
                <circle id="Oval-7" fill="#50E3C2" transform="translate(28.500000, 40.500000) rotate(2.000000) translate(-28.500000, -40.500000) " cx="28.5" cy="40.5" r="1.5"></circle>
                <circle id="Oval-7" fill="#50E3C2" transform="translate(59.500000, 40.500000) rotate(2.000000) translate(-59.500000, -40.500000) " cx="59.5" cy="40.5" r="1.5"></circle>
                <path d="M33.5390625,2.17773438 C26.9013672,6.60205078 20.0068585,2.75794053 13.8588867,8.95117187 C6.89453124,15.9667969 13.8588867,21.75 12.5668945,34.6313477 C11.7676628,42.5998028 0.602050662,41.5343095 0.602050775,53.1020508 C0.602050806,56.2460937 5.29687499,60.0014648 10.5986328,55.0332031 C15.9003906,50.0649414 14.4238281,39.1884766 19.2856445,38.137207 C24.1474609,37.0859375 23.925293,40.5126953 28.8100586,40.5126953" id="Path-3" stroke="#50E3C2" stroke-width="2" stroke-linecap="round" stroke-linejoin="round"></path>
                <path d="M54.9904785,1.4438477 C58.4658203,2.37695308 65.2744141,-1.59350591 69.494873,2.04809569 C73.715332,5.68969729 69.4754449,17.7143206 72.9374676,24.5419916 C77.7763023,34.0849598 89.1130313,32.8553588 89.8012695,42.8554705 C90.4682617,52.5468767 80.9106445,51.597658 78.2900391,49.0556658 C75.6694336,46.5136736 77.5152461,42.2237113 73.7104492,40.5498064 C66.8481445,37.5307634 64.921875,42.3369158 60.1943359,40.5498047" id="Path-5" stroke="#50E3C2" stroke-width="2" stroke-linecap="round" stroke-linejoin="round"></path>
            </g>
            <path d="M272.403886,306.069409 C271.963249,311.833828 270.563632,316.482022 270.563632,316.482022 C270.563632,316.482022 269.41936,316.983246 267.147332,317.359165 C264.875305,317.735083 264.683052,316.690792 264.935646,316.031008 C265.18824,315.371224 265.578913,315.726221 265.996454,315.319031 C266.413994,314.911841 266.151049,313.078055 265.578913,311.09628 C265.006778,309.114505 263.893557,307.698479 263.893557,307.698479 C263.893557,307.698479 262.402436,308.172617 260.978262,308.172617 C259.554088,308.172617 258.428315,307.642102 258.428315,307.642102 C258.428315,307.642102 258.831321,310.194032 258.831321,311.981571 C258.831321,313.769111 258.175721,316.07285 258.175721,316.07285 C258.175721,316.07285 257.683305,316.878861 255.151856,317.365551 C252.620408,317.852241 252.407674,316.906169 252.407674,316.302541 C252.407674,315.698913 252.883793,315.813869 253.290983,315.408881 C253.698173,315.003894 253.817313,314.333539 253.817313,312.136827 C253.817313,309.940116 252.704092,307.734816 251.906449,306.519412 C251.215948,305.467265 250.155936,305.080203 249.883627,301.796583 C248.824647,301.734153 247.433934,301.34352 246.265911,299.977286 C244.037707,297.370962 245.63938,293.781128 246.865134,290.91186 C247.774455,288.783303 250.430816,285.506415 251.741714,283.956388 C250.195837,283.673969 248.900402,283.072966 247.680815,282.002447 C244.740415,279.421449 244.381233,276.02563 245.815757,272.011649 C246.434058,270.281565 247.751165,268.126633 249.541602,266.234534 C248.659264,265.967398 247.438199,265.43375 246.708776,264.416987 C245.468268,262.687806 246.708776,260 246.708776,260 L253.49502,263.108672 C255.063757,262.240041 256.785221,261.697177 258.588175,261.697345 C259.77968,261.697456 262.453676,261.524745 264.991322,263.018202 L268.85361,260.557601 C268.85361,260.557601 269.922787,262.251106 269.521763,263.815341 C269.323755,264.587692 268.622251,265.321816 267.962733,265.867168 C270.985412,270.358325 270.443077,275.201797 269.736019,277.49583 C269.468075,278.36517 268.945284,279.352061 268.059121,280.284334 L268.387621,280.224501 L274.43557,272.481065 C274.43557,272.481065 274.840557,271.549527 275.49836,270.442693 C276.156162,269.335859 277.323557,269.218921 277.323557,269.218921 C277.323557,269.218921 278.340761,266.428932 278.693556,266.17832 C279.046351,265.927708 279.764935,266.637923 279.526875,267.324794 C279.288816,268.011666 278.340761,269.807794 278.340761,269.807794 C278.340761,269.807794 280.155388,270.519991 280.155388,272.069471 C280.155388,273.618951 278.16106,274.619418 278.16106,274.619418 C278.16106,274.619418 276.667957,278.910878 275.302142,281.96205 C273.936327,285.013221 271.503318,289.845106 271.503318,289.845106 C271.503318,289.845106 272.535056,295.554794 272.535056,302.744812 C272.535056,302.770594 272.535031,302.796368 272.534981,302.822133 C272.903418,302.821967 274.02064,302.932116 274.310484,304.244742 C274.659095,305.823512 272.652214,306.464577 272.652214,306.464577 L272.403886,306.069409 Z" id="Combined-Shape" stroke="#F6A623" stroke-width="2" stroke-linecap="round" stroke-linejoin="round"></path>
            <rect id="Rectangle-18" stroke="#50E3C2" stroke-width="4" stroke-linecap="round" stroke-linejoin="round" x="199" y="328" width="25" height="99"></rect>
            <path d="M272.403886,414.069409 C271.963249,419.833828 270.563632,424.482022 270.563632,424.482022 C270.563632,424.482022 269.41936,424.983246 267.147332,425.359165 C264.875305,425.735083 264.683052,424.690792 264.935646,424.031008 C265.18824,423.371224 265.578913,423.726221 265.996454,423.319031 C266.413994,422.911841 266.151049,421.078055 265.578913,419.09628 C265.006778,417.114505 263.893557,415.698479 263.893557,415.698479 C263.893557,415.698479 262.402436,416.172617 260.978262,416.172617 C259.554088,416.172617 258.428315,415.642102 258.428315,415.642102 C258.428315,415.642102 258.831321,418.194032 258.831321,419.981571 C258.831321,421.769111 258.175721,424.07285 258.175721,424.07285 C258.175721,424.07285 257.683305,424.878861 255.151856,425.365551 C252.620408,425.852241 252.407674,424.906169 252.407674,424.302541 C252.407674,423.698913 252.883793,423.813869 253.290983,423.408881 C253.698173,423.003894 253.817313,422.333539 253.817313,420.136827 C253.817313,417.940116 252.704092,415.734816 251.906449,414.519412 C251.215948,413.467265 250.155936,413.080203 249.883627,409.796583 C248.824647,409.734153 247.433934,409.34352 246.265911,407.977286 C244.037707,405.370962 245.63938,401.781128 246.865134,398.91186 C247.774455,396.783303 250.430816,393.506415 251.741714,391.956388 C250.195837,391.673969 248.900402,391.072966 247.680815,390.002447 C244.740415,387.421449 244.381233,384.02563 245.815757,380.011649 C246.434058,378.281565 247.751165,376.126633 249.541602,374.234534 C248.659264,373.967398 247.438199,373.43375 246.708776,372.416987 C245.468268,370.687806 246.708776,368 246.708776,368 L253.49502,371.108672 C255.063757,370.240041 256.785221,369.697177 258.588175,369.697345 C259.77968,369.697456 262.453676,369.524745 264.991322,371.018202 L268.85361,368.557601 C268.85361,368.557601 269.922787,370.251106 269.521763,371.815341 C269.323755,372.587692 268.622251,373.321816 267.962733,373.867168 C270.985412,378.358325 270.443077,383.201797 269.736019,385.49583 C269.468075,386.36517 268.945284,387.352061 268.059121,388.284334 L268.387621,388.224501 L274.43557,380.481065 C274.43557,380.481065 274.840557,379.549527 275.49836,378.442693 C276.156162,377.335859 277.323557,377.218921 277.323557,377.218921 C277.323557,377.218921 278.340761,374.428932 278.693556,374.17832 C279.046351,373.927708 279.764935,374.637923 279.526875,375.324794 C279.288816,376.011666 278.340761,377.807794 278.340761,377.807794 C278.340761,377.807794 280.155388,378.519991 280.155388,380.069471 C280.155388,381.618951 278.16106,382.619418 278.16106,382.619418 C278.16106,382.619418 276.667957,386.910878 275.302142,389.96205 C273.936327,393.013221 271.503318,397.845106 271.503318,397.845106 C271.503318,397.845106 272.535056,403.554794 272.535056,410.744812 C272.535056,410.770594 272.535031,410.796368 272.534981,410.822133 C272.903418,410.821967 274.02064,410.932116 274.310484,412.244742 C274.659095,413.823512 272.652214,414.464577 272.652214,414.464577 L272.403886,414.069409 Z" id="Combined-Shape" stroke="#F6A623" stroke-width="2" stroke-linecap="round" stroke-linejoin="round"></path>
            <rect id="Rectangle-18" stroke="#50E3C2" stroke-width="4" stroke-linecap="round" stroke-linejoin="round" x="199" y="436" width="25" height="99"></rect>
            <path d="M272.403886,522.069409 C271.963249,527.833828 270.563632,532.482022 270.563632,532.482022 C270.563632,532.482022 269.41936,532.983246 267.147332,533.359165 C264.875305,533.735083 264.683052,532.690792 264.935646,532.031008 C265.18824,531.371224 265.578913,531.726221 265.996454,531.319031 C266.413994,530.911841 266.151049,529.078055 265.578913,527.09628 C265.006778,525.114505 263.893557,523.698479 263.893557,523.698479 C263.893557,523.698479 262.402436,524.172617 260.978262,524.172617 C259.554088,524.172617 258.428315,523.642102 258.428315,523.642102 C258.428315,523.642102 258.831321,526.194032 258.831321,527.981571 C258.831321,529.769111 258.175721,532.07285 258.175721,532.07285 C258.175721,532.07285 257.683305,532.878861 255.151856,533.365551 C252.620408,533.852241 252.407674,532.906169 252.407674,532.302541 C252.407674,531.698913 252.883793,531.813869 253.290983,531.408881 C253.698173,531.003894 253.817313,530.333539 253.817313,528.136827 C253.817313,525.940116 252.704092,523.734816 251.906449,522.519412 C251.215948,521.467265 250.155936,521.080203 249.883627,517.796583 C248.824647,517.734153 247.433934,517.34352 246.265911,515.977286 C244.037707,513.370962 245.63938,509.781128 246.865134,506.91186 C247.774455,504.783303 250.430816,501.506415 251.741714,499.956388 C250.195837,499.673969 248.900402,499.072966 247.680815,498.002447 C244.740415,495.421449 244.381233,492.02563 245.815757,488.011649 C246.434058,486.281565 247.751165,484.126633 249.541602,482.234534 C248.659264,481.967398 247.438199,481.43375 246.708776,480.416987 C245.468268,478.687806 246.708776,476 246.708776,476 L253.49502,479.108672 C255.063757,478.240041 256.785221,477.697177 258.588175,477.697345 C259.77968,477.697456 262.453676,477.524745 264.991322,479.018202 L268.85361,476.557601 C268.85361,476.557601 269.922787,478.251106 269.521763,479.815341 C269.323755,480.587692 268.622251,481.321816 267.962733,481.867168 C270.985412,486.358325 270.443077,491.201797 269.736019,493.49583 C269.468075,494.36517 268.945284,495.352061 268.059121,496.284334 L268.387621,496.224501 L274.43557,488.481065 C274.43557,488.481065 274.840557,487.549527 275.49836,486.442693 C276.156162,485.335859 277.323557,485.218921 277.323557,485.218921 C277.323557,485.218921 278.340761,482.428932 278.693556,482.17832 C279.046351,481.927708 279.764935,482.637923 279.526875,483.324794 C279.288816,484.011666 278.340761,485.807794 278.340761,485.807794 C278.340761,485.807794 280.155388,486.519991 280.155388,488.069471 C280.155388,489.618951 278.16106,490.619418 278.16106,490.619418 C278.16106,490.619418 276.667957,494.910878 275.302142,497.96205 C273.936327,501.013221 271.503318,505.845106 271.503318,505.845106 C271.503318,505.845106 272.535056,511.554794 272.535056,518.744812 C272.535056,518.770594 272.535031,518.796368 272.534981,518.822133 C272.903418,518.821967 274.02064,518.932116 274.310484,520.244742 C274.659095,521.823512 272.652214,522.464577 272.652214,522.464577 L272.403886,522.069409 Z" id="Combined-Shape" stroke="#F6A623" stroke-width="2" stroke-linecap="round" stroke-linejoin="round"></path>
            <g id="Group-8" transform="translate(122.000000, 91.000000)" stroke="#50E3C2" stroke-width="2" stroke-linecap="round" stroke-linejoin="round">
                <ellipse id="Oval-4" cx="4.484375" cy="4.5" rx="4.484375" ry="4.5"></ellipse>
                <ellipse id="Oval-4" cx="36.515625" cy="4.5" rx="4.484375" ry="4.5"></ellipse>
                <ellipse id="Oval-4" cx="20.5" cy="4.5" rx="4.484375" ry="4.5"></ellipse>
            </g>
            <g id="T-shirt" opacity="0.25" transform="translate(107.000000, 11.000000)" stroke="#9B9B9B" stroke-linecap="round" stroke-linejoin="round">
                <path d="M55.880597,22.3724145 L55.880597,59 L15.0447761,59 L15.0447761,22.4226242 L10.642172,26.8252283 L0.00390882687,16.186965 L15.0447761,1.14609775 L15.0447761,1 L15.1908739,1 L15.1936101,0.997263821 L15.1963462,1 L55.7659466,1 L55.7698554,0.996091173 L55.7737642,1 L55.880597,1 L55.880597,1.10683279 L70.9673743,16.1936101 L60.3345834,26.8264009 L55.880597,22.3724145 Z" id="Combined-Shape" stroke-width="4"></path>
                <path d="M36.5373134,10.6666667 C41.8788137,10.6666667 46.2089552,6.33875263 46.2089552,1.00000005 C46.2089552,0.999999934 26.8656716,1.00000005 26.8656716,1.00000005 C26.8656716,6.33875263 31.1958132,10.6666667 36.5373134,10.6666667 Z" id="Oval-5" stroke-width="2"></path>
            </g>
            <g id="Group-8" opacity="0.25" transform="translate(122.000000, 199.000000)" stroke="#9B9B9B" stroke-width="2" stroke-linecap="round" stroke-linejoin="round">
                <ellipse id="Oval-4" cx="4.484375" cy="4.5" rx="4.484375" ry="4.5"></ellipse>
                <ellipse id="Oval-4" cx="36.515625" cy="4.5" rx="4.484375" ry="4.5"></ellipse>
                <ellipse id="Oval-4" cx="20.5" cy="4.5" rx="4.484375" ry="4.5"></ellipse>
            </g>
            <g id="T-shirt" transform="translate(107.000000, 119.000000)" stroke="#000000" stroke-linecap="round" stroke-linejoin="round">
                <path d="M55.880597,22.3724145 L55.880597,59 L15.0447761,59 L15.0447761,22.4226242 L10.642172,26.8252283 L0.00390882687,16.186965 L15.0447761,1.14609775 L15.0447761,1 L15.1908739,1 L15.1936101,0.997263821 L15.1963462,1 L55.7659466,1 L55.7698554,0.996091173 L55.7737642,1 L55.880597,1 L55.880597,1.10683279 L70.9673743,16.1936101 L60.3345834,26.8264009 L55.880597,22.3724145 Z" id="Combined-Shape" stroke-width="4"></path>
                <path d="M36.5373134,10.6666667 C41.8788137,10.6666667 46.2089552,6.33875263 46.2089552,1.00000005 C46.2089552,0.999999934 26.8656716,1.00000005 26.8656716,1.00000005 C26.8656716,6.33875263 31.1958132,10.6666667 36.5373134,10.6666667 Z" id="Oval-5" stroke-width="2"></path>
            </g>
            <g id="Group-8" opacity="0.25" transform="translate(122.000000, 307.000000)" stroke="#9B9B9B" stroke-width="2" stroke-linecap="round" stroke-linejoin="round">
                <ellipse id="Oval-4" cx="4.484375" cy="4.5" rx="4.484375" ry="4.5"></ellipse>
                <ellipse id="Oval-4" cx="36.515625" cy="4.5" rx="4.484375" ry="4.5"></ellipse>
                <ellipse id="Oval-4" cx="20.5" cy="4.5" rx="4.484375" ry="4.5"></ellipse>
            </g>
            <g id="T-shirt" transform="translate(107.000000, 227.000000)" stroke="#000000" stroke-linecap="round" stroke-linejoin="round">
                <path d="M55.880597,22.3724145 L55.880597,59 L15.0447761,59 L15.0447761,22.4226242 L10.642172,26.8252283 L0.00390882687,16.186965 L15.0447761,1.14609775 L15.0447761,1 L15.1908739,1 L15.1936101,0.997263821 L15.1963462,1 L55.7659466,1 L55.7698554,0.996091173 L55.7737642,1 L55.880597,1 L55.880597,1.10683279 L70.9673743,16.1936101 L60.3345834,26.8264009 L55.880597,22.3724145 Z" id="Combined-Shape" stroke-width="4"></path>
                <path d="M36.5373134,10.6666667 C41.8788137,10.6666667 46.2089552,6.33875263 46.2089552,1.00000005 C46.2089552,0.999999934 26.8656716,1.00000005 26.8656716,1.00000005 C26.8656716,6.33875263 31.1958132,10.6666667 36.5373134,10.6666667 Z" id="Oval-5" stroke-width="2"></path>
            </g>
            <g id="Group-8" transform="translate(122.000000, 415.000000)" stroke="#50E3C2" stroke-width="2" stroke-linecap="round" stroke-linejoin="round">
                <ellipse id="Oval-4" cx="4.484375" cy="4.5" rx="4.484375" ry="4.5"></ellipse>
                <path d="M36.515625,9 C38.9922769,9 41,6.98528137 41,4.5 C41,2.01471863 38.9922769,0 36.515625,0 C34.0389731,0 32.03125,2.01471863 32.03125,4.5 C32.03125,6.98528137 34.0389731,9 36.515625,9 Z" id="Oval-4"></path>
                <path d="M20.5,9 C22.9766519,9 24.984375,6.98528137 24.984375,4.5 C24.984375,2.01471863 22.9766519,0 20.5,0 C18.0233481,0 16.015625,2.01471863 16.015625,4.5 C16.015625,6.98528137 18.0233481,9 20.5,9 Z" id="Oval-4"></path>
            </g>
            <g id="T-shirt" transform="translate(107.000000, 335.000000)" stroke="#000000" stroke-linecap="round" stroke-linejoin="round">
                <path d="M55.880597,22.3724145 L55.880597,59 L15.0447761,59 L15.0447761,22.4226242 L10.642172,26.8252283 L0.00390882687,16.186965 L15.0447761,1.14609775 L15.0447761,1 L15.1908739,1 L15.1936101,0.997263821 L15.1963462,1 L55.7659466,1 L55.7698554,0.996091173 L55.7737642,1 L55.880597,1 L55.880597,1.10683279 L70.9673743,16.1936101 L60.3345834,26.8264009 L55.880597,22.3724145 Z" id="Combined-Shape" stroke-width="4"></path>
                <path d="M36.5373134,10.6666667 C41.8788137,10.6666667 46.2089552,6.33875263 46.2089552,1.00000005 C46.2089552,0.999999934 26.8656716,1.00000005 26.8656716,1.00000005 C26.8656716,6.33875263 31.1958132,10.6666667 36.5373134,10.6666667 Z" id="Oval-5" stroke-width="2"></path>
            </g>
            <g id="Group-8" transform="translate(122.000000, 523.000000)" stroke="#50E3C2" stroke-width="2" stroke-linecap="round" stroke-linejoin="round">
                <ellipse id="Oval-4" cx="4.484375" cy="4.5" rx="4.484375" ry="4.5"></ellipse>
                <path d="M36.515625,9 C38.9922769,9 41,6.98528137 41,4.5 C41,2.01471863 38.9922769,0 36.515625,0 C34.0389731,0 32.03125,2.01471863 32.03125,4.5 C32.03125,6.98528137 34.0389731,9 36.515625,9 Z" id="Oval-4"></path>
                <path d="M20.5,9 C22.9766519,9 24.984375,6.98528137 24.984375,4.5 C24.984375,2.01471863 22.9766519,0 20.5,0 C18.0233481,0 16.015625,2.01471863 16.015625,4.5 C16.015625,6.98528137 18.0233481,9 20.5,9 Z" id="Oval-4"></path>
            </g>
            <g id="T-shirt" transform="translate(107.000000, 443.000000)" stroke="#000000" stroke-linecap="round" stroke-linejoin="round">
                <path d="M55.880597,22.3724145 L55.880597,59 L15.0447761,59 L15.0447761,22.4226242 L10.642172,26.8252283 L0.00390882687,16.186965 L15.0447761,1.14609775 L15.0447761,1 L15.1908739,1 L15.1936101,0.997263821 L15.1963462,1 L55.7659466,1 L55.7698554,0.996091173 L55.7737642,1 L55.880597,1 L55.880597,1.10683279 L70.9673743,16.1936101 L60.3345834,26.8264009 L55.880597,22.3724145 Z" id="Combined-Shape" stroke-width="4"></path>
                <path d="M36.5373134,10.6666667 C41.8788137,10.6666667 46.2089552,6.33875263 46.2089552,1.00000005 C46.2089552,0.999999934 26.8656716,1.00000005 26.8656716,1.00000005 C26.8656716,6.33875263 31.1958132,10.6666667 36.5373134,10.6666667 Z" id="Oval-5" stroke-width="2"></path>
            </g>
            <g id="×4" transform="translate(78.000000, 460.000000)">
                <rect id="Rectangle-32" fill="#000000" x="0" y="0" width="128" height="52"></rect>
                <path d="M58.064,39.088 L62.384,34.672 L54.512,26.8 L62.384,18.88 L58.064,14.56 L50.192,22.48 L42.32,14.56 L38,18.88 L45.824,26.8 L38,34.672 L42.32,39.088 L50.192,31.168 L58.064,39.088 Z M65.6,34.672 L80,34.672 L80,41.152 L87.584,41.152 L87.584,34.672 L92.576,34.672 L92.576,28.336 L87.584,28.336 L87.584,10 L78.56,10 L65.6,26.992 L65.6,34.672 Z M80,28.336 L72.176,28.336 L80,18.064 L80,28.336 Z" fill="#FFFFFF"></path>
            </g>
        </g>
    </g>
</svg>