<?xml version="1.0" encoding="UTF-8" standalone="no"?>
<svg width="192px" height="512px" viewBox="0 0 192 512" version="1.1" xmlns="http://www.w3.org/2000/svg" xmlns:xlink="http://www.w3.org/1999/xlink">
    <!-- Generator: Sketch 39.1 (31720) - http://www.bohemiancoding.com/sketch -->
    <title>wo-august-2-desktop-bills</title>
    <desc>Created with Sketch.</desc>
    <defs></defs>
    <g id="Home" stroke="none" stroke-width="1" fill="none" fill-rule="evenodd">
        <g id="wo-august-2-desktop-bills">
            <path d="M67.88,57 L76.136,57 L63.464,22.968 L54.68,22.968 L41.864,57 L49.832,57 L52.28,50.088 L65.432,50.088 L67.88,57 Z M58.952,31.416 L63.032,43.176 L54.776,43.176 L58.952,31.416 Z" id="A" fill="#000000"></path>
            <path d="M47.888,83.968 L47.888,118 L61.616,118 C68.048,118 72.272,113.92 72.272,108.352 C72.272,103.936 69.296,101.104 66.224,100.384 C69.008,99.472 71.216,96.592 71.216,93.088 C71.216,87.856 67.328,83.968 60.608,83.968 L47.888,83.968 Z M55.28,97.6 L55.28,90.256 L59.312,90.256 C62.288,90.256 63.776,91.696 63.776,93.904 C63.776,96.208 62.048,97.6 59.408,97.6 L55.28,97.6 Z M55.28,111.808 L55.28,103.84 L60.032,103.84 C63.008,103.84 64.736,105.472 64.736,107.824 C64.736,110.272 62.96,111.808 60.032,111.808 L55.28,111.808 Z" id="B" fill="#9B9B9B"></path>
            <path d="M133.864,57.72 C144.424,57.72 148.936,50.52 150.04,45.816 L142.792,43.752 C142.12,46.2 139.768,50.136 133.864,50.136 C128.776,50.136 124.072,46.44 124.072,40.056 C124.072,32.904 129.208,29.64 133.768,29.64 C139.768,29.64 141.928,33.624 142.456,35.976 L149.608,33.72 C148.504,28.824 143.992,22.248 133.768,22.248 C124.264,22.248 116.2,29.448 116.2,40.056 C116.2,50.664 124.072,57.72 133.864,57.72 L133.864,57.72 Z" id="C" fill="#9B9B9B"></path>
            <path d="M127.356,110.848 L127.356,91.12 L131.772,91.12 C137.004,91.12 141.276,94.192 141.276,101.008 C141.276,107.824 137.004,110.848 131.772,110.848 L127.356,110.848 Z M132.06,118 C142.332,118 149.196,111.52 149.196,101.008 C149.196,90.496 142.332,83.968 132.108,83.968 L119.772,83.968 L119.772,118 L132.06,118 Z" id="D" fill="#9B9B9B"></path>
            <path d="M84.5621778,73.7583302 L89.5621778,73.7583302 L82.5621778,57.7583302 L75.5621778,73.7583302 L80.5621778,73.7583302 L80.5621778,83.7583302 L84.5621778,83.7583302 L84.5621778,73.7583302 Z" id="Combined-Shape" stroke="#000000" stroke-width="2" stroke-linecap="round" stroke-linejoin="round" fill="#FFFFFF" transform="translate(82.562178, 70.758330) rotate(-30.000000) translate(-82.562178, -70.758330) "></path>
            <path d="M58,213.829003 C66.3440289,213.829003 73.6031124,209.1838 77.3322921,202.338352 C77.5402184,202.338353 63.2265625,191.829003 63.2265625,191.829003 C63.2265625,191.829003 77.5402184,181.710672 77.5402176,181.710672 C73.8774945,174.6517 66.5019479,169.829003 58,169.829003 C45.8497355,169.829003 36,179.678738 36,191.829003 C36,203.979267 45.8497355,213.829003 58,213.829003 Z" id="Oval-17" stroke="#000000" stroke-width="4" stroke-linecap="round" stroke-linejoin="round" fill="#FFFFFF"></path>
            <path d="M142.829003,206.487008 C148.453258,206.487008 153.346212,203.35593 155.859849,198.741786 C156,198.741786 146.351944,191.658005 146.351944,191.658005 C146.351944,191.658005 156,184.837789 156,184.837789 C153.531158,180.07972 148.559703,176.829003 142.829003,176.829003 C134.639171,176.829003 128,183.468173 128,191.658005 C128,199.847837 134.639171,206.487008 142.829003,206.487008 Z" id="Oval-17" stroke="#9B9B9B" stroke-width="4" stroke-linecap="round" stroke-linejoin="round" fill="#FFFFFF" transform="translate(142.000000, 191.658005) scale(-1, 1) translate(-142.000000, -191.658005) "></path>
            <path d="M103.658005,159.658005 C109.282261,159.658005 114.175214,156.526927 116.688851,151.912783 C116.829003,151.912783 107.180947,144.829003 107.180947,144.829003 C107.180947,144.829003 116.829003,138.008786 116.829003,138.008786 C114.36016,133.250718 109.388706,130 103.658005,130 C95.4681734,130 88.8290027,136.639171 88.8290027,144.829003 C88.8290027,153.018835 95.4681734,159.658005 103.658005,159.658005 Z" id="Oval-17" stroke="#9B9B9B" stroke-width="4" stroke-linecap="round" stroke-linejoin="round" fill="#FFFFFF" transform="translate(102.829003, 144.829003) scale(-1, 1) rotate(-270.000000) translate(-102.829003, -144.829003) "></path>
            <path d="M103.658005,253.658005 C109.282261,253.658005 114.175214,250.526927 116.688851,245.912783 C116.829003,245.912783 107.180947,238.829003 107.180947,238.829003 C107.180947,238.829003 116.829003,232.008786 116.829003,232.008786 C114.36016,227.250718 109.388706,224 103.658005,224 C95.4681734,224 88.8290027,230.639171 88.8290027,238.829003 C88.8290027,247.018835 95.4681734,253.658005 103.658005,253.658005 Z" id="Oval-17" stroke="#9B9B9B" stroke-width="4" stroke-linecap="round" stroke-linejoin="round" fill="#FFFFFF" transform="translate(102.829003, 238.829003) scale(-1, 1) rotate(-90.000000) translate(-102.829003, -238.829003) "></path>
            <g id="Wave" transform="translate(93.000000, 174.829003)" stroke="#000000" stroke-width="4" stroke-linecap="round" stroke-linejoin="round">
                <path d="M9.63951911,19.2012199 C8.16301241,16.687489 5.43112448,15 2.30510237,15 C-0.800346805,15 -3.51683248,16.6653507 -5,19.1516975" id="Oval-18" transform="translate(2.319760, 17.100610) rotate(-270.000000) translate(-2.319760, -17.100610) "></path>
                <path d="M26,21.470274 C22.6716994,15.8038911 16.513553,12 9.46696018,12 C2.46674234,12 -3.6566847,15.7539877 -7,21.358642" id="Oval-18" transform="translate(9.500000, 16.735137) rotate(-270.000000) translate(-9.500000, -16.735137) "></path>
            </g>
            <g id="Decoration" opacity="0.5" transform="translate(135.000000, 306.000000)" stroke-width="4" stroke-linecap="round" stroke-linejoin="round">
                <polygon id="Rectangle-26" stroke="#50E3C2" fill-opacity="0.25" fill="#50E3C2" points="9 35 27 35 27 53 18 44 9 53"></polygon>
                <circle id="Oval-16" stroke="#000000" fill="#FFFFFF" cx="18" cy="18" r="18"></circle>
            </g>
            <g id="Decoration" opacity="0.5" transform="translate(21.000000, 306.000000)" stroke-width="4" stroke-linecap="round" stroke-linejoin="round">
                <polygon id="Rectangle-26" stroke="#50E3C2" fill-opacity="0.25" fill="#50E3C2" points="9 35 27 35 27 53 18 44 9 53"></polygon>
                <circle id="Oval-16" stroke="#000000" fill="#FFFFFF" cx="18" cy="18" r="18"></circle>
            </g>
            <g id="Decoration" transform="translate(78.000000, 306.000000)" stroke-width="4" stroke-linecap="round" stroke-linejoin="round">
                <polygon id="Rectangle-26" stroke="#50E3C2" fill-opacity="0.25" fill="#50E3C2" points="9 35 27 35 27 53 18 44 9 53"></polygon>
                <circle id="Oval-16" stroke="#000000" fill="#FFFFFF" cx="18" cy="18" r="18"></circle>
            </g>
            <g id="Page-1" transform="translate(86.000000, 311.000000)" fill="#000000">
                <polygon id="Fill-1" points="8.17813636 9.20634916e-05 5.62495455 4.40394921 8.07859091 6.1333619 11.0899545 1.81788571"></polygon>
                <polygon id="Fill-2" points="11.7695455 2.60728413 9.11545455 6.77039524 11.3172727 8.26274444 14.4422727 4.69528413"></polygon>
                <polygon id="Fill-3" points="15.0581364 5.52132381 10.9835909 11.1592921 12.7376818 12.5204508 17.3399545 7.62957778"></polygon>
                <polygon id="Fill-4" points="13.7041364 13.1424778 15.2691364 14.7268905 19.8182273 11.0356048 17.8564091 8.69857302"></polygon>
                <polygon id="Fill-5" points="0 11.0366635 6.05772727 20.4736317 4.93272727 28.9770762 10.5077273 28.9770762 11.2281818 20.6913619 10.8059091 20.6913619 10.8059091 20.0036476 11.5445455 19.3679492 7.66181818 11.7147111 4.70727273 10.7176635 4.85863636 10.2955524 6.07954545 10.4948698 6.25272727 10.2320286 5.40909091 8.76407619 5.74909091 8.49294921 7.56727273 10.6789968 10.2377273 10.6214571 11.0331818 9.1254254 4.27181818 4.81040952"></polygon>
                <polygon id="Fill-6" points="8.811 11.9849635 13.0787273 20.0478841 13.0787273 20.6909476 12.3319091 20.6909476 11.5123636 28.965154 15.351 28.9384556 15.351 21.3478206 18.1473636 18.8934079 18.476 13.4989476 15.0673636 15.915154 12.7941818 13.3834079 9.06554545 11.7801222"></polygon>
            </g>
            <g id="Lock" transform="translate(80.000000, 422.000000)">
                <rect id="Rectangle-23" stroke="#000000" stroke-width="4" stroke-linecap="round" stroke-linejoin="round" x="0" y="23" width="34" height="34"></rect>
                <path d="M28,11 C28,4.92486775 23.0751322,0 17,0 C10.9248678,0 6,4.92486775 6,11" id="Oval-8" stroke="#000000" stroke-width="8" stroke-linecap="round" stroke-linejoin="round"></path>
                <path d="M6,11 L6,21" id="Line" stroke="#000000" stroke-width="8" stroke-linecap="round" stroke-linejoin="round"></path>
                <circle id="Oval-9" fill="#000000" cx="17.5" cy="37.5" r="5.5"></circle>
                <path d="M17.5,38 L17.5,47.0553856" id="Line" stroke="#000000" stroke-width="5" stroke-linecap="round" stroke-linejoin="round"></path>
            </g>
            <g id="Dialog-to-the-Right" opacity="0.25" transform="translate(3.000000, 387.000000)" stroke="#9B9B9B" stroke-linecap="round" stroke-linejoin="round">
                <path d="M15.9777657,24 L36,24 L36,0 L0,0 L0,24 L6,24 L6,33.7607422 L15.9777657,24 Z" id="Combined-Shape" stroke-width="4"></path>
                <path d="M7,6 L29,6" id="Line" stroke-width="2"></path>
                <path d="M7,12 L29.0227146,12" id="Line" stroke-width="2"></path>
                <path d="M7,18 L29.0227146,18" id="Line" stroke-width="2"></path>
            </g>
            <g id="Dialog-to-the-Left" opacity="0.25" transform="translate(24.000000, 419.000000)" stroke="#9B9B9B" stroke-linecap="round" stroke-linejoin="round">
                <path d="M15.9777657,24 L36,24 L36,0 L0,0 L0,24 L6,24 L6,33.7607422 L15.9777657,24 Z" id="Combined-Shape" stroke-width="4" transform="translate(18.000000, 16.880371) scale(-1, 1) translate(-18.000000, -16.880371) "></path>
                <path d="M7,6 L29,6" id="Line" stroke-width="2" transform="translate(18.000000, 6.000000) scale(-1, 1) translate(-18.000000, -6.000000) "></path>
                <path d="M6,12 L28.0227146,12" id="Line" stroke-width="2" transform="translate(17.500000, 12.000000) scale(-1, 1) translate(-17.500000, -12.000000) "></path>
                <path d="M6,18 L28.0227146,18" id="Line" stroke-width="2" transform="translate(17.500000, 18.000000) scale(-1, 1) translate(-17.500000, -18.000000) "></path>
            </g>
            <g id="Networked-Deliberation" opacity="0.25" transform="translate(128.000000, 388.000000)" stroke="#9B9B9B" stroke-linejoin="round">
                <circle id="Oval-10" stroke-width="4" stroke-linecap="round" cx="39" cy="23" r="6"></circle>
                <circle id="Oval-11" stroke-width="4" stroke-linecap="round" cx="57" cy="4" r="4"></circle>
                <circle id="Oval-12" stroke-width="4" stroke-linecap="round" cx="48" cy="46" r="4"></circle>
                <circle id="Oval-13" stroke-width="4" stroke-linecap="round" cx="8" cy="14" r="8"></circle>
                <path d="M16,16 L33,21" id="Line" stroke-width="2" stroke-linecap="square"></path>
                <path d="M44,18 L53,8" id="Line" stroke-width="2" stroke-linecap="square"></path>
                <path d="M41,29 L46,41" id="Line" stroke-width="2" stroke-linecap="square"></path>
            </g>
            <g id="Coin" opacity="0.25" transform="translate(18.000000, 483.000000)">
                <ellipse id="Oval-14" stroke="#9B9B9B" stroke-width="4" stroke-linecap="round" stroke-linejoin="round" cx="13.5" cy="13.5" rx="13.5" ry="13.5"></ellipse>
                <text id="W" font-family="CircularStd-Black, Circular Std" font-size="14" font-weight="700" fill="#9B9B9B">
                    <tspan x="6.227" y="19">W</tspan>
                </text>
                <path d="M5,12 L22,12" id="Line" stroke="#9B9B9B" stroke-width="2" stroke-linecap="square" stroke-linejoin="round"></path>
                <path d="M5,16 L22,16" id="Line" stroke="#9B9B9B" stroke-width="2" stroke-linecap="square" stroke-linejoin="round"></path>
            </g>
            <g id="Hierarchy" opacity="0.25" transform="translate(141.000000, 474.000000)" stroke="#9B9B9B" stroke-linejoin="round">
                <rect id="Rectangle-24" stroke-width="4" stroke-linecap="round" x="14" y="0" width="14" height="14"></rect>
                <rect id="Rectangle-24" stroke-width="4" stroke-linecap="round" x="0" y="22" width="14" height="14"></rect>
                <rect id="Rectangle-24" stroke-width="4" stroke-linecap="round" x="28" y="22" width="14" height="14"></rect>
                <path d="M14,14 L6.92893219,21.0710678" id="Line" stroke-width="2" stroke-linecap="square"></path>
                <path d="M36,14 L28.9289322,21.0710678" id="Line" stroke-width="2" stroke-linecap="square" transform="translate(32.000000, 18.000000) scale(-1, 1) translate(-32.000000, -18.000000) "></path>
            </g>
        </g>
    </g>
</svg>